<svg width="75" height="50" viewBox="0 0 75 50" fill="none" xmlns="http://www.w3.org/2000/svg">
<g id="Group 346">
<g id="Group 346_2">
<g id="Union">
<mask id="path-1-outside-1_306_69833" maskUnits="userSpaceOnUse" x="0" y="0" width="75" height="50" fill="black">
<rect fill="white" width="75" height="50"/>
<path fill-rule="evenodd" clip-rule="evenodd" d="M32.5919 23.9859C32.365 23.9795 29.8475 23.9055 26.5329 23.7003C30.0037 23.9148 32.5967 23.9855 32.5967 23.9855L32.5919 23.9859ZM24.1846 34.8047C24.8328 35.0897 25.5093 35.3217 26.1709 35.5106C26.1469 35.8594 26.1357 36.223 26.1357 36.6008C26.1357 38.8213 27.1805 40.4995 28.6292 41.5897C29.95 42.5837 31.5279 43.0441 32.7953 43.278C34.1061 43.52 35.3713 43.5698 36.2775 43.5655C36.7386 43.5633 37.1256 43.5469 37.4034 43.5306C37.5347 43.5229 37.6425 43.5151 37.7232 43.5087L59.4336 43.5087C64.8882 43.5087 69.3101 39.1137 69.3101 33.6922V21.9972C69.3101 16.5757 64.8882 12.1807 59.4336 12.1807L49.734 12.1807C49.4632 11.6317 49.1181 11.009 48.6913 10.3774C47.457 8.55049 45.0746 6 41.3161 6C39.1683 6 37.5339 6.99194 36.4736 8.38288C35.512 9.64429 35.0782 11.1431 34.8623 12.3299C34.7662 12.8582 34.7042 13.3781 34.6654 13.8662C34.2196 13.8671 33.733 13.8692 33.2119 13.873C30.5657 13.892 27.0167 13.9538 23.4319 14.1255C19.8705 14.296 16.1779 14.5792 13.283 15.0584C11.8543 15.2949 10.4734 15.6019 9.36106 16.0274C8.80889 16.2386 8.18802 16.529 7.63532 16.9465C7.09935 17.3514 6.36214 18.08 6.10074 19.2192C5.53529 21.6834 7.50096 23.0955 8.25171 23.5374C9.21425 24.1039 10.4345 24.4942 11.5979 24.7867C13.9971 25.3899 17.1559 25.8133 20.1925 26.1155C20.2941 26.1257 20.3958 26.1356 20.4974 26.1455C20.0137 26.9179 19.6838 27.8505 19.6838 28.9553C19.6838 32.3248 22.4587 34.0459 24.1846 34.8047Z"/>
</mask>
<path fill-rule="evenodd" clip-rule="evenodd" d="M32.5919 23.9859C32.365 23.9795 29.8475 23.9055 26.5329 23.7003C30.0037 23.9148 32.5967 23.9855 32.5967 23.9855L32.5919 23.9859ZM24.1846 34.8047C24.8328 35.0897 25.5093 35.3217 26.1709 35.5106C26.1469 35.8594 26.1357 36.223 26.1357 36.6008C26.1357 38.8213 27.1805 40.4995 28.6292 41.5897C29.95 42.5837 31.5279 43.0441 32.7953 43.278C34.1061 43.52 35.3713 43.5698 36.2775 43.5655C36.7386 43.5633 37.1256 43.5469 37.4034 43.5306C37.5347 43.5229 37.6425 43.5151 37.7232 43.5087L59.4336 43.5087C64.8882 43.5087 69.3101 39.1137 69.3101 33.6922V21.9972C69.3101 16.5757 64.8882 12.1807 59.4336 12.1807L49.734 12.1807C49.4632 11.6317 49.1181 11.009 48.6913 10.3774C47.457 8.55049 45.0746 6 41.3161 6C39.1683 6 37.5339 6.99194 36.4736 8.38288C35.512 9.64429 35.0782 11.1431 34.8623 12.3299C34.7662 12.8582 34.7042 13.3781 34.6654 13.8662C34.2196 13.8671 33.733 13.8692 33.2119 13.873C30.5657 13.892 27.0167 13.9538 23.4319 14.1255C19.8705 14.296 16.1779 14.5792 13.283 15.0584C11.8543 15.2949 10.4734 15.6019 9.36106 16.0274C8.80889 16.2386 8.18802 16.529 7.63532 16.9465C7.09935 17.3514 6.36214 18.08 6.10074 19.2192C5.53529 21.6834 7.50096 23.0955 8.25171 23.5374C9.21425 24.1039 10.4345 24.4942 11.5979 24.7867C13.9971 25.3899 17.1559 25.8133 20.1925 26.1155C20.2941 26.1257 20.3958 26.1356 20.4974 26.1455C20.0137 26.9179 19.6838 27.8505 19.6838 28.9553C19.6838 32.3248 22.4587 34.0459 24.1846 34.8047Z" fill="#D5EE3B"/>
<path d="M26.5329 23.7003L26.8733 18.1941C23.8325 18.0062 21.215 20.3188 21.0268 23.3596C20.8387 26.4004 23.1511 29.018 26.1919 29.2064L26.5329 23.7003ZM32.5919 23.9859L32.4356 29.5004C32.6679 29.507 32.9004 29.4989 33.1317 29.4761L32.5919 23.9859ZM32.5967 23.9855L33.1364 29.4757C36.0352 29.1907 38.2129 26.7012 38.1099 23.7904C38.0068 20.8795 35.6586 18.5502 32.747 18.4709L32.5967 23.9855ZM26.1709 35.5106L31.6745 35.8892C31.8533 33.2906 30.1901 30.9211 27.6854 30.206L26.1709 35.5106ZM24.1846 34.8047L21.9641 39.8548L21.9642 39.8548L24.1846 34.8047ZM28.6292 41.5897L31.9463 37.1818L31.9463 37.1818L28.6292 41.5897ZM32.7953 43.278L33.7967 37.853L33.7966 37.853L32.7953 43.278ZM36.2775 43.5655L36.3037 49.0821H36.3037L36.2775 43.5655ZM37.4034 43.5306L37.0794 38.0235H37.0794L37.4034 43.5306ZM37.7232 43.5087V37.992C37.5775 37.992 37.4319 37.9978 37.2866 38.0093L37.7232 43.5087ZM59.4336 43.5087V49.0253V43.5087ZM59.4336 12.1807V6.66406V12.1807ZM49.734 12.1807L44.7867 14.6214C45.7158 16.5049 47.6339 17.6974 49.734 17.6974V12.1807ZM48.6913 10.3774L53.2624 7.28883L53.2624 7.28883L48.6913 10.3774ZM36.4736 8.38288L32.0864 5.03839L32.0864 5.03839L36.4736 8.38288ZM34.8623 12.3299L40.2899 13.317L40.2899 13.317L34.8623 12.3299ZM34.6654 13.8662L34.6772 19.3828C37.5501 19.3766 39.9373 17.1667 40.1647 14.3029L34.6654 13.8662ZM33.2119 13.873L33.2517 19.3895H33.2517L33.2119 13.873ZM23.4319 14.1255L23.6958 19.6358L23.4319 14.1255ZM13.283 15.0584L12.3821 9.61585L12.3821 9.61585L13.283 15.0584ZM9.36106 16.0274L7.39006 10.8749L7.39005 10.8749L9.36106 16.0274ZM7.63532 16.9465L4.30996 12.5448L4.30996 12.5448L7.63532 16.9465ZM6.10074 19.2192L0.723835 17.9854L0.723834 17.9854L6.10074 19.2192ZM8.25171 23.5374L5.45359 28.2917L5.4536 28.2917L8.25171 23.5374ZM11.5979 24.7867L10.2528 30.1368L10.2528 30.1368L11.5979 24.7867ZM20.1925 26.1155L19.6462 31.6051L19.6462 31.6051L20.1925 26.1155ZM20.4974 26.1455L25.1728 29.0736C26.1872 27.454 26.291 25.4249 25.4474 23.7102C24.6038 21.9955 22.9329 20.8395 21.0308 20.6547L20.4974 26.1455ZM26.1919 29.2064C29.5892 29.4168 32.1727 29.4929 32.4356 29.5004L32.7483 18.4715C32.5572 18.4661 30.1058 18.3943 26.8739 18.1942L26.1919 29.2064ZM32.5967 23.9855C32.747 18.4709 32.7471 18.4709 32.7472 18.4709C32.7472 18.4709 32.7473 18.4709 32.7474 18.4709C32.7474 18.4709 32.7475 18.4709 32.7475 18.4709C32.7475 18.4709 32.7474 18.4709 32.7471 18.4709C32.7465 18.4709 32.7453 18.4708 32.7435 18.4708C32.7398 18.4707 32.7337 18.4705 32.7251 18.4703C32.7081 18.4698 32.6813 18.469 32.6454 18.4679C32.5735 18.4657 32.4647 18.4623 32.3223 18.4575C32.0375 18.448 31.6189 18.433 31.093 18.4113C30.0401 18.3681 28.563 18.2986 26.8733 18.1941L26.1926 29.2064C27.9737 29.3165 29.5285 29.3896 30.6397 29.4353C31.1959 29.4582 31.6424 29.4742 31.9523 29.4846C32.1072 29.4898 32.2281 29.4936 32.3116 29.4961C32.3533 29.4974 32.3857 29.4984 32.4083 29.499C32.4196 29.4993 32.4284 29.4996 32.4348 29.4998C32.438 29.4998 32.4405 29.4999 32.4425 29.5C32.4434 29.5 32.4442 29.5 32.4449 29.5C32.4452 29.5 32.4455 29.5001 32.4457 29.5001C32.4459 29.5001 32.446 29.5001 32.4461 29.5001C32.4462 29.5001 32.4464 29.5001 32.5967 23.9855ZM33.1317 29.4761L33.1364 29.4757L32.0569 18.4953L32.0522 18.4958L33.1317 29.4761ZM27.6854 30.206C27.2083 30.0697 26.776 29.9178 26.4051 29.7547L21.9642 39.8548C22.8896 40.2617 23.8103 40.5737 24.6563 40.8153L27.6854 30.206ZM31.6523 36.6008C31.6523 36.331 31.6604 36.095 31.6745 35.8892L20.6672 35.1321C20.6334 35.6239 20.619 36.1149 20.619 36.6008H31.6523ZM31.9463 37.1818C31.7985 37.0706 31.7369 36.9797 31.7121 36.933C31.699 36.9084 31.6866 36.8787 31.6762 36.8369C31.6659 36.7952 31.6523 36.72 31.6523 36.6008H20.619C20.619 40.7556 22.6473 43.9924 25.312 45.9977L31.9463 37.1818ZM33.7966 37.853C33.387 37.7774 33.0032 37.6784 32.6651 37.5519C32.3263 37.4252 32.0952 37.2938 31.9463 37.1818L25.312 45.9976C27.6127 47.729 30.1504 48.3997 31.794 48.703L33.7966 37.853ZM36.2514 38.0489C35.5442 38.0522 34.6505 38.0106 33.7967 37.853L31.794 48.703C33.5618 49.0294 35.1984 49.0873 36.3037 49.0821L36.2514 38.0489ZM37.0794 38.0235C36.8848 38.0349 36.5982 38.0472 36.2513 38.0489L36.3037 49.0821C36.879 49.0793 37.3665 49.0589 37.7273 49.0377L37.0794 38.0235ZM37.2866 38.0093C37.2411 38.013 37.1709 38.0181 37.0794 38.0235L37.7273 49.0377C37.8985 49.0276 38.044 49.0172 38.1598 49.008L37.2866 38.0093ZM59.4336 37.992L37.7232 37.992L37.7232 49.0253L59.4336 49.0253L59.4336 37.992ZM63.7934 33.6922C63.7934 36.0353 61.8732 37.992 59.4336 37.992V49.0253C67.9033 49.0253 74.8267 42.1921 74.8267 33.6922H63.7934ZM63.7934 21.9972V33.6922H74.8267V21.9972H63.7934ZM59.4336 17.6974C61.8732 17.6974 63.7934 19.6541 63.7934 21.9972H74.8267C74.8267 13.4973 67.9033 6.66407 59.4336 6.66406V17.6974ZM49.734 17.6974L59.4336 17.6974V6.66406L49.734 6.66406V17.6974ZM44.1203 13.4659C44.381 13.8517 44.6037 14.2504 44.7867 14.6214L54.6814 9.74002C54.3227 9.01291 53.8552 8.16629 53.2624 7.28883L44.1203 13.4659ZM41.3161 11.5166C41.8629 11.5166 42.304 11.6805 42.7566 12.0018C43.2646 12.3625 43.7341 12.8944 44.1203 13.4659L53.2624 7.28883C51.6756 4.94035 47.8488 0.483356 41.3161 0.483356V11.5166ZM40.8608 11.7274C40.9458 11.616 41.0103 11.5757 41.0362 11.5622C41.0508 11.5546 41.0717 11.5455 41.1059 11.5372C41.14 11.5289 41.2068 11.5166 41.3161 11.5166V0.483356C37.2813 0.483356 34.0854 2.41606 32.0864 5.03839L40.8608 11.7274ZM40.2899 13.317C40.3562 12.9524 40.443 12.6161 40.5528 12.3238C40.6625 12.0316 40.7733 11.8422 40.8608 11.7274L32.0864 5.03839C30.3687 7.29165 29.7212 9.76769 29.4347 11.3428L40.2899 13.317ZM40.1647 14.3029C40.1914 13.9666 40.2324 13.6335 40.2899 13.317L29.4347 11.3427C29.3001 12.0829 29.2169 12.7895 29.1661 13.4295L40.1647 14.3029ZM33.2517 19.3895C33.7628 19.3858 34.2402 19.3837 34.6772 19.3828L34.6536 8.34954C34.1991 8.35051 33.7031 8.35266 33.1722 8.35648L33.2517 19.3895ZM23.6958 19.6358C27.1796 19.4689 30.6482 19.4082 33.2517 19.3895L33.1722 8.35648C30.4832 8.37585 26.8537 8.43861 23.168 8.61514L23.6958 19.6358ZM14.1839 20.501C16.7558 20.0753 20.1919 19.8036 23.6958 19.6358L23.168 8.61514C19.5491 8.78847 15.5999 9.0832 12.3821 9.61585L14.1839 20.501ZM11.3321 21.1799C11.929 20.9516 12.8829 20.7164 14.1839 20.501L12.3821 9.61585C10.8258 9.87347 9.01786 10.2522 7.39006 10.8749L11.3321 21.1799ZM10.9607 21.3482C10.9388 21.3648 10.9545 21.35 11.0257 21.3133C11.0961 21.277 11.1956 21.2321 11.3321 21.1799L7.39005 10.8749C6.58594 11.1825 5.43689 11.6934 4.30996 12.5448L10.9607 21.3482ZM11.4777 20.4529C11.408 20.7565 11.2746 20.9905 11.1637 21.137C11.0637 21.269 10.9814 21.3326 10.9607 21.3482L4.30996 12.5448C3.24205 13.3515 1.39057 15.0797 0.723835 17.9854L11.4777 20.4529ZM11.0498 18.783C11.0553 18.7862 11.0539 18.7856 11.0489 18.7822C11.0436 18.7785 11.0405 18.776 11.0407 18.7762C11.0412 18.7766 11.0437 18.7787 11.0481 18.7828C11.0526 18.7869 11.0598 18.7938 11.0695 18.8039C11.0879 18.8231 11.1215 18.8602 11.163 18.918C11.2469 19.0347 11.3791 19.2591 11.4573 19.585C11.5409 19.9336 11.5252 20.2459 11.4777 20.4529L0.723834 17.9854C0.023375 21.038 0.942937 23.6023 2.2023 25.3554C3.34982 26.9527 4.75975 27.8834 5.45359 28.2917L11.0498 18.783ZM12.943 19.4365C11.9204 19.1794 11.3185 18.9411 11.0498 18.783L5.4536 28.2917C7.11001 29.2666 8.94847 29.8089 10.2528 30.1368L12.943 19.4365ZM20.7388 20.626C17.7594 20.3295 14.9324 19.9367 12.943 19.4365L10.2528 30.1368C13.0617 30.843 16.5523 31.2972 19.6462 31.6051L20.7388 20.626ZM21.0308 20.6547C20.9334 20.6453 20.836 20.6357 20.7387 20.626L19.6462 31.6051C19.7522 31.6156 19.8582 31.626 19.964 31.6363L21.0308 20.6547ZM25.2005 28.9553C25.2005 28.9548 25.2004 28.9647 25.1977 28.9825C25.1951 29.0001 25.1908 29.0192 25.1851 29.0378C25.1732 29.0768 25.1626 29.0899 25.1728 29.0736L15.822 23.2174C14.8587 24.7555 14.1672 26.6902 14.1672 28.9553H25.2005ZM26.4051 29.7547C26.1718 29.6521 25.9347 29.5304 25.7198 29.3933C25.5023 29.2546 25.3548 29.1303 25.2646 29.0364C25.1795 28.9479 25.1734 28.9162 25.1869 28.9465C25.2074 28.9928 25.2005 29.0147 25.2005 28.9553H14.1672C14.1672 35.9128 19.9475 38.9681 21.9641 39.8548L26.4051 29.7547Z" fill="white" mask="url(#path-1-outside-1_306_69833)"/>
</g>
<path id="Vector 371" d="M47.7883 15.0777L59.46 15.0777C63.3039 15.0777 66.42 18.1742 66.42 21.9939L66.42 33.7028C66.42 37.5225 63.3039 40.6189 59.46 40.6189L37.5925 40.6189C37.5925 40.6189 29.0451 41.4684 29.0451 36.6149C29.0451 34.5113 29.458 33.6385 29.9258 33.3249C27.5028 33.003 22.5841 31.9781 22.5841 28.9602C22.5841 24.9561 32.5967 23.9854 32.5967 23.9854C32.5967 23.9854 8.11453 23.3181 8.90821 19.86C9.7019 16.4019 37.5925 16.7764 37.5925 16.7764C37.5925 16.7764 36.7377 8.88965 41.3167 8.88965C45.8956 8.88965 47.7883 15.0777 47.7883 15.0777Z" fill="url(#paint0_linear_306_69833)"/>
<path id="Vector 371 (Stroke)" fill-rule="evenodd" clip-rule="evenodd" d="M29.9416 33.3147C29.3622 33.2377 28.64 33.1205 27.8764 32.9453C27.531 32.866 27.1771 32.7749 26.8242 32.6703C24.6996 32.0404 22.6103 30.9212 22.6103 28.9553C22.6103 27.939 23.2559 27.1184 24.2189 26.4596C27.046 24.5258 32.6087 23.9864 32.6087 23.9864C32.6087 23.9864 28.3857 23.8713 23.5069 23.4887C16.6471 22.9509 8.49081 21.8844 8.95396 19.8659C9.0801 19.3162 9.89159 18.8635 11.1671 18.4907C11.1533 18.4817 11.1474 18.4771 11.148 18.4771C11.1487 18.4771 11.1558 18.4815 11.168 18.4905C16.2942 16.9929 28.9113 16.7874 34.6592 16.7748C36.4686 16.7708 37.5973 16.786 37.5973 16.786C37.5973 16.786 37.4525 15.4493 37.6018 13.8772C37.8148 11.6328 38.6273 8.90859 41.3162 8.90859C45.8887 8.90859 47.7786 15.0893 47.7786 15.0893L59.4337 15.0893C63.2721 15.0893 66.3838 18.1821 66.3838 21.9972L66.3838 33.6922C66.3838 37.5073 63.2721 40.6001 59.4337 40.6001L37.5973 40.6001C37.5973 40.6001 29.0621 41.4485 29.0621 36.6008C29.0621 36.4361 29.0647 36.2789 29.0696 36.129C29.0886 35.5447 29.1436 35.0703 29.2242 34.6866C29.3868 33.9127 29.6538 33.5077 29.9416 33.3147ZM26.171 35.5106C25.5094 35.3217 24.8329 35.0897 24.1847 34.8047C22.4588 34.0459 19.684 32.3248 19.684 28.9553C19.684 27.8505 20.0138 26.9179 20.4975 26.1455C20.3959 26.1356 20.2942 26.1257 20.1926 26.1155C17.156 25.8133 13.9972 25.3899 11.598 24.7867C10.4346 24.4942 9.21437 24.1039 8.25183 23.5374C7.50108 23.0955 5.53541 21.6834 6.10086 19.2192C6.36226 18.08 7.09947 17.3514 7.63544 16.9465C8.18814 16.529 8.80901 16.2386 9.36118 16.0274C10.4735 15.6019 11.8545 15.2949 13.2831 15.0584C16.178 14.5792 19.8706 14.296 23.432 14.1255C27.0168 13.9538 30.5658 13.892 33.2121 13.873C33.7331 13.8692 34.2198 13.8671 34.6655 13.8662C34.7043 13.3781 34.7663 12.8582 34.8624 12.3299C35.0783 11.1431 35.5121 9.64429 36.4737 8.38288C37.5341 6.99194 39.1684 6 41.3162 6C45.0747 6 47.4571 8.55049 48.6915 10.3774C49.1182 11.009 49.4633 11.6317 49.7342 12.1807L59.4337 12.1807C64.8883 12.1807 69.3102 16.5757 69.3102 21.9972L69.3102 33.6922C69.3102 39.1137 64.8883 43.5087 59.4337 43.5087L37.7233 43.5087C37.6426 43.5151 37.5348 43.5229 37.4035 43.5306C37.1257 43.5469 36.7387 43.5633 36.2777 43.5655C35.3714 43.5698 34.1063 43.52 32.7954 43.278C31.528 43.0441 29.9501 42.5837 28.6293 41.5897C27.1806 40.4995 26.1358 38.8213 26.1358 36.6008C26.1358 36.223 26.147 35.8594 26.171 35.5106Z" fill="black"/>
<path id="Vector 372 (Stroke)" fill-rule="evenodd" clip-rule="evenodd" d="M53.5426 26.5529C53.4807 27.186 52.9132 27.6495 52.2752 27.5881C51.2283 27.4872 50.0836 27.4455 49.1072 27.514C48.6186 27.5482 48.1991 27.6083 47.8675 27.6914C47.6846 27.7373 47.5521 27.7845 47.4597 27.8251C47.4942 27.879 47.5422 27.9466 47.6092 28.0285C48.1255 28.6596 49.3314 29.6221 51.6652 30.9687C52.116 31.2289 52.3367 31.7555 52.2046 32.2562C52.0725 32.7569 51.62 33.1086 51.0985 33.1161C49.8286 33.1344 48.4502 33.2117 47.2944 33.367C46.7986 33.4336 46.3613 33.5122 46.0003 33.6012C46.9322 34.0934 48.6245 34.7345 51.4025 35.5272C52.0186 35.703 52.3744 36.3411 52.1972 36.9525C52.02 37.5638 51.377 37.9169 50.7609 37.7411C47.6398 36.8504 45.6246 36.0844 44.4901 35.3983C43.9634 35.0797 43.3918 34.6442 43.1527 34.0265C43.0133 33.6664 42.9957 33.2634 43.1437 32.8749C43.2809 32.5147 43.5244 32.2608 43.7411 32.0906C44.1549 31.7657 44.7035 31.5653 45.2032 31.4275C45.7328 31.2814 46.3451 31.1699 46.983 31.0842C47.15 31.0618 47.3204 31.0409 47.4934 31.0215C46.7522 30.4652 46.1944 29.9542 45.8067 29.4802C45.407 28.9915 45.0793 28.412 45.0563 27.7634C45.0305 27.0358 45.392 26.4755 45.8552 26.1102C46.2796 25.7755 46.8079 25.5812 47.2987 25.4581C47.8062 25.3308 48.3713 25.2562 48.9436 25.2161C50.0888 25.1358 51.3703 25.1865 52.4994 25.2952C53.1374 25.3567 53.6045 25.9197 53.5426 26.5529ZM45.1817 33.897C45.1819 33.8969 45.182 33.8968 45.1822 33.8966C45.1806 33.8979 45.1804 33.898 45.1817 33.897Z" fill="#D5EE3B"/>
<path id="Vector 373 (Stroke)" fill-rule="evenodd" clip-rule="evenodd" d="M62.5805 31.445C62.6237 30.8075 62.1419 30.2556 61.5044 30.2124C60.458 30.1414 59.3249 29.9962 58.3753 29.7697C57.9001 29.6564 57.4969 29.5288 57.1839 29.3926C57.0149 29.3191 56.8937 29.2522 56.8095 29.1977C56.8513 29.1517 56.9074 29.0956 56.9824 29.0295C57.5927 28.4914 58.9357 27.7385 61.4513 26.7901C61.9382 26.6065 62.2426 26.1205 62.1953 25.6023C62.148 25.0841 61.7606 24.6612 61.2485 24.5689C60.0022 24.3441 58.6588 24.0435 57.5469 23.7022C57.0765 23.5578 56.6639 23.411 56.3256 23.2663C57.3259 22.9341 59.0916 22.5794 61.9376 22.2515C62.5723 22.1783 63.0276 21.6044 62.9545 20.9697C62.8814 20.3349 62.3075 19.8796 61.6727 19.9527C58.4576 20.3231 56.3508 20.7506 55.1233 21.2425C54.5541 21.4706 53.9194 21.8072 53.5822 22.3797C53.3851 22.7142 53.3014 23.1116 53.3841 23.5216C53.4607 23.9012 53.6596 24.1919 53.8448 24.3949C54.1987 24.7826 54.7053 25.0692 55.1739 25.2863C55.6707 25.5165 56.2545 25.726 56.8679 25.9143C57.0247 25.9624 57.1849 26.0096 57.3478 26.0558C56.5354 26.481 55.9082 26.8917 55.4521 27.2937C54.9793 27.7106 54.5604 28.2304 54.4313 28.8698C54.2862 29.5878 54.5525 30.2015 54.9483 30.637C55.3111 31.0361 55.7987 31.3135 56.2609 31.5145C56.739 31.7225 57.2823 31.8879 57.8384 32.0206C58.9513 32.286 60.2197 32.4445 61.3478 32.5211C61.9854 32.5643 62.5372 32.0825 62.5805 31.445ZM55.5539 22.8349C55.554 22.8351 55.5542 22.8352 55.5543 22.8354C55.5529 22.8337 55.5527 22.8336 55.5539 22.8349Z" fill="#D5EE3B"/>
</g>
</g>
<defs>
<linearGradient id="paint0_linear_306_69833" x1="76.6663" y1="22.5323" x2="19.704" y2="22.5322" gradientUnits="userSpaceOnUse">
<stop offset="0.33" stop-color="#FFB763"/>
<stop offset="0.85" stop-color="#A0E548"/>
</linearGradient>
</defs>
</svg>
