<svg width="82" height="69" viewBox="0 0 82 69" fill="none" xmlns="http://www.w3.org/2000/svg">
<path fill-rule="evenodd" clip-rule="evenodd" d="M34.6933 38.5493C29.6026 38.9735 18.2151 36.834 13.39 24.882C13.39 19.2602 19.7349 20.8427 22.9073 22.3367C20.4727 19.3856 17.0641 12.587 22.9073 9.00139C30.2113 4.5194 38.8433 11.2147 38.1793 15.9734C39.9684 11.3254 45.0738 3.4238 51.1826 9.00139C58.8186 15.9734 55.0559 22.3367 53.1193 24.882C55.4248 24.1258 59.9806 23.9524 59.7592 29.3086C59.5379 34.6649 47.8257 37.7009 41.9973 38.5493L44.3647 42.3856H56.6606H57.4352H73.1499C73.9444 42.3856 74.5885 43.0297 74.5885 43.8243V60.3136C74.5885 61.1081 73.9444 61.7522 73.1499 61.7522H57.4352H56.6606H42.4953C42.4169 61.7522 42.34 61.746 42.2651 61.7339H26.7253L30.8753 55.7026H26.7253L34.6933 38.5493ZM7.08203 43.8243C7.08203 43.0297 7.72614 42.3856 8.52069 42.3856H25.01C25.8045 42.3856 26.4487 43.0297 26.4487 43.8243V60.3136C26.4487 61.1081 25.8045 61.7522 25.01 61.7522H8.52069C7.72614 61.7522 7.08203 61.1081 7.08203 60.3136V43.8243Z" fill="black"/>
<path fill-rule="evenodd" clip-rule="evenodd" d="M6.36796 26.3205V24.9415C6.36796 22.1735 7.18872 19.1444 9.59706 16.8342C10.5723 15.8986 11.6338 15.2502 12.684 14.8047C12.6549 13.1796 12.891 11.4124 13.5892 9.62768C14.6727 6.85806 16.6562 4.5978 19.3095 2.9715C25.6781 -0.931989 32.5116 0.192988 37.2168 2.88015C37.5877 3.09194 37.9521 3.31671 38.3089 3.5538C38.4508 3.42928 38.5949 3.30693 38.7411 3.18696C40.6553 1.61652 43.4143 0.0763601 46.8789 0.00274525C50.4787 -0.0737429 53.646 1.45456 56.1955 3.77971C61.4169 8.54154 63.4949 13.9498 63.0612 19.227C63.0444 19.431 63.024 19.6329 63.0003 19.8324C63.9391 20.5731 64.7982 21.5129 65.4943 22.6801C66.8147 24.8939 67.2079 27.3515 67.1119 29.6719C67.0177 31.9487 66.2444 33.8511 65.2312 35.3875H73.4484C78.1713 35.3875 82 39.2118 82 43.9293V60.4582C82 65.1757 78.1713 69 73.4484 69H42.6847C42.4969 69 42.3097 68.9938 42.1234 68.9816H25.7024C25.5155 68.9938 25.3271 69 25.1371 69H4.05351C-0.669437 69 0.0375284 65.1757 0.0375284 60.4582V43.9293C0.0375284 39.2118 3.86623 35.3875 8.58917 35.3875H11.4445C9.68084 33.2298 8.12056 30.6568 6.88479 27.5993L6.36796 26.3205ZM22.134 35.3875C23.1257 35.9977 24.1346 36.5064 25.1371 36.9268C25.9099 37.251 26.6789 37.5227 27.4332 37.748C28.9917 38.2137 30.4876 38.4816 31.8252 38.6057C32.5566 38.6735 33.2407 38.6984 33.8618 38.689C33.8893 38.6886 33.9167 38.6881 33.9439 38.6876C34.0375 38.6857 34.1297 38.683 34.2203 38.6796C34.4412 38.6713 34.653 38.6585 34.8549 38.6417L26.8586 55.8361H31.0233L26.8586 61.882H42.4536C42.5289 61.894 42.606 61.9003 42.6847 61.9003H73.4484C74.2457 61.9003 74.8922 61.2547 74.8922 60.4582V43.9293C74.8922 43.1328 74.2457 42.4872 73.4484 42.4872H44.5607L42.1849 38.6417C42.3617 38.616 42.5438 38.5883 42.7309 38.5585C43.2999 38.4682 43.9143 38.3592 44.5607 38.2316C46.0963 37.9285 47.8119 37.52 49.5259 37.0047C51.0408 36.5494 52.5545 36.0106 53.9416 35.3875C57.2937 33.8816 59.9065 31.8832 60.0101 29.3788C60.0324 28.8391 60.0063 28.3555 59.9389 27.9228C59.3359 24.0505 55.4277 24.2597 53.3465 24.9415C54.4534 23.4884 56.1547 20.7938 55.9986 17.452C55.8806 14.9264 54.7016 12.0311 51.4029 9.02272C48.3825 6.26814 45.6065 6.79329 43.3526 8.59227C41.0316 10.4447 39.2642 13.6478 38.3533 16.0115C38.6815 13.6622 36.7469 10.8421 33.8231 9.12139C30.8102 7.34828 26.747 6.74262 23.027 9.02272C20.8278 10.3707 19.9345 12.1716 19.8058 14.0522C19.5913 17.1861 21.5 20.5413 23.027 22.3901C20.6147 21.2553 16.3746 20.0697 14.4614 22.0131C13.8496 22.6346 13.4758 23.5761 13.4758 24.9415C15.5151 29.9871 18.7225 33.2882 22.134 35.3875ZM25.1371 61.9003C25.5591 61.9003 25.9388 61.7195 26.2028 61.4312C26.4376 61.1748 26.5809 60.8332 26.5809 60.4582V43.9293C26.5809 43.1633 25.983 42.5368 25.228 42.49C25.1979 42.4881 25.1676 42.4872 25.1371 42.4872H8.58917C7.79179 42.4872 7.14538 43.1328 7.14538 43.9293V60.4582C7.14538 61.2547 7.79179 61.9003 8.58917 61.9003H25.1371Z" fill="#B8E501"/>
<path d="M55.2227 43.8239C55.2227 43.0294 55.8668 42.3853 56.6613 42.3853H73.1506C73.9452 42.3853 74.5893 43.0294 74.5893 43.8239V60.3132C74.5893 61.1078 73.9452 61.7519 73.1506 61.7519H56.6613C55.8668 61.7519 55.2227 61.1078 55.2227 60.3132V43.8239Z" fill="#CF8835"/>
<path d="M55.2227 43.8239C55.2227 43.0294 55.8668 42.3853 56.6613 42.3853H73.1506C73.9452 42.3853 74.5893 43.0294 74.5893 43.8239V60.3132C74.5893 61.1078 73.9452 61.7519 73.1506 61.7519H56.6613C55.8668 61.7519 55.2227 61.1078 55.2227 60.3132V43.8239Z" fill="url(#paint0_linear_61_702)"/>
<path fill-rule="evenodd" clip-rule="evenodd" d="M56.6598 40.1719H73.1491C75.166 40.1719 76.8011 41.8069 76.8011 43.8239V60.3132C76.8011 62.3301 75.166 63.9652 73.1491 63.9652H56.6598C54.6429 63.9652 53.0078 62.3301 53.0078 60.3132V43.8239C53.0078 41.8069 54.6429 40.1719 56.6598 40.1719ZM56.6598 42.3852C55.8653 42.3852 55.2211 43.0293 55.2211 43.8239V60.3132C55.2211 61.1077 55.8653 61.7518 56.6598 61.7518H73.1491C73.9437 61.7518 74.5878 61.1077 74.5878 60.3132V43.8239C74.5878 43.0293 73.9437 42.3852 73.1491 42.3852H56.6598Z" fill="black"/>
<path d="M41.0586 43.8239C41.0586 43.0294 41.7027 42.3853 42.4973 42.3853H57.4372C58.2318 42.3853 58.8759 43.0294 58.8759 43.8239V60.3132C58.8759 61.1078 58.2318 61.7519 57.4372 61.7519H42.4973C41.7027 61.7519 41.0586 61.1078 41.0586 60.3132V43.8239Z" fill="#CF8835"/>
<path d="M41.0586 43.8239C41.0586 43.0294 41.7027 42.3853 42.4973 42.3853H57.4372C58.2318 42.3853 58.8759 43.0294 58.8759 43.8239V60.3132C58.8759 61.1078 58.2318 61.7519 57.4372 61.7519H42.4973C41.7027 61.7519 41.0586 61.1078 41.0586 60.3132V43.8239Z" fill="url(#paint1_linear_61_702)"/>
<path fill-rule="evenodd" clip-rule="evenodd" d="M42.4957 40.1719H57.4357C59.4527 40.1719 61.0877 41.8069 61.0877 43.8239V60.3132C61.0877 62.3301 59.4526 63.9652 57.4357 63.9652H42.4957C40.4788 63.9652 38.8438 62.3301 38.8438 60.3132V43.8239C38.8438 41.8069 40.4788 40.1719 42.4957 40.1719ZM42.4957 42.3852C41.7012 42.3852 41.0571 43.0293 41.0571 43.8239V60.3132C41.0571 61.1077 41.7012 61.7518 42.4957 61.7518H57.4357C58.2303 61.7518 58.8744 61.1077 58.8744 60.3132V43.8239C58.8744 43.0293 58.2303 42.3852 57.4357 42.3852H42.4957Z" fill="black"/>
<path d="M7.08203 43.8239C7.08203 43.0294 7.72614 42.3853 8.52069 42.3853H25.01C25.8045 42.3853 26.4487 43.0294 26.4487 43.8239V60.3132C26.4487 61.1078 25.8045 61.7519 25.01 61.7519H8.52069C7.72614 61.7519 7.08203 61.1078 7.08203 60.3132V43.8239Z" fill="#CF8835"/>
<path d="M7.08203 43.8239C7.08203 43.0294 7.72614 42.3853 8.52069 42.3853H25.01C25.8045 42.3853 26.4487 43.0294 26.4487 43.8239V60.3132C26.4487 61.1078 25.8045 61.7519 25.01 61.7519H8.52069C7.72614 61.7519 7.08203 61.1078 7.08203 60.3132V43.8239Z" fill="url(#paint2_linear_61_702)"/>
<path fill-rule="evenodd" clip-rule="evenodd" d="M8.52309 40.1719H25.0124C27.0293 40.1719 28.6644 41.8069 28.6644 43.8239V60.3132C28.6644 62.3301 27.0293 63.9652 25.0124 63.9652H8.52309C6.50614 63.9652 4.87109 62.3301 4.87109 60.3132V43.8239C4.87109 41.8069 6.50615 40.1719 8.52309 40.1719ZM8.52309 42.3852C7.72853 42.3852 7.08442 43.0293 7.08442 43.8239V60.3132C7.08442 61.1077 7.72853 61.7518 8.52309 61.7518H25.0124C25.8069 61.7518 26.451 61.1077 26.451 60.3132V43.8239C26.451 43.0293 25.8069 42.3852 25.0124 42.3852H8.52309Z" fill="black"/>
<path d="M13.3906 24.882C18.2157 36.834 29.6033 38.9735 34.6939 38.5493L26.7259 55.7026H30.8759L26.7259 61.7339H53.1199L47.0886 55.7026L51.1832 53.4339L41.9979 38.5493C47.8263 37.7009 59.5385 34.6649 59.7599 29.3086C59.9812 23.9524 55.4254 24.1258 53.1199 24.882C55.0565 22.3367 58.8192 15.9734 51.1832 9.00139C45.0744 3.4238 39.969 11.3254 38.1799 15.9734C38.8439 11.2147 30.2119 4.5194 22.9079 9.00139C17.0648 12.587 20.4733 19.3856 22.9079 22.3367C19.7355 20.8427 13.3906 19.2602 13.3906 24.882Z" fill="url(#paint3_linear_61_702)"/>
<path fill-rule="evenodd" clip-rule="evenodd" d="M34.6924 38.5488C33.987 38.6076 33.1606 38.6171 32.2476 38.5582C26.5717 38.1916 17.5455 35.1772 13.3891 24.8815C13.3891 20.9544 16.4852 20.5427 19.4333 21.1607C20.7055 21.4274 21.9501 21.8858 22.9064 22.3362C22.2499 21.5404 21.5227 20.465 20.925 19.2482C19.3063 15.9523 18.6388 11.6196 22.9064 9.00087C28.5421 5.54262 34.9683 8.73874 37.305 12.5652C37.9967 13.6979 38.3301 14.8859 38.1784 15.9728C38.5718 14.9507 39.1256 13.7713 39.8152 12.6125C42.2614 8.50152 46.4162 4.64981 51.1817 9.00087C56.9133 14.2341 56.2228 19.1244 54.7029 22.3146C54.1979 23.3745 53.6013 24.2467 53.1184 24.8815C53.918 24.6192 54.9885 24.427 56.0363 24.5114C58.0096 24.6702 59.9029 25.8097 59.7583 29.3081C59.5639 34.0145 50.4979 36.9294 44.3469 38.1431C43.4974 38.3107 42.7036 38.4458 41.9964 38.5488L51.1817 53.4334L47.087 55.7021L53.1184 61.7334H26.7244L30.8744 55.7021H26.7244L34.6924 38.5488ZM26.6654 57.9146C25.9321 57.8951 25.2545 57.5131 24.8586 56.8927C24.452 56.2555 24.3987 55.455 24.7171 54.7696L31.2566 40.6915C24.9529 40.0412 15.7032 36.5261 11.3367 25.7101C11.2304 25.4467 11.1758 25.1654 11.1758 24.8815C11.1758 23.0523 11.704 21.4513 12.897 20.3056C14.0527 19.1957 15.5267 18.8099 16.824 18.7311C17.3103 18.7016 17.8059 18.7128 18.3016 18.756C18.0028 17.9616 17.7642 17.1283 17.62 16.2759C17.3585 14.7313 17.3917 13.029 18.0374 11.3766C18.6939 9.69664 19.9183 8.23767 21.7488 7.1144C26.2427 4.3568 31.1096 5.08792 34.629 7.10018C36.1811 7.98762 37.5379 9.15618 38.5486 10.4732C39.4187 9.17223 40.4588 7.9247 41.6554 6.9419C43.0295 5.81322 44.7596 4.91366 46.7773 4.87074C48.8371 4.82692 50.8302 5.68284 52.6741 7.36635C56.9248 11.2475 58.2376 15.2255 57.9457 18.7823C57.8355 20.1245 57.501 21.3473 57.0711 22.4217C57.4407 22.4939 57.8097 22.5959 58.172 22.7336C59.2722 23.1515 60.3183 23.9063 61.0399 25.1177C61.7481 26.3063 62.0377 27.7555 61.9698 29.3995C61.8792 31.5915 60.6164 33.3093 59.1538 34.5693C57.6839 35.8355 55.7782 36.851 53.831 37.6621C51.1592 38.7749 48.174 39.5982 45.5845 40.1487L53.0652 52.271C53.383 52.7859 53.4761 53.4085 53.3229 53.9938C53.1697 54.5791 52.7836 55.0762 52.2544 55.3694L50.7294 56.2143L54.6834 60.1683C55.3164 60.8013 55.5058 61.7533 55.1632 62.5804C54.8206 63.4074 54.0136 63.9467 53.1184 63.9467H26.7244C25.9023 63.9467 25.148 63.4911 24.7654 62.7634C24.3828 62.0358 24.435 61.156 24.901 60.4788L26.6654 57.9146Z" fill="black"/>
<path d="M28.4727 25.4882C26.8976 30.5432 32.9686 34.1786 37.8691 35.9931C39.7204 36.6786 41.7546 36.8712 43.4936 35.9369C46.8958 34.109 51.2041 29.8922 48.3373 25.4882C45.2829 20.7959 40.9042 23.5331 39.0967 25.4882C36.3485 22.9429 30.3762 19.3794 28.4727 25.4882Z" fill="url(#paint4_linear_61_702)"/>
<path fill-rule="evenodd" clip-rule="evenodd" d="M29.849 32.9357C27.7206 30.9898 26.2039 28.3132 27.2074 25.0928C27.7524 23.3437 28.6545 22.0899 29.9052 21.3928C31.1451 20.7017 32.5117 20.6785 33.7492 20.9442C35.6946 21.3619 37.6242 22.5537 39.0561 23.7004C40.0766 22.8416 41.4522 22.0023 42.9903 21.6931C44.058 21.4786 45.2285 21.5165 46.3854 22.0131C47.5407 22.509 48.5761 23.4165 49.4528 24.7634C51.2346 27.5006 50.7416 30.2243 49.3955 32.3813C48.0914 34.4711 45.9564 36.1223 44.1246 37.1064C41.9157 38.2931 39.4455 37.9916 37.4105 37.2381C34.8885 36.3043 31.964 34.8691 29.849 32.9357ZM39.1087 25.4776C40.922 23.5232 45.2908 20.8038 48.3399 25.4879C51.2066 29.8919 46.8983 34.1087 43.4961 35.9365C41.7571 36.8708 39.7229 36.6782 37.8716 35.9928C32.9711 34.1783 26.9001 30.5429 28.4752 25.4879C30.3743 19.3931 36.3236 22.9262 39.0802 25.4703C39.0866 25.4762 39.0929 25.482 39.0992 25.4879C39.1024 25.4845 39.1055 25.4811 39.1087 25.4776Z" fill="black"/>
<path d="M44.8131 29.8078L44.8131 29.8079C44.7707 30.2432 44.4078 30.4737 44.0534 30.5136C43.7003 30.5533 43.2873 30.4151 43.0913 30.0454C42.949 29.7769 42.8534 29.4785 42.8536 29.1533L44.8131 29.8078ZM44.8131 29.8078C44.8298 29.6357 44.7946 29.4661 44.755 29.3179C44.739 29.2581 44.7231 29.2038 44.708 29.1526C44.6845 29.0726 44.6632 29 44.6472 28.9251M44.8131 29.8078L44.6472 28.9251M44.6472 28.9251C44.6458 28.9113 44.6426 28.8971 44.6376 28.8827C44.603 28.7842 44.5308 28.6958 44.4548 28.6237C44.3759 28.549 44.2794 28.4791 44.1775 28.42C43.9813 28.3061 43.7295 28.2119 43.5172 28.2297L44.6472 28.9251ZM43.0019 28.5865C43.1028 28.4111 43.2716 28.2502 43.5171 28.2297L43.0019 28.5865ZM43.0019 28.5865C42.9015 28.7612 42.8538 28.9721 42.8536 29.1532L43.0019 28.5865ZM44.5137 29.1106C44.5137 29.1107 44.5138 29.1108 44.5138 29.111C44.5467 29.1029 44.576 29.0854 44.5988 29.0616C44.5755 29.0852 44.5458 29.1024 44.5137 29.1106Z" fill="black" stroke="black" stroke-width="0.35"/>
<path fill-rule="evenodd" clip-rule="evenodd" d="M44.6404 29.7908C44.5767 30.4441 43.5548 30.5433 43.2474 29.9633C43.1149 29.7134 43.0299 29.4432 43.0301 29.1532C43.0303 28.8451 43.1955 28.4321 43.5332 28.4039C43.7449 28.3861 44.053 28.5218 44.2609 28.6859C44.2611 28.6861 44.2614 28.6863 44.2617 28.6865C44.3661 28.7691 44.4451 28.8589 44.4737 28.9399C44.4738 28.9401 44.4738 28.9403 44.4739 28.9405C44.474 28.9407 44.4738 28.9408 44.4736 28.9408C44.4735 28.9408 44.4733 28.941 44.4734 28.9411C44.4734 28.9414 44.4735 28.9417 44.4735 28.942C44.4912 29.0298 44.5177 29.1205 44.5446 29.2125C44.5494 29.2286 44.5541 29.2448 44.5588 29.2609C44.6212 29.2438 44.6783 29.2087 44.722 29.161C44.6792 29.2091 44.6228 29.2447 44.559 29.2617C44.6102 29.4382 44.6571 29.6182 44.6404 29.7908ZM44.8046 28.903C44.8189 28.968 44.8366 29.0283 44.8575 29.0991C44.8728 29.1509 44.8897 29.2083 44.9081 29.2773C44.9488 29.4296 44.9904 29.6217 44.9709 29.8229L44.6404 29.7908L44.9708 29.823C44.9189 30.3557 44.474 30.6243 44.0724 30.6695C43.6733 30.7144 43.188 30.5601 42.9541 30.1188C42.8029 29.8336 42.6978 29.51 42.6981 29.153M44.8046 28.903C44.8015 28.8794 44.7958 28.8552 44.7872 28.8307C44.7407 28.6981 44.6482 28.5891 44.5642 28.5096C44.4751 28.4251 44.3683 28.3482 44.2578 28.2841C44.0512 28.1642 43.7654 28.0513 43.5056 28.0731M43.5054 28.0731C43.1913 28.0994 42.9837 28.3056 42.8673 28.5081L43.5054 28.0731ZM42.8673 28.5081C42.7517 28.7092 42.6983 28.9476 42.6981 29.153L42.8673 28.5081Z" fill="black"/>
<path d="M39.056 29.7365C38.9384 29.3318 38.8783 28.6066 39.2989 28.5811C39.9115 28.5457 40.9381 29.6439 40.8995 30.2494C40.8936 30.3438 40.696 30.468 40.5413 30.5144C40.3866 30.5608 39.7004 30.6984 39.436 30.4789C39.2432 30.318 39.145 30.0428 39.056 29.7365Z" fill="black"/>
<path fill-rule="evenodd" clip-rule="evenodd" d="M39.2215 30.7343L39.2208 30.7337C38.9391 30.4986 38.8201 30.1226 38.7348 29.829C38.6684 29.6007 38.6146 29.2742 38.6427 28.9844C38.6567 28.8407 38.6937 28.6738 38.7879 28.5319C38.892 28.3748 39.0584 28.2628 39.2764 28.2496L39.2965 28.581C38.8758 28.6065 38.936 29.3317 39.0536 29.7364C39.1426 30.0427 39.2407 30.3179 39.4336 30.4788C39.698 30.6983 40.3842 30.5607 40.5389 30.5143C40.6936 30.4679 40.8912 30.3437 40.897 30.2493C40.9357 29.6438 39.9091 28.5456 39.2965 28.581L39.2773 28.2496C39.5259 28.2352 39.7732 28.334 39.9793 28.4558C40.1928 28.5819 40.4009 28.7558 40.5817 28.9462C40.7627 29.1367 40.9254 29.3534 41.0421 29.5715C41.1548 29.782 41.2437 30.0293 41.2284 30.2702" fill="black"/>
<path d="M18.7027 52.1238C18.7027 53.224 17.8109 54.1158 16.7107 54.1158C15.6106 54.1158 14.7188 53.224 14.7188 52.1238C14.7188 51.0237 15.6106 50.1318 16.7107 50.1318C17.8109 50.1318 18.7027 51.0237 18.7027 52.1238Z" fill="black"/>
<path d="M66.1781 56.992C66.1781 58.0921 65.534 58.984 64.7394 58.984C63.9449 58.984 63.3008 58.0921 63.3008 56.992C63.3008 55.8918 63.9449 55 64.7394 55C65.534 55 66.1781 55.8918 66.1781 56.992Z" fill="black"/>
<path d="M69.8317 52.1238C69.8317 53.224 69.1629 54.1158 68.3377 54.1158C67.5126 54.1158 66.8438 53.224 66.8438 52.1238C66.8438 51.0237 67.5126 50.1318 68.3377 50.1318C69.1629 50.1318 69.8317 51.0237 69.8317 52.1238Z" fill="black"/>
<path d="M73.0414 48.1399C73.0414 49.2401 72.3973 50.1319 71.6027 50.1319C70.8082 50.1319 70.1641 49.2401 70.1641 48.1399C70.1641 47.0398 70.8082 46.1479 71.6027 46.1479C72.3973 46.1479 73.0414 47.0398 73.0414 48.1399Z" fill="black"/>
<defs>
<linearGradient id="paint0_linear_61_702" x1="64.906" y1="42.3853" x2="64.906" y2="61.7519" gradientUnits="userSpaceOnUse">
<stop stop-color="#CB59FF"/>
<stop offset="1" stop-color="#9559FF"/>
</linearGradient>
<linearGradient id="paint1_linear_61_702" x1="49.9672" y1="42.3853" x2="49.9672" y2="61.7519" gradientUnits="userSpaceOnUse">
<stop stop-color="#CB59FF"/>
<stop offset="1" stop-color="#9559FF"/>
</linearGradient>
<linearGradient id="paint2_linear_61_702" x1="16.7653" y1="42.3853" x2="16.7653" y2="61.7519" gradientUnits="userSpaceOnUse">
<stop stop-color="#CB59FF"/>
<stop offset="1" stop-color="#9559FF"/>
</linearGradient>
<linearGradient id="paint3_linear_61_702" x1="36.5791" y1="7.08301" x2="36.5791" y2="61.7339" gradientUnits="userSpaceOnUse">
<stop stop-color="#0097DC"/>
<stop offset="1" stop-color="#0037C3"/>
</linearGradient>
<linearGradient id="paint4_linear_61_702" x1="38.7469" y1="36.5735" x2="38.7469" y2="22.1152" gradientUnits="userSpaceOnUse">
<stop stop-color="#FFA0B7"/>
<stop offset="1" stop-color="#FFE2E9"/>
</linearGradient>
</defs>
</svg>
