<svg width="11" height="7" viewBox="0 0 11 7" fill="none" xmlns="http://www.w3.org/2000/svg">
<path d="M5.26758 6.13477C5.03711 6.13477 4.82617 6.04102 4.63477 5.85352L0.222656 1.3418C0.148438 1.26367 0.0917969 1.17969 0.0527344 1.08984C0.0175781 1 0 0.900391 0 0.791016C0 0.646484 0.0351562 0.513672 0.105469 0.392578C0.175781 0.271484 0.269531 0.175781 0.386719 0.105469C0.507812 0.0351562 0.640625 0 0.785156 0C1.00391 0 1.19531 0.0800781 1.35938 0.240234L5.53711 4.5293H5.00391L9.16992 0.240234C9.33398 0.0800781 9.52539 0 9.74414 0C9.88867 0 10.0195 0.0351562 10.1367 0.105469C10.2578 0.175781 10.3535 0.271484 10.4238 0.392578C10.4941 0.513672 10.5293 0.646484 10.5293 0.791016C10.5293 1.00586 10.4531 1.1875 10.3008 1.33594L5.90039 5.85352C5.80664 5.94727 5.70703 6.01758 5.60156 6.06445C5.5 6.10742 5.38867 6.13086 5.26758 6.13477Z" fill="#5A0046"/>
</svg>
