<svg width="83" height="74" viewBox="0 0 83 74" fill="none" xmlns="http://www.w3.org/2000/svg">
<g id="Mask group">
<mask id="mask0_1279_1746" style="mask-type:alpha" maskUnits="userSpaceOnUse" x="0" y="0" width="83" height="74">
<ellipse id="Ellipse 124" cx="41.5" cy="37.0918" rx="41" ry="36.5" fill="#D9D9D9"/>
</mask>
<g mask="url(#mask0_1279_1746)">
<g id="Group 378" filter="url(#filter0_d_1279_1746)">
<path id="Vector 87" d="M63.7312 45.3078L73.0862 93.6671L48.9353 98.3391L37.7269 40.3997C37.7269 40.3997 35.3701 32.5239 39.9594 31.6361C41.3227 31.3724 42.1745 31.3967 42.6985 31.5611C41.0312 27.4015 36.9086 16.3365 39.9795 15.7424C43.7656 15.01 50.6848 31.7037 50.6848 31.7037C50.6848 31.7037 54.6018 15.6513 58.016 15.7645C61.4302 15.8777 60.2717 36.0385 60.2717 36.0385C60.2717 36.0385 67.5738 33.7927 68.4061 38.0951C69.2384 42.3975 63.7312 45.3078 63.7312 45.3078Z" fill="url(#paint0_linear_1279_1746)"/>
<path id="Vector 87 (Stroke)" fill-rule="evenodd" clip-rule="evenodd" d="M42.6992 31.5614C42.4405 30.9159 42.1227 30.1043 41.7818 29.1913C41.5804 28.6518 41.371 28.0771 41.1609 27.4803C39.435 22.5773 37.6673 16.1901 39.9802 15.7427C42.2868 15.2964 45.7562 21.3179 48.1155 26.0922C49.6289 29.1547 50.6855 31.704 50.6855 31.704C50.6855 31.704 51.3521 28.9725 52.3749 25.7709C53.8316 21.2113 56.011 15.6982 58.0168 15.7647C60.4371 15.845 60.5594 26.0001 60.4256 31.9055C60.3706 34.3304 60.2724 36.0387 60.2724 36.0387C60.2724 36.0387 62.2604 35.4273 64.28 35.4537C66.1311 35.4779 68.0088 36.0378 68.4068 38.0954C69.2392 42.3978 63.7319 45.308 63.7319 45.308L73.087 93.6673L48.9361 98.3393L37.7277 40.4C37.7277 40.4 35.8681 34.1859 38.6689 32.175C39.0213 31.922 39.4473 31.7356 39.9602 31.6364C40.168 31.5962 40.3639 31.5627 40.5486 31.5353C41.5755 31.3833 42.2552 31.422 42.6992 31.5614ZM37.27 28.3898C36.7061 26.7628 36.1432 24.9874 35.7124 23.2948C35.2643 21.5339 34.8742 19.5471 34.9024 17.8154C34.9162 16.9684 35.0304 15.8074 35.5707 14.6912C36.1939 13.4038 37.4014 12.1947 39.2256 11.8418C41.2412 11.4519 42.8828 12.3167 43.8069 12.9641C44.7929 13.6547 45.6435 14.5676 46.3409 15.4308C47.6011 16.9908 48.8167 18.9672 49.8717 20.8712C50.4871 19.2538 51.1969 17.6144 51.9777 16.2424C52.4823 15.3556 53.1256 14.3835 53.9309 13.589C54.6694 12.8602 56.1116 11.7262 58.1484 11.7937C60.7996 11.8816 62.1318 13.9072 62.6119 14.8217C63.1745 15.8934 63.4979 17.1355 63.7094 18.2202C64.1456 20.4582 64.3266 23.2551 64.3966 25.8364C64.4506 27.8255 64.4409 29.8007 64.4085 31.482C65.6011 31.5041 67.111 31.6913 68.5391 32.394C70.3439 33.2822 71.8405 34.9258 72.3077 37.3407C73.1035 41.4545 70.7842 44.5406 69.1828 46.1328C68.8258 46.4876 68.4672 46.8074 68.1237 47.0913L77.7425 96.8136L45.7898 102.995L33.8584 41.3179C33.8379 41.243 33.8134 41.151 33.7859 41.0436C33.7155 40.7681 33.6247 40.386 33.5339 39.9287C33.3567 39.0353 33.1602 37.7576 33.1499 36.3808C33.14 35.0639 33.2941 33.286 34.1097 31.6271C34.7622 30.3001 35.8103 29.1269 37.27 28.3898Z" fill="white"/>
<path id="Vector 90 (Stroke)" fill-rule="evenodd" clip-rule="evenodd" d="M56.0583 59.2852C55.4479 59.3432 54.906 58.8955 54.848 58.2851C54.7174 56.912 54.4855 55.4196 54.1498 54.1641C53.9819 53.536 53.7945 52.992 53.5932 52.5617C53.3849 52.1162 53.1975 51.8706 53.0683 51.7594C53.0484 51.7422 53.0326 51.7307 53.0212 51.7232C52.9549 51.7498 52.7607 51.8549 52.4509 52.2262C51.723 53.0984 50.7717 54.9318 49.6244 58.2447C49.461 58.7165 49.0027 59.0212 48.5044 58.9893C48.0061 58.9574 47.5905 58.5968 47.4886 58.108C47.1502 56.4848 46.7078 54.7308 46.2178 53.2762C45.9724 52.5479 45.7223 51.9165 45.4769 51.4225C45.3609 51.1889 45.2559 51.0068 45.1653 50.8683C45.1189 50.9669 45.0666 51.0899 45.0102 51.2426C44.5454 52.5002 44.0826 54.9487 43.7152 59.1326C43.6616 59.7434 43.123 60.1951 42.5122 60.1414C41.9014 60.0878 41.4498 59.5492 41.5034 58.9384C41.8718 54.7435 42.3508 52.0335 42.9276 50.4729C43.2 49.7357 43.5782 49.0099 44.1918 48.6256C44.5442 48.405 44.9602 48.307 45.3927 48.3821C45.796 48.4521 46.1175 48.6556 46.3543 48.8603C46.81 49.2541 47.1726 49.8451 47.4655 50.4348C47.7717 51.0514 48.0584 51.7854 48.3219 52.5673C48.4944 53.0794 48.6601 53.6215 48.8171 54.1777C49.4879 52.653 50.1271 51.5454 50.7462 50.8036C51.2475 50.2028 51.8399 49.7144 52.5459 49.5517C53.3268 49.3718 54.0097 49.6402 54.5167 50.0765C54.9878 50.482 55.3371 51.0493 55.6045 51.6211C55.8789 52.208 56.1062 52.8853 56.2948 53.5905C56.6721 55.0016 56.9203 56.6235 57.0583 58.0749C57.1164 58.6853 56.6686 59.2271 56.0583 59.2852ZM44.8827 50.5245C44.8827 50.5245 44.8836 50.525 44.8854 50.5264C44.8836 50.5252 44.8827 50.5245 44.8827 50.5245ZM52.9986 51.7103C52.9986 51.7103 52.9987 51.7104 52.9989 51.7105C52.9987 51.7104 52.9986 51.7103 52.9986 51.7103Z" fill="#D5EE3B"/>
<path id="Vector 93 (Stroke)" fill-rule="evenodd" clip-rule="evenodd" d="M48.3396 72.1749C48.9388 72.3049 49.53 71.9247 49.66 71.3255C49.9527 69.9776 50.36 68.5232 50.8423 67.3164C51.0836 66.7127 51.3342 66.1948 51.5851 65.7914C51.8448 65.3738 52.0601 65.1521 52.2015 65.057C52.2234 65.0423 52.2404 65.0328 52.2526 65.0267C52.3153 65.061 52.4956 65.1884 52.7592 65.5938C53.3784 66.5463 54.1054 68.4796 54.8515 71.9052C54.9578 72.3931 55.3767 72.75 55.8752 72.7774C56.3738 72.8049 56.8293 72.4962 56.9885 72.0229C57.5171 70.4514 58.1645 68.7623 58.8237 67.3761C59.1538 66.682 59.477 66.0847 59.7793 65.6234C59.9222 65.4052 60.048 65.2368 60.1544 65.1101C60.1888 65.2135 60.2261 65.3419 60.264 65.5001C60.5763 66.8041 60.7452 69.2901 60.6136 73.4881C60.5943 74.1009 61.0756 74.6133 61.6884 74.6325C62.3012 74.6517 62.8136 74.1705 62.8328 73.5577C62.9648 69.3487 62.8108 66.6011 62.4233 64.983C62.2402 64.2187 61.9509 63.4531 61.3872 62.9988C61.0635 62.7379 60.6621 62.5912 60.2237 62.6144C59.8149 62.6361 59.4716 62.8 59.2121 62.9751C58.7129 63.3121 58.2828 63.8559 57.922 64.4067C57.5447 64.9826 57.1729 65.6774 56.8186 66.4225C56.5865 66.9105 56.3577 67.4291 56.1357 67.9628C55.6506 66.3692 55.1473 65.1936 54.6207 64.3836C54.1941 63.7275 53.6639 63.1722 52.9823 62.927C52.2282 62.6557 51.5183 62.8411 50.9631 63.2142C50.4472 63.5609 50.0331 64.0828 49.6997 64.6188C49.3575 65.1689 49.0514 65.8145 48.7805 66.4924C48.2385 67.8487 47.7996 69.4297 47.4903 70.8544C47.3602 71.4536 47.7405 72.0448 48.3396 72.1749ZM60.4759 64.8023C60.4759 64.8022 60.4749 64.8027 60.4729 64.8038C60.4749 64.8028 60.4759 64.8023 60.4759 64.8023ZM52.2766 65.0166C52.2766 65.0166 52.2765 65.0166 52.2762 65.0167C52.2765 65.0166 52.2766 65.0166 52.2766 65.0166Z" fill="#D5EE3B"/>
</g>
</g>
</g>
<defs>
<filter id="filter0_d_1279_1746" x="20.4484" y="3.04414" width="69.9937" height="116.65" filterUnits="userSpaceOnUse" color-interpolation-filters="sRGB">
<feFlood flood-opacity="0" result="BackgroundImageFix"/>
<feColorMatrix in="SourceAlpha" type="matrix" values="0 0 0 0 0 0 0 0 0 0 0 0 0 0 0 0 0 0 127 0" result="hardAlpha"/>
<feOffset dy="4"/>
<feGaussianBlur stdDeviation="6.35"/>
<feComposite in2="hardAlpha" operator="out"/>
<feColorMatrix type="matrix" values="0 0 0 0 0 0 0 0 0 0 0 0 0 0 0 0 0 0 0.25 0"/>
<feBlend mode="normal" in2="BackgroundImageFix" result="effect1_dropShadow_1279_1746"/>
<feBlend mode="normal" in="SourceGraphic" in2="effect1_dropShadow_1279_1746" result="shape"/>
</filter>
<linearGradient id="paint0_linear_1279_1746" x1="61.9314" y1="73.8054" x2="51.5776" y2="20.2832" gradientUnits="userSpaceOnUse">
<stop offset="0.33" stop-color="#FFB763"/>
<stop offset="0.85" stop-color="#A0E548"/>
</linearGradient>
</defs>
</svg>
