<svg width="164" height="120" viewBox="0 0 164 120" fill="none" xmlns="http://www.w3.org/2000/svg">
<path d="M71.1373 79.8009C70.5332 79.1968 69.4398 78.4641 69.2342 77.5731C69.1541 77.2258 69.2478 76.6828 69.5589 76.4997C69.7382 76.3943 69.755 76.2743 70.0054 76.2743C70.1898 76.2743 70.3527 76.4166 70.533 76.4366C71.6971 76.566 72.5175 77.9 73.2299 78.6915C73.2299 78.6915 74.3319 80.1196 74.3483 80.5946C74.3789 81.4829 73.8034 81.3933 73.0855 81.1448C72.2794 80.8658 71.7385 80.402 71.1373 79.8009Z" fill="url(#paint0_linear_1167_4000)" stroke="black" stroke-width="1.14013" stroke-linecap="round"/>
<path d="M90.1794 77.0449L90.1679 77.1101L90.1415 77.1709C89.3544 78.9823 87.5309 80.0143 85.3655 80.4612C83.1896 80.9102 80.5622 80.7964 77.9596 80.225C75.3537 79.6528 72.735 78.6137 70.5761 77.1771C68.4742 75.7785 66.769 73.9758 65.9769 71.8227C64.9572 71.0287 64.2869 70.1637 63.9476 69.2638C63.5907 68.3173 63.6145 67.369 63.9352 66.4959C64.5678 64.7738 66.3209 63.4053 68.4472 62.7338C70.5928 62.0561 73.2092 62.0536 75.6931 63.156C77.9313 64.1493 80.0293 66.0252 81.5732 69.0452C81.5935 68.4131 81.5853 67.6153 81.5487 66.7257C81.4393 64.0626 81.0841 60.7568 80.5743 58.9273C80.1367 58.7074 79.5502 58.3662 78.9716 57.9384C78.2895 57.4341 77.5699 56.7744 77.1406 56.0117C77.0107 55.781 76.9068 55.4659 77.0285 55.1386C77.1501 54.8114 77.4305 54.6512 77.6464 54.5732C78.0643 54.4222 78.6545 54.4263 79.2205 54.4746C80.2283 54.5605 81.4803 54.8213 82.4653 55.0693C82.5503 54.9127 82.6624 54.7353 82.8054 54.5383C83.1504 54.0633 83.6882 53.4566 84.4977 52.7328L84.5761 52.6627L84.6746 52.6257C85.049 52.4853 85.4088 52.412 85.7395 52.4484C86.0926 52.4873 86.3916 52.6505 86.5966 52.9282C86.787 53.1861 86.8628 53.497 86.8869 53.7875C86.9114 54.0828 86.8863 54.4048 86.8337 54.7295C86.6457 55.8895 86.0576 57.3582 85.5332 58.4542C87.8441 61.3722 91.6565 68.674 90.1794 77.0449Z" fill="url(#paint1_linear_1167_4000)" stroke="black" stroke-width="1.12175"/>
<path d="M83.6481 62.4854C83.4242 61.7644 83.2888 60.672 84.5384 62.0702C84.3687 61.1897 84.2894 59.9242 85.3299 61.9057" stroke="#D5EE3B" stroke-width="0.349396" stroke-linecap="round" stroke-linejoin="round"/>
<path d="M82.9636 74.1632C83.7079 74.2896 84.7435 74.6628 82.9313 75.1451C83.7934 75.3919 84.9579 75.8935 82.7201 75.9254" stroke="#D5EE3B" stroke-width="0.349396" stroke-linecap="round" stroke-linejoin="round"/>
<path d="M79.3074 76.6819C80.0517 76.8083 81.0872 77.1816 79.2751 77.6638C80.1371 77.9106 81.3017 78.4122 79.0638 78.4441" stroke="#D5EE3B" stroke-width="0.349396" stroke-linecap="round" stroke-linejoin="round"/>
<path d="M84.7546 64.0852C84.3223 63.4662 83.5423 62.6895 83.8808 64.5339C83.2892 63.8601 82.3381 63.0216 83.2655 65.0584" stroke="#D5EE3B" stroke-width="0.349396" stroke-linecap="round" stroke-linejoin="round"/>
<path d="M77.4292 74.1257C78.1823 74.1789 79.2767 74.0611 77.63 73.1641C78.5259 73.128 79.776 72.916 77.6092 72.3559" stroke="#D5EE3B" stroke-width="0.349396" stroke-linecap="round" stroke-linejoin="round"/>
<path d="M73.0288 72.4271C73.3351 73.1171 73.9527 74.0283 73.9722 72.1532C74.4244 72.9275 75.1982 73.932 74.6761 71.7556" stroke="#D5EE3B" stroke-width="0.349396" stroke-linecap="round" stroke-linejoin="round"/>
<path d="M77.4761 70.6897C78.2291 70.7429 79.3236 70.6251 77.6768 69.728C78.5728 69.692 79.8229 69.48 77.656 68.9199" stroke="#D5EE3B" stroke-width="0.349396" stroke-linecap="round" stroke-linejoin="round"/>
<path d="M89.1439 75.0258C89.6223 74.4418 90.1583 73.4804 88.4749 74.3065C88.963 73.5543 89.512 72.4114 87.8031 73.8567" stroke="#D5EE3B" stroke-width="0.349396" stroke-linecap="round" stroke-linejoin="round"/>
<path d="M73.7455 76.1651C74.173 76.7873 74.9471 77.57 74.6227 75.723C75.2091 76.4014 76.1538 77.2471 75.242 75.2032" stroke="#D5EE3B" stroke-width="0.349396" stroke-linecap="round" stroke-linejoin="round"/>
<path d="M85.3117 65.6605C85.4617 64.9206 85.8678 63.8975 86.292 65.7241C86.5662 64.8703 87.1046 63.7224 87.0652 65.9601" stroke="#D5EE3B" stroke-width="0.349396" stroke-linecap="round" stroke-linejoin="round"/>
<path d="M83.464 69.7806C83.614 69.0407 84.0201 68.0175 84.4444 69.8441C84.7185 68.9904 85.257 67.8424 85.2176 70.0802" stroke="#D5EE3B" stroke-width="0.349396" stroke-linecap="round" stroke-linejoin="round"/>
<path d="M72.1039 63.7679C71.5746 63.9991 70.9821 64.639 70.9494 65.2426C70.9494 65.7274 71.0724 65.9701 71.4049 66.3655C72.1696 67.2749 73.6543 66.5045 74.3317 65.8559C75.4637 64.7721 73.1567 63.308 72.1039 63.7679Z" fill="white" stroke="#070707" stroke-width="1.14013" stroke-linecap="round"/>
<path d="M71.1821 64.8369C71.4092 64.0041 73.0749 65.0789 72.7515 65.8967C72.6752 66.0896 72.4645 66.4524 72.2193 66.4604C71.9558 66.4691 71.6756 66.2626 71.5609 66.0365C71.3981 65.7155 71.4862 65.094 71.9307 65.0985C72.1864 65.101 72.3554 65.217 72.4764 65.4412C72.5366 65.5529 72.4798 65.6513 72.3636 65.6893C72.0406 65.7949 71.6888 65.2565 71.7999 64.9677C71.8465 64.8464 72.0121 65.0125 72.0524 65.0489C72.2563 65.2326 72.4804 65.4982 72.3726 65.793C72.2309 66.1809 71.9242 65.9096 71.8721 65.6487" stroke="#070707" stroke-width="1.14013" stroke-linecap="round"/>
<path d="M47.7698 77.4647L47.7813 77.5299L47.8077 77.5907C49.3114 81.0513 53.1078 82.2813 56.9882 82.2922C60.8936 82.3032 65.1247 81.0927 67.8582 79.394L67.879 79.3811L67.8986 79.3664C70.0483 77.7545 70.82 76.0753 70.3239 74.4696C69.858 72.9618 68.3328 71.7867 66.5982 70.9661C64.8317 70.1303 62.6988 69.5901 60.7818 69.4353C59.8222 69.3578 58.9002 69.3754 58.0946 69.5088C57.3227 69.6366 56.612 69.8781 56.0841 70.2861C56.062 70.2168 56.04 70.1282 56.0202 70.0178C55.9011 69.3538 55.9144 68.2374 56.0324 66.8944C56.2567 64.3413 56.837 61.1889 57.3731 59.348C57.8109 59.1282 58.3982 58.7866 58.9776 58.3582C59.6597 57.8539 60.3793 57.1942 60.8086 56.4315C60.9385 56.2008 61.0424 55.8857 60.9207 55.5584C60.7991 55.2312 60.5187 55.071 60.3028 54.993C59.885 54.842 59.2947 54.8461 58.7287 54.8944C57.7209 54.9803 56.4689 55.2411 55.4839 55.4891C55.3989 55.3325 55.2868 55.1551 55.1438 54.9581C54.7988 54.4831 54.261 53.8764 53.4515 53.1526L53.3731 53.0825L53.2747 53.0455C52.9002 52.9051 52.5404 52.8318 52.2097 52.8682C51.8567 52.9071 51.5576 53.0703 51.3526 53.348C51.1622 53.6059 51.0864 53.9168 51.0623 54.2073C51.0379 54.5026 51.0629 54.8246 51.1155 55.1493C51.3035 56.3093 51.8916 57.778 52.416 58.874C50.1051 61.792 46.2928 69.0938 47.7698 77.4647Z" fill="url(#paint2_linear_1167_4000)"/>
<path d="M47.7698 77.4647L47.7813 77.5299L47.8077 77.5907C49.3114 81.0513 53.1078 82.2813 56.9882 82.2922C60.8936 82.3032 65.1247 81.0927 67.8582 79.394L67.879 79.3811L67.8986 79.3664C70.0483 77.7545 70.82 76.0753 70.3239 74.4696C69.858 72.9618 68.3328 71.7867 66.5982 70.9661C64.8317 70.1303 62.6988 69.5901 60.7818 69.4353C59.8222 69.3578 58.9002 69.3754 58.0946 69.5088C57.3227 69.6366 56.612 69.8781 56.0841 70.2861C56.062 70.2168 56.04 70.1282 56.0202 70.0178C55.9011 69.3538 55.9144 68.2374 56.0324 66.8944C56.2567 64.3413 56.837 61.1889 57.3731 59.348C57.8109 59.1282 58.3982 58.7866 58.9776 58.3582C59.6597 57.8539 60.3793 57.1942 60.8086 56.4315C60.9385 56.2008 61.0424 55.8857 60.9207 55.5584C60.7991 55.2312 60.5187 55.071 60.3028 54.993C59.885 54.842 59.2947 54.8461 58.7287 54.8944C57.7209 54.9803 56.4689 55.2411 55.4839 55.4891C55.3989 55.3325 55.2868 55.1551 55.1438 54.9581C54.7988 54.4831 54.261 53.8764 53.4515 53.1526L53.3731 53.0825L53.2747 53.0455C52.9002 52.9051 52.5404 52.8318 52.2097 52.8682C51.8567 52.9071 51.5576 53.0703 51.3526 53.348C51.1622 53.6059 51.0864 53.9168 51.0623 54.2073C51.0379 54.5026 51.0629 54.8246 51.1155 55.1493C51.3035 56.3093 51.8916 57.778 52.416 58.874C50.1051 61.792 46.2928 69.0938 47.7698 77.4647Z" fill="url(#paint3_linear_1167_4000)"/>
<path d="M47.7698 77.4647L47.7813 77.5299L47.8077 77.5907C49.3114 81.0513 53.1078 82.2813 56.9882 82.2922C60.8936 82.3032 65.1247 81.0927 67.8582 79.394L67.879 79.3811L67.8986 79.3664C70.0483 77.7545 70.82 76.0753 70.3239 74.4696C69.858 72.9618 68.3328 71.7867 66.5982 70.9661C64.8317 70.1303 62.6988 69.5901 60.7818 69.4353C59.8222 69.3578 58.9002 69.3754 58.0946 69.5088C57.3227 69.6366 56.612 69.8781 56.0841 70.2861C56.062 70.2168 56.04 70.1282 56.0202 70.0178C55.9011 69.3538 55.9144 68.2374 56.0324 66.8944C56.2567 64.3413 56.837 61.1889 57.3731 59.348C57.8109 59.1282 58.3982 58.7866 58.9776 58.3582C59.6597 57.8539 60.3793 57.1942 60.8086 56.4315C60.9385 56.2008 61.0424 55.8857 60.9207 55.5584C60.7991 55.2312 60.5187 55.071 60.3028 54.993C59.885 54.842 59.2947 54.8461 58.7287 54.8944C57.7209 54.9803 56.4689 55.2411 55.4839 55.4891C55.3989 55.3325 55.2868 55.1551 55.1438 54.9581C54.7988 54.4831 54.261 53.8764 53.4515 53.1526L53.3731 53.0825L53.2747 53.0455C52.9002 52.9051 52.5404 52.8318 52.2097 52.8682C51.8567 52.9071 51.5576 53.0703 51.3526 53.348C51.1622 53.6059 51.0864 53.9168 51.0623 54.2073C51.0379 54.5026 51.0629 54.8246 51.1155 55.1493C51.3035 56.3093 51.8916 57.778 52.416 58.874C50.1051 61.792 46.2928 69.0938 47.7698 77.4647Z" fill="url(#paint4_linear_1167_4000)"/>
<path d="M47.7698 77.4647L47.7813 77.5299L47.8077 77.5907C49.3114 81.0513 53.1078 82.2813 56.9882 82.2922C60.8936 82.3032 65.1247 81.0927 67.8582 79.394L67.879 79.3811L67.8986 79.3664C70.0483 77.7545 70.82 76.0753 70.3239 74.4696C69.858 72.9618 68.3328 71.7867 66.5982 70.9661C64.8317 70.1303 62.6988 69.5901 60.7818 69.4353C59.8222 69.3578 58.9002 69.3754 58.0946 69.5088C57.3227 69.6366 56.612 69.8781 56.0841 70.2861C56.062 70.2168 56.04 70.1282 56.0202 70.0178C55.9011 69.3538 55.9144 68.2374 56.0324 66.8944C56.2567 64.3413 56.837 61.1889 57.3731 59.348C57.8109 59.1282 58.3982 58.7866 58.9776 58.3582C59.6597 57.8539 60.3793 57.1942 60.8086 56.4315C60.9385 56.2008 61.0424 55.8857 60.9207 55.5584C60.7991 55.2312 60.5187 55.071 60.3028 54.993C59.885 54.842 59.2947 54.8461 58.7287 54.8944C57.7209 54.9803 56.4689 55.2411 55.4839 55.4891C55.3989 55.3325 55.2868 55.1551 55.1438 54.9581C54.7988 54.4831 54.261 53.8764 53.4515 53.1526L53.3731 53.0825L53.2747 53.0455C52.9002 52.9051 52.5404 52.8318 52.2097 52.8682C51.8567 52.9071 51.5576 53.0703 51.3526 53.348C51.1622 53.6059 51.0864 53.9168 51.0623 54.2073C51.0379 54.5026 51.0629 54.8246 51.1155 55.1493C51.3035 56.3093 51.8916 57.778 52.416 58.874C50.1051 61.792 46.2928 69.0938 47.7698 77.4647Z" stroke="black" stroke-width="1.12175"/>
<path d="M60.0033 71.9987C58.8338 72.5364 58.2016 73.9401 57.8417 75.1012C57.5887 75.9173 57.4489 76.7885 57.5834 77.64C57.6478 78.0482 57.7392 78.3593 57.902 78.7384C58.0919 79.1806 58.3341 79.3573 58.6082 79.7102" stroke="black" stroke-width="1.14013" stroke-linecap="round"/>
<path d="M57.7193 73.3627C56.4053 72.8295 55.0276 73.2036 53.6629 72.9868C52.7634 72.8438 52.0483 72.3588 51.4968 71.6523V71.6523C51.2506 71.3369 50.7508 71.465 50.6839 71.8595C50.6133 72.2759 50.5532 72.7232 50.5689 72.9695C50.6197 73.7635 50.8586 74.5378 51.1004 75.2912C51.3568 76.09 51.6587 76.9399 52.2093 77.59C53.2763 78.8496 54.9147 78.9673 56.4266 78.6317" stroke="black" stroke-width="1.14013" stroke-linecap="round"/>
<path d="M54.2972 62.9052C54.5211 62.1842 54.6565 61.0918 53.4069 62.49C53.5766 61.6095 53.6559 60.344 52.6154 62.3255" stroke="#FF73A5" stroke-width="0.349396" stroke-linecap="round" stroke-linejoin="round"/>
<path d="M54.9817 74.583C54.2374 74.7094 53.2018 75.0826 55.014 75.5649C54.152 75.8117 52.9874 76.3133 55.2253 76.3452" stroke="#FF73A5" stroke-width="0.349396" stroke-linecap="round" stroke-linejoin="round"/>
<path d="M53.1946 64.505C53.6269 63.8861 54.4069 63.1094 54.0685 64.9538C54.66 64.28 55.6112 63.4415 54.6837 65.4783" stroke="#FF73A5" stroke-width="0.349396" stroke-linecap="round" stroke-linejoin="round"/>
<path d="M56.8599 81.2929C56.1068 81.3461 55.0124 81.2283 56.6591 80.3313C55.7632 80.2953 54.513 80.0832 56.6799 79.5231" stroke="#FF73A5" stroke-width="0.349396" stroke-linecap="round" stroke-linejoin="round"/>
<path d="M48.8014 75.4456C48.323 74.8616 47.787 73.9002 49.4705 74.7263C48.9824 73.9741 48.4334 72.8312 50.1422 74.2765" stroke="#FF73A5" stroke-width="0.349396" stroke-linecap="round" stroke-linejoin="round"/>
<path d="M49.8313 68.6359C50.2636 68.017 51.0436 67.2403 50.7052 69.0847C51.2967 68.4108 52.2479 67.5723 51.3204 69.6092" stroke="#FF73A5" stroke-width="0.349396" stroke-linecap="round" stroke-linejoin="round"/>
<path d="M52.6336 66.0803C52.4836 65.3404 52.0775 64.3173 51.6533 66.1439C51.3791 65.2901 50.8407 64.1422 50.8801 66.3799" stroke="#FF73A5" stroke-width="0.349396" stroke-linecap="round" stroke-linejoin="round"/>
<path d="M54.4852 70.2004C54.3352 69.4605 53.9291 68.4373 53.5049 70.2639C53.2307 69.4102 52.6922 68.2622 52.7316 70.5" stroke="#FF73A5" stroke-width="0.349396" stroke-linecap="round" stroke-linejoin="round"/>
<path d="M65.5679 72.7075C66.0972 72.9387 66.6898 73.5786 66.7224 74.1821C66.7224 74.667 66.5994 74.9097 66.267 75.3051C65.5022 76.2145 64.0175 75.444 63.3401 74.7955C62.2082 73.7117 64.5152 72.2475 65.5679 72.7075Z" fill="white" stroke="#070707" stroke-width="1.14013" stroke-linecap="round"/>
<path d="M66.4976 73.6865C66.2705 72.8536 64.6048 73.9285 64.9282 74.7463C65.0045 74.9392 65.2152 75.302 65.4604 75.31C65.7239 75.3186 66.0041 75.1122 66.1188 74.8861C66.2816 74.5651 66.1934 73.9436 65.749 73.9481C65.4933 73.9506 65.3243 74.0666 65.2033 74.2908C65.1431 74.4025 65.1998 74.5008 65.3161 74.5388C65.6391 74.6445 65.9908 74.106 65.8798 73.8173C65.8331 73.696 65.6676 73.8621 65.6272 73.8985C65.4234 74.0822 65.1993 74.3477 65.3071 74.6426C65.4488 75.0305 65.7554 74.7592 65.8076 74.4983" stroke="#070707" stroke-width="1.14013" stroke-linecap="round"/>
<path d="M65.1606 77.5145C65.6873 77.5666 65.945 77.7501 66.141 78.1199C66.4473 78.219 66.2245 78.5617 66.0835 78.7065C65.5469 79.2574 64.3954 79.6101 63.5643 79.6882C62.0985 79.826 60.1442 79.0358 59.4818 77.978C59.0481 77.2856 58.9725 76.3578 59.6947 75.7662C60.305 75.2662 61.1905 75.7282 61.6462 76.1775C62.1439 76.6684 62.3043 77.3559 63.1044 77.6148C63.7947 77.8382 64.4467 77.4438 65.1606 77.5145Z" fill="white" stroke="black" stroke-width="1.14013" stroke-linecap="round"/>
<path d="M61.9664 76.8811C61.3699 77.4087 60.5699 77.8543 59.8518 78.2716" stroke="black" stroke-width="1.14013" stroke-linecap="round"/>
<path d="M62.8906 77.8097C62.6008 78.3739 62.4338 78.9717 62.1458 79.5324" stroke="black" stroke-width="1.14013" stroke-linecap="round"/>
<path d="M64.0547 78.0005C64.1156 78.5056 64.2876 79.0214 64.2988 79.5246" stroke="black" stroke-width="1.14013" stroke-linecap="round"/>
<path d="M66.5312 67.7823C66.5763 68.0224 66.7241 68.2468 66.865 68.4407C67.0907 68.7513 67.4763 69.3321 67.909 69.3494C68.2702 69.3639 68.48 68.9201 68.6148 68.6572C68.8534 68.1915 69.1571 67.6621 69.21 67.1329" stroke="black" stroke-width="1.14013" stroke-linecap="round"/>
<path d="M65.43 66.17C65.3581 65.8909 65.0868 65.329 64.7297 65.329C64.4871 65.5587 63.4859 66.5417 63.7347 67.8138C63.7347 67.8138 64.3482 67.8538 64.5146 67.8138C64.8004 67.7452 65.0575 67.442 65.2136 67.214C65.4388 66.885 65.5323 66.5667 65.43 66.17Z" fill="white" stroke="black" stroke-width="1.14013" stroke-linecap="round"/>
<path d="M64.971 66.93C64.9373 66.7781 64.5334 67.2459 64.5088 67.2863C64.506 67.2909 64.4133 67.4537 64.4682 67.4171C64.5767 67.3447 64.6767 67.2434 64.7726 67.1555C64.8788 67.058 64.7231 67.0922 64.6531 67.1014C64.504 67.1209 64.3412 67.1624 64.2111 67.2412C64.1078 67.3037 64.4388 67.1603 64.5516 67.1172C64.5923 67.1016 64.667 67.0915 64.6869 67.0518" stroke="black" stroke-width="1.14013" stroke-linecap="round"/>
<path d="M78.8301 67.4981C78.9191 68.1656 79.196 68.7546 79.1999 69.4464C79.2066 70.6275 78.9535 71.9771 78.1131 72.8602C77.1665 73.8549 75.5786 74.4792 74.2031 74.4792" stroke="black" stroke-width="1.14013" stroke-linecap="round"/>
<path d="M77.3711 74.0733C77.5216 74.0901 77.6328 74.2554 77.7409 74.3439C78.5055 74.9695 79.4314 75.3947 80.3205 75.8096C81.1735 76.2076 82.0372 76.5334 82.9722 76.68C83.4782 76.7593 84.3057 76.8907 84.8032 76.6709C85.463 76.3794 84.8248 75.3942 84.5822 75.088C83.4846 73.703 81.7668 72.5762 80.1311 71.9628" stroke="black" stroke-width="1.14013" stroke-linecap="round"/>
<path d="M107.432 81.319C104.76 81.319 102.418 80.6423 100.405 79.2889C98.3924 77.9355 96.9348 76.0962 96.0326 73.7711L99.312 72.2095C100.11 73.9099 101.221 75.2634 102.643 76.2697C104.101 77.2761 105.697 77.7793 107.432 77.7793C109.098 77.7793 110.504 77.3802 111.649 76.5821C112.794 75.7492 113.367 74.6734 113.367 73.3547C113.367 72.383 113.089 71.6196 112.534 71.0643C111.978 70.4744 111.336 70.0232 110.608 69.7109C109.879 69.3986 109.237 69.173 108.682 69.0342L104.674 67.889C102.106 67.1603 100.249 66.1365 99.1038 64.8178C97.9586 63.4991 97.386 61.9722 97.386 60.237C97.386 58.606 97.8024 57.1832 98.6353 55.9686C99.4681 54.754 100.596 53.817 102.019 53.1577C103.442 52.4983 105.021 52.1687 106.756 52.1687C109.116 52.1687 111.25 52.7933 113.158 54.0426C115.102 55.2572 116.473 56.9576 117.271 59.1439L113.939 60.7055C113.245 59.1439 112.239 57.9293 110.92 57.0617C109.636 56.1595 108.196 55.7083 106.6 55.7083C105.038 55.7083 103.789 56.1074 102.852 56.9056C101.915 57.7037 101.446 58.7101 101.446 59.9247C101.446 60.8617 101.689 61.6078 102.175 62.1631C102.661 62.7183 103.216 63.1347 103.841 63.4124C104.5 63.69 105.073 63.8982 105.558 64.037L110.191 65.3904C112.447 66.0498 114.199 67.0735 115.449 68.4616C116.733 69.8497 117.375 71.4807 117.375 73.3547C117.375 74.8816 116.941 76.2524 116.073 77.467C115.241 78.6816 114.078 79.6359 112.586 80.33C111.094 80.9893 109.376 81.319 107.432 81.319Z" fill="#936572"/>
<path d="M140.096 81.0011C137.607 81.7595 135.167 81.8495 132.778 81.2713C130.412 80.6497 128.325 79.4536 126.516 77.6829C124.707 75.9122 123.393 73.6824 122.574 70.9934C121.755 68.3045 121.596 65.759 122.098 63.357C122.589 60.9218 123.616 58.8134 125.177 57.0318C126.772 55.2401 128.781 53.9752 131.204 53.237C133.13 52.6505 134.95 52.495 136.667 52.7702C138.406 53.0022 139.994 53.5706 141.43 54.4753C142.857 55.3468 144.085 56.4601 145.114 57.8153C146.134 59.1372 146.886 60.5949 147.371 62.1884C147.472 62.5203 147.572 62.9072 147.67 63.3488C147.759 63.7573 147.835 64.1874 147.9 64.6392L125.343 71.5103L124.281 68.0246L144.697 61.8058L143.36 63.8457C143.102 61.9288 142.391 60.3679 141.226 59.1629C140.084 57.9146 138.722 57.0777 137.142 56.6523C135.551 56.1936 133.926 56.2171 132.266 56.7227C130.606 57.2283 129.194 58.1301 128.029 59.428C126.898 60.7158 126.171 62.2612 125.85 64.0641C125.518 65.8339 125.759 67.7558 126.572 69.8298C127.054 72.005 127.952 73.7629 129.267 75.1035C130.605 76.4009 132.136 77.2586 133.86 77.6768C135.617 78.0849 137.342 78.0311 139.035 77.5154C140.993 76.9188 142.495 75.9535 143.54 74.6195C144.585 73.2855 145.309 71.795 145.715 70.1479L149.417 70.8702C149.25 72.2271 148.776 73.5869 147.994 74.9497C147.201 76.2793 146.138 77.4921 144.803 78.588C143.491 79.6405 141.922 80.4449 140.096 81.0011Z" fill="#936572"/>
<path d="M9.224 81V45.24H12.584L26.024 64.728H24.152L37.544 45.24H40.904V81H37.064V50.424L38.312 50.904L25.16 69.96H24.968L11.864 50.904L13.064 50.424V81H9.224Z" fill="#936572"/>
<defs>
<linearGradient id="paint0_linear_1167_4000" x1="70.5519" y1="72.9782" x2="71.0882" y2="81.1026" gradientUnits="userSpaceOnUse">
<stop stop-color="#FFB763"/>
<stop offset="0.67" stop-color="#A0E548"/>
</linearGradient>
<linearGradient id="paint1_linear_1167_4000" x1="80.5472" y1="60.3926" x2="80.5472" y2="79.0339" gradientUnits="userSpaceOnUse">
<stop offset="0.33" stop-color="#FFB763"/>
<stop offset="0.85" stop-color="#A0E548"/>
</linearGradient>
<linearGradient id="paint2_linear_1167_4000" x1="58.9531" y1="61.4592" x2="58.9531" y2="81.7314" gradientUnits="userSpaceOnUse">
<stop offset="0.38" stop-color="#A8BFEC"/>
<stop offset="1" stop-color="#DC35AD"/>
</linearGradient>
<linearGradient id="paint3_linear_1167_4000" x1="57.402" y1="60.8124" x2="57.402" y2="79.4537" gradientUnits="userSpaceOnUse">
<stop offset="0.33" stop-color="#FFB763"/>
<stop offset="0.85" stop-color="#A0E548"/>
</linearGradient>
<linearGradient id="paint4_linear_1167_4000" x1="59.5099" y1="60.7812" x2="59.5099" y2="79.3439" gradientUnits="userSpaceOnUse">
<stop offset="0.22" stop-color="#4890E5"/>
<stop offset="0.76" stop-color="#FF4158"/>
</linearGradient>
</defs>
</svg>
