<svg width="164" height="120" viewBox="0 0 164 120" fill="none" xmlns="http://www.w3.org/2000/svg">
<path d="M71.1412 79.801C70.5371 79.1969 69.4437 78.4642 69.2381 77.5732C69.158 77.226 69.2517 76.6829 69.5628 76.4999C69.7421 76.3944 69.7589 76.2744 70.0093 76.2744C70.1937 76.2744 70.3566 76.4167 70.5369 76.4368C71.701 76.5661 72.5214 77.9001 73.2338 78.6916C73.2338 78.6916 74.3358 80.1197 74.3522 80.5948C74.3828 81.4831 73.8073 81.3934 73.0895 81.1449C72.2833 80.8659 71.7424 80.4022 71.1412 79.801Z" fill="url(#paint0_linear_1330_8568)" stroke="black" stroke-width="1.14013" stroke-linecap="round"/>
<path d="M90.1755 77.0449L90.164 77.1101L90.1376 77.1709C89.3505 78.9823 87.527 80.0143 85.3616 80.4612C83.1857 80.9102 80.5583 80.7964 77.9557 80.225C75.3498 79.6528 72.7311 78.6137 70.5722 77.1771C68.4703 75.7785 66.7651 73.9758 65.973 71.8227C64.9533 71.0287 64.283 70.1637 63.9437 69.2638C63.5867 68.3173 63.6106 67.369 63.9313 66.4959C64.5639 64.7738 66.3169 63.4053 68.4433 62.7338C70.5889 62.0561 73.2053 62.0536 75.6892 63.156C77.9274 64.1493 80.0254 66.0252 81.5693 69.0452C81.5896 68.4131 81.5813 67.6153 81.5448 66.7257C81.4354 64.0626 81.0802 60.7568 80.5704 58.9273C80.1328 58.7074 79.5463 58.3662 78.9677 57.9384C78.2856 57.4341 77.566 56.7744 77.1367 56.0117C77.0068 55.781 76.9029 55.4659 77.0246 55.1386C77.1462 54.8114 77.4266 54.6512 77.6425 54.5732C78.0604 54.4222 78.6506 54.4263 79.2166 54.4746C80.2244 54.5605 81.4764 54.8213 82.4614 55.0693C82.5464 54.9127 82.6585 54.7353 82.8015 54.5383C83.1465 54.0633 83.6843 53.4566 84.4938 52.7328L84.5722 52.6627L84.6707 52.6257C85.0451 52.4853 85.4049 52.412 85.7356 52.4484C86.0887 52.4873 86.3877 52.6505 86.5927 52.9282C86.7831 53.1861 86.8589 53.497 86.883 53.7875C86.9074 54.0828 86.8824 54.4048 86.8298 54.7295C86.6418 55.8895 86.0537 57.3582 85.5293 58.4542C87.8402 61.3722 91.6525 68.674 90.1755 77.0449Z" fill="url(#paint1_linear_1330_8568)" stroke="black" stroke-width="1.12175"/>
<path d="M83.652 62.4853C83.4281 61.7643 83.2927 60.6719 84.5423 62.0701C84.3726 61.1896 84.2934 59.9241 85.3338 61.9056" stroke="#D5EE3B" stroke-width="0.349396" stroke-linecap="round" stroke-linejoin="round"/>
<path d="M82.9636 74.1634C83.7079 74.2898 84.7435 74.6631 82.9313 75.1453C83.7934 75.3921 84.9579 75.8937 82.7201 75.9256" stroke="#D5EE3B" stroke-width="0.349396" stroke-linecap="round" stroke-linejoin="round"/>
<path d="M79.3074 76.682C80.0517 76.8083 81.0872 77.1816 79.2751 77.6638C80.1371 77.9106 81.3017 78.4123 79.0638 78.4442" stroke="#D5EE3B" stroke-width="0.349396" stroke-linecap="round" stroke-linejoin="round"/>
<path d="M84.7585 64.085C84.3262 63.4661 83.5462 62.6893 83.8847 64.5337C83.2931 63.8599 82.342 63.0214 83.2694 65.0583" stroke="#D5EE3B" stroke-width="0.349396" stroke-linecap="round" stroke-linejoin="round"/>
<path d="M77.4292 74.1259C78.1823 74.1791 79.2767 74.0613 77.63 73.1643C78.5259 73.1283 79.776 72.9162 77.6092 72.3561" stroke="#D5EE3B" stroke-width="0.349396" stroke-linecap="round" stroke-linejoin="round"/>
<path d="M73.0249 72.4269C73.3312 73.1169 73.9488 74.0281 73.9683 72.153C74.4205 72.9273 75.1943 73.9318 74.6722 71.7554" stroke="#D5EE3B" stroke-width="0.349396" stroke-linecap="round" stroke-linejoin="round"/>
<path d="M77.4761 70.6894C78.2291 70.7426 79.3236 70.6248 77.6768 69.7278C78.5728 69.6918 79.8229 69.4797 77.656 68.9196" stroke="#D5EE3B" stroke-width="0.349396" stroke-linecap="round" stroke-linejoin="round"/>
<path d="M89.1478 75.0262C89.6262 74.4422 90.1622 73.4807 88.4788 74.3069C88.9669 73.5547 89.5159 72.4117 87.807 73.857" stroke="#D5EE3B" stroke-width="0.349396" stroke-linecap="round" stroke-linejoin="round"/>
<path d="M73.7494 76.1651C74.1769 76.7873 74.951 77.57 74.6267 75.7231C75.213 76.4014 76.1577 77.2472 75.2459 75.2033" stroke="#D5EE3B" stroke-width="0.349396" stroke-linecap="round" stroke-linejoin="round"/>
<path d="M85.3156 65.661C85.4656 64.9211 85.8717 63.898 86.2959 65.7245C86.5701 64.8708 87.1085 63.7228 87.0692 65.9606" stroke="#D5EE3B" stroke-width="0.349396" stroke-linecap="round" stroke-linejoin="round"/>
<path d="M83.464 69.7801C83.614 69.0402 84.0201 68.0171 84.4444 69.8437C84.7185 68.99 85.257 67.842 85.2176 70.0797" stroke="#D5EE3B" stroke-width="0.349396" stroke-linecap="round" stroke-linejoin="round"/>
<path d="M72.1 63.7675C71.5707 63.9988 70.9781 64.6387 70.9455 65.2422C70.9455 65.7271 71.0685 65.9698 71.401 66.3652C72.1657 67.2746 73.6504 66.5041 74.3278 65.8556C75.4598 64.7718 73.1528 63.3076 72.1 63.7675Z" fill="white" stroke="#070707" stroke-width="1.14013" stroke-linecap="round"/>
<path d="M71.1782 64.837C71.4053 64.0042 73.071 65.079 72.7475 65.8968C72.6713 66.0897 72.4606 66.4525 72.2154 66.4605C71.9519 66.4692 71.6717 66.2627 71.557 66.0366C71.3942 65.7156 71.4823 65.0941 71.9268 65.0986C72.1824 65.1011 72.3515 65.2171 72.4725 65.4413C72.5327 65.553 72.4759 65.6514 72.3597 65.6894C72.0367 65.795 71.6849 65.2565 71.796 64.9678C71.8426 64.8465 72.0082 65.0126 72.0485 65.049C72.2524 65.2327 72.4765 65.4983 72.3687 65.7931C72.227 66.181 71.9203 65.9097 71.8681 65.6488" stroke="#070707" stroke-width="1.14013" stroke-linecap="round"/>
<path d="M47.7698 77.4648L47.7813 77.5301L47.8077 77.5909C49.3114 81.0514 53.1078 82.2815 56.9882 82.2923C60.8936 82.3033 65.1247 81.0929 67.8582 79.3941L67.879 79.3812L67.8986 79.3665C70.0483 77.7546 70.82 76.0754 70.3239 74.4697C69.858 72.962 68.3328 71.7869 66.5982 70.9662C64.8317 70.1304 62.6988 69.5902 60.7818 69.4354C59.8222 69.3579 58.9002 69.3755 58.0946 69.5089C57.3227 69.6367 56.612 69.8782 56.0841 70.2862C56.062 70.2169 56.04 70.1283 56.0202 70.0179C55.9011 69.3539 55.9144 68.2375 56.0324 66.8946C56.2567 64.3414 56.837 61.1891 57.3731 59.3481C57.8109 59.1283 58.3982 58.7867 58.9776 58.3583C59.6597 57.854 60.3793 57.1943 60.8086 56.4316C60.9385 56.2009 61.0424 55.8858 60.9207 55.5585C60.7991 55.2313 60.5187 55.0711 60.3028 54.9931C59.885 54.8421 59.2947 54.8463 58.7287 54.8945C57.7209 54.9805 56.4689 55.2412 55.4839 55.4892C55.3989 55.3326 55.2868 55.1552 55.1438 54.9583C54.7988 54.4832 54.261 53.8766 53.4515 53.1527L53.3731 53.0826L53.2747 53.0457C52.9002 52.9052 52.5404 52.8319 52.2097 52.8683C51.8567 52.9072 51.5576 53.0704 51.3526 53.3481C51.1622 53.6061 51.0864 53.9169 51.0623 54.2074C51.0379 54.5027 51.0629 54.8248 51.1155 55.1494C51.3035 56.3095 51.8916 57.7781 52.416 58.8741C50.1051 61.7921 46.2928 69.094 47.7698 77.4648Z" fill="url(#paint2_linear_1330_8568)"/>
<path d="M47.7698 77.4648L47.7813 77.5301L47.8077 77.5909C49.3114 81.0514 53.1078 82.2815 56.9882 82.2923C60.8936 82.3033 65.1247 81.0929 67.8582 79.3941L67.879 79.3812L67.8986 79.3665C70.0483 77.7546 70.82 76.0754 70.3239 74.4697C69.858 72.962 68.3328 71.7869 66.5982 70.9662C64.8317 70.1304 62.6988 69.5902 60.7818 69.4354C59.8222 69.3579 58.9002 69.3755 58.0946 69.5089C57.3227 69.6367 56.612 69.8782 56.0841 70.2862C56.062 70.2169 56.04 70.1283 56.0202 70.0179C55.9011 69.3539 55.9144 68.2375 56.0324 66.8946C56.2567 64.3414 56.837 61.1891 57.3731 59.3481C57.8109 59.1283 58.3982 58.7867 58.9776 58.3583C59.6597 57.854 60.3793 57.1943 60.8086 56.4316C60.9385 56.2009 61.0424 55.8858 60.9207 55.5585C60.7991 55.2313 60.5187 55.0711 60.3028 54.9931C59.885 54.8421 59.2947 54.8463 58.7287 54.8945C57.7209 54.9805 56.4689 55.2412 55.4839 55.4892C55.3989 55.3326 55.2868 55.1552 55.1438 54.9583C54.7988 54.4832 54.261 53.8766 53.4515 53.1527L53.3731 53.0826L53.2747 53.0457C52.9002 52.9052 52.5404 52.8319 52.2097 52.8683C51.8567 52.9072 51.5576 53.0704 51.3526 53.3481C51.1622 53.6061 51.0864 53.9169 51.0623 54.2074C51.0379 54.5027 51.0629 54.8248 51.1155 55.1494C51.3035 56.3095 51.8916 57.7781 52.416 58.8741C50.1051 61.7921 46.2928 69.094 47.7698 77.4648Z" fill="url(#paint3_linear_1330_8568)"/>
<path d="M47.7698 77.4648L47.7813 77.5301L47.8077 77.5909C49.3114 81.0514 53.1078 82.2815 56.9882 82.2923C60.8936 82.3033 65.1247 81.0929 67.8582 79.3941L67.879 79.3812L67.8986 79.3665C70.0483 77.7546 70.82 76.0754 70.3239 74.4697C69.858 72.962 68.3328 71.7869 66.5982 70.9662C64.8317 70.1304 62.6988 69.5902 60.7818 69.4354C59.8222 69.3579 58.9002 69.3755 58.0946 69.5089C57.3227 69.6367 56.612 69.8782 56.0841 70.2862C56.062 70.2169 56.04 70.1283 56.0202 70.0179C55.9011 69.3539 55.9144 68.2375 56.0324 66.8946C56.2567 64.3414 56.837 61.1891 57.3731 59.3481C57.8109 59.1283 58.3982 58.7867 58.9776 58.3583C59.6597 57.854 60.3793 57.1943 60.8086 56.4316C60.9385 56.2009 61.0424 55.8858 60.9207 55.5585C60.7991 55.2313 60.5187 55.0711 60.3028 54.9931C59.885 54.8421 59.2947 54.8463 58.7287 54.8945C57.7209 54.9805 56.4689 55.2412 55.4839 55.4892C55.3989 55.3326 55.2868 55.1552 55.1438 54.9583C54.7988 54.4832 54.261 53.8766 53.4515 53.1527L53.3731 53.0826L53.2747 53.0457C52.9002 52.9052 52.5404 52.8319 52.2097 52.8683C51.8567 52.9072 51.5576 53.0704 51.3526 53.3481C51.1622 53.6061 51.0864 53.9169 51.0623 54.2074C51.0379 54.5027 51.0629 54.8248 51.1155 55.1494C51.3035 56.3095 51.8916 57.7781 52.416 58.8741C50.1051 61.7921 46.2928 69.094 47.7698 77.4648Z" fill="url(#paint4_linear_1330_8568)"/>
<path d="M47.7698 77.4648L47.7813 77.5301L47.8077 77.5909C49.3114 81.0514 53.1078 82.2815 56.9882 82.2923C60.8936 82.3033 65.1247 81.0929 67.8582 79.3941L67.879 79.3812L67.8986 79.3665C70.0483 77.7546 70.82 76.0754 70.3239 74.4697C69.858 72.962 68.3328 71.7869 66.5982 70.9662C64.8317 70.1304 62.6988 69.5902 60.7818 69.4354C59.8222 69.3579 58.9002 69.3755 58.0946 69.5089C57.3227 69.6367 56.612 69.8782 56.0841 70.2862C56.062 70.2169 56.04 70.1283 56.0202 70.0179C55.9011 69.3539 55.9144 68.2375 56.0324 66.8946C56.2567 64.3414 56.837 61.1891 57.3731 59.3481C57.8109 59.1283 58.3982 58.7867 58.9776 58.3583C59.6597 57.854 60.3793 57.1943 60.8086 56.4316C60.9385 56.2009 61.0424 55.8858 60.9207 55.5585C60.7991 55.2313 60.5187 55.0711 60.3028 54.9931C59.885 54.8421 59.2947 54.8463 58.7287 54.8945C57.7209 54.9805 56.4689 55.2412 55.4839 55.4892C55.3989 55.3326 55.2868 55.1552 55.1438 54.9583C54.7988 54.4832 54.261 53.8766 53.4515 53.1527L53.3731 53.0826L53.2747 53.0457C52.9002 52.9052 52.5404 52.8319 52.2097 52.8683C51.8567 52.9072 51.5576 53.0704 51.3526 53.3481C51.1622 53.6061 51.0864 53.9169 51.0623 54.2074C51.0379 54.5027 51.0629 54.8248 51.1155 55.1494C51.3035 56.3095 51.8916 57.7781 52.416 58.8741C50.1051 61.7921 46.2928 69.094 47.7698 77.4648Z" stroke="black" stroke-width="1.12175"/>
<path d="M60.0033 71.999C58.8338 72.5367 58.2016 73.9404 57.8417 75.1014C57.5887 75.9175 57.4489 76.7888 57.5834 77.6403C57.6478 78.0485 57.7392 78.3595 57.902 78.7386C58.0919 79.1809 58.3341 79.3576 58.6082 79.7105" stroke="black" stroke-width="1.14013" stroke-linecap="round"/>
<path d="M57.7154 73.3624C56.4014 72.8291 55.0237 73.2033 53.659 72.9864C52.7595 72.8435 52.0444 72.3584 51.4929 71.652V71.652C51.2467 71.3366 50.7469 71.4647 50.68 71.8591C50.6094 72.2755 50.5493 72.7229 50.565 72.9692C50.6158 73.7632 50.8547 74.5374 51.0965 75.2909C51.3528 76.0896 51.6548 76.9396 52.2054 77.5896C53.2724 78.8493 54.9108 78.967 56.4226 78.6314" stroke="black" stroke-width="1.14013" stroke-linecap="round"/>
<path d="M54.3011 62.9052C54.525 62.1842 54.6604 61.0918 53.4108 62.49C53.5805 61.6095 53.6598 60.344 52.6193 62.3255" stroke="#FF73A5" stroke-width="0.349396" stroke-linecap="round" stroke-linejoin="round"/>
<path d="M54.9817 74.5834C54.2374 74.7097 53.2018 75.083 55.014 75.5652C54.152 75.812 52.9874 76.3136 55.2253 76.3456" stroke="#FF73A5" stroke-width="0.349396" stroke-linecap="round" stroke-linejoin="round"/>
<path d="M53.1946 64.5049C53.6269 63.886 54.4069 63.1093 54.0685 64.9537C54.66 64.2798 55.6112 63.4413 54.6837 65.4782" stroke="#FF73A5" stroke-width="0.349396" stroke-linecap="round" stroke-linejoin="round"/>
<path d="M56.8599 81.2929C56.1068 81.3461 55.0124 81.2283 56.6591 80.3313C55.7632 80.2953 54.513 80.0832 56.6799 79.5231" stroke="#FF73A5" stroke-width="0.349396" stroke-linecap="round" stroke-linejoin="round"/>
<path d="M48.8053 75.4461C48.3269 74.8621 47.791 73.9006 49.4744 74.7268C48.9863 73.9746 48.4373 72.8316 50.1461 74.2769" stroke="#FF73A5" stroke-width="0.349396" stroke-linecap="round" stroke-linejoin="round"/>
<path d="M49.8274 68.6357C50.2597 68.0168 51.0397 67.2401 50.7013 69.0845C51.2928 68.4107 52.244 67.5722 51.3165 69.609" stroke="#FF73A5" stroke-width="0.349396" stroke-linecap="round" stroke-linejoin="round"/>
<path d="M52.6375 66.0809C52.4875 65.341 52.0814 64.3179 51.6572 66.1445C51.383 65.2908 50.8446 64.1428 50.884 66.3805" stroke="#FF73A5" stroke-width="0.349396" stroke-linecap="round" stroke-linejoin="round"/>
<path d="M54.4813 70.2001C54.3313 69.4602 53.9252 68.437 53.501 70.2636C53.2268 69.4099 52.6883 68.2619 52.7277 70.4997" stroke="#FF73A5" stroke-width="0.349396" stroke-linecap="round" stroke-linejoin="round"/>
<path d="M65.5719 72.708C66.1012 72.9392 66.6937 73.5791 66.7263 74.1827C66.7263 74.6675 66.6033 74.9102 66.2709 75.3056C65.5061 76.215 64.0214 75.4446 63.344 74.796C62.2121 73.7122 64.5191 72.2481 65.5719 72.708Z" fill="white" stroke="#070707" stroke-width="1.14013" stroke-linecap="round"/>
<path d="M66.4937 73.6866C66.2666 72.8538 64.6009 73.9286 64.9243 74.7464C65.0006 74.9393 65.2113 75.3021 65.4565 75.3101C65.72 75.3188 66.0002 75.1123 66.1149 74.8862C66.2777 74.5652 66.1895 73.9437 65.7451 73.9482C65.4894 73.9507 65.3204 74.0667 65.1994 74.2909C65.1392 74.4026 65.1959 74.501 65.3122 74.539C65.6352 74.6446 65.9869 74.1062 65.8759 73.8174C65.8292 73.6961 65.6637 73.8622 65.6233 73.8986C65.4195 74.0823 65.1954 74.3479 65.3031 74.6427C65.4449 75.0306 65.7515 74.7593 65.8037 74.4984" stroke="#070707" stroke-width="1.14013" stroke-linecap="round"/>
<path d="M65.1567 77.5146C65.6834 77.5668 65.9411 77.7502 66.1371 78.1201C66.4434 78.2192 66.2206 78.5618 66.0796 78.7066C65.543 79.2576 64.3915 79.6102 63.5604 79.6884C62.0946 79.8262 60.1403 79.0359 59.4779 77.9782C59.0442 77.2857 58.9686 76.3579 59.6907 75.7664C60.3011 75.2663 61.1866 75.7283 61.6423 76.1776C62.14 76.6685 62.3004 77.356 63.1005 77.6149C63.7908 77.8383 64.4428 77.4439 65.1567 77.5146Z" fill="white" stroke="black" stroke-width="1.14013" stroke-linecap="round"/>
<path d="M61.9664 76.8808C61.3699 77.4084 60.5699 77.854 59.8518 78.2713" stroke="black" stroke-width="1.14013" stroke-linecap="round"/>
<path d="M62.8906 77.8096C62.6008 78.3738 62.4338 78.9715 62.1458 79.5323" stroke="black" stroke-width="1.14013" stroke-linecap="round"/>
<path d="M64.0547 78.001C64.1156 78.506 64.2876 79.0218 64.2988 79.525" stroke="black" stroke-width="1.14013" stroke-linecap="round"/>
<path d="M66.5312 67.7822C66.5763 68.0223 66.7241 68.2468 66.865 68.4406C67.0907 68.7512 67.4763 69.332 67.909 69.3494C68.2702 69.3638 68.48 68.9201 68.6148 68.6571C68.8534 68.1914 69.1571 67.6621 69.21 67.1328" stroke="black" stroke-width="1.14013" stroke-linecap="round"/>
<path d="M65.43 66.1701C65.3581 65.8911 65.0868 65.3291 64.7297 65.3291C64.4871 65.5588 63.4859 66.5418 63.7347 67.814C63.7347 67.814 64.3482 67.8539 64.5146 67.814C64.8004 67.7454 65.0575 67.4421 65.2136 67.2142C65.4388 66.8852 65.5323 66.5668 65.43 66.1701Z" fill="white" stroke="black" stroke-width="1.14013" stroke-linecap="round"/>
<path d="M64.9671 66.9297C64.9333 66.7777 64.5295 67.2456 64.5049 67.2859C64.5021 67.2905 64.4094 67.4533 64.4643 67.4167C64.5728 67.3443 64.6728 67.2431 64.7687 67.1552C64.8749 67.0577 64.7192 67.0919 64.6492 67.101C64.5001 67.1206 64.3373 67.1621 64.2072 67.2408C64.1039 67.3034 64.4349 67.16 64.5477 67.1168C64.5884 67.1013 64.6631 67.0911 64.683 67.0514" stroke="black" stroke-width="1.14013" stroke-linecap="round"/>
<path d="M78.8301 67.498C78.9191 68.1655 79.196 68.7545 79.1999 69.4463C79.2066 70.6274 78.9535 71.977 78.1131 72.8601C77.1665 73.8548 75.5786 74.4791 74.2031 74.4791" stroke="black" stroke-width="1.14013" stroke-linecap="round"/>
<path d="M77.3672 74.0735C77.5177 74.0902 77.6289 74.2556 77.737 74.344C78.5016 74.9696 79.4275 75.3948 80.3166 75.8097C81.1696 76.2078 82.0333 76.5335 82.9683 76.6801C83.4743 76.7594 84.3018 76.8909 84.7993 76.6711C85.4591 76.3795 84.8209 75.3943 84.5783 75.0881C83.4807 73.7031 81.7629 72.5763 80.1272 71.9629" stroke="black" stroke-width="1.14013" stroke-linecap="round"/>
<path d="M107.432 81.319C104.76 81.319 102.418 80.6423 100.405 79.2889C98.3924 77.9355 96.9348 76.0962 96.0326 73.7711L99.312 72.2095C100.11 73.9099 101.221 75.2634 102.643 76.2697C104.101 77.2761 105.697 77.7793 107.432 77.7793C109.098 77.7793 110.504 77.3802 111.649 76.5821C112.794 75.7492 113.367 74.6734 113.367 73.3547C113.367 72.383 113.089 71.6196 112.534 71.0643C111.978 70.4744 111.336 70.0232 110.608 69.7109C109.879 69.3986 109.237 69.173 108.682 69.0342L104.674 67.889C102.106 67.1603 100.249 66.1365 99.1038 64.8178C97.9586 63.4991 97.386 61.9722 97.386 60.237C97.386 58.606 97.8024 57.1832 98.6353 55.9686C99.4681 54.754 100.596 53.817 102.019 53.1577C103.442 52.4983 105.021 52.1687 106.756 52.1687C109.116 52.1687 111.25 52.7933 113.158 54.0426C115.102 55.2572 116.473 56.9576 117.271 59.1439L113.939 60.7055C113.245 59.1439 112.239 57.9293 110.92 57.0617C109.636 56.1595 108.196 55.7083 106.6 55.7083C105.038 55.7083 103.789 56.1074 102.852 56.9056C101.915 57.7037 101.446 58.7101 101.446 59.9247C101.446 60.8617 101.689 61.6078 102.175 62.1631C102.661 62.7183 103.216 63.1347 103.841 63.4124C104.5 63.69 105.073 63.8982 105.558 64.037L110.191 65.3904C112.447 66.0498 114.199 67.0735 115.449 68.4616C116.733 69.8497 117.375 71.4807 117.375 73.3547C117.375 74.8816 116.941 76.2524 116.073 77.467C115.241 78.6816 114.078 79.6359 112.586 80.33C111.094 80.9893 109.376 81.319 107.432 81.319Z" fill="#5A0046"/>
<path d="M140.096 81.0016C137.607 81.7599 135.167 81.85 132.778 81.2718C130.412 80.6502 128.325 79.4541 126.516 77.6834C124.707 75.9127 123.393 73.6829 122.574 70.9939C121.755 68.305 121.596 65.7595 122.098 63.3575C122.589 60.9223 123.616 58.8139 125.177 57.0323C126.772 55.2406 128.781 53.9757 131.204 53.2375C133.13 52.651 134.95 52.4954 136.667 52.7707C138.406 53.0027 139.994 53.5711 141.43 54.4758C142.857 55.3473 144.085 56.4606 145.114 57.8158C146.134 59.1377 146.886 60.5954 147.371 62.1889C147.472 62.5208 147.572 62.9077 147.67 63.3493C147.759 63.7578 147.835 64.1879 147.9 64.6397L125.343 71.5108L124.281 68.0251L144.697 61.8063L143.36 63.8462C143.102 61.9293 142.391 60.3684 141.226 59.1634C140.084 57.9151 138.722 57.0782 137.142 56.6528C135.551 56.1941 133.926 56.2176 132.266 56.7232C130.606 57.2288 129.194 58.1306 128.029 59.4285C126.898 60.7163 126.171 62.2617 125.85 64.0646C125.518 65.8344 125.759 67.7563 126.572 69.8303C127.054 72.0055 127.952 73.7634 129.267 75.104C130.605 76.4014 132.136 77.2591 133.86 77.6773C135.617 78.0854 137.342 78.0316 139.035 77.5159C140.993 76.9193 142.495 75.954 143.54 74.62C144.585 73.286 145.309 71.7955 145.715 70.1484L149.417 70.8707C149.25 72.2276 148.776 73.5874 147.994 74.9502C147.201 76.2798 146.138 77.4926 144.803 78.5884C143.491 79.641 141.922 80.4454 140.096 81.0016Z" fill="#5A0046"/>
<path d="M9.224 81V45.24H12.584L26.024 64.728H24.152L37.544 45.24H40.904V81H37.064V50.424L38.312 50.904L25.16 69.96H24.968L11.864 50.904L13.064 50.424V81H9.224Z" fill="#5A0046"/>
<defs>
<linearGradient id="paint0_linear_1330_8568" x1="70.5558" y1="72.9784" x2="71.0921" y2="81.1028" gradientUnits="userSpaceOnUse">
<stop stop-color="#FFB763"/>
<stop offset="0.67" stop-color="#A0E548"/>
</linearGradient>
<linearGradient id="paint1_linear_1330_8568" x1="80.5433" y1="60.3926" x2="80.5433" y2="79.0339" gradientUnits="userSpaceOnUse">
<stop offset="0.33" stop-color="#FFB763"/>
<stop offset="0.85" stop-color="#A0E548"/>
</linearGradient>
<linearGradient id="paint2_linear_1330_8568" x1="58.9531" y1="61.4593" x2="58.9531" y2="81.7316" gradientUnits="userSpaceOnUse">
<stop offset="0.38" stop-color="#A8BFEC"/>
<stop offset="1" stop-color="#DC35AD"/>
</linearGradient>
<linearGradient id="paint3_linear_1330_8568" x1="57.402" y1="60.8125" x2="57.402" y2="79.4538" gradientUnits="userSpaceOnUse">
<stop offset="0.33" stop-color="#FFB763"/>
<stop offset="0.85" stop-color="#A0E548"/>
</linearGradient>
<linearGradient id="paint4_linear_1330_8568" x1="59.5099" y1="60.7813" x2="59.5099" y2="79.3441" gradientUnits="userSpaceOnUse">
<stop offset="0.22" stop-color="#4890E5"/>
<stop offset="0.76" stop-color="#FF4158"/>
</linearGradient>
</defs>
</svg>
