<svg width="164" height="120" viewBox="0 0 164 120" fill="none" xmlns="http://www.w3.org/2000/svg">
<g filter="url(#filter0_dii_1330_8770)">
<mask id="path-1-outside-1_1330_8770" maskUnits="userSpaceOnUse" x="46.1294" y="42.677" width="46.9611" height="47.9757" fill="black">
<rect fill="white" x="46.1294" y="42.677" width="46.9611" height="47.9757"/>
<path fill-rule="evenodd" clip-rule="evenodd" d="M85.9185 84.4899C85.4329 84.5377 84.6649 84.3818 83.5508 83.6108L83.3005 83.9984C83.1792 83.9007 83.0897 83.8012 83.0349 83.7085C82.9674 83.5944 82.9346 83.469 82.9792 83.2806C83.0307 83.0634 83.2013 82.7121 83.6708 82.2498C83.8797 82.0442 84.067 81.8338 84.2296 81.6186C85.1628 81.3306 85.785 81.3987 86.1751 81.5546C86.0815 81.8183 86.0933 82.124 86.2325 82.4039C86.5504 83.0432 86.6221 83.4739 86.6092 83.7381C86.5975 83.978 86.5161 84.123 86.401 84.2324C86.2919 84.336 86.1274 84.4262 85.9185 84.4899ZM86.3711 86.6167C86.6502 86.5784 86.918 86.5068 87.1732 86.402C88.4683 85.8701 89.1113 84.6117 89.1881 83.3954C89.265 82.1792 88.7897 80.7848 87.5812 79.9485C86.8388 79.4348 85.9348 79.2092 84.9117 79.2857C84.8991 79.2112 84.8832 79.1377 84.864 79.0652C85.8852 79.4073 86.8248 79.4098 87.6363 79.0765C88.9313 78.5446 89.5743 77.2862 89.6512 76.0699C89.7281 74.8537 89.2527 73.4593 88.0442 72.623C86.8176 71.7743 85.1498 71.712 83.2326 72.4994C81.683 73.136 80.8376 72.8927 80.4465 72.6221C80.0374 72.339 79.7907 71.8002 79.8296 71.185C79.8685 70.5699 80.179 70.0987 80.6174 69.9187C81.0364 69.7466 81.8995 69.711 83.3456 70.7117C85.1348 71.9498 86.785 72.2909 88.0993 71.751C89.3943 71.2191 90.0373 69.9607 90.1142 68.7444C90.1911 67.5282 89.7158 66.1338 88.5072 65.2975C87.2806 64.4488 85.6128 64.3865 83.6957 65.174C82.146 65.8105 81.3006 65.5672 80.9095 65.2966C80.5004 65.0135 80.2538 64.4747 80.2926 63.8595C80.3315 63.2444 80.642 62.7732 81.0804 62.5932C81.4994 62.4211 82.3625 62.3855 83.8087 63.3862C85.5978 64.6243 87.248 64.9654 88.5623 64.4255C89.8574 63.8936 90.5004 62.6352 90.5772 61.4189C90.6541 60.2027 90.1788 58.8083 88.9702 57.972C87.7437 57.1233 86.0758 57.061 84.1587 57.8485C82.6091 58.485 81.7636 58.2417 81.3726 57.9711C80.9635 57.688 80.7168 57.1492 80.7557 56.534C80.7946 55.9189 81.1051 55.4477 81.5434 55.2677C81.9625 55.0956 82.8255 55.06 84.2717 56.0607C86.0608 57.2988 87.711 57.6399 89.0254 57.1C90.3204 56.5681 90.9634 55.3097 91.0403 54.0934C91.1171 52.8772 90.6418 51.4828 89.4333 50.6465C88.2067 49.7978 86.5389 49.7355 84.6217 50.523L85.5159 52.5211C87.0655 51.8846 87.911 52.1278 88.302 52.3984C88.7111 52.6815 88.9578 53.2204 88.9189 53.8355C88.88 54.4507 88.5695 54.9218 88.1312 55.1019C87.7121 55.274 86.8491 55.3095 85.4029 54.3088C83.6138 53.0708 81.9636 52.7297 80.6492 53.2695C79.3542 53.8015 78.7112 55.0599 78.6343 56.2761C78.5575 57.4923 79.0328 58.8867 80.2413 59.723C81.4679 60.5718 83.1357 60.6341 85.0529 59.8466C86.6025 59.2101 87.448 59.4533 87.839 59.7239C88.2481 60.007 88.4948 60.5459 88.4559 61.161C88.417 61.7762 88.1065 62.2473 87.6681 62.4274C87.2491 62.5995 86.386 62.635 84.9399 61.6343C83.1508 60.3963 81.5006 60.0552 80.1862 60.595C78.8912 61.127 78.2482 62.3854 78.1713 63.6016C78.0944 64.8178 78.5697 66.2122 79.7783 67.0485C81.0049 67.8973 82.6727 67.9596 84.5899 67.1721C86.1395 66.5356 86.9849 66.7788 87.376 67.0494C87.7851 67.3325 88.0317 67.8714 87.9929 68.4865C87.954 69.1017 87.6435 69.5728 87.2051 69.7529C86.7861 69.925 85.923 69.9605 84.4769 68.9598C82.6877 67.7218 81.0375 67.3807 79.7232 67.9205C78.4281 68.4525 77.7851 69.7109 77.7083 70.9271C77.6314 72.1433 78.1067 73.5377 79.3153 74.374C80.5418 75.2228 82.2097 75.2851 84.1268 74.4976C85.6764 73.8611 86.5219 74.1043 86.9129 74.3749C87.322 74.658 87.5687 75.1969 87.5298 75.812C87.4909 76.4272 87.1804 76.8983 86.7421 77.0784C86.323 77.2505 85.46 77.286 84.0138 76.2853C82.2247 75.0473 80.5745 74.7062 79.2601 75.246C78.0521 75.7422 77.4114 76.8706 77.2684 78.0071C77.0704 78.3875 76.9744 78.8327 77.0113 79.3284C77.0661 80.0662 77.4069 80.8232 77.9488 81.5835C78.3542 82.1522 78.4572 82.5131 78.4709 82.6973C78.4813 82.8382 78.4463 82.9083 78.3742 82.9793C78.1426 83.2072 77.4845 83.4128 76.5781 83.3072C75.6716 83.2017 75.0505 82.8472 74.8523 82.5691C74.7906 82.4826 74.7652 82.4055 74.794 82.2691C74.8316 82.091 74.9803 81.7593 75.454 81.293C76.0872 80.6696 76.5219 80.0028 76.6725 79.2889C76.832 78.5333 76.6504 77.8246 76.2385 77.2467C75.4894 76.1958 74.0962 75.7064 72.9484 75.5727C71.8007 75.4391 70.3646 75.599 69.4893 76.4608C69.008 76.9346 68.7364 77.5906 68.7944 78.3716C68.8493 79.1094 69.19 79.8664 69.7319 80.6266C70.1373 81.1953 70.2403 81.5563 70.254 81.7405C70.2645 81.8814 70.2294 81.9514 70.1573 82.0224C69.9258 82.2504 69.2677 82.4559 68.3612 82.3504C67.4548 82.2448 66.8336 81.8904 66.6354 81.6123C66.5737 81.5257 66.5484 81.4487 66.5772 81.3123C66.6148 81.1341 66.7635 80.8025 67.2371 80.3361C67.8704 79.7127 68.305 79.046 68.4557 78.3321C68.6151 77.5764 68.4336 76.8678 68.0216 76.2899C67.2725 75.2389 65.8794 74.7495 64.7316 74.6159C63.5838 74.4822 62.1478 74.6422 61.2725 75.5039C61.1095 75.6644 60.9706 75.8457 60.8604 76.0457C60.6487 75.2212 60.1708 74.4285 59.375 73.8778C58.1484 73.029 56.4806 72.9667 54.5634 73.7542C54.5574 73.7566 54.5513 73.7591 54.5453 73.7616C54.3088 73.8201 54.0787 73.8982 53.8613 73.9988C52.7505 74.3107 52.1047 74.1034 51.7773 73.8768C51.3682 73.5937 51.1215 73.0549 51.1604 72.4397C51.1993 71.8246 51.5098 71.3535 51.9482 71.1734C52.3672 71.0013 53.2303 70.9657 54.6764 71.9664C56.4656 73.2045 58.1158 73.5456 59.4301 73.0057C60.7251 72.4738 61.3681 71.2154 61.445 69.9991C61.5219 68.7829 61.0466 67.3886 59.838 66.5523C58.6114 65.7035 56.9436 65.6412 55.0265 66.4287C53.4768 67.0652 52.6314 66.8219 52.2403 66.5513C51.8312 66.2682 51.5846 65.7294 51.6234 65.1142C51.6623 64.4991 51.9728 64.028 52.4112 63.8479C52.8303 63.6758 53.6933 63.6402 55.1395 64.6409C56.9286 65.879 58.5788 66.2201 59.8931 65.6802C61.1882 65.1483 61.8312 63.8899 61.908 62.6736C61.9849 61.4574 61.5096 60.0631 60.3011 59.2268C59.0745 58.378 57.4067 58.3157 55.4895 59.1032C53.9399 59.7397 53.0944 59.4964 52.7034 59.2258C52.2943 58.9427 52.0476 58.4039 52.0865 57.7887C52.1254 57.1736 52.4359 56.7025 52.8742 56.5224C53.2933 56.3503 54.1564 56.3147 55.6025 57.3154C57.3916 58.5535 59.0418 58.8946 60.3562 58.3547C61.6512 57.8228 62.2942 56.5644 62.3711 55.3481C62.448 54.1319 61.9726 52.7376 60.7641 51.9013C59.5375 51.0525 57.8697 50.9902 55.9525 51.7777C54.4029 52.4142 53.5575 52.1709 53.1664 51.9003C52.7573 51.6172 52.5106 51.0784 52.5495 50.4632C52.5884 49.8481 52.8989 49.377 53.3373 49.1969C53.7563 49.0248 54.6194 48.9892 56.0655 49.9899L57.1968 48.238C55.4076 47 53.7574 46.6589 52.4431 47.1988C51.148 47.7307 50.505 48.9891 50.4282 50.2053C50.3513 51.4216 50.8266 52.8159 52.0352 53.6522C53.2617 54.501 54.9296 54.5633 56.8467 53.7758C58.3963 53.1393 59.2418 53.3826 59.6329 53.6532C60.0419 53.9363 60.2886 54.4751 60.2497 55.0903C60.2109 55.7054 59.9003 56.1765 59.462 56.3566C59.0429 56.5287 58.1799 56.5642 56.7337 55.5635C54.9446 54.3255 53.2944 53.9844 51.98 54.5243C50.685 55.0562 50.042 56.3146 49.9651 57.5308C49.8883 58.7471 50.3636 60.1414 51.5721 60.9777C52.7987 61.8265 54.4665 61.8888 56.3837 61.1013C57.9333 60.4648 58.7788 60.7081 59.1698 60.9787C59.5789 61.2617 59.8256 61.8006 59.7867 62.4158C59.7478 63.0309 59.4373 63.502 58.9989 63.6821C58.5799 63.8542 57.7168 63.8897 56.2707 62.889C54.4816 61.651 52.8314 61.3099 51.517 61.8498C50.222 62.3817 49.579 63.6401 49.5021 64.8563C49.4252 66.0726 49.9006 67.4669 51.1091 68.3032C52.3357 69.152 54.0035 69.2143 55.9207 68.4268C57.4703 67.7903 58.3157 68.0335 58.7068 68.3042C59.1159 68.5872 59.3626 69.1261 59.3237 69.7412C59.2848 70.3564 58.9743 70.8275 58.5359 71.0076C58.1169 71.1797 57.2538 71.2152 55.8077 70.2145C54.0185 68.9765 52.3683 68.6354 51.054 69.1753C49.759 69.7072 49.1159 70.9656 49.0391 72.1818C48.9622 73.398 49.4375 74.7924 50.6461 75.6287C51.1461 75.9747 51.7194 76.19 52.3531 76.2703C52.3531 76.2739 52.3531 76.2774 52.3532 76.2809C51.7188 76.2069 51.1269 76.2806 50.5909 76.5008C50.287 76.6256 50.019 76.7904 49.7858 76.9854C49.6091 77.0487 49.4495 77.1617 49.3285 77.3221C48.8059 78.0144 48.4837 78.7241 48.42 79.4422C48.3649 80.0623 48.5085 80.6333 48.7992 81.1211C49.0455 81.8224 49.4957 82.4786 50.183 82.9542C51.4096 83.803 53.0774 83.8653 54.9946 83.0778L54.6833 82.3822C54.9822 82.2062 55.252 81.9808 55.4724 81.6975C55.7878 81.2921 55.972 80.8004 55.9964 80.2496C56.0721 80.2779 56.1474 80.3044 56.2222 80.329C56.217 80.8887 56.3975 81.4092 56.7136 81.8526C57.4627 82.9036 58.8559 83.393 60.0036 83.5266C61.1514 83.6603 62.5874 83.5003 63.4627 82.6386C63.9441 82.1647 64.2157 81.5088 64.1576 80.7277C64.1028 79.9899 63.762 79.2329 63.2201 78.4727C62.8147 77.904 62.7117 77.543 62.698 77.3589C62.6876 77.2179 62.7226 77.1479 62.7947 77.0769C63.0263 76.8489 63.6844 76.6434 64.5908 76.7489C65.4973 76.8545 66.1184 77.209 66.3166 77.487C66.3783 77.5736 66.4037 77.6506 66.3749 77.787C66.3373 77.9652 66.1886 78.2968 65.7149 78.7632C65.0817 79.3866 64.647 80.0533 64.4964 80.7672C64.3369 81.5229 64.5185 82.2316 64.9304 82.8095C65.6795 83.8604 67.0727 84.3498 68.2205 84.4834C69.3683 84.6171 70.8043 84.4571 71.6796 83.5954C72.1609 83.1215 72.4325 82.4656 72.3745 81.6846C72.3196 80.9467 71.9789 80.1897 71.437 79.4295C71.0316 78.8608 70.9286 78.4998 70.9149 78.3157C70.9044 78.1747 70.9395 78.1047 71.0116 78.0337C71.2431 77.8057 71.9013 77.6002 72.8077 77.7058C73.7141 77.8113 74.3353 78.1658 74.5335 78.4438C74.5952 78.5304 74.6205 78.6075 74.5917 78.7438C74.5541 78.922 74.4054 79.2537 73.9318 79.72C73.2985 80.3434 72.8639 81.0101 72.7132 81.724C72.5538 82.4797 72.7353 83.1884 73.1473 83.7663C73.8964 84.8172 75.2895 85.3066 76.4373 85.4402C77.5851 85.5739 79.0211 85.414 79.8964 84.5522C80.3778 84.0783 80.6494 83.4224 80.5913 82.6414C80.5839 82.5414 80.5712 82.441 80.5535 82.3404C80.6994 82.3591 80.8485 82.3706 81.0007 82.3749C80.9649 82.4773 80.9345 82.5806 80.9098 82.6847C80.7343 83.4247 80.8646 84.1353 81.2232 84.7417C81.8931 85.8743 83.2309 86.4685 84.3826 86.6595C85.0074 86.7631 85.7103 86.7704 86.3711 86.6167ZM82.7716 79.8241C82.7894 79.7771 82.8012 79.7359 82.8086 79.7007C82.8374 79.5643 82.812 79.4872 82.7503 79.4006C82.5521 79.1226 81.931 78.7681 81.0245 78.6626C80.2684 78.5745 79.685 78.703 79.3779 78.8803C79.4365 79.3373 79.6589 79.723 79.9835 79.9476C80.3745 80.2182 81.22 80.4615 82.7696 79.8249C82.7703 79.8247 82.771 79.8244 82.7716 79.8241ZM55.2994 75.8156C55.5937 75.7608 55.9577 75.7436 56.374 75.7921C57.2804 75.8977 57.9016 76.2521 58.0998 76.5302C58.1615 76.6168 58.1868 76.6938 58.1581 76.8302C58.1205 77.0084 57.9718 77.34 57.4981 77.8064C57.3158 77.9858 57.15 78.1688 57.0027 78.3555C56.5676 78.2485 56.0196 78.0071 55.3446 77.54C55.1552 77.409 54.9673 77.2879 54.7813 77.1769C54.5577 76.7998 54.4919 76.5465 54.4812 76.402C54.4707 76.2611 54.5058 76.1911 54.5779 76.1201C54.6123 76.0862 54.6562 76.0527 54.7089 76.0208C54.9028 75.9617 55.0997 75.8933 55.2994 75.8156ZM58.3536 80.5146C58.3631 80.5659 58.3857 80.6093 58.4186 80.6555C58.6168 80.9335 59.2379 81.288 60.1444 81.3936C61.0508 81.4991 61.7089 81.2936 61.9405 81.0656C62.0126 80.9946 62.0476 80.9246 62.0372 80.7836C62.0235 80.5995 61.9205 80.2385 61.5151 79.6698C61.196 79.2222 60.9466 78.7756 60.7844 78.3335C60.4966 79.1851 59.9016 79.9473 58.9671 80.3312C58.7699 80.4122 58.5652 80.4734 58.3536 80.5146ZM53.3389 78.7708C52.4076 78.3136 51.8116 78.3648 51.4851 78.4989C51.0468 78.679 50.7363 79.1501 50.6974 79.7652C50.6873 79.9248 50.6964 80.0793 50.7227 80.2256C50.9799 80.4788 51.5233 80.7279 52.2422 80.7646C53.045 80.8056 53.59 80.5594 53.7758 80.3205C53.843 80.2342 53.8915 80.1202 53.8658 79.9119C53.8376 79.6831 53.7124 79.3082 53.3389 78.7708Z"/>
</mask>
<path fill-rule="evenodd" clip-rule="evenodd" d="M85.9185 84.4899C85.4329 84.5377 84.6649 84.3818 83.5508 83.6108L83.3005 83.9984C83.1792 83.9007 83.0897 83.8012 83.0349 83.7085C82.9674 83.5944 82.9346 83.469 82.9792 83.2806C83.0307 83.0634 83.2013 82.7121 83.6708 82.2498C83.8797 82.0442 84.067 81.8338 84.2296 81.6186C85.1628 81.3306 85.785 81.3987 86.1751 81.5546C86.0815 81.8183 86.0933 82.124 86.2325 82.4039C86.5504 83.0432 86.6221 83.4739 86.6092 83.7381C86.5975 83.978 86.5161 84.123 86.401 84.2324C86.2919 84.336 86.1274 84.4262 85.9185 84.4899ZM86.3711 86.6167C86.6502 86.5784 86.918 86.5068 87.1732 86.402C88.4683 85.8701 89.1113 84.6117 89.1881 83.3954C89.265 82.1792 88.7897 80.7848 87.5812 79.9485C86.8388 79.4348 85.9348 79.2092 84.9117 79.2857C84.8991 79.2112 84.8832 79.1377 84.864 79.0652C85.8852 79.4073 86.8248 79.4098 87.6363 79.0765C88.9313 78.5446 89.5743 77.2862 89.6512 76.0699C89.7281 74.8537 89.2527 73.4593 88.0442 72.623C86.8176 71.7743 85.1498 71.712 83.2326 72.4994C81.683 73.136 80.8376 72.8927 80.4465 72.6221C80.0374 72.339 79.7907 71.8002 79.8296 71.185C79.8685 70.5699 80.179 70.0987 80.6174 69.9187C81.0364 69.7466 81.8995 69.711 83.3456 70.7117C85.1348 71.9498 86.785 72.2909 88.0993 71.751C89.3943 71.2191 90.0373 69.9607 90.1142 68.7444C90.1911 67.5282 89.7158 66.1338 88.5072 65.2975C87.2806 64.4488 85.6128 64.3865 83.6957 65.174C82.146 65.8105 81.3006 65.5672 80.9095 65.2966C80.5004 65.0135 80.2538 64.4747 80.2926 63.8595C80.3315 63.2444 80.642 62.7732 81.0804 62.5932C81.4994 62.4211 82.3625 62.3855 83.8087 63.3862C85.5978 64.6243 87.248 64.9654 88.5623 64.4255C89.8574 63.8936 90.5004 62.6352 90.5772 61.4189C90.6541 60.2027 90.1788 58.8083 88.9702 57.972C87.7437 57.1233 86.0758 57.061 84.1587 57.8485C82.6091 58.485 81.7636 58.2417 81.3726 57.9711C80.9635 57.688 80.7168 57.1492 80.7557 56.534C80.7946 55.9189 81.1051 55.4477 81.5434 55.2677C81.9625 55.0956 82.8255 55.06 84.2717 56.0607C86.0608 57.2988 87.711 57.6399 89.0254 57.1C90.3204 56.5681 90.9634 55.3097 91.0403 54.0934C91.1171 52.8772 90.6418 51.4828 89.4333 50.6465C88.2067 49.7978 86.5389 49.7355 84.6217 50.523L85.5159 52.5211C87.0655 51.8846 87.911 52.1278 88.302 52.3984C88.7111 52.6815 88.9578 53.2204 88.9189 53.8355C88.88 54.4507 88.5695 54.9218 88.1312 55.1019C87.7121 55.274 86.8491 55.3095 85.4029 54.3088C83.6138 53.0708 81.9636 52.7297 80.6492 53.2695C79.3542 53.8015 78.7112 55.0599 78.6343 56.2761C78.5575 57.4923 79.0328 58.8867 80.2413 59.723C81.4679 60.5718 83.1357 60.6341 85.0529 59.8466C86.6025 59.2101 87.448 59.4533 87.839 59.7239C88.2481 60.007 88.4948 60.5459 88.4559 61.161C88.417 61.7762 88.1065 62.2473 87.6681 62.4274C87.2491 62.5995 86.386 62.635 84.9399 61.6343C83.1508 60.3963 81.5006 60.0552 80.1862 60.595C78.8912 61.127 78.2482 62.3854 78.1713 63.6016C78.0944 64.8178 78.5697 66.2122 79.7783 67.0485C81.0049 67.8973 82.6727 67.9596 84.5899 67.1721C86.1395 66.5356 86.9849 66.7788 87.376 67.0494C87.7851 67.3325 88.0317 67.8714 87.9929 68.4865C87.954 69.1017 87.6435 69.5728 87.2051 69.7529C86.7861 69.925 85.923 69.9605 84.4769 68.9598C82.6877 67.7218 81.0375 67.3807 79.7232 67.9205C78.4281 68.4525 77.7851 69.7109 77.7083 70.9271C77.6314 72.1433 78.1067 73.5377 79.3153 74.374C80.5418 75.2228 82.2097 75.2851 84.1268 74.4976C85.6764 73.8611 86.5219 74.1043 86.9129 74.3749C87.322 74.658 87.5687 75.1969 87.5298 75.812C87.4909 76.4272 87.1804 76.8983 86.7421 77.0784C86.323 77.2505 85.46 77.286 84.0138 76.2853C82.2247 75.0473 80.5745 74.7062 79.2601 75.246C78.0521 75.7422 77.4114 76.8706 77.2684 78.0071C77.0704 78.3875 76.9744 78.8327 77.0113 79.3284C77.0661 80.0662 77.4069 80.8232 77.9488 81.5835C78.3542 82.1522 78.4572 82.5131 78.4709 82.6973C78.4813 82.8382 78.4463 82.9083 78.3742 82.9793C78.1426 83.2072 77.4845 83.4128 76.5781 83.3072C75.6716 83.2017 75.0505 82.8472 74.8523 82.5691C74.7906 82.4826 74.7652 82.4055 74.794 82.2691C74.8316 82.091 74.9803 81.7593 75.454 81.293C76.0872 80.6696 76.5219 80.0028 76.6725 79.2889C76.832 78.5333 76.6504 77.8246 76.2385 77.2467C75.4894 76.1958 74.0962 75.7064 72.9484 75.5727C71.8007 75.4391 70.3646 75.599 69.4893 76.4608C69.008 76.9346 68.7364 77.5906 68.7944 78.3716C68.8493 79.1094 69.19 79.8664 69.7319 80.6266C70.1373 81.1953 70.2403 81.5563 70.254 81.7405C70.2645 81.8814 70.2294 81.9514 70.1573 82.0224C69.9258 82.2504 69.2677 82.4559 68.3612 82.3504C67.4548 82.2448 66.8336 81.8904 66.6354 81.6123C66.5737 81.5257 66.5484 81.4487 66.5772 81.3123C66.6148 81.1341 66.7635 80.8025 67.2371 80.3361C67.8704 79.7127 68.305 79.046 68.4557 78.3321C68.6151 77.5764 68.4336 76.8678 68.0216 76.2899C67.2725 75.2389 65.8794 74.7495 64.7316 74.6159C63.5838 74.4822 62.1478 74.6422 61.2725 75.5039C61.1095 75.6644 60.9706 75.8457 60.8604 76.0457C60.6487 75.2212 60.1708 74.4285 59.375 73.8778C58.1484 73.029 56.4806 72.9667 54.5634 73.7542C54.5574 73.7566 54.5513 73.7591 54.5453 73.7616C54.3088 73.8201 54.0787 73.8982 53.8613 73.9988C52.7505 74.3107 52.1047 74.1034 51.7773 73.8768C51.3682 73.5937 51.1215 73.0549 51.1604 72.4397C51.1993 71.8246 51.5098 71.3535 51.9482 71.1734C52.3672 71.0013 53.2303 70.9657 54.6764 71.9664C56.4656 73.2045 58.1158 73.5456 59.4301 73.0057C60.7251 72.4738 61.3681 71.2154 61.445 69.9991C61.5219 68.7829 61.0466 67.3886 59.838 66.5523C58.6114 65.7035 56.9436 65.6412 55.0265 66.4287C53.4768 67.0652 52.6314 66.8219 52.2403 66.5513C51.8312 66.2682 51.5846 65.7294 51.6234 65.1142C51.6623 64.4991 51.9728 64.028 52.4112 63.8479C52.8303 63.6758 53.6933 63.6402 55.1395 64.6409C56.9286 65.879 58.5788 66.2201 59.8931 65.6802C61.1882 65.1483 61.8312 63.8899 61.908 62.6736C61.9849 61.4574 61.5096 60.0631 60.3011 59.2268C59.0745 58.378 57.4067 58.3157 55.4895 59.1032C53.9399 59.7397 53.0944 59.4964 52.7034 59.2258C52.2943 58.9427 52.0476 58.4039 52.0865 57.7887C52.1254 57.1736 52.4359 56.7025 52.8742 56.5224C53.2933 56.3503 54.1564 56.3147 55.6025 57.3154C57.3916 58.5535 59.0418 58.8946 60.3562 58.3547C61.6512 57.8228 62.2942 56.5644 62.3711 55.3481C62.448 54.1319 61.9726 52.7376 60.7641 51.9013C59.5375 51.0525 57.8697 50.9902 55.9525 51.7777C54.4029 52.4142 53.5575 52.1709 53.1664 51.9003C52.7573 51.6172 52.5106 51.0784 52.5495 50.4632C52.5884 49.8481 52.8989 49.377 53.3373 49.1969C53.7563 49.0248 54.6194 48.9892 56.0655 49.9899L57.1968 48.238C55.4076 47 53.7574 46.6589 52.4431 47.1988C51.148 47.7307 50.505 48.9891 50.4282 50.2053C50.3513 51.4216 50.8266 52.8159 52.0352 53.6522C53.2617 54.501 54.9296 54.5633 56.8467 53.7758C58.3963 53.1393 59.2418 53.3826 59.6329 53.6532C60.0419 53.9363 60.2886 54.4751 60.2497 55.0903C60.2109 55.7054 59.9003 56.1765 59.462 56.3566C59.0429 56.5287 58.1799 56.5642 56.7337 55.5635C54.9446 54.3255 53.2944 53.9844 51.98 54.5243C50.685 55.0562 50.042 56.3146 49.9651 57.5308C49.8883 58.7471 50.3636 60.1414 51.5721 60.9777C52.7987 61.8265 54.4665 61.8888 56.3837 61.1013C57.9333 60.4648 58.7788 60.7081 59.1698 60.9787C59.5789 61.2617 59.8256 61.8006 59.7867 62.4158C59.7478 63.0309 59.4373 63.502 58.9989 63.6821C58.5799 63.8542 57.7168 63.8897 56.2707 62.889C54.4816 61.651 52.8314 61.3099 51.517 61.8498C50.222 62.3817 49.579 63.6401 49.5021 64.8563C49.4252 66.0726 49.9006 67.4669 51.1091 68.3032C52.3357 69.152 54.0035 69.2143 55.9207 68.4268C57.4703 67.7903 58.3157 68.0335 58.7068 68.3042C59.1159 68.5872 59.3626 69.1261 59.3237 69.7412C59.2848 70.3564 58.9743 70.8275 58.5359 71.0076C58.1169 71.1797 57.2538 71.2152 55.8077 70.2145C54.0185 68.9765 52.3683 68.6354 51.054 69.1753C49.759 69.7072 49.1159 70.9656 49.0391 72.1818C48.9622 73.398 49.4375 74.7924 50.6461 75.6287C51.1461 75.9747 51.7194 76.19 52.3531 76.2703C52.3531 76.2739 52.3531 76.2774 52.3532 76.2809C51.7188 76.2069 51.1269 76.2806 50.5909 76.5008C50.287 76.6256 50.019 76.7904 49.7858 76.9854C49.6091 77.0487 49.4495 77.1617 49.3285 77.3221C48.8059 78.0144 48.4837 78.7241 48.42 79.4422C48.3649 80.0623 48.5085 80.6333 48.7992 81.1211C49.0455 81.8224 49.4957 82.4786 50.183 82.9542C51.4096 83.803 53.0774 83.8653 54.9946 83.0778L54.6833 82.3822C54.9822 82.2062 55.252 81.9808 55.4724 81.6975C55.7878 81.2921 55.972 80.8004 55.9964 80.2496C56.0721 80.2779 56.1474 80.3044 56.2222 80.329C56.217 80.8887 56.3975 81.4092 56.7136 81.8526C57.4627 82.9036 58.8559 83.393 60.0036 83.5266C61.1514 83.6603 62.5874 83.5003 63.4627 82.6386C63.9441 82.1647 64.2157 81.5088 64.1576 80.7277C64.1028 79.9899 63.762 79.2329 63.2201 78.4727C62.8147 77.904 62.7117 77.543 62.698 77.3589C62.6876 77.2179 62.7226 77.1479 62.7947 77.0769C63.0263 76.8489 63.6844 76.6434 64.5908 76.7489C65.4973 76.8545 66.1184 77.209 66.3166 77.487C66.3783 77.5736 66.4037 77.6506 66.3749 77.787C66.3373 77.9652 66.1886 78.2968 65.7149 78.7632C65.0817 79.3866 64.647 80.0533 64.4964 80.7672C64.3369 81.5229 64.5185 82.2316 64.9304 82.8095C65.6795 83.8604 67.0727 84.3498 68.2205 84.4834C69.3683 84.6171 70.8043 84.4571 71.6796 83.5954C72.1609 83.1215 72.4325 82.4656 72.3745 81.6846C72.3196 80.9467 71.9789 80.1897 71.437 79.4295C71.0316 78.8608 70.9286 78.4998 70.9149 78.3157C70.9044 78.1747 70.9395 78.1047 71.0116 78.0337C71.2431 77.8057 71.9013 77.6002 72.8077 77.7058C73.7141 77.8113 74.3353 78.1658 74.5335 78.4438C74.5952 78.5304 74.6205 78.6075 74.5917 78.7438C74.5541 78.922 74.4054 79.2537 73.9318 79.72C73.2985 80.3434 72.8639 81.0101 72.7132 81.724C72.5538 82.4797 72.7353 83.1884 73.1473 83.7663C73.8964 84.8172 75.2895 85.3066 76.4373 85.4402C77.5851 85.5739 79.0211 85.414 79.8964 84.5522C80.3778 84.0783 80.6494 83.4224 80.5913 82.6414C80.5839 82.5414 80.5712 82.441 80.5535 82.3404C80.6994 82.3591 80.8485 82.3706 81.0007 82.3749C80.9649 82.4773 80.9345 82.5806 80.9098 82.6847C80.7343 83.4247 80.8646 84.1353 81.2232 84.7417C81.8931 85.8743 83.2309 86.4685 84.3826 86.6595C85.0074 86.7631 85.7103 86.7704 86.3711 86.6167ZM82.7716 79.8241C82.7894 79.7771 82.8012 79.7359 82.8086 79.7007C82.8374 79.5643 82.812 79.4872 82.7503 79.4006C82.5521 79.1226 81.931 78.7681 81.0245 78.6626C80.2684 78.5745 79.685 78.703 79.3779 78.8803C79.4365 79.3373 79.6589 79.723 79.9835 79.9476C80.3745 80.2182 81.22 80.4615 82.7696 79.8249C82.7703 79.8247 82.771 79.8244 82.7716 79.8241ZM55.2994 75.8156C55.5937 75.7608 55.9577 75.7436 56.374 75.7921C57.2804 75.8977 57.9016 76.2521 58.0998 76.5302C58.1615 76.6168 58.1868 76.6938 58.1581 76.8302C58.1205 77.0084 57.9718 77.34 57.4981 77.8064C57.3158 77.9858 57.15 78.1688 57.0027 78.3555C56.5676 78.2485 56.0196 78.0071 55.3446 77.54C55.1552 77.409 54.9673 77.2879 54.7813 77.1769C54.5577 76.7998 54.4919 76.5465 54.4812 76.402C54.4707 76.2611 54.5058 76.1911 54.5779 76.1201C54.6123 76.0862 54.6562 76.0527 54.7089 76.0208C54.9028 75.9617 55.0997 75.8933 55.2994 75.8156ZM58.3536 80.5146C58.3631 80.5659 58.3857 80.6093 58.4186 80.6555C58.6168 80.9335 59.2379 81.288 60.1444 81.3936C61.0508 81.4991 61.7089 81.2936 61.9405 81.0656C62.0126 80.9946 62.0476 80.9246 62.0372 80.7836C62.0235 80.5995 61.9205 80.2385 61.5151 79.6698C61.196 79.2222 60.9466 78.7756 60.7844 78.3335C60.4966 79.1851 59.9016 79.9473 58.9671 80.3312C58.7699 80.4122 58.5652 80.4734 58.3536 80.5146ZM53.3389 78.7708C52.4076 78.3136 51.8116 78.3648 51.4851 78.4989C51.0468 78.679 50.7363 79.1501 50.6974 79.7652C50.6873 79.9248 50.6964 80.0793 50.7227 80.2256C50.9799 80.4788 51.5233 80.7279 52.2422 80.7646C53.045 80.8056 53.59 80.5594 53.7758 80.3205C53.843 80.2342 53.8915 80.1202 53.8658 79.9119C53.8376 79.6831 53.7124 79.3082 53.3389 78.7708Z" fill="url(#paint0_linear_1330_8770)"/>
<path d="M83.5508 83.6108L84.3989 82.2626C83.6331 81.7327 82.6359 81.8959 82.1627 82.6288L83.5508 83.6108ZM85.9185 84.4899L86.199 86.1416C86.3008 86.1316 86.4007 86.1117 86.4973 86.0822L85.9185 84.4899ZM83.3005 83.9984L82.346 85.2671C82.7134 85.5631 83.1739 85.7003 83.6178 85.646C84.0618 85.5917 84.4495 85.3507 84.6885 84.9805L83.3005 83.9984ZM83.0349 83.7085L81.6501 84.4798L81.6502 84.4799L83.0349 83.7085ZM82.9792 83.2806L84.5704 83.784L84.5704 83.784L82.9792 83.2806ZM83.6708 82.2498L82.4871 81.0165L82.4871 81.0165L83.6708 82.2498ZM84.2296 81.6186L83.6462 80.0278C83.3486 80.1196 83.0907 80.3001 82.9042 80.5469L84.2296 81.6186ZM86.1751 81.5546L87.7183 82.2206C87.864 81.8101 87.8348 81.3443 87.6375 80.9292C87.4401 80.5141 87.0914 80.1849 86.6706 80.0167L86.1751 81.5546ZM86.2325 82.4039L84.7842 83.0584L84.7842 83.0584L86.2325 82.4039ZM86.6092 83.7381L84.9764 83.5295L84.9764 83.5295L86.6092 83.7381ZM86.401 84.2324L87.5659 85.4838L87.5659 85.4838L86.401 84.2324ZM87.1732 86.402L87.8841 87.9471L87.8841 87.9471L87.1732 86.402ZM86.3711 86.6167L86.0312 84.972C85.9842 84.9785 85.9377 84.9871 85.8917 84.9978L86.3711 86.6167ZM87.5812 79.9485L86.7331 81.2968L86.7331 81.2968L87.5812 79.9485ZM84.9117 79.2857L83.3011 79.4436C83.4533 80.3414 84.277 81.0063 85.1556 80.9405L84.9117 79.2857ZM84.864 79.0652L85.2665 77.4932C84.7028 77.3043 84.1055 77.4269 83.6979 77.815C83.2903 78.2031 83.1338 78.7982 83.2869 79.378L84.864 79.0652ZM87.6363 79.0765L88.3471 80.6216L88.3471 80.6216L87.6363 79.0765ZM88.0442 72.623L87.1961 73.9713L87.1961 73.9713L88.0442 72.623ZM83.2326 72.4994L83.9435 74.0446L83.9435 74.0446L83.2326 72.4994ZM80.4465 72.6221L79.5984 73.9703L79.5984 73.9703L80.4465 72.6221ZM79.8296 71.185L78.1981 70.9528L78.1981 70.9528L79.8296 71.185ZM80.6174 69.9187L81.3282 71.4638L81.3282 71.4638L80.6174 69.9187ZM83.3456 70.7117L84.1937 69.3635L84.1937 69.3635L83.3456 70.7117ZM88.0993 71.751L87.3884 70.2059L87.3884 70.2059L88.0993 71.751ZM90.1142 68.7444L88.4827 68.5122L88.4827 68.5122L90.1142 68.7444ZM88.5072 65.2975L87.6591 66.6458L87.6591 66.6458L88.5072 65.2975ZM83.6957 65.174L84.4065 66.7191L84.4065 66.7191L83.6957 65.174ZM80.9095 65.2966L80.0614 66.6448L80.0615 66.6448L80.9095 65.2966ZM80.2926 63.8595L78.6612 63.6273L78.6612 63.6273L80.2926 63.8595ZM81.0804 62.5932L81.7913 64.1383L81.7913 64.1383L81.0804 62.5932ZM83.8087 63.3862L82.9606 64.7345L82.9606 64.7345L83.8087 63.3862ZM88.5623 64.4255L89.2732 65.9706L89.2732 65.9706L88.5623 64.4255ZM88.9702 57.972L89.8183 56.6238L89.8183 56.6238L88.9702 57.972ZM84.1587 57.8485L84.8695 59.3936L84.8695 59.3936L84.1587 57.8485ZM81.3726 57.9711L80.5245 59.3193L80.5245 59.3193L81.3726 57.9711ZM81.5434 55.2677L82.2543 56.8128L82.2543 56.8128L81.5434 55.2677ZM84.2717 56.0607L85.1198 54.7125L85.1198 54.7125L84.2717 56.0607ZM89.0254 57.1L88.3145 55.5549L88.3145 55.5549L89.0254 57.1ZM91.0403 54.0934L92.6717 54.3256L92.6717 54.3256L91.0403 54.0934ZM89.4333 50.6465L90.2814 49.2983L90.2813 49.2983L89.4333 50.6465ZM84.6217 50.523L83.9109 48.9778C83.1042 49.3092 82.7613 50.2601 83.1418 51.1104L84.6217 50.523ZM85.5159 52.5211L84.036 53.1085C84.2215 53.5231 84.5575 53.8576 84.969 54.0375C85.3806 54.2174 85.8335 54.2278 86.2268 54.0662L85.5159 52.5211ZM88.302 52.3984L87.454 53.7467L87.454 53.7467L88.302 52.3984ZM88.9189 53.8355L90.5504 54.0677L90.5504 54.0677L88.9189 53.8355ZM88.1312 55.1019L88.842 56.647L88.842 56.647L88.1312 55.1019ZM85.4029 54.3088L86.251 52.9606L86.251 52.9606L85.4029 54.3088ZM80.6492 53.2695L81.3601 54.8147L81.3601 54.8147L80.6492 53.2695ZM78.6343 56.2761L80.2658 56.5083L80.2658 56.5083L78.6343 56.2761ZM80.2413 59.723L81.0894 58.3748L81.0894 58.3748L80.2413 59.723ZM85.0529 59.8466L85.7637 61.3917L85.7637 61.3917L85.0529 59.8466ZM87.839 59.7239L88.6871 58.3757L88.6871 58.3757L87.839 59.7239ZM88.4559 61.161L90.0874 61.3932L90.0874 61.3932L88.4559 61.161ZM87.6681 62.4274L86.9573 60.8822L86.9573 60.8822L87.6681 62.4274ZM84.9399 61.6343L84.0918 62.9826L84.0918 62.9826L84.9399 61.6343ZM80.1862 60.595L80.8971 62.1402L80.8971 62.1402L80.1862 60.595ZM78.1713 63.6016L76.5398 63.3694L76.5398 63.3694L78.1713 63.6016ZM79.7783 67.0485L78.9302 68.3967L78.9302 68.3967L79.7783 67.0485ZM84.5899 67.1721L85.3007 68.7172L85.3007 68.7172L84.5899 67.1721ZM87.376 67.0494L86.5279 68.3977L86.5279 68.3977L87.376 67.0494ZM87.9929 68.4865L86.3614 68.2543L86.3614 68.2543L87.9929 68.4865ZM87.2051 69.7529L87.916 71.298L87.916 71.298L87.2051 69.7529ZM84.4769 68.9598L85.3249 67.6116L85.3249 67.6116L84.4769 68.9598ZM79.7232 67.9205L80.434 69.4657L80.434 69.4657L79.7232 67.9205ZM77.7083 70.9271L76.0768 70.6949L76.0768 70.6949L77.7083 70.9271ZM79.3153 74.374L80.1633 73.0258L80.1633 73.0258L79.3153 74.374ZM84.1268 74.4976L84.8377 76.0427L84.8377 76.0427L84.1268 74.4976ZM86.9129 74.3749L86.0649 75.7232L86.0649 75.7232L86.9129 74.3749ZM87.5298 75.812L89.1613 76.0442L89.1613 76.0442L87.5298 75.812ZM86.7421 77.0784L86.0312 75.5332L86.0312 75.5332L86.7421 77.0784ZM84.0138 76.2853L83.1658 77.6335L83.1658 77.6335L84.0138 76.2853ZM79.2601 75.246L78.5493 73.7009L78.5493 73.7009L79.2601 75.246ZM77.2684 78.0071L78.7268 78.8682C78.8116 78.7055 78.8669 78.527 78.8903 78.3405L77.2684 78.0071ZM77.0113 79.3284L75.3812 79.3262L75.3812 79.3262L77.0113 79.3284ZM77.9488 81.5835L76.6496 82.4864L76.6496 82.4864L77.9488 81.5835ZM78.4709 82.6973L76.8408 82.6951L76.8408 82.6951L78.4709 82.6973ZM78.3742 82.9793L77.1905 81.746L77.1905 81.746L78.3742 82.9793ZM76.5781 83.3072L76.6403 81.6589L76.6403 81.6589L76.5781 83.3072ZM74.8523 82.5691L73.5531 83.472L73.5531 83.4721L74.8523 82.5691ZM74.794 82.2691L73.1942 81.8044L73.1942 81.8044L74.794 82.2691ZM75.454 81.293L76.6377 82.5262L76.6377 82.5262L75.454 81.293ZM76.6725 79.2889L78.2724 79.7537L78.2724 79.7537L76.6725 79.2889ZM76.2385 77.2467L77.5377 76.3437L77.5377 76.3437L76.2385 77.2467ZM72.9484 75.5727L72.8862 77.221L72.8862 77.221L72.9484 75.5727ZM69.4893 76.4608L68.3056 75.2275L68.3056 75.2275L69.4893 76.4608ZM68.7944 78.3716L67.1643 78.3694L67.1643 78.3694L68.7944 78.3716ZM69.7319 80.6266L71.0311 79.7237L71.0311 79.7237L69.7319 80.6266ZM70.254 81.7405L68.6239 81.7383L68.6239 81.7383L70.254 81.7405ZM70.1573 82.0224L68.9736 80.7892L68.9736 80.7892L70.1573 82.0224ZM68.3612 82.3504L68.299 83.9987L68.299 83.9987L68.3612 82.3504ZM66.6354 81.6123L67.9346 80.7094L67.9346 80.7094L66.6354 81.6123ZM66.5772 81.3123L64.9773 80.8475L64.9773 80.8476L66.5772 81.3123ZM67.2371 80.3361L66.0534 79.1029L66.0534 79.1029L67.2371 80.3361ZM68.4557 78.3321L70.0555 78.7969L70.0555 78.7969L68.4557 78.3321ZM68.0216 76.2899L69.3208 75.3869L69.3208 75.3869L68.0216 76.2899ZM64.7316 74.6159L64.7938 72.9676L64.7938 72.9676L64.7316 74.6159ZM61.2725 75.5039L62.4562 76.7372L62.4562 76.7372L61.2725 75.5039ZM60.8604 76.0457L59.2801 76.3464C59.4522 77.0168 60.0039 77.5435 60.6711 77.6741C61.3383 77.8048 61.9851 77.5129 62.3019 76.9382L60.8604 76.0457ZM59.375 73.8778L60.2231 72.5295L60.2231 72.5295L59.375 73.8778ZM54.5634 73.7542L55.2743 75.2993L55.2743 75.2993L54.5634 73.7542ZM54.5453 73.7616L55.0458 75.3755C55.1166 75.3579 55.1857 75.3354 55.2528 75.3081L54.5453 73.7616ZM53.8613 73.9988L54.4075 75.6006C54.4846 75.579 54.5596 75.5513 54.6318 75.5179L53.8613 73.9988ZM51.7773 73.8768L50.9292 75.225L50.9292 75.225L51.7773 73.8768ZM51.9482 71.1734L52.659 72.7185L52.659 72.7185L51.9482 71.1734ZM54.6764 71.9664L53.8284 73.3147L53.8284 73.3147L54.6764 71.9664ZM59.4301 73.0057L58.7192 71.4606L58.7192 71.4606L59.4301 73.0057ZM61.445 69.9991L63.0765 70.2313L63.0765 70.2313L61.445 69.9991ZM59.838 66.5523L60.6861 65.204L60.6861 65.204L59.838 66.5523ZM55.0265 66.4287L55.7373 67.9738L55.7373 67.9738L55.0265 66.4287ZM52.2403 66.5513L51.3923 67.8995L51.3923 67.8995L52.2403 66.5513ZM51.6234 65.1142L49.992 64.882L49.992 64.882L51.6234 65.1142ZM52.4112 63.8479L53.1221 65.393L53.1221 65.393L52.4112 63.8479ZM55.1395 64.6409L55.9875 63.2927L55.9875 63.2927L55.1395 64.6409ZM59.8931 65.6802L60.604 67.2253L60.604 67.2253L59.8931 65.6802ZM61.908 62.6736L60.2766 62.4414L60.2766 62.4414L61.908 62.6736ZM60.3011 59.2268L59.453 60.575L59.453 60.575L60.3011 59.2268ZM55.4895 59.1032L56.2004 60.6483L56.2004 60.6483L55.4895 59.1032ZM52.7034 59.2258L53.5514 57.8776L53.5514 57.8776L52.7034 59.2258ZM52.0865 57.7887L53.7179 58.0209L53.7179 58.0209L52.0865 57.7887ZM52.8742 56.5224L53.5851 58.0675L53.5851 58.0675L52.8742 56.5224ZM55.6025 57.3154L56.4506 55.9672L56.4506 55.9672L55.6025 57.3154ZM60.3562 58.3547L61.067 59.8998L61.067 59.8998L60.3562 58.3547ZM62.3711 55.3481L64.0025 55.5803L64.0025 55.5803L62.3711 55.3481ZM60.7641 51.9013L61.6122 50.553L61.6122 50.553L60.7641 51.9013ZM55.9525 51.7777L56.6634 53.3228L56.6634 53.3228L55.9525 51.7777ZM53.1664 51.9003L52.3183 53.2485L52.3183 53.2486L53.1664 51.9003ZM52.5495 50.4632L50.918 50.231L50.918 50.231L52.5495 50.4632ZM53.3373 49.1969L52.6264 47.6518L52.6264 47.6518L53.3373 49.1969ZM56.0655 49.9899L55.2174 51.3382C55.9832 51.8681 56.9804 51.7048 57.4536 50.972L56.0655 49.9899ZM57.1968 48.238L58.5848 49.2201C58.8155 48.8628 58.8882 48.4154 58.7868 47.9777C58.6854 47.5399 58.4182 47.1482 58.0448 46.8898L57.1968 48.238ZM52.4431 47.1988L51.7322 45.6536L51.7322 45.6536L52.4431 47.1988ZM50.4282 50.2053L52.0596 50.4375L50.4282 50.2053ZM52.0352 53.6522L51.1871 55.0005L51.1871 55.0005L52.0352 53.6522ZM56.8467 53.7758L56.1359 52.2307L56.1359 52.2307L56.8467 53.7758ZM59.6329 53.6532L60.4809 52.3049L60.4809 52.3049L59.6329 53.6532ZM60.2497 55.0903L61.8812 55.3225L61.8812 55.3225L60.2497 55.0903ZM59.462 56.3566L60.1728 57.9017L60.1728 57.9017L59.462 56.3566ZM56.7337 55.5635L55.8857 56.9118L55.8857 56.9118L56.7337 55.5635ZM51.98 54.5243L51.2692 52.9791L51.2692 52.9791L51.98 54.5243ZM49.9651 57.5308L51.5966 57.763L49.9651 57.5308ZM51.5721 60.9777L50.7241 62.3259L50.7241 62.326L51.5721 60.9777ZM56.3837 61.1013L57.0946 62.6464L57.0946 62.6464L56.3837 61.1013ZM59.1698 60.9787L60.0179 59.6304L60.0179 59.6304L59.1698 60.9787ZM59.7867 62.4158L61.4182 62.6479L61.4182 62.6479L59.7867 62.4158ZM58.9989 63.6821L59.7098 65.2272L59.7098 65.2272L58.9989 63.6821ZM56.2707 62.889L55.4226 64.2373L55.4226 64.2373L56.2707 62.889ZM51.517 61.8498L50.8061 60.3046L50.8061 60.3046L51.517 61.8498ZM51.1091 68.3032L51.9572 66.955L51.9572 66.955L51.1091 68.3032ZM55.9207 68.4268L56.6315 69.9719L56.6315 69.9719L55.9207 68.4268ZM58.7068 68.3042L59.5549 66.9559L59.5549 66.9559L58.7068 68.3042ZM59.3237 69.7412L60.9551 69.9734L60.9551 69.9734L59.3237 69.7412ZM58.5359 71.0076L59.2468 72.5527L59.2468 72.5527L58.5359 71.0076ZM55.8077 70.2145L54.9596 71.5628L54.9596 71.5628L55.8077 70.2145ZM51.054 69.1753L50.3431 67.6301L50.3431 67.6301L51.054 69.1753ZM49.0391 72.1818L50.6705 72.414L50.6705 72.414L49.0391 72.1818ZM50.6461 75.6287L49.798 76.9769L49.798 76.9769L50.6461 75.6287ZM52.3531 76.2703L53.9878 76.3859C53.9816 75.5074 53.2986 74.7339 52.4319 74.6241L52.3531 76.2703ZM52.3532 76.2809L52.2908 77.9291C52.738 77.9813 53.1726 77.8461 53.4934 77.5552C53.8141 77.2644 53.9928 76.8432 53.9878 76.3899L52.3532 76.2809ZM50.5909 76.5008L49.8801 74.9556L49.8801 74.9556L50.5909 76.5008ZM49.7858 76.9854L50.4333 78.5548C50.5974 78.496 50.7488 78.4094 50.8814 78.2986L49.7858 76.9854ZM49.3285 77.3221L50.6543 78.3932L50.6543 78.3932L49.3285 77.3221ZM48.42 79.4422L46.7917 79.1682L46.7917 79.1682L48.42 79.4422ZM48.7992 81.1211L50.3346 80.6729C50.2947 80.5591 50.2431 80.449 50.1809 80.3446L48.7992 81.1211ZM50.183 82.9542L49.335 84.3024L49.335 84.3024L50.183 82.9542ZM54.9946 83.0778L55.7055 84.6229C56.5121 84.2916 56.8551 83.3406 56.4745 82.4904L54.9946 83.0778ZM54.6833 82.3822L53.7841 80.9305C53.1056 81.3299 52.8582 82.1984 53.2033 82.9696L54.6833 82.3822ZM55.4724 81.6975L54.1598 80.6092L54.1598 80.6092L55.4724 81.6975ZM55.9964 80.2496L56.4555 78.6976C55.9737 78.5174 55.4538 78.5661 55.0455 78.8298C54.6371 79.0934 54.3856 79.5428 54.3632 80.0486L55.9964 80.2496ZM56.2222 80.329L57.8569 80.472C57.8641 79.7068 57.351 78.9963 56.6167 78.7543L56.2222 80.329ZM56.7136 81.8526L58.0128 80.9497L58.0128 80.9497L56.7136 81.8526ZM60.0036 83.5266L60.0658 81.8783L60.0036 83.5266ZM63.4627 82.6386L62.279 81.4053L62.279 81.4053L63.4627 82.6386ZM64.1576 80.7277L65.7877 80.7299L65.7877 80.7299L64.1576 80.7277ZM63.2201 78.4727L61.9209 79.3756L61.9209 79.3756L63.2201 78.4727ZM62.698 77.3589L64.3281 77.361L64.3281 77.361L62.698 77.3589ZM62.7947 77.0769L61.611 75.8437L61.611 75.8437L62.7947 77.0769ZM64.5908 76.7489L64.5286 78.3972L64.5286 78.3972L64.5908 76.7489ZM66.3166 77.487L67.6158 76.5841L67.6158 76.5841L66.3166 77.487ZM66.3749 77.787L64.775 77.3222L64.775 77.3222L66.3749 77.787ZM65.7149 78.7632L64.5312 77.53L64.5312 77.53L65.7149 78.7632ZM64.4964 80.7672L62.8965 80.3024L62.8965 80.3024L64.4964 80.7672ZM64.9304 82.8095L63.6312 83.7124L63.6312 83.7124L64.9304 82.8095ZM68.2205 84.4834L68.2827 82.8351L68.2827 82.8351L68.2205 84.4834ZM71.6796 83.5954L70.4959 82.3621L70.4959 82.3621L71.6796 83.5954ZM72.3745 81.6846L74.0046 81.6867L74.0046 81.6867L72.3745 81.6846ZM71.437 79.4295L72.7361 78.5266L72.7361 78.5266L71.437 79.4295ZM70.9149 78.3157L72.545 78.3179L72.545 78.3178L70.9149 78.3157ZM71.0116 78.0337L72.1953 79.2669L72.1953 79.2669L71.0116 78.0337ZM74.5335 78.4438L75.8327 77.5409L75.8326 77.5409L74.5335 78.4438ZM74.5917 78.7438L72.9919 78.2791L72.9919 78.2791L74.5917 78.7438ZM73.9318 79.72L75.1155 80.9532L75.1155 80.9532L73.9318 79.72ZM72.7132 81.724L71.1134 81.2592L71.1134 81.2592L72.7132 81.724ZM73.1473 83.7663L74.4464 82.8634L74.4464 82.8634L73.1473 83.7663ZM76.4373 85.4402L76.4995 83.792L76.4995 83.792L76.4373 85.4402ZM79.8964 84.5522L81.0801 85.7854L81.0802 85.7854L79.8964 84.5522ZM80.5913 82.6414L82.2214 82.6436L82.2214 82.6435L80.5913 82.6414ZM80.5535 82.3404L80.6345 80.6944C80.1365 80.6306 79.6544 80.7994 79.3253 81.1528C78.9962 81.5063 78.8561 82.0057 78.9447 82.5092L80.5535 82.3404ZM81.0007 82.3749L82.5461 83.0349C82.7231 82.5296 82.634 81.9485 82.3083 81.4839C81.9826 81.0193 81.4627 80.7317 80.9207 80.7163L81.0007 82.3749ZM80.9098 82.6847L79.3186 82.1813L79.3186 82.1814L80.9098 82.6847ZM81.2232 84.7417L82.608 83.9703L82.608 83.9703L81.2232 84.7417ZM84.3826 86.6595L84.5241 85.0224L84.5241 85.0224L84.3826 86.6595ZM82.7716 79.8241L83.4816 81.3696C83.8624 81.2135 84.1573 80.9086 84.3043 80.519L82.7716 79.8241ZM82.8086 79.7007L81.2088 79.2359L81.2087 79.2359L82.8086 79.7007ZM82.7503 79.4006L81.4511 80.3036L81.4512 80.3036L82.7503 79.4006ZM81.0245 78.6626L80.9623 80.3109L80.9623 80.3109L81.0245 78.6626ZM79.3779 78.8803L78.4892 77.4226C77.96 77.7282 77.6751 78.3299 77.757 78.9689L79.3779 78.8803ZM79.9835 79.9476L80.8315 78.5994L80.8315 78.5994L79.9835 79.9476ZM82.7696 79.8249L82.0596 78.2795L82.0587 78.2798L82.7696 79.8249ZM56.374 75.7921L56.3118 77.4404L56.3118 77.4404L56.374 75.7921ZM55.2994 75.8156L54.8865 74.1827C54.7931 74.2001 54.702 74.226 54.6144 74.2601L55.2994 75.8156ZM58.0998 76.5302L59.399 75.6273L59.3989 75.6272L58.0998 76.5302ZM58.1581 76.8302L59.7579 77.295L59.7579 77.295L58.1581 76.8302ZM57.4981 77.8064L58.6818 79.0396L58.6818 79.0396L57.4981 77.8064ZM57.0027 78.3555L56.7348 79.9666C57.3359 80.1145 57.9427 79.9161 58.3091 79.4518L57.0027 78.3555ZM55.3446 77.54L54.4966 78.8883L54.4966 78.8883L55.3446 77.54ZM54.7813 77.1769L53.3975 77.95C53.5539 78.2138 53.7744 78.4352 54.0357 78.5911L54.7813 77.1769ZM54.4812 76.402L52.8511 76.3998L52.8511 76.3999L54.4812 76.402ZM54.5779 76.1201L53.3942 74.8868L53.3941 74.8869L54.5779 76.1201ZM54.7089 76.0208L54.1306 74.4284C54.0118 74.4646 53.8986 74.5151 53.7934 74.5789L54.7089 76.0208ZM58.3536 80.5146L57.9278 78.8842C57.1018 79.0454 56.5873 79.8371 56.7479 80.6999L58.3536 80.5146ZM58.4186 80.6555L57.1194 81.5584L57.1194 81.5584L58.4186 80.6555ZM61.9405 81.0656L63.1242 82.2988L63.1242 82.2988L61.9405 81.0656ZM62.0372 80.7836L63.6673 80.7858L63.6673 80.7858L62.0372 80.7836ZM61.5151 79.6698L60.2159 80.5727L60.2159 80.5728L61.5151 79.6698ZM60.7844 78.3335L62.3113 77.8616C62.0646 77.1895 61.4391 76.7153 60.7487 76.6768C60.0582 76.6382 59.4516 77.0437 59.2334 77.6898L60.7844 78.3335ZM58.9671 80.3312L59.6779 81.8763L59.6779 81.8763L58.9671 80.3312ZM51.4851 78.4989L50.7743 76.9538L50.7743 76.9538L51.4851 78.4989ZM53.3389 78.7708L54.6507 77.8858C54.4728 77.6298 54.2328 77.4228 53.9566 77.2872L53.3389 78.7708ZM50.6974 79.7652L52.3289 79.9974L52.3289 79.9974L50.6974 79.7652ZM50.7227 80.2256L49.1149 80.3997C49.1804 80.765 49.3622 81.1073 49.6318 81.3727L50.7227 80.2256ZM52.2422 80.7646L52.2856 82.4217L52.2856 82.4217L52.2422 80.7646ZM53.7758 80.3205L55.0884 81.4089L55.0884 81.4089L53.7758 80.3205ZM53.8658 79.9119L52.2438 79.9922L52.2439 79.9922L53.8658 79.9119ZM82.7027 84.959C84.0312 85.8784 85.2017 86.2396 86.199 86.1416L85.638 82.8383C85.6641 82.8357 85.2986 82.8852 84.3989 82.2626L82.7027 84.959ZM84.6885 84.9805L84.9388 84.5929L82.1627 82.6288L81.9124 83.0164L84.6885 84.9805ZM81.6502 84.4799C81.8482 84.8147 82.1074 85.0749 82.346 85.2671L84.255 82.7298C84.2584 82.7325 84.2761 82.747 84.3027 82.7762C84.3283 82.8042 84.3723 82.857 84.4197 82.9371L81.6502 84.4799ZM81.388 82.7773C81.2442 83.3839 81.3479 83.9687 81.6501 84.4798L84.4197 82.9372C84.4747 83.0301 84.5468 83.1837 84.5782 83.3804C84.6087 83.5708 84.587 83.714 84.5704 83.784L81.388 82.7773ZM82.4871 81.0165C81.8944 81.6001 81.5278 82.1879 81.388 82.7773L84.5704 83.784C84.5507 83.8673 84.5322 83.8782 84.5688 83.8194C84.6047 83.7619 84.6873 83.6476 84.8546 83.483L82.4871 81.0165ZM82.9042 80.5469C82.791 80.6967 82.6527 80.8536 82.4871 81.0165L84.8546 83.483C85.1068 83.2347 85.343 82.9709 85.5549 82.6904L82.9042 80.5469ZM86.6706 80.0167C85.8317 79.6813 84.8174 79.6662 83.6462 80.0278L84.8129 83.2095C85.5081 82.9949 85.7384 83.116 85.6796 83.0925L86.6706 80.0167ZM87.6807 81.7494C87.7646 81.9181 87.7642 82.0911 87.7183 82.2206L84.6318 80.8886C84.3987 81.5455 84.4219 82.33 84.7842 83.0584L87.6807 81.7494ZM88.242 83.9466C88.2733 83.305 88.0889 82.5701 87.6807 81.7494L84.7842 83.0584C85.0119 83.5163 84.9709 83.6429 84.9764 83.5295L88.242 83.9466ZM87.5659 85.4838C87.9571 85.1122 88.2101 84.5986 88.242 83.9466L84.9764 83.5295C84.9791 83.4751 84.9934 83.3708 85.049 83.248C85.1055 83.1234 85.1794 83.0348 85.236 82.9811L87.5659 85.4838ZM86.4973 86.0822C86.8568 85.9725 87.2458 85.7879 87.5659 85.4838L85.236 82.9811C85.2918 82.928 85.3347 82.9035 85.3479 82.8964C85.3626 82.8884 85.3614 82.891 85.3397 82.8977L86.4973 86.0822ZM86.4624 84.8569C86.3266 84.9127 86.1834 84.9512 86.0312 84.972L86.711 88.2614C87.117 88.2057 87.5095 88.101 87.8841 87.9471L86.4624 84.8569ZM87.5567 83.1632C87.5088 83.9209 87.1158 84.5885 86.4624 84.8569L87.8841 87.9471C89.8208 87.1516 90.7138 85.3025 90.8196 83.6276L87.5567 83.1632ZM86.7331 81.2968C87.3017 81.6902 87.6047 82.4037 87.5567 83.1632L90.8196 83.6276C90.9254 81.9547 90.2777 79.8794 88.4292 78.6003L86.7331 81.2968ZM85.1556 80.9405C85.8737 80.8869 86.3762 81.0498 86.7331 81.2968L88.4292 78.6003C87.3014 77.8199 85.9959 77.5316 84.6678 77.6309L85.1556 80.9405ZM83.2869 79.378C83.2926 79.3993 83.2973 79.4212 83.3011 79.4436L86.5224 79.1279C86.5009 79.0013 86.4737 78.8761 86.4411 78.7525L83.2869 79.378ZM86.9254 77.5314C86.5152 77.6998 85.9788 77.7318 85.2665 77.4932L84.4615 80.6373C85.7917 81.0829 87.1343 81.1198 88.3471 80.6216L86.9254 77.5314ZM88.0197 75.8377C87.9718 76.5954 87.5788 77.263 86.9254 77.5314L88.3471 80.6216C90.2838 79.8261 91.1768 77.977 91.2826 76.3021L88.0197 75.8377ZM87.1961 73.9713C87.7647 74.3647 88.0677 75.0782 88.0197 75.8377L91.2826 76.3021C91.3884 74.6292 90.7408 72.5539 88.8923 71.2748L87.1961 73.9713ZM83.9435 74.0446C85.596 73.3658 86.629 73.5788 87.1961 73.9713L88.8923 71.2748C87.0063 69.9697 84.7036 70.0581 82.5218 70.9543L83.9435 74.0446ZM79.5984 73.9703C80.6411 74.6919 82.1175 74.7946 83.9435 74.0446L82.5218 70.9543C81.2485 71.4773 81.034 71.0935 81.2946 71.2739L79.5984 73.9703ZM78.1981 70.9528C78.1293 72.0419 78.5617 73.2529 79.5984 73.9703L81.2946 71.2739C81.3974 71.345 81.4423 71.4228 81.4564 71.4552C81.4703 71.4869 81.4573 71.4771 81.4611 71.4172L78.1981 70.9528ZM79.9065 68.3736C78.839 68.812 78.2671 69.8626 78.1981 70.9528L81.4611 71.4172C81.4648 71.3576 81.4793 71.343 81.4695 71.3586C81.4598 71.3739 81.4202 71.426 81.3282 71.4638L79.9065 68.3736ZM84.1937 69.3635C82.4631 68.166 80.9951 67.9264 79.9065 68.3736L81.3282 71.4638C81.0777 71.5667 81.3358 71.2561 82.4976 72.06L84.1937 69.3635ZM87.3884 70.2059C86.7521 70.4672 85.7094 70.4123 84.1937 69.3635L82.4975 72.06C84.5601 73.4872 86.8178 74.1145 88.8102 73.2961L87.3884 70.2059ZM88.4827 68.5122C88.4349 69.2699 88.0418 69.9375 87.3884 70.2059L88.8102 73.2961C90.7468 72.5006 91.6398 70.6515 91.7457 68.9766L88.4827 68.5122ZM87.6591 66.6458C88.2277 67.0392 88.5308 67.7527 88.4827 68.5122L91.7457 68.9766C91.8514 67.3037 91.2038 65.2284 89.3553 63.9493L87.6591 66.6458ZM84.4065 66.7191C86.059 66.0403 87.092 66.2533 87.6591 66.6458L89.3553 63.9493C87.4693 62.6442 85.1666 62.7326 82.9848 63.6288L84.4065 66.7191ZM80.0615 66.6448C81.1042 67.3664 82.5806 67.4691 84.4065 66.7191L82.9848 63.6288C81.7115 64.1518 81.497 63.768 81.7576 63.9484L80.0615 66.6448ZM78.6612 63.6273C78.5923 64.7164 79.0247 65.9274 80.0614 66.6448L81.7576 63.9484C81.8604 64.0195 81.9053 64.0973 81.9195 64.1297C81.9333 64.1614 81.9203 64.1516 81.9241 64.0917L78.6612 63.6273ZM80.3695 61.0481C79.3021 61.4865 78.7301 62.5371 78.6612 63.6273L81.9241 64.0917C81.9279 64.0321 81.9424 64.0175 81.9325 64.0331C81.9229 64.0484 81.8832 64.1005 81.7913 64.1383L80.3695 61.0481ZM84.6567 62.038C82.9262 60.8405 81.4582 60.6009 80.3695 61.0481L81.7913 64.1383C81.5407 64.2412 81.7989 63.9306 82.9606 64.7345L84.6567 62.038ZM87.8515 62.8804C87.2151 63.1417 86.1724 63.0868 84.6567 62.038L82.9606 64.7345C85.0232 66.1617 87.2808 66.789 89.2732 65.9706L87.8515 62.8804ZM88.9458 61.1867C88.8979 61.9444 88.5049 62.612 87.8515 62.8804L89.2732 65.9706C91.2099 65.1751 92.1028 63.326 92.2087 61.6511L88.9458 61.1867ZM88.1222 59.3203C88.6908 59.7137 88.9938 60.4272 88.9458 61.1867L92.2087 61.6511C92.3144 59.9782 91.6668 57.9029 89.8183 56.6238L88.1222 59.3203ZM84.8695 59.3936C86.522 58.7148 87.555 58.9278 88.1222 59.3203L89.8183 56.6238C87.9323 55.3187 85.6297 55.4071 83.4478 56.3033L84.8695 59.3936ZM80.5245 59.3193C81.5672 60.0409 83.0436 60.1436 84.8695 59.3936L83.4478 56.3033C82.1745 56.8263 81.96 56.4425 82.2206 56.6229L80.5245 59.3193ZM79.1242 56.3018C79.0554 57.3909 79.4877 58.6019 80.5245 59.3193L82.2206 56.6229C82.3235 56.694 82.3683 56.7718 82.3825 56.8042C82.3964 56.8359 82.3834 56.8261 82.3871 56.7662L79.1242 56.3018ZM80.8326 53.7226C79.7651 54.161 79.1931 55.2116 79.1242 56.3018L82.3871 56.7662C82.3909 56.7066 82.4054 56.692 82.3956 56.7076C82.3859 56.7229 82.3462 56.775 82.2543 56.8128L80.8326 53.7226ZM85.1198 54.7125C83.3892 53.515 81.9212 53.2754 80.8326 53.7226L82.2543 56.8128C82.0037 56.9157 82.2619 56.6051 83.4236 57.409L85.1198 54.7125ZM88.3145 55.5549C87.6782 55.8162 86.6354 55.7613 85.1198 54.7125L83.4236 57.409C85.4862 58.8362 87.7439 59.4635 89.7362 58.6451L88.3145 55.5549ZM89.4088 53.8612C89.3609 54.6189 88.9679 55.2865 88.3145 55.5549L89.7362 58.6451C91.6729 57.8496 92.5659 56.0005 92.6717 54.3256L89.4088 53.8612ZM88.5852 51.9948C89.1538 52.3882 89.4568 53.1017 89.4088 53.8612L92.6717 54.3256C92.7775 52.6527 92.1299 50.5775 90.2814 49.2983L88.5852 51.9948ZM85.3326 52.0681C86.9851 51.3893 88.0181 51.6023 88.5852 51.9948L90.2813 49.2983C88.3953 47.9932 86.0927 48.0816 83.9109 48.9778L85.3326 52.0681ZM86.9959 51.9337L86.1017 49.9355L83.1418 51.1104L84.036 53.1085L86.9959 51.9337ZM89.1501 51.0502C88.1074 50.3287 86.631 50.226 84.8051 50.976L86.2268 54.0662C87.5001 53.5432 87.7146 53.927 87.454 53.7467L89.1501 51.0502ZM90.5504 54.0677C90.6192 52.9786 90.1869 51.7676 89.1501 51.0502L87.454 53.7467C87.3511 53.6755 87.3063 53.5977 87.2921 53.5653C87.2782 53.5337 87.2912 53.5434 87.2875 53.6033L90.5504 54.0677ZM88.842 56.647C89.9095 56.2085 90.4815 55.1579 90.5504 54.0677L87.2875 53.6033C87.2837 53.6629 87.2692 53.6775 87.279 53.662C87.2887 53.6467 87.3284 53.5945 87.4203 53.5567L88.842 56.647ZM84.5548 55.6571C86.2854 56.8546 87.7534 57.0941 88.842 56.647L87.4203 53.5567C87.6709 53.4538 87.4127 53.7645 86.251 52.9606L84.5548 55.6571ZM81.3601 54.8147C81.9964 54.5533 83.0392 54.6082 84.5548 55.6571L86.251 52.9606C84.1884 51.5333 81.9307 50.9061 79.9384 51.7244L81.3601 54.8147ZM80.2658 56.5083C80.3137 55.7507 80.7067 55.083 81.3601 54.8147L79.9384 51.7244C78.0017 52.5199 77.1087 54.3691 77.0029 56.0439L80.2658 56.5083ZM81.0894 58.3748C80.5208 57.9813 80.2178 57.2679 80.2658 56.5083L77.0029 56.0439C76.8971 57.7168 77.5447 59.7921 79.3933 61.0712L81.0894 58.3748ZM84.342 58.3015C82.6895 58.9802 81.6565 58.7672 81.0894 58.3748L79.3933 61.0712C81.2793 62.3763 83.5819 62.2879 85.7637 61.3917L84.342 58.3015ZM88.6871 58.3757C87.6444 57.6542 86.168 57.5515 84.342 58.3015L85.7637 61.3917C87.037 60.8687 87.2515 61.2525 86.9909 61.0722L88.6871 58.3757ZM90.0874 61.3932C90.1562 60.3041 89.7239 59.0931 88.6871 58.3757L86.9909 61.0722C86.8881 61.001 86.8432 60.9232 86.8291 60.8908C86.8152 60.8591 86.8282 60.8689 86.8244 60.9288L90.0874 61.3932ZM88.379 63.9725C89.4465 63.534 90.0184 62.4834 90.0874 61.3932L86.8244 60.9288C86.8207 60.9884 86.8062 61.003 86.816 60.9874C86.8257 60.9722 86.8653 60.92 86.9573 60.8822L88.379 63.9725ZM84.0918 62.9826C85.8224 64.1801 87.2904 64.4196 88.379 63.9725L86.9573 60.8822C87.2078 60.7793 86.9497 61.09 85.788 60.2861L84.0918 62.9826ZM80.8971 62.1402C81.5334 61.8788 82.5761 61.9337 84.0918 62.9826L85.788 60.2861C83.7254 58.8588 81.4677 58.2316 79.4753 59.0499L80.8971 62.1402ZM79.8028 63.8338C79.8506 63.0762 80.2437 62.4085 80.8971 62.1402L79.4753 59.0499C77.5387 59.8454 76.6457 61.6946 76.5398 63.3694L79.8028 63.8338ZM80.6264 65.7003C80.0578 65.3068 79.7547 64.5934 79.8028 63.8338L76.5398 63.3694C76.4341 65.0423 77.0817 67.1176 78.9302 68.3967L80.6264 65.7003ZM83.879 65.627C82.2265 66.3057 81.1935 66.0927 80.6264 65.7003L78.9302 68.3967C80.8162 69.7018 83.1189 69.6134 85.3007 68.7172L83.879 65.627ZM88.2241 65.7012C87.1813 64.9797 85.7049 64.877 83.879 65.627L85.3007 68.7172C86.574 68.1942 86.7885 68.578 86.5279 68.3977L88.2241 65.7012ZM89.6243 68.7187C89.6932 67.6296 89.2608 66.4186 88.2241 65.7012L86.5279 68.3977C86.4251 68.3265 86.3802 68.2487 86.366 68.2163C86.3522 68.1846 86.3652 68.1944 86.3614 68.2543L89.6243 68.7187ZM87.916 71.298C88.9834 70.8595 89.5554 69.8089 89.6243 68.7187L86.3614 68.2543C86.3576 68.3139 86.3431 68.3285 86.353 68.3129C86.3626 68.2977 86.4023 68.2455 86.4942 68.2077L87.916 71.298ZM83.6288 70.308C85.3594 71.5056 86.8273 71.7451 87.916 71.298L86.4942 68.2077C86.7448 68.1048 86.4866 68.4155 85.3249 67.6116L83.6288 70.308ZM80.434 69.4657C81.0704 69.2043 82.1131 69.2592 83.6288 70.3081L85.3249 67.6116C83.2623 66.1843 81.0047 65.557 79.0123 66.3754L80.434 69.4657ZM79.3397 71.1593C79.3876 70.4017 79.7806 69.734 80.434 69.4657L79.0123 66.3754C77.0757 67.1709 76.1827 69.0201 76.0768 70.6949L79.3397 71.1593ZM80.1633 73.0258C79.5948 72.6323 79.2917 71.9189 79.3397 71.1593L76.0768 70.6949C75.9711 72.3678 76.6187 74.4431 78.4672 75.7222L80.1633 73.0258ZM83.416 72.9525C81.7635 73.6312 80.7305 73.4182 80.1633 73.0258L78.4672 75.7222C80.3532 77.0273 82.6558 76.9389 84.8377 76.0427L83.416 72.9525ZM87.761 73.0267C86.7183 72.3052 85.2419 72.2025 83.416 72.9525L84.8377 76.0427C86.111 75.5197 86.3255 75.9035 86.0649 75.7232L87.761 73.0267ZM89.1613 76.0442C89.2301 74.9551 88.7978 73.7441 87.761 73.0267L86.0649 75.7232C85.962 75.652 85.9172 75.5742 85.903 75.5418C85.8891 75.5101 85.9022 75.5199 85.8984 75.5798L89.1613 76.0442ZM87.4529 78.6235C88.5204 78.185 89.0924 77.1344 89.1613 76.0442L85.8984 75.5798C85.8946 75.6394 85.8801 75.654 85.8899 75.6384C85.8996 75.6232 85.9393 75.571 86.0312 75.5332L87.4529 78.6235ZM83.1658 77.6335C84.8963 78.8311 86.3643 79.0706 87.4529 78.6235L86.0312 75.5332C86.2818 75.4303 86.0236 75.741 84.8619 74.9371L83.1658 77.6335ZM79.971 76.7912C80.6073 76.5298 81.6501 76.5847 83.1658 77.6335L84.8619 74.9371C82.7993 73.5098 80.5416 72.8825 78.5493 73.7009L79.971 76.7912ZM78.8903 78.3405C78.9791 77.6354 79.361 77.0417 79.971 76.7912L78.5493 73.7009C76.7432 74.4427 75.8438 76.1057 75.6465 77.6738L78.8903 78.3405ZM78.6414 79.3306C78.6271 79.1377 78.6637 78.9895 78.7268 78.8682L75.81 77.1461C75.4771 77.7855 75.3218 78.5278 75.3812 79.3262L78.6414 79.3306ZM79.248 80.6805C78.8168 80.0756 78.6639 79.6338 78.6414 79.3306L75.3812 79.3262C75.4683 80.4986 75.997 81.5708 76.6496 82.4864L79.248 80.6805ZM80.101 82.6995C80.0551 82.0817 79.7649 81.4057 79.248 80.6805L76.6496 82.4864C76.7895 82.6827 76.8453 82.7986 76.8624 82.8389C76.8807 82.8821 76.8507 82.8287 76.8408 82.6951L80.101 82.6995ZM79.5579 84.2125C79.6821 84.0902 79.8668 83.8784 79.9877 83.5553C80.1077 83.2348 80.1182 82.9307 80.101 82.6995L76.8408 82.6951C76.834 82.6048 76.8323 82.4062 76.9193 82.1737C77.0073 81.9386 77.1384 81.7973 77.1905 81.746L79.5579 84.2125ZM76.5159 84.9555C77.1324 85.0273 77.7 84.998 78.1871 84.8921C78.6271 84.7965 79.1609 84.6034 79.5579 84.2125L77.1905 81.746C77.2439 81.6934 77.2887 81.6616 77.3135 81.6455C77.3395 81.6286 77.3556 81.6211 77.358 81.62C77.3616 81.6184 77.3346 81.6308 77.2713 81.6445C77.1448 81.672 76.9302 81.6927 76.6403 81.6589L76.5159 84.9555ZM73.5531 83.4721C73.9146 83.9791 74.4398 84.3043 74.8649 84.5022C75.3396 84.7232 75.8997 84.8837 76.5159 84.9555L76.6403 81.6589C76.35 81.6251 76.1463 81.5557 76.0343 81.5035C75.9782 81.4774 75.9599 81.4626 75.9711 81.4708C75.9729 81.4722 76.0548 81.5306 76.1515 81.6662L73.5531 83.4721ZM73.1942 81.8044C73.1483 82.0219 73.1167 82.3267 73.1955 82.6819C73.276 83.0449 73.4391 83.3121 73.5531 83.472L76.1515 81.6662C76.2038 81.7397 76.3234 81.925 76.383 82.1937C76.4408 82.4546 76.411 82.6528 76.3939 82.7339L73.1942 81.8044ZM74.2703 80.0597C73.6796 80.6412 73.317 81.2221 73.1942 81.8044L76.3939 82.7339C76.3679 82.857 76.3348 82.894 76.3641 82.8465C76.3917 82.8019 76.4682 82.6931 76.6377 82.5262L74.2703 80.0597ZM75.0727 78.8242C75.0075 79.1332 74.7874 79.5506 74.2703 80.0597L76.6377 82.5262C77.3871 81.7885 78.0363 80.8725 78.2724 79.7537L75.0727 78.8242ZM74.9393 78.1496C75.0683 78.3306 75.1324 78.541 75.0727 78.8242L78.2724 79.7537C78.5316 78.5255 78.2325 77.3186 77.5377 76.3437L74.9393 78.1496ZM72.8862 77.221C73.8585 77.3342 74.6342 77.7216 74.9393 78.1496L77.5377 76.3437C76.3446 74.67 74.3339 74.0785 73.0106 73.9244L72.8862 77.221ZM70.673 77.694C71.0723 77.301 71.9278 77.1094 72.8862 77.221L73.0106 73.9244C71.6735 73.7687 69.657 73.8971 68.3056 75.2275L70.673 77.694ZM70.4245 78.3738C70.4035 78.0904 70.4912 77.873 70.673 77.694L68.3056 75.2275C67.5248 75.9962 67.0693 77.0907 67.1643 78.3694L70.4245 78.3738ZM71.0311 79.7237C70.5999 79.1188 70.4471 78.677 70.4245 78.3738L67.1643 78.3694C67.2515 79.5418 67.7801 80.614 68.4328 81.5296L71.0311 79.7237ZM71.8841 81.7427C71.8382 81.1249 71.548 80.4488 71.0311 79.7237L68.4328 81.5296C68.5727 81.7258 68.6284 81.8418 68.6455 81.8821C68.6638 81.9253 68.6338 81.8719 68.6239 81.7383L71.8841 81.7427ZM71.341 83.2557C71.4653 83.1334 71.65 82.9216 71.7708 82.5985C71.8908 82.278 71.9013 81.9739 71.8841 81.7426L68.6239 81.7383C68.6172 81.648 68.6154 81.4494 68.7025 81.2169C68.7904 80.9818 68.9215 80.8405 68.9736 80.7892L71.341 83.2557ZM68.299 83.9987C68.9155 84.0705 69.4832 84.0412 69.9703 83.9353C70.4102 83.8396 70.944 83.6466 71.3411 83.2557L68.9736 80.7892C69.027 80.7366 69.0718 80.7048 69.0967 80.6887C69.1226 80.6718 69.1387 80.6643 69.1412 80.6632C69.1447 80.6616 69.1177 80.6739 69.0544 80.6877C68.928 80.7152 68.7134 80.7359 68.4234 80.7021L68.299 83.9987ZM65.3363 82.5152C65.6977 83.0223 66.2229 83.3475 66.648 83.5454C67.1228 83.7664 67.6828 83.9269 68.299 83.9987L68.4234 80.7021C68.1332 80.6683 67.9295 80.5988 67.8175 80.5467C67.7613 80.5206 67.7431 80.5057 67.7542 80.5139C67.7561 80.5153 67.8379 80.5737 67.9346 80.7094L65.3363 82.5152ZM64.9773 80.8476C64.9314 81.065 64.8999 81.3699 64.9786 81.7251C65.0591 82.0881 65.2222 82.3553 65.3363 82.5153L67.9346 80.7094C67.9869 80.7828 68.1065 80.9681 68.1661 81.2369C68.224 81.4978 68.1941 81.6959 68.177 81.7771L64.9773 80.8476ZM66.0534 79.1029C65.4628 79.6844 65.1002 80.2653 64.9773 80.8475L68.177 81.7771C68.151 81.9001 68.1179 81.9372 68.1473 81.8896C68.1749 81.8451 68.2513 81.7363 68.4209 81.5694L66.0534 79.1029ZM66.8558 77.8674C66.7906 78.1763 66.5705 78.5938 66.0534 79.1029L68.4209 81.5694C69.1702 80.8316 69.8194 79.9157 70.0555 78.7969L66.8558 77.8674ZM66.7225 77.1928C66.8515 77.3738 66.9156 77.5842 66.8558 77.8674L70.0555 78.7969C70.3147 77.5687 70.0157 76.3618 69.3208 75.3869L66.7225 77.1928ZM64.6694 76.2642C65.6416 76.3774 66.4173 76.7647 66.7225 77.1928L69.3208 75.3869C68.1277 73.7132 66.1171 73.1217 64.7938 72.9676L64.6694 76.2642ZM62.4562 76.7372C62.8554 76.3441 63.7109 76.1526 64.6694 76.2642L64.7938 72.9676C63.4567 72.8119 61.4402 72.9402 60.0888 74.2707L62.4562 76.7372ZM62.3019 76.9382C62.3394 76.8702 62.39 76.8024 62.4562 76.7372L60.0888 74.2707C59.8291 74.5264 59.6018 74.8212 59.4188 75.1531L62.3019 76.9382ZM62.4406 75.7449C62.137 74.5625 61.4317 73.3658 60.2231 72.5295L58.5269 75.226C58.91 75.4911 59.1604 75.8799 59.2801 76.3464L62.4406 75.7449ZM60.2231 72.5295C58.3371 71.2244 56.0344 71.3128 53.8526 72.209L55.2743 75.2993C56.9268 74.6205 57.9598 74.8335 58.5269 75.226L60.2231 72.5295ZM53.8526 72.209C53.8477 72.211 53.8428 72.213 53.8378 72.2151L55.2528 75.3081C55.2598 75.3052 55.267 75.3023 55.2743 75.2993L53.8526 72.209ZM54.6318 75.5179C54.7531 75.4618 54.8915 75.4137 55.0458 75.3755L54.0448 72.1477C53.7261 72.2266 53.4043 72.3346 53.0908 72.4797L54.6318 75.5179ZM53.3152 72.397C52.9149 72.5094 52.6862 72.5033 52.5945 72.4922C52.5089 72.4819 52.537 72.4674 52.6254 72.5286L50.9292 75.225C51.7924 75.8224 52.9794 76.0016 54.4075 75.6006L53.3152 72.397ZM52.6254 72.5286C52.7282 72.5997 52.7731 72.6775 52.7872 72.7099C52.8011 72.7416 52.7881 72.7318 52.7919 72.6719L49.529 72.2075C49.4601 73.2966 49.8925 74.5076 50.9292 75.225L52.6254 72.5286ZM52.7919 72.6719C52.7956 72.6124 52.8101 72.5977 52.8003 72.6133C52.7907 72.6286 52.751 72.6807 52.659 72.7185L51.2373 69.6283C50.1698 70.0667 49.5979 71.1173 49.529 72.2075L52.7919 72.6719ZM52.659 72.7185C52.4085 72.8214 52.6666 72.5108 53.8284 73.3147L55.5245 70.6182C53.7939 69.4207 52.3259 69.1811 51.2373 69.6283L52.659 72.7185ZM53.8284 73.3147C55.8909 74.7419 58.1486 75.3692 60.141 74.5508L58.7192 71.4606C58.0829 71.722 57.0402 71.667 55.5245 70.6182L53.8284 73.3147ZM60.141 74.5508C62.0776 73.7554 62.9706 71.9062 63.0765 70.2313L59.8136 69.7669C59.7657 70.5246 59.3726 71.1922 58.7192 71.4606L60.141 74.5508ZM63.0765 70.2313C63.1822 68.5585 62.5346 66.4832 60.6861 65.204L58.9899 67.9005C59.5585 68.2939 59.8616 69.0074 59.8136 69.7669L63.0765 70.2313ZM60.6861 65.204C58.8001 63.8989 56.4974 63.9874 54.3156 64.8835L55.7373 67.9738C57.3898 67.295 58.4228 67.508 58.99 67.9005L60.6861 65.204ZM54.3156 64.8835C53.0423 65.4066 52.8278 65.0228 53.0884 65.2031L51.3923 67.8995C52.435 68.6211 53.9114 68.7238 55.7373 67.9738L54.3156 64.8835ZM53.0884 65.2031C53.1912 65.2742 53.2361 65.352 53.2503 65.3844C53.2641 65.4161 53.2511 65.4063 53.2549 65.3464L49.992 64.882C49.9231 65.9711 50.3555 67.1821 51.3923 67.8995L53.0884 65.2031ZM53.2549 65.3464C53.2587 65.2869 53.2732 65.2723 53.2633 65.2878C53.2537 65.3031 53.214 65.3553 53.1221 65.393L51.7003 62.3028C50.6329 62.7412 50.0609 63.7918 49.992 64.882L53.2549 65.3464ZM53.1221 65.393C52.8715 65.4959 53.1297 65.1853 54.2914 65.9892L55.9875 63.2927C54.257 62.0952 52.789 61.8556 51.7003 62.3028L53.1221 65.393ZM54.2914 65.9892C56.354 67.4164 58.6116 68.0437 60.604 67.2253L59.1823 64.1351C58.546 64.3965 57.5032 64.3415 55.9875 63.2927L54.2914 65.9892ZM60.604 67.2253C62.5407 66.4299 63.4337 64.5807 63.5395 62.9058L60.2766 62.4414C60.2287 63.1991 59.8357 63.8667 59.1823 64.1351L60.604 67.2253ZM63.5395 62.9058C63.6453 61.233 62.9976 59.1577 61.1491 57.8785L59.453 60.575C60.0216 60.9684 60.3246 61.6819 60.2766 62.4414L63.5395 62.9058ZM61.1491 57.8785C59.2631 56.5734 56.9605 56.6619 54.7786 57.558L56.2004 60.6483C57.8528 59.9695 58.8858 60.1825 59.453 60.575L61.1491 57.8785ZM54.7786 57.558C53.5053 58.0811 53.2908 57.6973 53.5514 57.8776L51.8553 60.574C52.898 61.2956 54.3744 61.3983 56.2004 60.6483L54.7786 57.558ZM53.5514 57.8776C53.6543 57.9487 53.6992 58.0265 53.7133 58.0589C53.7272 58.0906 53.7142 58.0808 53.7179 58.0209L50.455 57.5565C50.3862 58.6456 50.8185 59.8566 51.8553 60.574L53.5514 57.8776ZM53.7179 58.0209C53.7217 57.9614 53.7362 57.9468 53.7264 57.9623C53.7167 57.9776 53.6771 58.0298 53.5851 58.0675L52.1634 54.9773C51.0959 55.4157 50.5239 56.4663 50.455 57.5565L53.7179 58.0209ZM53.5851 58.0675C53.3346 58.1704 53.5927 57.8598 54.7544 58.6637L56.4506 55.9672C54.72 54.7697 53.252 54.5301 52.1634 54.9773L53.5851 58.0675ZM54.7544 58.6637C56.817 60.091 59.0747 60.7182 61.067 59.8998L59.6453 56.8096C59.009 57.071 57.9662 57.016 56.4506 55.9672L54.7544 58.6637ZM61.067 59.8998C63.0037 59.1044 63.8967 57.2552 64.0025 55.5803L60.7396 55.1159C60.6917 55.8736 60.2987 56.5412 59.6453 56.8096L61.067 59.8998ZM64.0025 55.5803C64.1083 53.9075 63.4607 51.8322 61.6122 50.553L59.916 53.2495C60.4846 53.6429 60.7876 54.3564 60.7396 55.116L64.0025 55.5803ZM61.6122 50.553C59.7262 49.2479 57.4235 49.3364 55.2417 50.2325L56.6634 53.3228C58.3159 52.644 59.3489 52.857 59.916 53.2495L61.6122 50.553ZM55.2417 50.2325C53.9684 50.7556 53.7539 50.3718 54.0145 50.5521L52.3183 53.2486C53.361 53.9701 54.8374 54.0728 56.6634 53.3228L55.2417 50.2325ZM54.0145 50.5521C54.1173 50.6232 54.1622 50.701 54.1763 50.7334C54.1902 50.7651 54.1772 50.7553 54.181 50.6954L50.918 50.231C50.8492 51.3202 51.2816 52.5311 52.3183 53.2485L54.0145 50.5521ZM54.181 50.6954C54.1847 50.6359 54.1992 50.6213 54.1894 50.6368C54.1797 50.6521 54.1401 50.7043 54.0481 50.742L52.6264 47.6518C51.5589 48.0902 50.987 49.1408 50.918 50.231L54.181 50.6954ZM54.0481 50.742C53.7976 50.8449 54.0557 50.5343 55.2174 51.3382L56.9136 48.6417C55.183 47.4442 53.715 47.2046 52.6264 47.6518L54.0481 50.742ZM57.4536 50.972L58.5848 49.2201L55.8087 47.256L54.6775 49.0079L57.4536 50.972ZM58.0448 46.8898C55.9822 45.4625 53.7246 44.8353 51.7322 45.6536L53.1539 48.7439C53.7903 48.4825 54.833 48.5374 56.3487 49.5863L58.0448 46.8898ZM51.7322 45.6536C49.7956 46.4491 48.9026 48.2983 48.7967 49.9731L52.0596 50.4375C52.1075 49.6799 52.5005 49.0123 53.1539 48.7439L51.7322 45.6536ZM48.7967 49.9731C48.691 51.646 49.3386 53.7213 51.1871 55.0005L52.8832 52.304C52.3147 51.9105 52.0116 51.1971 52.0596 50.4375L48.7967 49.9731ZM51.1871 55.0005C53.0731 56.3055 55.3757 56.2171 57.5576 55.3209L56.1359 52.2307C54.4834 52.9094 53.4504 52.6964 52.8832 52.304L51.1871 55.0005ZM57.5576 55.3209C58.8309 54.7979 59.0454 55.1817 58.7848 55.0014L60.4809 52.3049C59.4382 51.5834 57.9618 51.4807 56.1359 52.2307L57.5576 55.3209ZM58.7848 55.0014C58.6819 54.9302 58.6371 54.8525 58.6229 54.8201C58.609 54.7884 58.6221 54.7981 58.6183 54.8581L61.8812 55.3225C61.95 54.2333 61.5177 53.0224 60.4809 52.3049L58.7848 55.0014ZM58.6183 54.8581C58.6145 54.9176 58.6 54.9322 58.6098 54.9167C58.6195 54.9014 58.6592 54.8492 58.7511 54.8115L60.1728 57.9017C61.2403 57.4632 61.8123 56.4127 61.8812 55.3225L58.6183 54.8581ZM58.7511 54.8115C59.0017 54.7085 58.7435 55.0192 57.5818 54.2153L55.8857 56.9118C57.6162 58.1093 59.0842 58.3489 60.1728 57.9017L58.7511 54.8115ZM57.5818 54.2153C55.5192 52.788 53.2615 52.1608 51.2692 52.9791L52.6909 56.0694C53.3272 55.808 54.37 55.8629 55.8857 56.9118L57.5818 54.2153ZM51.2692 52.9791C49.3325 53.7746 48.4395 55.6238 48.3337 57.2986L51.5966 57.763C51.6445 57.0054 52.0375 56.3378 52.6909 56.0694L51.2692 52.9791ZM48.3337 57.2986C48.2279 58.9715 48.8756 61.0468 50.7241 62.3259L52.4202 59.6295C51.8516 59.236 51.5486 58.5226 51.5966 57.763L48.3337 57.2986ZM50.7241 62.326C52.6101 63.631 54.9127 63.5426 57.0946 62.6464L55.6728 59.5562C54.0204 60.2349 52.9873 60.0219 52.4202 59.6295L50.7241 62.326ZM57.0946 62.6464C58.3679 62.1234 58.5823 62.5072 58.3218 62.3269L60.0179 59.6304C58.9752 58.9089 57.4988 58.8062 55.6728 59.5562L57.0946 62.6464ZM58.3217 62.3269C58.2189 62.2557 58.174 62.178 58.1599 62.1456C58.146 62.1139 58.159 62.1236 58.1552 62.1836L61.4182 62.6479C61.487 61.5588 61.0547 60.3479 60.0179 59.6304L58.3217 62.3269ZM58.1552 62.1836C58.1515 62.2431 58.137 62.2577 58.1468 62.2422C58.1565 62.2269 58.1961 62.1747 58.2881 62.137L59.7098 65.2272C60.7773 64.7887 61.3493 63.7382 61.4182 62.6479L58.1552 62.1836ZM58.2881 62.137C58.5386 62.034 58.2805 62.3447 57.1188 61.5408L55.4226 64.2373C57.1532 65.4348 58.6212 65.6744 59.7098 65.2272L58.2881 62.137ZM57.1188 61.5408C55.0562 60.1135 52.7985 59.4863 50.8061 60.3046L52.2279 63.3949C52.8642 63.1335 53.9069 63.1884 55.4226 64.2373L57.1188 61.5408ZM50.8061 60.3046C48.8695 61.1001 47.9765 62.9493 47.8706 64.6241L51.1336 65.0885C51.1815 64.3309 51.5745 63.6633 52.2279 63.3949L50.8061 60.3046ZM47.8706 64.6241C47.7649 66.297 48.4125 68.3723 50.261 69.6514L51.9572 66.955C51.3886 66.5615 51.0856 65.8481 51.1336 65.0885L47.8706 64.6241ZM50.261 69.6514C52.147 70.9565 54.4497 70.8681 56.6315 69.9719L55.2098 66.8817C53.5573 67.5604 52.5243 67.3474 51.9572 66.955L50.261 69.6514ZM56.6315 69.9719C57.9048 69.4489 58.1193 69.8327 57.8587 69.6524L59.5549 66.9559C58.5122 66.2344 57.0357 66.1317 55.2098 66.8817L56.6315 69.9719ZM57.8587 69.6524C57.7559 69.5812 57.711 69.5035 57.6968 69.4711C57.683 69.4394 57.696 69.4491 57.6922 69.509L60.9551 69.9734C61.024 68.8843 60.5916 67.6734 59.5549 66.9559L57.8587 69.6524ZM57.6922 69.509C57.6884 69.5686 57.6739 69.5832 57.6838 69.5677C57.6934 69.5524 57.7331 69.5002 57.825 69.4625L59.2468 72.5527C60.3143 72.1142 60.8862 71.0637 60.9551 69.9734L57.6922 69.509ZM57.8251 69.4624C58.0756 69.3595 57.8174 69.6702 56.6557 68.8663L54.9596 71.5628C56.6902 72.7603 58.1581 72.9999 59.2468 72.5527L57.8251 69.4624ZM56.6557 68.8663C54.5932 67.439 52.3355 66.8118 50.3431 67.6301L51.7648 70.7204C52.4012 70.459 53.4439 70.5139 54.9596 71.5628L56.6557 68.8663ZM50.3431 67.6301C48.4065 68.4256 47.5135 70.2748 47.4076 71.9496L50.6705 72.414C50.7184 71.6564 51.1114 70.9888 51.7648 70.7204L50.3431 67.6301ZM47.4076 71.9496C47.3019 73.6225 47.9495 75.6978 49.798 76.9769L51.4941 74.2805C50.9256 73.887 50.6225 73.1736 50.6705 72.414L47.4076 71.9496ZM49.798 76.9769C50.5507 77.4978 51.3928 77.8049 52.2742 77.9166L52.4319 74.6241C52.046 74.5752 51.7415 74.4516 51.4941 74.2805L49.798 76.9769ZM53.9878 76.3899C53.9878 76.3884 53.9878 76.3871 53.9878 76.3859L50.7183 76.1548C50.7184 76.1606 50.7184 76.1663 50.7185 76.1718L53.9878 76.3899ZM52.4156 74.6326C51.5329 74.5297 50.6732 74.6299 49.8801 74.9556L51.3018 78.0459C51.5807 77.9313 51.9047 77.8841 52.2908 77.9291L52.4156 74.6326ZM49.8801 74.9556C49.4331 75.1392 49.0361 75.3831 48.6902 75.6721L50.8814 78.2986C51.0019 78.1978 51.1409 78.112 51.3018 78.0459L49.8801 74.9556ZM50.6543 78.3932C50.598 78.4678 50.5205 78.5236 50.4333 78.5548L49.1383 75.4159C48.6978 75.5739 48.301 75.8556 48.0027 76.2509L50.6543 78.3932ZM50.0482 79.7162C50.0775 79.3865 50.2385 78.9441 50.6543 78.3932L48.0027 76.2509C47.3733 77.0848 46.8899 78.0618 46.7917 79.1682L50.0482 79.7162ZM50.1809 80.3446C50.0849 80.1836 50.0246 79.9823 50.0482 79.7162L46.7917 79.1682C46.7051 80.1422 46.9321 81.083 47.4175 81.8976L50.1809 80.3446ZM47.2637 81.5693C47.6223 82.5903 48.2943 83.5823 49.335 84.3024L51.0311 81.606C50.6971 81.3748 50.4686 81.0545 50.3346 80.6729L47.2637 81.5693ZM49.335 84.3024C51.221 85.6075 53.5236 85.5191 55.7055 84.6229L54.2837 81.5327C52.6313 82.2114 51.5983 81.9984 51.0311 81.606L49.335 84.3024ZM56.4745 82.4904L56.1632 81.7947L53.2033 82.9696L53.5147 83.6652L56.4745 82.4904ZM54.1598 80.6092C54.0663 80.7293 53.9428 80.8371 53.7841 80.9305L55.5825 83.8338C56.0217 83.5753 56.4377 83.2323 56.785 82.7859L54.1598 80.6092ZM54.3632 80.0486C54.3537 80.2634 54.2853 80.4478 54.1598 80.6092L56.785 82.7859C57.2903 82.1365 57.5903 81.3374 57.6295 80.4505L54.3632 80.0486ZM55.5372 81.8015C55.6339 81.8377 55.7308 81.8718 55.8278 81.9038L56.6167 78.7543C56.564 78.737 56.5103 78.7181 56.4555 78.6976L55.5372 81.8015ZM58.0128 80.9497C57.9069 80.8012 57.8553 80.6464 57.8569 80.472L54.5875 80.1861C54.5787 81.131 54.888 82.0171 55.4144 82.7556L58.0128 80.9497ZM60.0658 81.8783C59.0936 81.7651 58.3179 81.3778 58.0128 80.9497L55.4144 82.7556C56.6075 84.4293 58.6181 85.0208 59.9414 85.1749L60.0658 81.8783ZM62.279 81.4053C61.8798 81.7984 61.0243 81.9899 60.0658 81.8783L59.9414 85.1749C61.2785 85.3306 63.295 85.2023 64.6464 83.8718L62.279 81.4053ZM62.5275 80.7256C62.5486 81.0089 62.4609 81.2263 62.279 81.4053L64.6464 83.8718C65.4273 83.1031 65.8828 82.0086 65.7877 80.7299L62.5275 80.7256ZM61.9209 79.3756C62.3521 79.9805 62.505 80.4223 62.5275 80.7256L65.7877 80.7299C65.7006 79.5576 65.1719 78.4853 64.5193 77.5697L61.9209 79.3756ZM61.0679 77.3567C61.1139 77.9745 61.4041 78.6505 61.9209 79.3756L64.5193 77.5698C64.3794 77.3735 64.3236 77.2575 64.3065 77.2172C64.2882 77.174 64.3182 77.2274 64.3281 77.361L61.0679 77.3567ZM61.611 75.8437C61.4868 75.966 61.3021 76.1778 61.1812 76.5008C61.0613 76.8214 61.0507 77.1254 61.0679 77.3567L64.3281 77.361C64.3349 77.4513 64.3366 77.6499 64.2496 77.8825C64.1616 78.1175 64.0305 78.2588 63.9784 78.3101L61.611 75.8437ZM64.653 75.1006C64.0365 75.0289 63.4689 75.0582 62.9818 75.164C62.5418 75.2597 62.0081 75.4527 61.611 75.8437L63.9784 78.3101C63.925 78.3627 63.8802 78.3945 63.8554 78.4107C63.8294 78.4275 63.8133 78.435 63.8109 78.4361C63.8074 78.4377 63.8343 78.4254 63.8976 78.4116C64.0241 78.3841 64.2387 78.3635 64.5286 78.3972L64.653 75.1006ZM67.6158 76.5841C67.2543 76.077 66.7291 75.7518 66.304 75.554C65.8293 75.333 65.2692 75.1724 64.653 75.1006L64.5286 78.3972C64.8189 78.431 65.0226 78.5005 65.1346 78.5526C65.1907 78.5787 65.209 78.5936 65.1978 78.5854C65.196 78.584 65.1141 78.5256 65.0174 78.3899L67.6158 76.5841ZM67.9747 78.2518C68.0206 78.0343 68.0522 77.7294 67.9734 77.3742C67.8929 77.0112 67.7298 76.7441 67.6158 76.5841L65.0174 78.3899C64.9651 78.3165 64.8455 78.1312 64.7859 77.8624C64.7281 77.6015 64.7579 77.4034 64.775 77.3222L67.9747 78.2518ZM66.8986 79.9964C67.4893 79.4149 67.8519 78.834 67.9747 78.2518L64.775 77.3222C64.801 77.1992 64.8342 77.1621 64.8048 77.2097C64.7772 77.2543 64.7007 77.363 64.5312 77.53L66.8986 79.9964ZM66.0962 81.232C66.1614 80.923 66.3815 80.5055 66.8986 79.9964L64.5312 77.53C63.7818 78.2677 63.1326 79.1836 62.8965 80.3024L66.0962 81.232ZM66.2296 81.9065C66.1006 81.7256 66.0365 81.5151 66.0962 81.232L62.8965 80.3024C62.6374 81.5307 62.9364 82.7376 63.6312 83.7124L66.2296 81.9065ZM68.2827 82.8351C67.3104 82.7219 66.5347 82.3346 66.2296 81.9065L63.6312 83.7124C64.8243 85.3862 66.835 85.9776 68.1583 86.1317L68.2827 82.8351ZM70.4959 82.3621C70.0966 82.7552 69.2411 82.9467 68.2827 82.8351L68.1583 86.1317C69.4954 86.2874 71.5119 86.1591 72.8633 84.8286L70.4959 82.3621ZM70.7444 81.6824C70.7654 81.9657 70.6777 82.1831 70.4959 82.3621L72.8633 84.8286C73.6441 84.0599 74.0996 82.9655 74.0046 81.6867L70.7444 81.6824ZM70.1378 80.3324C70.569 80.9374 70.7218 81.3791 70.7444 81.6824L74.0046 81.6867C73.9174 80.5144 73.3888 79.4421 72.7361 78.5266L70.1378 80.3324ZM69.2848 78.3135C69.3307 78.9313 69.6209 79.6073 70.1378 80.3324L72.7361 78.5266C72.5962 78.3303 72.5405 78.2143 72.5234 78.174C72.5051 78.1309 72.5351 78.1842 72.545 78.3179L69.2848 78.3135ZM69.8278 76.8005C69.7036 76.9228 69.5189 77.1346 69.3981 77.4576C69.2781 77.7782 69.2676 78.0823 69.2848 78.3135L72.545 78.3178C72.5517 78.4081 72.5535 78.6067 72.4665 78.8393C72.3785 79.0743 72.2474 79.2156 72.1953 79.2669L69.8278 76.8005ZM72.8699 76.0575C72.2534 75.9857 71.6857 76.015 71.1986 76.1209C70.7587 76.2165 70.2249 76.4096 69.8278 76.8005L72.1953 79.2669C72.1419 79.3195 72.0971 79.3513 72.0722 79.3675C72.0463 79.3843 72.0302 79.3918 72.0277 79.3929C72.0242 79.3945 72.0512 79.3822 72.1145 79.3684C72.2409 79.3409 72.4555 79.3203 72.7455 79.354L72.8699 76.0575ZM75.8326 77.5409C75.4712 77.0338 74.946 76.7087 74.5209 76.5108C74.0462 76.2898 73.4861 76.1292 72.8699 76.0575L72.7455 79.354C73.0357 79.3878 73.2394 79.4573 73.3514 79.5094C73.4076 79.5356 73.4258 79.5504 73.4147 79.5422C73.4128 79.5408 73.331 79.4824 73.2343 79.3468L75.8326 77.5409ZM76.1916 79.2086C76.2375 78.9911 76.2691 78.6862 76.1903 78.331C76.1098 77.968 75.9467 77.7009 75.8327 77.5409L73.2343 79.3467C73.182 79.2733 73.0624 79.088 73.0028 78.8193C72.9449 78.5583 72.9748 78.3602 72.9919 78.2791L76.1916 79.2086ZM75.1155 80.9532C75.7061 80.3717 76.0687 79.7909 76.1916 79.2086L72.9919 78.2791C73.0179 78.156 73.051 78.119 73.0216 78.1665C72.9941 78.2111 72.9176 78.3199 72.748 78.4868L75.1155 80.9532ZM74.3131 82.1888C74.3783 81.8798 74.5984 81.4623 75.1155 80.9532L72.748 78.4868C71.9987 79.2245 71.3495 80.1404 71.1134 81.2592L74.3131 82.1888ZM74.4464 82.8634C74.3175 82.6824 74.2533 82.4719 74.3131 82.1888L71.1134 81.2592C70.8542 82.4875 71.1532 83.6944 71.8481 84.6692L74.4464 82.8634ZM76.4995 83.792C75.5273 83.6787 74.7516 83.2914 74.4464 82.8634L71.8481 84.6692C73.0412 86.343 75.0518 86.9344 76.3751 87.0885L76.4995 83.792ZM78.7127 83.319C78.3135 83.712 77.458 83.9036 76.4995 83.792L76.3751 87.0885C77.7122 87.2442 79.7287 87.1159 81.0801 85.7854L78.7127 83.319ZM78.9612 82.6392C78.9823 82.9225 78.8946 83.1399 78.7127 83.319L81.0802 85.7854C81.861 85.0167 82.3165 83.9223 82.2214 82.6436L78.9612 82.6392ZM78.9447 82.5092C78.9528 82.5549 78.9582 82.5982 78.9612 82.6392L82.2214 82.6435C82.2096 82.4846 82.1896 82.3272 82.1622 82.1716L78.9447 82.5092ZM80.9207 80.7163C80.8201 80.7135 80.7247 80.706 80.6345 80.6944L80.4725 83.9864C80.6741 84.0122 80.877 84.0277 81.0807 84.0335L80.9207 80.7163ZM82.501 83.1881C82.5126 83.139 82.5275 83.0879 82.5461 83.0349L79.4553 81.715C79.4022 81.8666 79.3564 82.0221 79.3186 82.1813L82.501 83.1881ZM82.608 83.9703C82.4838 83.7603 82.4249 83.5091 82.501 83.1881L79.3186 82.1814C79.0438 83.3404 79.2454 84.5104 79.8385 85.513L82.608 83.9703ZM84.5241 85.0224C83.6016 84.8694 82.884 84.437 82.608 83.9703L79.8385 85.513C80.9021 87.3115 82.8602 88.0676 84.2411 88.2966L84.5241 85.0224ZM85.8917 84.9978C85.4637 85.0973 84.9757 85.0973 84.5241 85.0224L84.2411 88.2966C85.039 88.4289 85.9569 88.4434 86.8506 88.2357L85.8917 84.9978ZM84.3043 80.519C84.3474 80.4049 84.3828 80.2868 84.4084 80.1654L81.2087 79.2359C81.2195 79.1849 81.2314 79.1493 81.239 79.1292L84.3043 80.519ZM84.4084 80.1654C84.4543 79.948 84.4859 79.6431 84.4071 79.2879C84.3266 78.9248 84.1635 78.6577 84.0495 78.4977L81.4512 80.3036C81.3988 80.2302 81.2792 80.0448 81.2196 79.7761C81.1618 79.5151 81.1916 79.317 81.2088 79.2359L84.4084 80.1654ZM84.0495 78.4977C83.6881 77.9907 83.1628 77.6655 82.7378 77.4676C82.263 77.2466 81.7029 77.086 81.0867 77.0143L80.9623 80.3109C81.2526 80.3447 81.4563 80.4141 81.5683 80.4663C81.6244 80.4924 81.6427 80.5072 81.6315 80.499C81.6297 80.4976 81.5478 80.4392 81.4511 80.3036L84.0495 78.4977ZM81.0867 77.0143C80.0963 76.899 79.1539 77.0387 78.4892 77.4226L80.2667 80.3381C80.2222 80.3638 80.2561 80.3349 80.3999 80.3126C80.5316 80.2921 80.7219 80.2829 80.9623 80.3109L81.0867 77.0143ZM77.757 78.9689C77.8687 79.8401 78.3172 80.7296 79.1354 81.2958L80.8315 78.5994C81.0006 78.7163 81.0044 78.8346 80.9989 78.7917L77.757 78.9689ZM79.1354 81.2958C80.1781 82.0174 81.6545 82.1201 83.4805 81.3701L82.0587 78.2798C80.7854 78.8028 80.5709 78.419 80.8315 78.5994L79.1354 81.2958ZM83.4796 81.3704C83.4799 81.3703 83.4803 81.3701 83.4806 81.37C83.481 81.3699 83.4813 81.3697 83.4816 81.3696L82.0616 78.2786C82.0613 78.2788 82.061 78.2789 82.0606 78.2791C82.0603 78.2792 82.0599 78.2793 82.0596 78.2795L83.4796 81.3704ZM56.4362 74.1438C55.869 74.0778 55.3444 74.0974 54.8865 74.1827L55.7123 77.4485C55.8429 77.4241 56.0463 77.4095 56.3118 77.4404L56.4362 74.1438ZM59.3989 75.6272C59.0375 75.1202 58.5123 74.795 58.0872 74.5971C57.6125 74.3761 57.0524 74.2156 56.4362 74.1438L56.3118 77.4404C56.602 77.4742 56.8058 77.5437 56.9177 77.5958C56.9739 77.6219 56.9922 77.6368 56.981 77.6286C56.9791 77.6272 56.8973 77.5688 56.8006 77.4331L59.3989 75.6272ZM59.7579 77.295C59.8038 77.0775 59.8354 76.7726 59.7566 76.4174C59.6761 76.0544 59.513 75.7873 59.399 75.6273L56.8006 77.4331C56.7483 77.3597 56.6287 77.1744 56.5691 76.9056C56.5112 76.6447 56.5411 76.4465 56.5582 76.3654L59.7579 77.295ZM58.6818 79.0396C59.2725 78.4581 59.635 77.8772 59.7579 77.295L56.5582 76.3654C56.5842 76.2424 56.6173 76.2053 56.5879 76.2529C56.5604 76.2974 56.4839 76.4062 56.3144 76.5731L58.6818 79.0396ZM58.3091 79.4518C58.4137 79.3193 58.5375 79.1817 58.6818 79.0396L56.3144 76.5731C56.0941 76.7899 55.8863 77.0184 55.6963 77.2592L58.3091 79.4518ZM57.2706 76.7444C57.087 76.6992 56.7347 76.5668 56.1927 76.1918L54.4966 78.8883C55.3046 79.4474 56.0482 79.7977 56.7348 79.9666L57.2706 76.7444ZM56.1927 76.1918C55.9714 76.0387 55.7494 75.8955 55.5268 75.7627L54.0357 78.5911C54.1853 78.6803 54.339 78.7792 54.4966 78.8883L56.1927 76.1918ZM52.8511 76.3999C52.8876 76.8907 53.0785 77.412 53.3975 77.95L56.165 76.4038C56.1043 76.3015 56.0855 76.2503 56.0845 76.2473C56.0841 76.2461 56.0886 76.2586 56.0943 76.2841C56.0999 76.3091 56.1073 76.3497 56.1113 76.4042L52.8511 76.3999ZM53.3941 74.8869C53.2699 75.0091 53.0853 75.221 52.9644 75.544C52.8444 75.8645 52.8339 76.1686 52.8511 76.3998L56.1113 76.4042C56.118 76.4945 56.1198 76.6931 56.0328 76.9256C55.9448 77.1607 55.8137 77.302 55.7616 77.3533L53.3941 74.8869ZM53.7934 74.5789C53.665 74.6567 53.5258 74.7572 53.3942 74.8868L55.7616 77.3533C55.6988 77.4151 55.6474 77.4488 55.6245 77.4626L53.7934 74.5789ZM55.2873 77.6132C55.5191 77.5425 55.7515 77.4617 55.9844 77.371L54.6144 74.2601C54.4479 74.3249 54.2866 74.3808 54.1306 74.4284L55.2873 77.6132ZM56.7479 80.6999C56.8212 81.0945 56.9955 81.3846 57.1194 81.5584L59.7178 79.7526C59.7758 79.834 59.905 80.0372 59.9593 80.3294L56.7479 80.6999ZM57.1194 81.5584C57.4809 82.0655 58.0061 82.3907 58.4312 82.5885C58.9059 82.8096 59.466 82.9701 60.0822 83.0419L60.2066 79.7453C59.9163 79.7115 59.7126 79.642 59.6006 79.5899C59.5445 79.5638 59.5262 79.5489 59.5374 79.5571C59.5392 79.5585 59.6211 79.6169 59.7178 79.7526L57.1194 81.5584ZM60.0822 83.0419C60.6987 83.1136 61.2663 83.0843 61.7534 82.9784C62.1934 82.8828 62.7271 82.6898 63.1242 82.2988L60.7568 79.8324C60.8102 79.7798 60.855 79.748 60.8798 79.7318C60.9058 79.715 60.9219 79.7075 60.9243 79.7064C60.9278 79.7048 60.9009 79.7171 60.8376 79.7309C60.7111 79.7584 60.4965 79.779 60.2066 79.7453L60.0822 83.0419ZM63.1242 82.2988C63.2484 82.1765 63.4331 81.9647 63.554 81.6417C63.6739 81.3211 63.6845 81.0171 63.6673 80.7858L60.4071 80.7815C60.4003 80.6912 60.3986 80.4926 60.4856 80.26C60.5736 80.025 60.7047 79.8837 60.7568 79.8324L63.1242 82.2988ZM63.6673 80.7858C63.6213 80.168 63.3311 79.492 62.8143 78.7669L60.2159 80.5728C60.3558 80.769 60.4116 80.885 60.4287 80.9253C60.447 80.9685 60.417 80.9151 60.4071 80.7815L63.6673 80.7858ZM62.8143 78.7669C62.5651 78.4174 62.4045 78.1156 62.3113 77.8616L59.2574 78.8054C59.4888 79.4356 59.8269 80.027 60.2159 80.5727L62.8143 78.7669ZM59.6779 81.8763C61.0709 81.3042 61.931 80.174 62.3353 78.9771L59.2334 77.6898C59.0623 78.1963 58.7323 78.5905 58.2562 78.7861L59.6779 81.8763ZM58.7794 82.145C59.0887 82.0847 59.3889 81.9951 59.6779 81.8763L58.2562 78.7861C58.151 78.8293 58.0417 78.862 57.9278 78.8842L58.7794 82.145ZM52.196 80.044C52.1217 80.0746 52.1009 80.06 52.1656 80.0658C52.2339 80.0719 52.4127 80.1029 52.7212 80.2543L53.9566 77.2872C52.6967 76.6687 51.6061 76.6121 50.7743 76.9538L52.196 80.044ZM52.3289 79.9974C52.3326 79.9379 52.3471 79.9232 52.3373 79.9388C52.3276 79.9541 52.288 80.0062 52.196 80.044L50.7743 76.9538C49.7068 77.3922 49.1348 78.4428 49.0659 79.533L52.3289 79.9974ZM52.3304 80.0514C52.3294 80.0457 52.3269 80.0277 52.3289 79.9974L49.0659 79.533C49.0477 79.822 49.0635 80.113 49.1149 80.3997L52.3304 80.0514ZM49.6318 81.3727C50.297 82.0277 51.3007 82.3714 52.2856 82.4217L52.1989 79.1075C52.0025 79.0974 51.8611 79.0597 51.7798 79.0286C51.7394 79.0132 51.7216 79.0024 51.7231 79.0033C51.7243 79.0041 51.7328 79.0092 51.7472 79.0202C51.7613 79.0309 51.7845 79.0498 51.8135 79.0784L49.6318 81.3727ZM52.2856 82.4217C52.8675 82.4514 53.3993 82.3797 53.8543 82.2286C54.273 82.0895 54.753 81.84 55.0884 81.4089L52.4632 79.2322C52.5084 79.174 52.5495 79.1347 52.5772 79.1108C52.6056 79.0863 52.6273 79.0718 52.6388 79.0646C52.6605 79.0511 52.659 79.0556 52.6265 79.0664C52.5618 79.0879 52.4198 79.1188 52.1989 79.1075L52.2856 82.4217ZM55.0884 81.4089C55.4062 81.0004 55.5662 80.4679 55.4878 79.8316L52.2439 79.9922C52.2356 79.9254 52.2294 79.7886 52.2745 79.6183C52.3216 79.4408 52.4021 79.3107 52.4632 79.2322L55.0884 81.4089ZM55.4878 79.8316C55.4138 79.2312 55.1332 78.58 54.6507 77.8858L52.0271 79.6557C52.1552 79.84 52.2156 79.9607 52.2413 80.0203C52.2674 80.081 52.2533 80.0686 52.2438 79.9922L55.4878 79.8316Z" fill="white" mask="url(#path-1-outside-1_1330_8770)"/>
</g>
<path d="M107.432 81.319C104.76 81.319 102.418 80.6423 100.405 79.2889C98.3924 77.9355 96.9348 76.0962 96.0326 73.7711L99.312 72.2095C100.11 73.9099 101.221 75.2634 102.643 76.2697C104.101 77.2761 105.697 77.7793 107.432 77.7793C109.098 77.7793 110.504 77.3802 111.649 76.5821C112.794 75.7492 113.367 74.6734 113.367 73.3547C113.367 72.383 113.089 71.6196 112.534 71.0643C111.978 70.4744 111.336 70.0232 110.608 69.7109C109.879 69.3986 109.237 69.173 108.682 69.0342L104.674 67.889C102.106 67.1603 100.249 66.1365 99.1038 64.8178C97.9586 63.4991 97.386 61.9722 97.386 60.237C97.386 58.606 97.8024 57.1832 98.6353 55.9686C99.4681 54.754 100.596 53.817 102.019 53.1577C103.442 52.4983 105.021 52.1687 106.756 52.1687C109.116 52.1687 111.25 52.7933 113.158 54.0426C115.102 55.2572 116.473 56.9576 117.271 59.1439L113.939 60.7055C113.245 59.1439 112.239 57.9293 110.92 57.0617C109.636 56.1595 108.196 55.7083 106.6 55.7083C105.038 55.7083 103.789 56.1074 102.852 56.9056C101.915 57.7037 101.446 58.7101 101.446 59.9247C101.446 60.8617 101.689 61.6078 102.175 62.1631C102.661 62.7183 103.216 63.1347 103.841 63.4124C104.5 63.69 105.073 63.8982 105.558 64.037L110.191 65.3904C112.447 66.0498 114.199 67.0735 115.449 68.4616C116.733 69.8497 117.375 71.4807 117.375 73.3547C117.375 74.8816 116.941 76.2524 116.073 77.467C115.241 78.6816 114.078 79.6359 112.586 80.33C111.094 80.9893 109.376 81.319 107.432 81.319Z" fill="#5A0046"/>
<path d="M140.096 81.0016C137.607 81.7599 135.167 81.85 132.778 81.2718C130.412 80.6502 128.325 79.4541 126.516 77.6834C124.707 75.9127 123.393 73.6829 122.574 70.9939C121.755 68.305 121.596 65.7595 122.098 63.3575C122.589 60.9223 123.616 58.8139 125.177 57.0323C126.772 55.2406 128.781 53.9757 131.204 53.2375C133.13 52.651 134.95 52.4954 136.667 52.7707C138.406 53.0027 139.994 53.5711 141.43 54.4758C142.857 55.3473 144.085 56.4606 145.114 57.8158C146.134 59.1377 146.886 60.5954 147.371 62.1889C147.472 62.5208 147.572 62.9077 147.67 63.3493C147.759 63.7578 147.835 64.1879 147.9 64.6397L125.343 71.5108L124.281 68.0251L144.697 61.8063L143.36 63.8462C143.102 61.9293 142.391 60.3684 141.226 59.1634C140.084 57.9151 138.722 57.0782 137.142 56.6528C135.551 56.1941 133.926 56.2176 132.266 56.7232C130.606 57.2288 129.194 58.1306 128.029 59.4285C126.898 60.7163 126.171 62.2617 125.85 64.0646C125.518 65.8344 125.759 67.7563 126.572 69.8303C127.054 72.0055 127.952 73.7634 129.267 75.104C130.605 76.4014 132.136 77.2591 133.86 77.6773C135.617 78.0854 137.342 78.0316 139.035 77.5159C140.993 76.9193 142.495 75.954 143.54 74.62C144.585 73.286 145.309 71.7955 145.715 70.1484L149.417 70.8707C149.25 72.2276 148.776 73.5874 147.994 74.9502C147.201 76.2798 146.138 77.4926 144.803 78.5884C143.491 79.641 141.922 80.4454 140.096 81.0016Z" fill="#5A0046"/>
<path d="M9.224 81V45.24H12.584L26.024 64.728H24.152L37.544 45.24H40.904V81H37.064V50.424L38.312 50.904L25.16 69.96H24.968L11.864 50.904L13.064 50.424V81H9.224Z" fill="#5A0046"/>
<defs>
<filter id="filter0_dii_1330_8770" x="46.5974" y="44.8508" width="47.0535" height="44.5338" filterUnits="userSpaceOnUse" color-interpolation-filters="sRGB">
<feFlood flood-opacity="0" result="BackgroundImageFix"/>
<feColorMatrix in="SourceAlpha" type="matrix" values="0 0 0 0 0 0 0 0 0 0 0 0 0 0 0 0 0 0 127 0" result="hardAlpha"/>
<feOffset dx="0.397562" dy="0.416494"/>
<feGaussianBlur stdDeviation="0.286813"/>
<feComposite in2="hardAlpha" operator="out"/>
<feColorMatrix type="matrix" values="0 0 0 0 0 0 0 0 0 0 0 0 0 0 0 0 0 0 0.25 0"/>
<feBlend mode="normal" in2="BackgroundImageFix" result="effect1_dropShadow_1330_8770"/>
<feBlend mode="normal" in="SourceGraphic" in2="effect1_dropShadow_1330_8770" result="shape"/>
<feColorMatrix in="SourceAlpha" type="matrix" values="0 0 0 0 0 0 0 0 0 0 0 0 0 0 0 0 0 0 127 0" result="hardAlpha"/>
<feOffset dx="-0.0567946" dy="-1.93102"/>
<feGaussianBlur stdDeviation="0.219606"/>
<feComposite in2="hardAlpha" operator="arithmetic" k2="-1" k3="1"/>
<feColorMatrix type="matrix" values="0 0 0 0 0 0 0 0 0 0 0 0 0 0 0 0 0 0 0.25 0"/>
<feBlend mode="normal" in2="shape" result="effect2_innerShadow_1330_8770"/>
<feColorMatrix in="SourceAlpha" type="matrix" values="0 0 0 0 0 0 0 0 0 0 0 0 0 0 0 0 0 0 127 0" result="hardAlpha"/>
<feOffset dy="1.70384"/>
<feGaussianBlur stdDeviation="0.460036"/>
<feComposite in2="hardAlpha" operator="arithmetic" k2="-1" k3="1"/>
<feColorMatrix type="matrix" values="0 0 0 0 1 0 0 0 0 1 0 0 0 0 1 0 0 0 0.4 0"/>
<feBlend mode="normal" in2="effect2_innerShadow_1330_8770" result="effect3_innerShadow_1330_8770"/>
</filter>
<linearGradient id="paint0_linear_1330_8770" x1="70.8058" y1="47.7119" x2="65.6899" y2="85.466" gradientUnits="userSpaceOnUse">
<stop offset="0.515" stop-color="#3888FF"/>
<stop offset="1" stop-color="#003CD5"/>
</linearGradient>
</defs>
</svg>
