<svg width="164" height="120" viewBox="0 0 164 120" fill="none" xmlns="http://www.w3.org/2000/svg">
<g filter="url(#filter0_dii_1167_4202)">
<mask id="path-1-outside-1_1167_4202" maskUnits="userSpaceOnUse" x="46.1333" y="42.677" width="46.9611" height="47.9757" fill="black">
<rect fill="white" x="46.1333" y="42.677" width="46.9611" height="47.9757"/>
<path fill-rule="evenodd" clip-rule="evenodd" d="M85.9224 84.4899C85.4369 84.5377 84.6688 84.3818 83.5547 83.6108L83.3044 83.9984C83.1831 83.9007 83.0936 83.8012 83.0388 83.7085C82.9713 83.5944 82.9385 83.469 82.9831 83.2806C83.0346 83.0634 83.2052 82.7121 83.6748 82.2498C83.8836 82.0442 84.0709 81.8338 84.2335 81.6186C85.1667 81.3306 85.789 81.3987 86.179 81.5546C86.0854 81.8183 86.0972 82.124 86.2364 82.4039C86.5543 83.0432 86.626 83.4739 86.6131 83.7381C86.6014 83.978 86.52 84.123 86.4049 84.2324C86.2958 84.336 86.1313 84.4262 85.9224 84.4899ZM86.375 86.6167C86.6541 86.5784 86.922 86.5068 87.1771 86.402C88.4722 85.8701 89.1152 84.6117 89.1921 83.3954C89.2689 82.1792 88.7936 80.7848 87.5851 79.9485C86.8427 79.4348 85.9387 79.2092 84.9156 79.2857C84.903 79.2112 84.8871 79.1377 84.8679 79.0652C85.8891 79.4073 86.8287 79.4098 87.6402 79.0765C88.9352 78.5446 89.5782 77.2862 89.6551 76.0699C89.732 74.8537 89.2566 73.4593 88.0481 72.623C86.8215 71.7743 85.1537 71.712 83.2365 72.4994C81.6869 73.136 80.8415 72.8927 80.4504 72.6221C80.0413 72.339 79.7946 71.8002 79.8335 71.185C79.8724 70.5699 80.1829 70.0987 80.6213 69.9187C81.0403 69.7466 81.9034 69.711 83.3495 70.7117C85.1387 71.9498 86.7889 72.2909 88.1032 71.751C89.3982 71.2191 90.0412 69.9607 90.1181 68.7444C90.195 67.5282 89.7197 66.1338 88.5111 65.2975C87.2845 64.4488 85.6167 64.3865 83.6996 65.174C82.1499 65.8105 81.3045 65.5672 80.9134 65.2966C80.5043 65.0135 80.2577 64.4747 80.2965 63.8595C80.3354 63.2444 80.6459 62.7732 81.0843 62.5932C81.5034 62.4211 82.3664 62.3855 83.8126 63.3862C85.6017 64.6243 87.2519 64.9654 88.5662 64.4255C89.8613 63.8936 90.5043 62.6352 90.5811 61.4189C90.658 60.2027 90.1827 58.8083 88.9742 57.972C87.7476 57.1233 86.0798 57.061 84.1626 57.8485C82.613 58.485 81.7675 58.2417 81.3765 57.9711C80.9674 57.688 80.7207 57.1492 80.7596 56.534C80.7985 55.9189 81.109 55.4477 81.5473 55.2677C81.9664 55.0956 82.8294 55.06 84.2756 56.0607C86.0647 57.2988 87.7149 57.6399 89.0293 57.1C90.3243 56.5681 90.9673 55.3097 91.0442 54.0934C91.1211 52.8772 90.6457 51.4828 89.4372 50.6465C88.2106 49.7978 86.5428 49.7355 84.6256 50.523L85.5198 52.5211C87.0694 51.8846 87.9149 52.1278 88.306 52.3984C88.715 52.6815 88.9617 53.2204 88.9228 53.8355C88.884 54.4507 88.5734 54.9218 88.1351 55.1019C87.716 55.274 86.853 55.3095 85.4068 54.3088C83.6177 53.0708 81.9675 52.7297 80.6531 53.2695C79.3581 53.8015 78.7151 55.0599 78.6382 56.2761C78.5614 57.4923 79.0367 58.8867 80.2452 59.723C81.4718 60.5718 83.1396 60.6341 85.0568 59.8466C86.6064 59.2101 87.4519 59.4533 87.8429 59.7239C88.252 60.007 88.4987 60.5459 88.4598 61.161C88.4209 61.7762 88.1104 62.2473 87.672 62.4274C87.253 62.5995 86.3899 62.635 84.9438 61.6343C83.1547 60.3963 81.5045 60.0552 80.1901 60.595C78.8951 61.127 78.2521 62.3854 78.1752 63.6016C78.0983 64.8178 78.5737 66.2122 79.7822 67.0485C81.0088 67.8973 82.6766 67.9596 84.5938 67.1721C86.1434 66.5356 86.9888 66.7788 87.3799 67.0494C87.789 67.3325 88.0357 67.8714 87.9968 68.4865C87.9579 69.1017 87.6474 69.5728 87.209 69.7529C86.79 69.925 85.9269 69.9605 84.4808 68.9598C82.6916 67.7218 81.0414 67.3807 79.7271 67.9205C78.4321 68.4525 77.789 69.7109 77.7122 70.9271C77.6353 72.1433 78.1106 73.5377 79.3192 74.374C80.5457 75.2228 82.2136 75.2851 84.1307 74.4976C85.6804 73.8611 86.5258 74.1043 86.9169 74.3749C87.326 74.658 87.5726 75.1969 87.5337 75.812C87.4949 76.4272 87.1843 76.8983 86.746 77.0784C86.3269 77.2505 85.4639 77.286 84.0177 76.2853C82.2286 75.0473 80.5784 74.7062 79.264 75.246C78.056 75.7422 77.4153 76.8706 77.2723 78.0071C77.0743 78.3875 76.9784 78.8327 77.0152 79.3284C77.07 80.0662 77.4108 80.8232 77.9527 81.5835C78.3581 82.1522 78.4611 82.5131 78.4748 82.6973C78.4853 82.8382 78.4502 82.9083 78.3781 82.9793C78.1465 83.2072 77.4884 83.4128 76.582 83.3072C75.6756 83.2017 75.0544 82.8472 74.8562 82.5691C74.7945 82.4826 74.7692 82.4055 74.7979 82.2691C74.8355 82.091 74.9842 81.7593 75.4579 81.293C76.0911 80.6696 76.5258 80.0028 76.6764 79.2889C76.8359 78.5333 76.6543 77.8246 76.2424 77.2467C75.4933 76.1958 74.1001 75.7064 72.9523 75.5727C71.8046 75.4391 70.3686 75.599 69.4932 76.4608C69.0119 76.9346 68.7403 77.5906 68.7983 78.3716C68.8532 79.1094 69.1939 79.8664 69.7358 80.6266C70.1412 81.1953 70.2442 81.5563 70.2579 81.7405C70.2684 81.8814 70.2334 81.9514 70.1612 82.0224C69.9297 82.2504 69.2716 82.4559 68.3651 82.3504C67.4587 82.2448 66.8375 81.8904 66.6393 81.6123C66.5776 81.5257 66.5523 81.4487 66.5811 81.3123C66.6187 81.1341 66.7674 80.8025 67.2411 80.3361C67.8743 79.7127 68.3089 79.046 68.4596 78.3321C68.619 77.5764 68.4375 76.8678 68.0255 76.2899C67.2764 75.2389 65.8833 74.7495 64.7355 74.6159C63.5877 74.4822 62.1517 74.6422 61.2764 75.5039C61.1134 75.6644 60.9745 75.8457 60.8643 76.0457C60.6526 75.2212 60.1747 74.4285 59.3789 73.8778C58.1523 73.029 56.4845 72.9667 54.5673 73.7542C54.5613 73.7566 54.5552 73.7591 54.5492 73.7616C54.3127 73.8201 54.0826 73.8982 53.8652 73.9988C52.7544 74.3107 52.1086 74.1034 51.7812 73.8768C51.3721 73.5937 51.1254 73.0549 51.1643 72.4397C51.2032 71.8246 51.5137 71.3535 51.9521 71.1734C52.3711 71.0013 53.2342 70.9657 54.6803 71.9664C56.4695 73.2045 58.1197 73.5456 59.434 73.0057C60.729 72.4738 61.372 71.2154 61.4489 69.9991C61.5258 68.7829 61.0505 67.3886 59.8419 66.5523C58.6154 65.7035 56.9475 65.6412 55.0304 66.4287C53.4807 67.0652 52.6353 66.8219 52.2442 66.5513C51.8351 66.2682 51.5885 65.7294 51.6274 65.1142C51.6662 64.4991 51.9767 64.028 52.4151 63.8479C52.8342 63.6758 53.6972 63.6402 55.1434 64.6409C56.9325 65.879 58.5827 66.2201 59.897 65.6802C61.1921 65.1483 61.8351 63.8899 61.912 62.6736C61.9888 61.4574 61.5135 60.0631 60.305 59.2268C59.0784 58.378 57.4106 58.3157 55.4934 59.1032C53.9438 59.7397 53.0983 59.4964 52.7073 59.2258C52.2982 58.9427 52.0515 58.4039 52.0904 57.7887C52.1293 57.1736 52.4398 56.7025 52.8781 56.5224C53.2972 56.3503 54.1603 56.3147 55.6064 57.3154C57.3955 58.5535 59.0457 58.8946 60.3601 58.3547C61.6551 57.8228 62.2981 56.5644 62.375 55.3481C62.4519 54.1319 61.9765 52.7376 60.768 51.9013C59.5414 51.0525 57.8736 50.9902 55.9564 51.7777C54.4068 52.4142 53.5614 52.1709 53.1703 51.9003C52.7612 51.6172 52.5145 51.0784 52.5534 50.4632C52.5923 49.8481 52.9028 49.377 53.3412 49.1969C53.7602 49.0248 54.6233 48.9892 56.0694 49.9899L57.2007 48.238C55.4115 47 53.7613 46.6589 52.447 47.1988C51.152 47.7307 50.5089 48.9891 50.4321 50.2053C50.3552 51.4216 50.8305 52.8159 52.0391 53.6522C53.2656 54.501 54.9335 54.5633 56.8506 53.7758C58.4003 53.1393 59.2457 53.3826 59.6368 53.6532C60.0459 53.9362 60.2925 54.4751 60.2536 55.0903C60.2148 55.7054 59.9042 56.1765 59.4659 56.3566C59.0468 56.5287 58.1838 56.5642 56.7376 55.5635C54.9485 54.3255 53.2983 53.9844 51.9839 54.5243C50.6889 55.0562 50.0459 56.3146 49.969 57.5308C49.8922 58.7471 50.3675 60.1414 51.576 60.9777C52.8026 61.8265 54.4704 61.8888 56.3876 61.1013C57.9372 60.4648 58.7827 60.708 59.1737 60.9787C59.5828 61.2617 59.8295 61.8006 59.7906 62.4158C59.7517 63.0309 59.4412 63.502 59.0028 63.6821C58.5838 63.8542 57.7207 63.8897 56.2746 62.889C54.4855 61.651 52.8353 61.3099 51.5209 61.8498C50.2259 62.3817 49.5829 63.6401 49.506 64.8563C49.4291 66.0726 49.9045 67.4669 51.113 68.3032C52.3396 69.152 54.0074 69.2143 55.9246 68.4268C57.4742 67.7903 58.3196 68.0335 58.7107 68.3042C59.1198 68.5872 59.3665 69.1261 59.3276 69.7412C59.2887 70.3564 58.9782 70.8275 58.5398 71.0076C58.1208 71.1797 57.2577 71.2152 55.8116 70.2145C54.0224 68.9765 52.3722 68.6354 51.0579 69.1753C49.7629 69.7072 49.1199 70.9656 49.043 72.1818C48.9661 73.398 49.4414 74.7924 50.65 75.6287C51.15 75.9747 51.7233 76.19 52.357 76.2703C52.357 76.2739 52.357 76.2774 52.3571 76.2809C51.7227 76.2069 51.1309 76.2806 50.5949 76.5008C50.2909 76.6256 50.0229 76.7904 49.7897 76.9854C49.613 77.0487 49.4534 77.1617 49.3324 77.3221C48.8098 78.0144 48.4876 78.7241 48.4239 79.4422C48.3688 80.0623 48.5124 80.6333 48.8031 81.1211C49.0494 81.8224 49.4996 82.4786 50.1869 82.9542C51.4135 83.803 53.0813 83.8653 54.9985 83.0778L54.6872 82.3822C54.9861 82.2062 55.2559 81.9808 55.4763 81.6975C55.7917 81.2921 55.9759 80.8004 56.0003 80.2496C56.076 80.2779 56.1513 80.3044 56.2261 80.329C56.2209 80.8887 56.4014 81.4092 56.7175 81.8526C57.4666 82.9036 58.8598 83.393 60.0075 83.5266C61.1553 83.6603 62.5913 83.5003 63.4666 82.6386C63.948 82.1647 64.2196 81.5088 64.1615 80.7277C64.1067 79.9899 63.7659 79.2329 63.224 78.4727C62.8186 77.904 62.7156 77.543 62.7019 77.3589C62.6915 77.2179 62.7265 77.1479 62.7986 77.0769C63.0302 76.8489 63.6883 76.6434 64.5947 76.7489C65.5012 76.8545 66.1223 77.209 66.3205 77.487C66.3822 77.5736 66.4076 77.6506 66.3788 77.787C66.3412 77.9652 66.1925 78.2968 65.7188 78.7632C65.0856 79.3866 64.6509 80.0533 64.5003 80.7672C64.3408 81.5229 64.5224 82.2316 64.9343 82.8095C65.6834 83.8604 67.0766 84.3498 68.2244 84.4834C69.3722 84.6171 70.8082 84.4571 71.6835 83.5954C72.1648 83.1215 72.4364 82.4656 72.3784 81.6846C72.3235 80.9467 71.9828 80.1897 71.4409 79.4295C71.0355 78.8608 70.9325 78.4998 70.9188 78.3157C70.9083 78.1747 70.9434 78.1047 71.0155 78.0337C71.247 77.8057 71.9052 77.6002 72.8116 77.7058C73.718 77.8113 74.3392 78.1658 74.5374 78.4438C74.5991 78.5304 74.6244 78.6075 74.5957 78.7438C74.5581 78.922 74.4094 79.2537 73.9357 79.72C73.3025 80.3434 72.8678 81.0101 72.7171 81.724C72.5577 82.4797 72.7392 83.1884 73.1512 83.7663C73.9003 84.8172 75.2935 85.3066 76.4412 85.4402C77.589 85.5739 79.025 85.414 79.9003 84.5522C80.3817 84.0783 80.6533 83.4224 80.5952 82.6414C80.5878 82.5414 80.5751 82.441 80.5574 82.3404C80.7033 82.3591 80.8524 82.3706 81.0046 82.3749C80.9688 82.4773 80.9384 82.5806 80.9137 82.6847C80.7382 83.4247 80.8685 84.1353 81.2271 84.7417C81.897 85.8743 83.2348 86.4685 84.3865 86.6595C85.0113 86.7631 85.7142 86.7704 86.375 86.6167ZM82.7755 79.8241C82.7933 79.7771 82.8051 79.7359 82.8125 79.7007C82.8413 79.5643 82.8159 79.4872 82.7542 79.4006C82.556 79.1226 81.9349 78.7681 81.0284 78.6626C80.2723 78.5745 79.6889 78.703 79.3818 78.8803C79.4404 79.3373 79.6628 79.723 79.9874 79.9476C80.3784 80.2182 81.2239 80.4615 82.7735 79.8249C82.7742 79.8247 82.7749 79.8244 82.7755 79.8241ZM55.3033 75.8156C55.5976 75.7608 55.9616 75.7436 56.3779 75.7921C57.2843 75.8977 57.9055 76.2521 58.1037 76.5302C58.1654 76.6168 58.1907 76.6938 58.162 76.8302C58.1244 77.0084 57.9757 77.34 57.502 77.8064C57.3197 77.9858 57.1539 78.1688 57.0066 78.3555C56.5715 78.2485 56.0235 78.0071 55.3485 77.54C55.1591 77.4089 54.9712 77.2879 54.7852 77.1769C54.5616 76.7998 54.4958 76.5465 54.4851 76.402C54.4746 76.2611 54.5097 76.1911 54.5818 76.1201C54.6162 76.0862 54.6601 76.0527 54.7128 76.0208C54.9067 75.9617 55.1036 75.8933 55.3033 75.8156ZM58.3575 80.5146C58.367 80.5658 58.3896 80.6093 58.4225 80.6555C58.6207 80.9335 59.2419 81.288 60.1483 81.3936C61.0547 81.4991 61.7128 81.2936 61.9444 81.0656C62.0165 80.9946 62.0516 80.9246 62.0411 80.7836C62.0274 80.5995 61.9244 80.2385 61.519 79.6698C61.1999 79.2222 60.9506 78.7756 60.7883 78.3335C60.5005 79.1851 59.9055 79.9473 58.971 80.3312C58.7738 80.4122 58.5691 80.4734 58.3575 80.5146ZM53.3428 78.7708C52.4115 78.3136 51.8155 78.3648 51.4891 78.4989C51.0507 78.679 50.7402 79.1501 50.7013 79.7652C50.6912 79.9248 50.7003 80.0793 50.7266 80.2256C50.9838 80.4788 51.5272 80.7279 52.2461 80.7646C53.0489 80.8056 53.5939 80.5594 53.7797 80.3205C53.8469 80.2342 53.8954 80.1202 53.8697 79.9119C53.8415 79.6831 53.7163 79.3082 53.3428 78.7708Z"/>
</mask>
<path fill-rule="evenodd" clip-rule="evenodd" d="M85.9224 84.4899C85.4369 84.5377 84.6688 84.3818 83.5547 83.6108L83.3044 83.9984C83.1831 83.9007 83.0936 83.8012 83.0388 83.7085C82.9713 83.5944 82.9385 83.469 82.9831 83.2806C83.0346 83.0634 83.2052 82.7121 83.6748 82.2498C83.8836 82.0442 84.0709 81.8338 84.2335 81.6186C85.1667 81.3306 85.789 81.3987 86.179 81.5546C86.0854 81.8183 86.0972 82.124 86.2364 82.4039C86.5543 83.0432 86.626 83.4739 86.6131 83.7381C86.6014 83.978 86.52 84.123 86.4049 84.2324C86.2958 84.336 86.1313 84.4262 85.9224 84.4899ZM86.375 86.6167C86.6541 86.5784 86.922 86.5068 87.1771 86.402C88.4722 85.8701 89.1152 84.6117 89.1921 83.3954C89.2689 82.1792 88.7936 80.7848 87.5851 79.9485C86.8427 79.4348 85.9387 79.2092 84.9156 79.2857C84.903 79.2112 84.8871 79.1377 84.8679 79.0652C85.8891 79.4073 86.8287 79.4098 87.6402 79.0765C88.9352 78.5446 89.5782 77.2862 89.6551 76.0699C89.732 74.8537 89.2566 73.4593 88.0481 72.623C86.8215 71.7743 85.1537 71.712 83.2365 72.4994C81.6869 73.136 80.8415 72.8927 80.4504 72.6221C80.0413 72.339 79.7946 71.8002 79.8335 71.185C79.8724 70.5699 80.1829 70.0987 80.6213 69.9187C81.0403 69.7466 81.9034 69.711 83.3495 70.7117C85.1387 71.9498 86.7889 72.2909 88.1032 71.751C89.3982 71.2191 90.0412 69.9607 90.1181 68.7444C90.195 67.5282 89.7197 66.1338 88.5111 65.2975C87.2845 64.4488 85.6167 64.3865 83.6996 65.174C82.1499 65.8105 81.3045 65.5672 80.9134 65.2966C80.5043 65.0135 80.2577 64.4747 80.2965 63.8595C80.3354 63.2444 80.6459 62.7732 81.0843 62.5932C81.5034 62.4211 82.3664 62.3855 83.8126 63.3862C85.6017 64.6243 87.2519 64.9654 88.5662 64.4255C89.8613 63.8936 90.5043 62.6352 90.5811 61.4189C90.658 60.2027 90.1827 58.8083 88.9742 57.972C87.7476 57.1233 86.0798 57.061 84.1626 57.8485C82.613 58.485 81.7675 58.2417 81.3765 57.9711C80.9674 57.688 80.7207 57.1492 80.7596 56.534C80.7985 55.9189 81.109 55.4477 81.5473 55.2677C81.9664 55.0956 82.8294 55.06 84.2756 56.0607C86.0647 57.2988 87.7149 57.6399 89.0293 57.1C90.3243 56.5681 90.9673 55.3097 91.0442 54.0934C91.1211 52.8772 90.6457 51.4828 89.4372 50.6465C88.2106 49.7978 86.5428 49.7355 84.6256 50.523L85.5198 52.5211C87.0694 51.8846 87.9149 52.1278 88.306 52.3984C88.715 52.6815 88.9617 53.2204 88.9228 53.8355C88.884 54.4507 88.5734 54.9218 88.1351 55.1019C87.716 55.274 86.853 55.3095 85.4068 54.3088C83.6177 53.0708 81.9675 52.7297 80.6531 53.2695C79.3581 53.8015 78.7151 55.0599 78.6382 56.2761C78.5614 57.4923 79.0367 58.8867 80.2452 59.723C81.4718 60.5718 83.1396 60.6341 85.0568 59.8466C86.6064 59.2101 87.4519 59.4533 87.8429 59.7239C88.252 60.007 88.4987 60.5459 88.4598 61.161C88.4209 61.7762 88.1104 62.2473 87.672 62.4274C87.253 62.5995 86.3899 62.635 84.9438 61.6343C83.1547 60.3963 81.5045 60.0552 80.1901 60.595C78.8951 61.127 78.2521 62.3854 78.1752 63.6016C78.0983 64.8178 78.5737 66.2122 79.7822 67.0485C81.0088 67.8973 82.6766 67.9596 84.5938 67.1721C86.1434 66.5356 86.9888 66.7788 87.3799 67.0494C87.789 67.3325 88.0357 67.8714 87.9968 68.4865C87.9579 69.1017 87.6474 69.5728 87.209 69.7529C86.79 69.925 85.9269 69.9605 84.4808 68.9598C82.6916 67.7218 81.0414 67.3807 79.7271 67.9205C78.4321 68.4525 77.789 69.7109 77.7122 70.9271C77.6353 72.1433 78.1106 73.5377 79.3192 74.374C80.5457 75.2228 82.2136 75.2851 84.1307 74.4976C85.6804 73.8611 86.5258 74.1043 86.9169 74.3749C87.326 74.658 87.5726 75.1969 87.5337 75.812C87.4949 76.4272 87.1843 76.8983 86.746 77.0784C86.3269 77.2505 85.4639 77.286 84.0177 76.2853C82.2286 75.0473 80.5784 74.7062 79.264 75.246C78.056 75.7422 77.4153 76.8706 77.2723 78.0071C77.0743 78.3875 76.9784 78.8327 77.0152 79.3284C77.07 80.0662 77.4108 80.8232 77.9527 81.5835C78.3581 82.1522 78.4611 82.5131 78.4748 82.6973C78.4853 82.8382 78.4502 82.9083 78.3781 82.9793C78.1465 83.2072 77.4884 83.4128 76.582 83.3072C75.6756 83.2017 75.0544 82.8472 74.8562 82.5691C74.7945 82.4826 74.7692 82.4055 74.7979 82.2691C74.8355 82.091 74.9842 81.7593 75.4579 81.293C76.0911 80.6696 76.5258 80.0028 76.6764 79.2889C76.8359 78.5333 76.6543 77.8246 76.2424 77.2467C75.4933 76.1958 74.1001 75.7064 72.9523 75.5727C71.8046 75.4391 70.3686 75.599 69.4932 76.4608C69.0119 76.9346 68.7403 77.5906 68.7983 78.3716C68.8532 79.1094 69.1939 79.8664 69.7358 80.6266C70.1412 81.1953 70.2442 81.5563 70.2579 81.7405C70.2684 81.8814 70.2334 81.9514 70.1612 82.0224C69.9297 82.2504 69.2716 82.4559 68.3651 82.3504C67.4587 82.2448 66.8375 81.8904 66.6393 81.6123C66.5776 81.5257 66.5523 81.4487 66.5811 81.3123C66.6187 81.1341 66.7674 80.8025 67.2411 80.3361C67.8743 79.7127 68.3089 79.046 68.4596 78.3321C68.619 77.5764 68.4375 76.8678 68.0255 76.2899C67.2764 75.2389 65.8833 74.7495 64.7355 74.6159C63.5877 74.4822 62.1517 74.6422 61.2764 75.5039C61.1134 75.6644 60.9745 75.8457 60.8643 76.0457C60.6526 75.2212 60.1747 74.4285 59.3789 73.8778C58.1523 73.029 56.4845 72.9667 54.5673 73.7542C54.5613 73.7566 54.5552 73.7591 54.5492 73.7616C54.3127 73.8201 54.0826 73.8982 53.8652 73.9988C52.7544 74.3107 52.1086 74.1034 51.7812 73.8768C51.3721 73.5937 51.1254 73.0549 51.1643 72.4397C51.2032 71.8246 51.5137 71.3535 51.9521 71.1734C52.3711 71.0013 53.2342 70.9657 54.6803 71.9664C56.4695 73.2045 58.1197 73.5456 59.434 73.0057C60.729 72.4738 61.372 71.2154 61.4489 69.9991C61.5258 68.7829 61.0505 67.3886 59.8419 66.5523C58.6154 65.7035 56.9475 65.6412 55.0304 66.4287C53.4807 67.0652 52.6353 66.8219 52.2442 66.5513C51.8351 66.2682 51.5885 65.7294 51.6274 65.1142C51.6662 64.4991 51.9767 64.028 52.4151 63.8479C52.8342 63.6758 53.6972 63.6402 55.1434 64.6409C56.9325 65.879 58.5827 66.2201 59.897 65.6802C61.1921 65.1483 61.8351 63.8899 61.912 62.6736C61.9888 61.4574 61.5135 60.0631 60.305 59.2268C59.0784 58.378 57.4106 58.3157 55.4934 59.1032C53.9438 59.7397 53.0983 59.4964 52.7073 59.2258C52.2982 58.9427 52.0515 58.4039 52.0904 57.7887C52.1293 57.1736 52.4398 56.7025 52.8781 56.5224C53.2972 56.3503 54.1603 56.3147 55.6064 57.3154C57.3955 58.5535 59.0457 58.8946 60.3601 58.3547C61.6551 57.8228 62.2981 56.5644 62.375 55.3481C62.4519 54.1319 61.9765 52.7376 60.768 51.9013C59.5414 51.0525 57.8736 50.9902 55.9564 51.7777C54.4068 52.4142 53.5614 52.1709 53.1703 51.9003C52.7612 51.6172 52.5145 51.0784 52.5534 50.4632C52.5923 49.8481 52.9028 49.377 53.3412 49.1969C53.7602 49.0248 54.6233 48.9892 56.0694 49.9899L57.2007 48.238C55.4115 47 53.7613 46.6589 52.447 47.1988C51.152 47.7307 50.5089 48.9891 50.4321 50.2053C50.3552 51.4216 50.8305 52.8159 52.0391 53.6522C53.2656 54.501 54.9335 54.5633 56.8506 53.7758C58.4003 53.1393 59.2457 53.3826 59.6368 53.6532C60.0459 53.9362 60.2925 54.4751 60.2536 55.0903C60.2148 55.7054 59.9042 56.1765 59.4659 56.3566C59.0468 56.5287 58.1838 56.5642 56.7376 55.5635C54.9485 54.3255 53.2983 53.9844 51.9839 54.5243C50.6889 55.0562 50.0459 56.3146 49.969 57.5308C49.8922 58.7471 50.3675 60.1414 51.576 60.9777C52.8026 61.8265 54.4704 61.8888 56.3876 61.1013C57.9372 60.4648 58.7827 60.708 59.1737 60.9787C59.5828 61.2617 59.8295 61.8006 59.7906 62.4158C59.7517 63.0309 59.4412 63.502 59.0028 63.6821C58.5838 63.8542 57.7207 63.8897 56.2746 62.889C54.4855 61.651 52.8353 61.3099 51.5209 61.8498C50.2259 62.3817 49.5829 63.6401 49.506 64.8563C49.4291 66.0726 49.9045 67.4669 51.113 68.3032C52.3396 69.152 54.0074 69.2143 55.9246 68.4268C57.4742 67.7903 58.3196 68.0335 58.7107 68.3042C59.1198 68.5872 59.3665 69.1261 59.3276 69.7412C59.2887 70.3564 58.9782 70.8275 58.5398 71.0076C58.1208 71.1797 57.2577 71.2152 55.8116 70.2145C54.0224 68.9765 52.3722 68.6354 51.0579 69.1753C49.7629 69.7072 49.1199 70.9656 49.043 72.1818C48.9661 73.398 49.4414 74.7924 50.65 75.6287C51.15 75.9747 51.7233 76.19 52.357 76.2703C52.357 76.2739 52.357 76.2774 52.3571 76.2809C51.7227 76.2069 51.1309 76.2806 50.5949 76.5008C50.2909 76.6256 50.0229 76.7904 49.7897 76.9854C49.613 77.0487 49.4534 77.1617 49.3324 77.3221C48.8098 78.0144 48.4876 78.7241 48.4239 79.4422C48.3688 80.0623 48.5124 80.6333 48.8031 81.1211C49.0494 81.8224 49.4996 82.4786 50.1869 82.9542C51.4135 83.803 53.0813 83.8653 54.9985 83.0778L54.6872 82.3822C54.9861 82.2062 55.2559 81.9808 55.4763 81.6975C55.7917 81.2921 55.9759 80.8004 56.0003 80.2496C56.076 80.2779 56.1513 80.3044 56.2261 80.329C56.2209 80.8887 56.4014 81.4092 56.7175 81.8526C57.4666 82.9036 58.8598 83.393 60.0075 83.5266C61.1553 83.6603 62.5913 83.5003 63.4666 82.6386C63.948 82.1647 64.2196 81.5088 64.1615 80.7277C64.1067 79.9899 63.7659 79.2329 63.224 78.4727C62.8186 77.904 62.7156 77.543 62.7019 77.3589C62.6915 77.2179 62.7265 77.1479 62.7986 77.0769C63.0302 76.8489 63.6883 76.6434 64.5947 76.7489C65.5012 76.8545 66.1223 77.209 66.3205 77.487C66.3822 77.5736 66.4076 77.6506 66.3788 77.787C66.3412 77.9652 66.1925 78.2968 65.7188 78.7632C65.0856 79.3866 64.6509 80.0533 64.5003 80.7672C64.3408 81.5229 64.5224 82.2316 64.9343 82.8095C65.6834 83.8604 67.0766 84.3498 68.2244 84.4834C69.3722 84.6171 70.8082 84.4571 71.6835 83.5954C72.1648 83.1215 72.4364 82.4656 72.3784 81.6846C72.3235 80.9467 71.9828 80.1897 71.4409 79.4295C71.0355 78.8608 70.9325 78.4998 70.9188 78.3157C70.9083 78.1747 70.9434 78.1047 71.0155 78.0337C71.247 77.8057 71.9052 77.6002 72.8116 77.7058C73.718 77.8113 74.3392 78.1658 74.5374 78.4438C74.5991 78.5304 74.6244 78.6075 74.5957 78.7438C74.5581 78.922 74.4094 79.2537 73.9357 79.72C73.3025 80.3434 72.8678 81.0101 72.7171 81.724C72.5577 82.4797 72.7392 83.1884 73.1512 83.7663C73.9003 84.8172 75.2935 85.3066 76.4412 85.4402C77.589 85.5739 79.025 85.414 79.9003 84.5522C80.3817 84.0783 80.6533 83.4224 80.5952 82.6414C80.5878 82.5414 80.5751 82.441 80.5574 82.3404C80.7033 82.3591 80.8524 82.3706 81.0046 82.3749C80.9688 82.4773 80.9384 82.5806 80.9137 82.6847C80.7382 83.4247 80.8685 84.1353 81.2271 84.7417C81.897 85.8743 83.2348 86.4685 84.3865 86.6595C85.0113 86.7631 85.7142 86.7704 86.375 86.6167ZM82.7755 79.8241C82.7933 79.7771 82.8051 79.7359 82.8125 79.7007C82.8413 79.5643 82.8159 79.4872 82.7542 79.4006C82.556 79.1226 81.9349 78.7681 81.0284 78.6626C80.2723 78.5745 79.6889 78.703 79.3818 78.8803C79.4404 79.3373 79.6628 79.723 79.9874 79.9476C80.3784 80.2182 81.2239 80.4615 82.7735 79.8249C82.7742 79.8247 82.7749 79.8244 82.7755 79.8241ZM55.3033 75.8156C55.5976 75.7608 55.9616 75.7436 56.3779 75.7921C57.2843 75.8977 57.9055 76.2521 58.1037 76.5302C58.1654 76.6168 58.1907 76.6938 58.162 76.8302C58.1244 77.0084 57.9757 77.34 57.502 77.8064C57.3197 77.9858 57.1539 78.1688 57.0066 78.3555C56.5715 78.2485 56.0235 78.0071 55.3485 77.54C55.1591 77.4089 54.9712 77.2879 54.7852 77.1769C54.5616 76.7998 54.4958 76.5465 54.4851 76.402C54.4746 76.2611 54.5097 76.1911 54.5818 76.1201C54.6162 76.0862 54.6601 76.0527 54.7128 76.0208C54.9067 75.9617 55.1036 75.8933 55.3033 75.8156ZM58.3575 80.5146C58.367 80.5658 58.3896 80.6093 58.4225 80.6555C58.6207 80.9335 59.2419 81.288 60.1483 81.3936C61.0547 81.4991 61.7128 81.2936 61.9444 81.0656C62.0165 80.9946 62.0516 80.9246 62.0411 80.7836C62.0274 80.5995 61.9244 80.2385 61.519 79.6698C61.1999 79.2222 60.9506 78.7756 60.7883 78.3335C60.5005 79.1851 59.9055 79.9473 58.971 80.3312C58.7738 80.4122 58.5691 80.4734 58.3575 80.5146ZM53.3428 78.7708C52.4115 78.3136 51.8155 78.3648 51.4891 78.4989C51.0507 78.679 50.7402 79.1501 50.7013 79.7652C50.6912 79.9248 50.7003 80.0793 50.7266 80.2256C50.9838 80.4788 51.5272 80.7279 52.2461 80.7646C53.0489 80.8056 53.5939 80.5594 53.7797 80.3205C53.8469 80.2342 53.8954 80.1202 53.8697 79.9119C53.8415 79.6831 53.7163 79.3082 53.3428 78.7708Z" fill="url(#paint0_linear_1167_4202)"/>
<path d="M83.5547 83.6108L84.4028 82.2626C83.637 81.7327 82.6398 81.8959 82.1666 82.6288L83.5547 83.6108ZM85.9224 84.4899L86.2029 86.1416C86.3047 86.1316 86.4046 86.1117 86.5012 86.0822L85.9224 84.4899ZM83.3044 83.9984L82.3499 85.2671C82.7173 85.5631 83.1778 85.7003 83.6218 85.646C84.0657 85.5917 84.4534 85.3507 84.6925 84.9805L83.3044 83.9984ZM83.0388 83.7085L81.654 84.4798L81.6541 84.4799L83.0388 83.7085ZM82.9831 83.2806L84.5743 83.784L84.5743 83.784L82.9831 83.2806ZM83.6748 82.2498L82.491 81.0165L82.491 81.0165L83.6748 82.2498ZM84.2335 81.6186L83.6501 80.0278C83.3525 80.1196 83.0946 80.3001 82.9081 80.5469L84.2335 81.6186ZM86.179 81.5546L87.7222 82.2206C87.8679 81.8101 87.8387 81.3443 87.6414 80.9292C87.444 80.514 87.0953 80.1849 86.6745 80.0167L86.179 81.5546ZM86.2364 82.4039L84.7881 83.0584L84.7881 83.0584L86.2364 82.4039ZM86.6131 83.7381L84.9803 83.5295L84.9803 83.5295L86.6131 83.7381ZM86.4049 84.2324L85.2399 82.9811L85.2399 82.9811L86.4049 84.2324ZM87.1771 86.402L87.888 87.9471L87.888 87.9471L87.1771 86.402ZM86.375 86.6167L86.0352 84.972C85.9881 84.9785 85.9416 84.9871 85.8956 84.9978L86.375 86.6167ZM87.5851 79.9485L88.4331 78.6003L88.4331 78.6003L87.5851 79.9485ZM84.9156 79.2857L83.305 79.4435C83.4572 80.3414 84.2809 81.0063 85.1596 80.9405L84.9156 79.2857ZM84.8679 79.0652L85.2704 77.4932C84.7067 77.3043 84.1094 77.4269 83.7018 77.815C83.2942 78.203 83.1377 78.7982 83.2908 79.378L84.8679 79.0652ZM87.6402 79.0765L86.9293 77.5314L86.9293 77.5314L87.6402 79.0765ZM89.6551 76.0699L91.2866 76.3021L89.6551 76.0699ZM88.0481 72.623L87.2 73.9713L87.2 73.9713L88.0481 72.623ZM83.2365 72.4994L83.9474 74.0446L83.9474 74.0446L83.2365 72.4994ZM80.4504 72.6221L79.6023 73.9703L79.6023 73.9703L80.4504 72.6221ZM79.8335 71.185L78.2021 70.9528L78.2021 70.9528L79.8335 71.185ZM80.6213 69.9187L81.3321 71.4638L81.3321 71.4638L80.6213 69.9187ZM83.3495 70.7117L84.1976 69.3635L84.1976 69.3635L83.3495 70.7117ZM88.1032 71.751L87.3923 70.2059L87.3923 70.2059L88.1032 71.751ZM90.1181 68.7444L88.4866 68.5122L88.4866 68.5122L90.1181 68.7444ZM88.5111 65.2975L89.3592 63.9493L89.3592 63.9493L88.5111 65.2975ZM83.6996 65.174L84.4104 66.7191L84.4104 66.7191L83.6996 65.174ZM80.9134 65.2966L80.0654 66.6448L80.0654 66.6448L80.9134 65.2966ZM80.2965 63.8595L78.6651 63.6273L80.2965 63.8595ZM81.0843 62.5932L80.3734 61.0481L80.3734 61.0481L81.0843 62.5932ZM83.8126 63.3862L82.9645 64.7345L82.9645 64.7345L83.8126 63.3862ZM88.5662 64.4255L89.2771 65.9706L89.2771 65.9706L88.5662 64.4255ZM90.5811 61.4189L88.9497 61.1867L90.5811 61.4189ZM88.9742 57.972L89.8222 56.6238L89.8222 56.6238L88.9742 57.972ZM84.1626 57.8485L84.8735 59.3936L84.8735 59.3936L84.1626 57.8485ZM81.3765 57.9711L80.5284 59.3193L80.5284 59.3193L81.3765 57.9711ZM80.7596 56.534L82.391 56.7662L80.7596 56.534ZM81.5473 55.2677L82.2582 56.8128L82.2582 56.8128L81.5473 55.2677ZM84.2756 56.0607L83.4275 57.409L83.4275 57.409L84.2756 56.0607ZM89.0293 57.1L88.3184 55.5549L88.3184 55.5549L89.0293 57.1ZM91.0442 54.0934L92.6756 54.3256L92.6756 54.3256L91.0442 54.0934ZM89.4372 50.6465L90.2853 49.2983L90.2853 49.2983L89.4372 50.6465ZM84.6256 50.523L83.9148 48.9778C83.1081 49.3092 82.7652 50.2601 83.1457 51.1104L84.6256 50.523ZM85.5198 52.5211L84.0399 53.1085C84.2254 53.5231 84.5614 53.8576 84.9729 54.0375C85.3845 54.2174 85.8374 54.2278 86.2307 54.0662L85.5198 52.5211ZM88.306 52.3984L87.4579 53.7467L87.4579 53.7467L88.306 52.3984ZM88.9228 53.8355L90.5543 54.0677L90.5543 54.0677L88.9228 53.8355ZM88.1351 55.1019L88.8459 56.647L88.8459 56.647L88.1351 55.1019ZM85.4068 54.3088L86.2549 52.9606L86.2549 52.9606L85.4068 54.3088ZM80.6531 53.2695L81.364 54.8147L81.364 54.8147L80.6531 53.2695ZM78.6382 56.2761L80.2697 56.5083L80.2697 56.5083L78.6382 56.2761ZM80.2452 59.723L81.0933 58.3748L81.0933 58.3748L80.2452 59.723ZM85.0568 59.8466L85.7677 61.3917L85.7677 61.3917L85.0568 59.8466ZM87.8429 59.7239L88.691 58.3757L88.691 58.3757L87.8429 59.7239ZM88.4598 61.161L90.0913 61.3932L90.0913 61.3932L88.4598 61.161ZM87.672 62.4274L88.3829 63.9725L88.3829 63.9725L87.672 62.4274ZM84.9438 61.6343L84.0957 62.9826L84.0957 62.9826L84.9438 61.6343ZM80.1901 60.595L79.4792 59.0499L79.4792 59.0499L80.1901 60.595ZM78.1752 63.6016L76.5437 63.3694L76.5437 63.3694L78.1752 63.6016ZM79.7822 67.0485L78.9341 68.3967L78.9341 68.3967L79.7822 67.0485ZM84.5938 67.1721L85.3046 68.7172L85.3046 68.7172L84.5938 67.1721ZM87.3799 67.0494L86.5318 68.3977L86.5318 68.3977L87.3799 67.0494ZM87.9968 68.4865L86.3653 68.2543L86.3653 68.2543L87.9968 68.4865ZM87.209 69.7529L87.9199 71.298L87.9199 71.298L87.209 69.7529ZM84.4808 68.9598L85.3288 67.6116L85.3288 67.6116L84.4808 68.9598ZM79.7271 67.9205L80.4379 69.4657L80.4379 69.4657L79.7271 67.9205ZM77.7122 70.9271L76.0807 70.6949L76.0807 70.6949L77.7122 70.9271ZM79.3192 74.374L80.1672 73.0258L80.1672 73.0258L79.3192 74.374ZM84.1307 74.4976L84.8416 76.0427L84.8416 76.0427L84.1307 74.4976ZM86.9169 74.3749L86.0688 75.7232L86.0688 75.7232L86.9169 74.3749ZM87.5337 75.812L89.1652 76.0442L89.1652 76.0442L87.5337 75.812ZM86.746 77.0784L87.4568 78.6235L87.4568 78.6235L86.746 77.0784ZM84.0177 76.2853L84.8658 74.9371L84.8658 74.9371L84.0177 76.2853ZM79.264 75.246L79.9749 76.7912L79.9749 76.7912L79.264 75.246ZM77.2723 78.0071L78.7307 78.8682C78.8155 78.7055 78.8708 78.527 78.8942 78.3405L77.2723 78.0071ZM77.0152 79.3284L75.3851 79.3262L75.3851 79.3262L77.0152 79.3284ZM77.9527 81.5835L76.6535 82.4864L76.6535 82.4864L77.9527 81.5835ZM78.4748 82.6973L76.8447 82.6951L76.8447 82.6951L78.4748 82.6973ZM78.3781 82.9793L77.1944 81.746L77.1944 81.746L78.3781 82.9793ZM76.582 83.3072L76.6442 81.6589L76.6442 81.6589L76.582 83.3072ZM74.8562 82.5691L73.557 83.472L73.557 83.4721L74.8562 82.5691ZM74.7979 82.2691L73.1981 81.8044L73.1981 81.8044L74.7979 82.2691ZM75.4579 81.293L76.6416 82.5262L76.6416 82.5262L75.4579 81.293ZM76.6764 79.2889L78.2763 79.7537L78.2763 79.7537L76.6764 79.2889ZM76.2424 77.2467L74.9432 78.1496L74.9432 78.1496L76.2424 77.2467ZM72.9523 75.5727L73.0145 73.9244L73.0145 73.9244L72.9523 75.5727ZM69.4932 76.4608L70.6769 77.694L70.6769 77.694L69.4932 76.4608ZM68.7983 78.3716L67.1682 78.3694L67.1682 78.3694L68.7983 78.3716ZM69.7358 80.6266L71.035 79.7237L71.035 79.7237L69.7358 80.6266ZM70.2579 81.7405L68.6278 81.7383L68.6278 81.7383L70.2579 81.7405ZM70.1612 82.0224L68.9775 80.7892L68.9775 80.7892L70.1612 82.0224ZM68.3651 82.3504L68.3029 83.9987L68.3029 83.9987L68.3651 82.3504ZM66.6393 81.6123L67.9385 80.7094L67.9385 80.7094L66.6393 81.6123ZM66.5811 81.3123L64.9812 80.8475L64.9812 80.8476L66.5811 81.3123ZM67.2411 80.3361L66.0573 79.1029L66.0573 79.1029L67.2411 80.3361ZM68.4596 78.3321L70.0594 78.7969L70.0594 78.7969L68.4596 78.3321ZM68.0255 76.2899L66.7264 77.1928L66.7264 77.1928L68.0255 76.2899ZM64.7355 74.6159L64.6733 76.2642L64.6733 76.2642L64.7355 74.6159ZM61.2764 75.5039L62.4601 76.7372L62.4601 76.7372L61.2764 75.5039ZM60.8643 76.0457L59.2841 76.3464C59.4561 77.0168 60.0078 77.5435 60.675 77.6741C61.3422 77.8048 61.989 77.5129 62.3058 76.9382L60.8643 76.0457ZM59.3789 73.8778L58.5308 75.226L58.5308 75.226L59.3789 73.8778ZM54.5673 73.7542L55.278 75.2994L55.2782 75.2993L54.5673 73.7542ZM54.5492 73.7616L55.0497 75.3755C55.1203 75.358 55.1893 75.3355 55.2562 75.3083L54.5492 73.7616ZM53.8652 73.9988L54.4114 75.6006C54.4885 75.579 54.5635 75.5513 54.6357 75.5179L53.8652 73.9988ZM51.7812 73.8768L50.9331 75.225L50.9331 75.225L51.7812 73.8768ZM51.1643 72.4397L52.7958 72.6719L52.7958 72.6719L51.1643 72.4397ZM51.9521 71.1734L52.6629 72.7185L52.6629 72.7185L51.9521 71.1734ZM54.6803 71.9664L53.8323 73.3147L53.8323 73.3147L54.6803 71.9664ZM59.434 73.0057L60.1449 74.5508L60.1449 74.5508L59.434 73.0057ZM61.4489 69.9991L63.0804 70.2313L63.0804 70.2313L61.4489 69.9991ZM59.8419 66.5523L60.69 65.204L60.69 65.204L59.8419 66.5523ZM55.0304 66.4287L55.7412 67.9738L55.7412 67.9738L55.0304 66.4287ZM52.2442 66.5513L51.3962 67.8995L51.3962 67.8995L52.2442 66.5513ZM51.6274 65.1142L49.9959 64.882L51.6274 65.1142ZM52.4151 63.8479L53.126 65.393L53.126 65.393L52.4151 63.8479ZM55.1434 64.6409L55.9914 63.2927L55.9914 63.2927L55.1434 64.6409ZM59.897 65.6802L60.6079 67.2253L60.6079 67.2253L59.897 65.6802ZM61.912 62.6736L60.2805 62.4414L60.2805 62.4414L61.912 62.6736ZM60.305 59.2268L59.4569 60.575L59.4569 60.575L60.305 59.2268ZM55.4934 59.1032L54.7825 57.558L54.7825 57.558L55.4934 59.1032ZM52.7073 59.2258L53.5553 57.8776L53.5553 57.8776L52.7073 59.2258ZM52.8781 56.5224L52.1673 54.9773L52.1673 54.9773L52.8781 56.5224ZM55.6064 57.3154L56.4545 55.9672L56.4545 55.9672L55.6064 57.3154ZM60.3601 58.3547L59.6492 56.8096L59.6492 56.8096L60.3601 58.3547ZM62.375 55.3481L64.0065 55.5803L64.0065 55.5803L62.375 55.3481ZM60.768 51.9013L61.6161 50.553L61.6161 50.553L60.768 51.9013ZM55.9564 51.7777L56.6673 53.3228L56.6673 53.3228L55.9564 51.7777ZM53.1703 51.9003L52.3222 53.2485L52.3222 53.2486L53.1703 51.9003ZM52.5534 50.4632L54.1849 50.6954L54.1849 50.6954L52.5534 50.4632ZM53.3412 49.1969L52.6303 47.6518L52.6303 47.6518L53.3412 49.1969ZM56.0694 49.9899L55.2214 51.3382C55.9872 51.8681 56.9843 51.7048 57.4575 50.972L56.0694 49.9899ZM57.2007 48.238L58.5887 49.2201C58.8194 48.8628 58.8922 48.4154 58.7907 47.9777C58.6893 47.5399 58.4221 47.1482 58.0487 46.8898L57.2007 48.238ZM52.447 47.1988L51.7361 45.6536L51.7361 45.6536L52.447 47.1988ZM50.4321 50.2053L52.0635 50.4375L50.4321 50.2053ZM52.0391 53.6522L51.191 55.0005L51.191 55.0005L52.0391 53.6522ZM56.8506 53.7758L56.1398 52.2307L56.1398 52.2307L56.8506 53.7758ZM59.6368 53.6532L58.7887 55.0014L58.7887 55.0014L59.6368 53.6532ZM60.2536 55.0903L61.8851 55.3225L61.8851 55.3225L60.2536 55.0903ZM59.4659 56.3566L60.1767 57.9017L60.1767 57.9017L59.4659 56.3566ZM56.7376 55.5635L55.8896 56.9118L55.8896 56.9118L56.7376 55.5635ZM51.9839 54.5243L51.2731 52.9791L51.2731 52.9791L51.9839 54.5243ZM49.969 57.5308L51.6005 57.763L49.969 57.5308ZM51.576 60.9777L50.728 62.3259L50.728 62.326L51.576 60.9777ZM56.3876 61.1013L57.0985 62.6464L57.0985 62.6464L56.3876 61.1013ZM59.1737 60.9787L58.3257 62.3269L58.3257 62.3269L59.1737 60.9787ZM59.7906 62.4158L61.4221 62.6479L61.4221 62.6479L59.7906 62.4158ZM59.0028 63.6821L59.7137 65.2272L59.7137 65.2272L59.0028 63.6821ZM56.2746 62.889L55.4265 64.2373L55.4265 64.2373L56.2746 62.889ZM51.5209 61.8498L50.8101 60.3046L50.8101 60.3046L51.5209 61.8498ZM51.113 68.3032L51.9611 66.955L51.9611 66.955L51.113 68.3032ZM55.9246 68.4268L56.6354 69.9719L56.6354 69.9719L55.9246 68.4268ZM58.7107 68.3042L59.5588 66.9559L59.5588 66.9559L58.7107 68.3042ZM59.3276 69.7412L60.959 69.9734L60.959 69.9734L59.3276 69.7412ZM58.5398 71.0076L59.2507 72.5527L59.2507 72.5527L58.5398 71.0076ZM55.8116 70.2145L54.9635 71.5628L54.9635 71.5628L55.8116 70.2145ZM51.0579 69.1753L50.347 67.6301L50.347 67.6301L51.0579 69.1753ZM49.043 72.1818L50.6744 72.414L49.043 72.1818ZM50.65 75.6287L49.8019 76.9769L49.8019 76.977L50.65 75.6287ZM52.357 76.2703L53.9917 76.3859C53.9855 75.5074 53.3025 74.7339 52.4358 74.6241L52.357 76.2703ZM52.3571 76.2809L52.2947 77.9291C52.7419 77.9813 53.1765 77.8461 53.4973 77.5552C53.818 77.2644 53.9967 76.8432 53.9917 76.3899L52.3571 76.2809ZM50.5949 76.5008L51.3057 78.0459L51.3057 78.0459L50.5949 76.5008ZM49.7897 76.9854L50.4373 78.5548C50.6013 78.496 50.7527 78.4094 50.8853 78.2986L49.7897 76.9854ZM49.3324 77.3221L50.6582 78.3932L50.6582 78.3932L49.3324 77.3221ZM48.4239 79.4422L46.7956 79.1682L48.4239 79.4422ZM48.8031 81.1211L50.3385 80.6729C50.2986 80.5591 50.247 80.449 50.1848 80.3446L48.8031 81.1211ZM50.1869 82.9542L49.3389 84.3024L49.3389 84.3024L50.1869 82.9542ZM54.9985 83.0778L55.7094 84.6229C56.516 84.2916 56.859 83.3406 56.4784 82.4904L54.9985 83.0778ZM54.6872 82.3822L53.788 80.9305C53.1095 81.3299 52.8621 82.1984 53.2073 82.9696L54.6872 82.3822ZM55.4763 81.6975L54.1637 80.6092L54.1637 80.6092L55.4763 81.6975ZM56.0003 80.2496L56.4594 78.6976C55.9776 78.5174 55.4578 78.5661 55.0494 78.8298C54.641 79.0934 54.3895 79.5428 54.3671 80.0486L56.0003 80.2496ZM56.2261 80.329L57.8608 80.472C57.868 79.7068 57.3549 78.9963 56.6206 78.7543L56.2261 80.329ZM56.7175 81.8526L58.0167 80.9497L58.0167 80.9497L56.7175 81.8526ZM60.0075 83.5266L60.0697 81.8783L60.0075 83.5266ZM63.4666 82.6386L62.2829 81.4053L62.2829 81.4053L63.4666 82.6386ZM64.1615 80.7277L65.7916 80.7299L65.7916 80.7299L64.1615 80.7277ZM63.224 78.4727L61.9248 79.3756L61.9248 79.3756L63.224 78.4727ZM62.7019 77.3589L64.3321 77.361L64.3321 77.361L62.7019 77.3589ZM62.7986 77.0769L61.6149 75.8437L61.6149 75.8437L62.7986 77.0769ZM64.5947 76.7489L64.6569 75.1006L64.6569 75.1006L64.5947 76.7489ZM66.3205 77.487L67.6197 76.5841L67.6197 76.5841L66.3205 77.487ZM66.3788 77.787L64.7789 77.3222L64.7789 77.3222L66.3788 77.787ZM65.7188 78.7632L66.9025 79.9964L66.9025 79.9964L65.7188 78.7632ZM64.5003 80.7672L62.9004 80.3024L62.9004 80.3024L64.5003 80.7672ZM64.9343 82.8095L63.6351 83.7124L63.6351 83.7124L64.9343 82.8095ZM68.2244 84.4834L68.2866 82.8351L68.2866 82.8351L68.2244 84.4834ZM71.6835 83.5954L70.4998 82.3621L70.4998 82.3621L71.6835 83.5954ZM72.3784 81.6846L74.0085 81.6867L74.0085 81.6867L72.3784 81.6846ZM71.4409 79.4295L72.74 78.5266L72.74 78.5266L71.4409 79.4295ZM70.9188 78.3157L72.5489 78.3179L72.5489 78.3178L70.9188 78.3157ZM71.0155 78.0337L69.8318 76.8005L69.8318 76.8005L71.0155 78.0337ZM74.5374 78.4438L73.2382 79.3467L73.2382 79.3468L74.5374 78.4438ZM74.5957 78.7438L72.9958 78.2791L72.9958 78.2791L74.5957 78.7438ZM73.9357 79.72L72.752 78.4868L72.752 78.4868L73.9357 79.72ZM72.7171 81.724L71.1173 81.2592L71.1173 81.2592L72.7171 81.724ZM73.1512 83.7663L74.4504 82.8634L74.4504 82.8634L73.1512 83.7663ZM76.4412 85.4402L76.5034 83.792L76.5034 83.792L76.4412 85.4402ZM79.9003 84.5522L81.0841 85.7854L81.0841 85.7854L79.9003 84.5522ZM80.5952 82.6414L82.2253 82.6436L82.2253 82.6436L80.5952 82.6414ZM80.5574 82.3404L80.6384 80.6944C80.1404 80.6306 79.6583 80.7994 79.3292 81.1528C79.0001 81.5063 78.86 82.0057 78.9487 82.5092L80.5574 82.3404ZM81.0046 82.3749L82.55 83.0349C82.727 82.5296 82.6379 81.9485 82.3122 81.4839C81.9865 81.0193 81.4666 80.7317 80.9246 80.7163L81.0046 82.3749ZM80.9137 82.6847L79.3225 82.1813L79.3225 82.1813L80.9137 82.6847ZM81.2271 84.7417L82.6119 83.9703L82.6119 83.9703L81.2271 84.7417ZM84.3865 86.6595L84.528 85.0224L84.528 85.0224L84.3865 86.6595ZM82.7755 79.8241L83.4855 81.3696C83.8663 81.2135 84.1612 80.9086 84.3082 80.519L82.7755 79.8241ZM82.8125 79.7007L81.2127 79.2358L81.2126 79.2359L82.8125 79.7007ZM82.7542 79.4006L81.455 80.3036L81.4551 80.3036L82.7542 79.4006ZM81.0284 78.6626L80.9662 80.3109L80.9662 80.3109L81.0284 78.6626ZM79.3818 78.8803L78.4931 77.4226C77.9639 77.7282 77.679 78.3299 77.7609 78.9689L79.3818 78.8803ZM79.9874 79.9476L80.8354 78.5994L80.8354 78.5994L79.9874 79.9476ZM82.7735 79.8249L82.0635 78.2795L82.0626 78.2798L82.7735 79.8249ZM56.3779 75.7921L56.3157 77.4404L56.3157 77.4404L56.3779 75.7921ZM55.3033 75.8156L54.8904 74.1827C54.797 74.2001 54.7059 74.226 54.6183 74.2601L55.3033 75.8156ZM58.1037 76.5302L59.4029 75.6273L59.4029 75.6272L58.1037 76.5302ZM58.162 76.8302L59.7618 77.295L59.7618 77.295L58.162 76.8302ZM57.502 77.8064L58.6857 79.0396L58.6857 79.0396L57.502 77.8064ZM57.0066 78.3555L56.7387 79.9666C57.3398 80.1145 57.9466 79.9161 58.313 79.4518L57.0066 78.3555ZM55.3485 77.54L54.5005 78.8883L54.5005 78.8883L55.3485 77.54ZM54.7852 77.1769L53.4014 77.95C53.5578 78.2138 53.7783 78.4352 54.0397 78.5911L54.7852 77.1769ZM54.4851 76.402L52.855 76.3998L52.855 76.3999L54.4851 76.402ZM54.5818 76.1201L53.398 74.8869L53.398 74.8869L54.5818 76.1201ZM54.7128 76.0208L54.1345 74.4284C54.0156 74.4646 53.9025 74.5151 53.7972 74.5789L54.7128 76.0208ZM58.3575 80.5146L57.9317 78.8842C57.1057 79.0454 56.5913 79.8371 56.7518 80.6999L58.3575 80.5146ZM58.4225 80.6555L57.1233 81.5584L57.1233 81.5584L58.4225 80.6555ZM61.9444 81.0656L63.1281 82.2988L63.1281 82.2988L61.9444 81.0656ZM62.0411 80.7836L63.6712 80.7858L63.6712 80.7858L62.0411 80.7836ZM61.519 79.6698L60.2198 80.5727L60.2198 80.5728L61.519 79.6698ZM60.7883 78.3335L62.3152 77.8616C62.0685 77.1895 61.443 76.7153 60.7526 76.6768C60.0621 76.6382 59.4555 77.0437 59.2373 77.6898L60.7883 78.3335ZM58.971 80.3312L58.2601 78.7861L58.2601 78.7861L58.971 80.3312ZM51.4891 78.4989L50.7782 76.9538L50.7782 76.9538L51.4891 78.4989ZM53.3428 78.7708L54.6547 77.8858C54.4767 77.6298 54.2367 77.4228 53.9605 77.2872L53.3428 78.7708ZM50.7013 79.7652L52.3328 79.9974L52.3328 79.9974L50.7013 79.7652ZM50.7266 80.2256L49.1188 80.3997C49.1843 80.765 49.3661 81.1073 49.6357 81.3727L50.7266 80.2256ZM52.2461 80.7646L52.2895 82.4217L52.2895 82.4217L52.2461 80.7646ZM53.7797 80.3205L55.0923 81.4089L55.0923 81.4089L53.7797 80.3205ZM53.8697 79.9119L52.2478 79.9922L52.2478 79.9922L53.8697 79.9119ZM82.7066 84.959C84.0352 85.8784 85.2057 86.2396 86.2029 86.1416L85.6419 82.8383C85.668 82.8357 85.3025 82.8852 84.4028 82.2626L82.7066 84.959ZM84.6925 84.9805L84.9428 84.5929L82.1666 82.6288L81.9163 83.0164L84.6925 84.9805ZM81.6541 84.4799C81.8521 84.8147 82.1113 85.0749 82.3499 85.2671L84.2589 82.7298C84.2624 82.7325 84.28 82.747 84.3066 82.7762C84.3322 82.8042 84.3762 82.857 84.4236 82.9371L81.6541 84.4799ZM81.3919 82.7773C81.2481 83.3839 81.3518 83.9687 81.654 84.4798L84.4236 82.9372C84.4786 83.0301 84.5507 83.1837 84.5821 83.3804C84.6126 83.5708 84.5909 83.714 84.5743 83.784L81.3919 82.7773ZM82.491 81.0165C81.8983 81.6001 81.5317 82.1879 81.3919 82.7773L84.5743 83.784C84.5546 83.8673 84.5361 83.8782 84.5727 83.8194C84.6086 83.7619 84.6913 83.6476 84.8585 83.483L82.491 81.0165ZM82.9081 80.5469C82.7949 80.6967 82.6566 80.8536 82.491 81.0165L84.8585 83.483C85.1107 83.2347 85.3469 82.9709 85.5588 82.6904L82.9081 80.5469ZM86.6745 80.0167C85.8356 79.6813 84.8214 79.6662 83.6501 80.0278L84.8168 83.2095C85.512 82.9949 85.7423 83.116 85.6835 83.0925L86.6745 80.0167ZM87.6846 81.7494C87.7685 81.9181 87.7682 82.0911 87.7222 82.2206L84.6357 80.8886C84.4026 81.5455 84.4258 82.33 84.7881 83.0584L87.6846 81.7494ZM88.2459 83.9466C88.2772 83.305 88.0928 82.5701 87.6846 81.7494L84.7881 83.0584C85.0158 83.5163 84.9748 83.6429 84.9803 83.5295L88.2459 83.9466ZM87.5698 85.4838C87.961 85.1122 88.214 84.5986 88.2459 83.9466L84.9803 83.5295C84.983 83.4751 84.9973 83.3708 85.0529 83.248C85.1094 83.1234 85.1833 83.0348 85.2399 82.9811L87.5698 85.4838ZM86.5012 86.0822C86.8608 85.9725 87.2498 85.7879 87.5699 85.4838L85.2399 82.9811C85.2957 82.928 85.3385 82.9035 85.3518 82.8964C85.3666 82.8884 85.3653 82.891 85.3436 82.8977L86.5012 86.0822ZM86.4663 84.8569C86.3305 84.9127 86.1873 84.9512 86.0352 84.972L86.7149 88.2614C87.1209 88.2057 87.5135 88.101 87.888 87.9471L86.4663 84.8569ZM87.5606 83.1632C87.5127 83.9209 87.1197 84.5885 86.4663 84.8569L87.888 87.9471C89.8247 87.1516 90.7177 85.3025 90.8235 83.6276L87.5606 83.1632ZM86.737 81.2968C87.3056 81.6902 87.6086 82.4037 87.5606 83.1632L90.8235 83.6276C90.9293 81.9547 90.2816 79.8794 88.4331 78.6003L86.737 81.2968ZM85.1596 80.9405C85.8776 80.8869 86.3801 81.0498 86.737 81.2968L88.4331 78.6003C87.3053 77.8199 85.9998 77.5316 84.6717 77.6309L85.1596 80.9405ZM83.2908 79.378C83.2965 79.3994 83.3012 79.4212 83.305 79.4435L86.5263 79.1279C86.5048 79.0013 86.4776 78.876 86.445 78.7525L83.2908 79.378ZM86.9293 77.5314C86.5191 77.6998 85.9827 77.7318 85.2704 77.4932L84.4654 80.6373C85.7956 81.0829 87.1382 81.1198 88.351 80.6216L86.9293 77.5314ZM88.0236 75.8377C87.9757 76.5954 87.5827 77.263 86.9293 77.5314L88.351 80.6216C90.2877 79.8261 91.1807 77.977 91.2866 76.3021L88.0236 75.8377ZM87.2 73.9713C87.7686 74.3647 88.0716 75.0782 88.0236 75.8377L91.2866 76.3021C91.3923 74.6292 90.7447 72.5539 88.8962 71.2748L87.2 73.9713ZM83.9474 74.0446C85.5999 73.3658 86.6329 73.5788 87.2 73.9713L88.8962 71.2748C87.0102 69.9697 84.7075 70.0581 82.5257 70.9543L83.9474 74.0446ZM79.6023 73.9703C80.645 74.6919 82.1214 74.7946 83.9474 74.0446L82.5257 70.9543C81.2524 71.4773 81.0379 71.0935 81.2985 71.2739L79.6023 73.9703ZM78.2021 70.9528C78.1332 72.0419 78.5656 73.2529 79.6023 73.9703L81.2985 71.2739C81.4013 71.345 81.4462 71.4228 81.4603 71.4552C81.4742 71.4869 81.4612 71.4771 81.465 71.4172L78.2021 70.9528ZM79.9104 68.3736C78.8429 68.812 78.271 69.8626 78.2021 70.9528L81.465 71.4172C81.4687 71.3576 81.4832 71.343 81.4734 71.3586C81.4638 71.3739 81.4241 71.426 81.3321 71.4638L79.9104 68.3736ZM84.1976 69.3635C82.467 68.166 80.999 67.9264 79.9104 68.3736L81.3321 71.4638C81.0816 71.5667 81.3397 71.2561 82.5015 72.06L84.1976 69.3635ZM87.3923 70.2059C86.756 70.4672 85.7133 70.4123 84.1976 69.3635L82.5015 72.06C84.564 73.4872 86.8217 74.1145 88.8141 73.2961L87.3923 70.2059ZM88.4866 68.5122C88.4388 69.2699 88.0457 69.9375 87.3923 70.2059L88.8141 73.2961C90.7507 72.5006 91.6437 70.6515 91.7496 68.9766L88.4866 68.5122ZM87.663 66.6458C88.2316 67.0392 88.5347 67.7527 88.4866 68.5122L91.7496 68.9766C91.8553 67.3037 91.2077 65.2284 89.3592 63.9493L87.663 66.6458ZM84.4104 66.7191C86.0629 66.0403 87.0959 66.2533 87.663 66.6458L89.3592 63.9493C87.4732 62.6442 85.1705 62.7326 82.9887 63.6288L84.4104 66.7191ZM80.0654 66.6448C81.1081 67.3664 82.5845 67.4691 84.4104 66.7191L82.9887 63.6288C81.7154 64.1518 81.5009 63.768 81.7615 63.9484L80.0654 66.6448ZM78.6651 63.6273C78.5962 64.7164 79.0286 65.9274 80.0654 66.6448L81.7615 63.9484C81.8643 64.0195 81.9092 64.0973 81.9234 64.1297C81.9372 64.1614 81.9242 64.1516 81.928 64.0917L78.6651 63.6273ZM80.3734 61.0481C79.306 61.4865 78.734 62.5371 78.6651 63.6273L81.928 64.0917C81.9318 64.0321 81.9463 64.0175 81.9364 64.0331C81.9268 64.0484 81.8871 64.1005 81.7952 64.1383L80.3734 61.0481ZM84.6606 62.038C82.9301 60.8404 81.4621 60.6009 80.3734 61.0481L81.7952 64.1383C81.5446 64.2412 81.8028 63.9306 82.9645 64.7345L84.6606 62.038ZM87.8554 62.8804C87.219 63.1417 86.1763 63.0868 84.6606 62.038L82.9645 64.7345C85.0271 66.1617 87.2847 66.789 89.2771 65.9706L87.8554 62.8804ZM88.9497 61.1867C88.9018 61.9444 88.5088 62.612 87.8554 62.8804L89.2771 65.9706C91.2138 65.1751 92.1068 63.326 92.2126 61.6511L88.9497 61.1867ZM88.1261 59.3203C88.6947 59.7137 88.9977 60.4272 88.9497 61.1867L92.2126 61.6511C92.3184 59.9782 91.6707 57.9029 89.8222 56.6238L88.1261 59.3203ZM84.8735 59.3936C86.5259 58.7148 87.5589 58.9278 88.1261 59.3203L89.8222 56.6238C87.9362 55.3187 85.6336 55.4071 83.4517 56.3033L84.8735 59.3936ZM80.5284 59.3193C81.5711 60.0409 83.0475 60.1436 84.8735 59.3936L83.4517 56.3033C82.1784 56.8263 81.9639 56.4425 82.2245 56.6229L80.5284 59.3193ZM79.1281 56.3018C79.0593 57.3909 79.4916 58.6019 80.5284 59.3193L82.2245 56.6229C82.3274 56.694 82.3723 56.7718 82.3864 56.8042C82.4003 56.8359 82.3873 56.8261 82.391 56.7662L79.1281 56.3018ZM80.8365 53.7226C79.769 54.161 79.197 55.2116 79.1281 56.3018L82.391 56.7662C82.3948 56.7066 82.4093 56.692 82.3995 56.7076C82.3898 56.7229 82.3502 56.775 82.2582 56.8128L80.8365 53.7226ZM85.1237 54.7125C83.3931 53.515 81.9251 53.2754 80.8365 53.7226L82.2582 56.8128C82.0077 56.9157 82.2658 56.6051 83.4275 57.409L85.1237 54.7125ZM88.3184 55.5549C87.6821 55.8162 86.6393 55.7613 85.1237 54.7125L83.4275 57.409C85.4901 58.8362 87.7478 59.4635 89.7401 58.6451L88.3184 55.5549ZM89.4127 53.8612C89.3648 54.6189 88.9718 55.2865 88.3184 55.5549L89.7401 58.6451C91.6768 57.8496 92.5698 56.0005 92.6756 54.3256L89.4127 53.8612ZM88.5891 51.9948C89.1577 52.3882 89.4607 53.1017 89.4127 53.8612L92.6756 54.3256C92.7814 52.6527 92.1338 50.5775 90.2853 49.2983L88.5891 51.9948ZM85.3365 52.0681C86.989 51.3893 88.022 51.6023 88.5891 51.9948L90.2853 49.2983C88.3993 47.9932 86.0966 48.0816 83.9148 48.9778L85.3365 52.0681ZM86.9998 51.9337L86.1056 49.9355L83.1457 51.1104L84.0399 53.1085L86.9998 51.9337ZM89.154 51.0502C88.1113 50.3287 86.6349 50.226 84.809 50.976L86.2307 54.0662C87.504 53.5432 87.7185 53.927 87.4579 53.7467L89.154 51.0502ZM90.5543 54.0677C90.6231 52.9786 90.1908 51.7676 89.154 51.0502L87.4579 53.7467C87.355 53.6755 87.3102 53.5977 87.296 53.5653C87.2822 53.5337 87.2952 53.5434 87.2914 53.6033L90.5543 54.0677ZM88.8459 56.647C89.9134 56.2085 90.4854 55.1579 90.5543 54.0677L87.2914 53.6033C87.2876 53.6629 87.2731 53.6775 87.2829 53.662C87.2926 53.6467 87.3323 53.5945 87.4242 53.5567L88.8459 56.647ZM84.5588 55.6571C86.2893 56.8546 87.7573 57.0941 88.8459 56.647L87.4242 53.5567C87.6748 53.4538 87.4166 53.7645 86.2549 52.9606L84.5588 55.6571ZM81.364 54.8147C82.0003 54.5533 83.0431 54.6082 84.5588 55.6571L86.2549 52.9606C84.1923 51.5333 81.9346 50.9061 79.9423 51.7244L81.364 54.8147ZM80.2697 56.5083C80.3176 55.7507 80.7106 55.083 81.364 54.8147L79.9423 51.7244C78.0056 52.5199 77.1126 54.3691 77.0068 56.0439L80.2697 56.5083ZM81.0933 58.3748C80.5247 57.9813 80.2217 57.2679 80.2697 56.5083L77.0068 56.0439C76.901 57.7168 77.5487 59.7921 79.3972 61.0712L81.0933 58.3748ZM84.3459 58.3015C82.6934 58.9802 81.6604 58.7672 81.0933 58.3748L79.3972 61.0712C81.2832 62.3763 83.5858 62.2879 85.7677 61.3917L84.3459 58.3015ZM88.691 58.3757C87.6483 57.6542 86.1719 57.5515 84.3459 58.3015L85.7677 61.3917C87.041 60.8687 87.2554 61.2525 86.9949 61.0722L88.691 58.3757ZM90.0913 61.3932C90.1601 60.3041 89.7278 59.0931 88.691 58.3757L86.9948 61.0722C86.892 61.001 86.8471 60.9232 86.833 60.8908C86.8191 60.8591 86.8321 60.8689 86.8283 60.9288L90.0913 61.3932ZM88.3829 63.9725C89.4504 63.534 90.0224 62.4834 90.0913 61.3932L86.8283 60.9288C86.8246 60.9884 86.8101 61.003 86.8199 60.9874C86.8296 60.9722 86.8692 60.92 86.9612 60.8822L88.3829 63.9725ZM84.0957 62.9826C85.8263 64.1801 87.2943 64.4196 88.3829 63.9725L86.9612 60.8822C87.2117 60.7793 86.9536 61.09 85.7919 60.2861L84.0957 62.9826ZM80.901 62.1402C81.5373 61.8788 82.58 61.9337 84.0957 62.9826L85.7919 60.2861C83.7293 58.8588 81.4716 58.2316 79.4792 59.0499L80.901 62.1402ZM79.8067 63.8338C79.8546 63.0762 80.2476 62.4085 80.901 62.1402L79.4792 59.0499C77.5426 59.8454 76.6496 61.6946 76.5437 63.3694L79.8067 63.8338ZM80.6303 65.7003C80.0617 65.3068 79.7587 64.5934 79.8067 63.8338L76.5437 63.3694C76.438 65.0423 77.0856 67.1176 78.9341 68.3967L80.6303 65.7003ZM83.8829 65.627C82.2304 66.3057 81.1974 66.0927 80.6303 65.7003L78.9341 68.3967C80.8201 69.7018 83.1228 69.6134 85.3046 68.7172L83.8829 65.627ZM88.228 65.7012C87.1853 64.9797 85.7088 64.877 83.8829 65.627L85.3046 68.7172C86.5779 68.1942 86.7924 68.578 86.5318 68.3977L88.228 65.7012ZM89.6282 68.7187C89.6971 67.6296 89.2647 66.4186 88.228 65.7012L86.5318 68.3977C86.429 68.3265 86.3841 68.2487 86.3699 68.2163C86.3561 68.1846 86.3691 68.1944 86.3653 68.2543L89.6282 68.7187ZM87.9199 71.298C88.9873 70.8595 89.5593 69.8089 89.6282 68.7187L86.3653 68.2543C86.3615 68.3139 86.347 68.3285 86.3569 68.3129C86.3665 68.2977 86.4062 68.2455 86.4981 68.2077L87.9199 71.298ZM83.6327 70.308C85.3633 71.5056 86.8312 71.7451 87.9199 71.298L86.4982 68.2077C86.7487 68.1048 86.4905 68.4155 85.3288 67.6116L83.6327 70.308ZM80.4379 69.4657C81.0743 69.2043 82.117 69.2592 83.6327 70.3081L85.3288 67.6116C83.2663 66.1843 81.0086 65.557 79.0162 66.3754L80.4379 69.4657ZM79.3436 71.1593C79.3915 70.4017 79.7845 69.734 80.4379 69.4657L79.0162 66.3754C77.0796 67.1709 76.1866 69.0201 76.0807 70.6949L79.3436 71.1593ZM80.1672 73.0258C79.5987 72.6323 79.2956 71.9189 79.3436 71.1593L76.0807 70.6949C75.975 72.3678 76.6226 74.4431 78.4711 75.7222L80.1672 73.0258ZM83.4199 72.9525C81.7674 73.6312 80.7344 73.4182 80.1672 73.0258L78.4711 75.7222C80.3571 77.0273 82.6597 76.9389 84.8416 76.0427L83.4199 72.9525ZM87.7649 73.0267C86.7222 72.3052 85.2458 72.2025 83.4199 72.9525L84.8416 76.0427C86.1149 75.5197 86.3294 75.9035 86.0688 75.7232L87.7649 73.0267ZM89.1652 76.0442C89.234 74.9551 88.8017 73.7441 87.7649 73.0267L86.0688 75.7232C85.966 75.652 85.9211 75.5742 85.9069 75.5418C85.8931 75.5101 85.9061 75.5199 85.9023 75.5798L89.1652 76.0442ZM87.4568 78.6235C88.5243 78.185 89.0963 77.1344 89.1652 76.0442L85.9023 75.5798C85.8985 75.6394 85.884 75.654 85.8938 75.6384C85.9035 75.6232 85.9432 75.571 86.0351 75.5332L87.4568 78.6235ZM83.1697 77.6335C84.9002 78.8311 86.3682 79.0706 87.4568 78.6235L86.0351 75.5332C86.2857 75.4303 86.0275 75.741 84.8658 74.9371L83.1697 77.6335ZM79.9749 76.7912C80.6112 76.5298 81.654 76.5847 83.1697 77.6335L84.8658 74.9371C82.8032 73.5098 80.5455 72.8825 78.5532 73.7009L79.9749 76.7912ZM78.8942 78.3405C78.983 77.6354 79.3649 77.0417 79.9749 76.7912L78.5532 73.7009C76.7471 74.4427 75.8477 76.1057 75.6504 77.6738L78.8942 78.3405ZM78.6453 79.3306C78.631 79.1377 78.6676 78.9895 78.7307 78.8682L75.8139 77.1461C75.481 77.7855 75.3257 78.5277 75.3851 79.3262L78.6453 79.3306ZM79.2519 80.6805C78.8207 80.0756 78.6679 79.6338 78.6453 79.3306L75.3851 79.3262C75.4722 80.4986 76.0009 81.5708 76.6535 82.4864L79.2519 80.6805ZM80.1049 82.6995C80.059 82.0817 79.7688 81.4057 79.2519 80.6805L76.6535 82.4864C76.7934 82.6827 76.8492 82.7986 76.8663 82.8389C76.8846 82.8821 76.8546 82.8287 76.8447 82.6951L80.1049 82.6995ZM79.5618 84.2125C79.686 84.0902 79.8707 83.8784 79.9916 83.5553C80.1116 83.2348 80.1221 82.9307 80.1049 82.6995L76.8447 82.6951C76.838 82.6048 76.8362 82.4062 76.9232 82.1737C77.0112 81.9386 77.1423 81.7973 77.1944 81.746L79.5618 84.2125ZM76.5198 84.9555C77.1363 85.0273 77.7039 84.998 78.191 84.8921C78.631 84.7965 79.1648 84.6034 79.5618 84.2125L77.1944 81.746C77.2478 81.6934 77.2926 81.6616 77.3174 81.6455C77.3434 81.6286 77.3595 81.6211 77.3619 81.62C77.3655 81.6184 77.3385 81.6308 77.2752 81.6445C77.1487 81.672 76.9341 81.6927 76.6442 81.6589L76.5198 84.9555ZM73.557 83.4721C73.9185 83.9791 74.4437 84.3043 74.8688 84.5022C75.3435 84.7232 75.9036 84.8837 76.5198 84.9555L76.6442 81.6589C76.3539 81.6251 76.1502 81.5557 76.0382 81.5035C75.9821 81.4774 75.9638 81.4626 75.975 81.4708C75.9768 81.4722 76.0587 81.5306 76.1554 81.6662L73.557 83.4721ZM73.1981 81.8044C73.1522 82.0219 73.1206 82.3267 73.1994 82.6819C73.2799 83.0449 73.443 83.3121 73.557 83.472L76.1554 81.6662C76.2077 81.7397 76.3273 81.925 76.3869 82.1937C76.4447 82.4546 76.4149 82.6528 76.3978 82.7339L73.1981 81.8044ZM74.2742 80.0597C73.6835 80.6412 73.3209 81.2221 73.1981 81.8044L76.3978 82.7339C76.3718 82.857 76.3387 82.894 76.3681 82.8465C76.3956 82.8019 76.4721 82.6931 76.6416 82.5262L74.2742 80.0597ZM75.0766 78.8242C75.0114 79.1332 74.7913 79.5506 74.2742 80.0597L76.6416 82.5262C77.391 81.7885 78.0402 80.8725 78.2763 79.7537L75.0766 78.8242ZM74.9432 78.1496C75.0722 78.3306 75.1363 78.541 75.0766 78.8242L78.2763 79.7537C78.5355 78.5255 78.2365 77.3186 77.5416 76.3437L74.9432 78.1496ZM72.8901 77.221C73.8624 77.3342 74.6381 77.7216 74.9432 78.1496L77.5416 76.3437C76.3485 74.67 74.3378 74.0785 73.0145 73.9244L72.8901 77.221ZM70.6769 77.694C71.0762 77.301 71.9317 77.1094 72.8901 77.221L73.0145 73.9244C71.6774 73.7687 69.6609 73.8971 68.3095 75.2275L70.6769 77.694ZM70.4285 78.3738C70.4074 78.0904 70.4951 77.873 70.6769 77.694L68.3095 75.2275C67.5287 75.9962 67.0732 77.0907 67.1682 78.3694L70.4285 78.3738ZM71.035 79.7237C70.6038 79.1188 70.451 78.677 70.4285 78.3738L67.1682 78.3694C67.2554 79.5418 67.784 80.614 68.4367 81.5296L71.035 79.7237ZM71.888 81.7427C71.8421 81.1249 71.5519 80.4488 71.035 79.7237L68.4367 81.5296C68.5766 81.7258 68.6323 81.8418 68.6494 81.8821C68.6677 81.9253 68.6377 81.8719 68.6278 81.7383L71.888 81.7427ZM71.3449 83.2557C71.4692 83.1334 71.6539 82.9216 71.7748 82.5985C71.8947 82.278 71.9052 81.9739 71.888 81.7426L68.6278 81.7383C68.6211 81.648 68.6193 81.4494 68.7064 81.2169C68.7943 80.9818 68.9254 80.8405 68.9775 80.7892L71.3449 83.2557ZM68.3029 83.9987C68.9194 84.0705 69.4871 84.0412 69.9742 83.9353C70.4141 83.8396 70.9479 83.6466 71.345 83.2557L68.9775 80.7892C69.0309 80.7366 69.0757 80.7048 69.1006 80.6887C69.1265 80.6718 69.1426 80.6643 69.1451 80.6632C69.1486 80.6616 69.1217 80.6739 69.0583 80.6877C68.9319 80.7152 68.7173 80.7359 68.4273 80.7021L68.3029 83.9987ZM65.3402 82.5152C65.7016 83.0223 66.2268 83.3475 66.6519 83.5454C67.1267 83.7664 67.6867 83.9269 68.3029 83.9987L68.4273 80.7021C68.1371 80.6683 67.9334 80.5988 67.8214 80.5467C67.7652 80.5206 67.747 80.5057 67.7581 80.5139C67.76 80.5153 67.8418 80.5737 67.9385 80.7094L65.3402 82.5152ZM64.9812 80.8476C64.9353 81.065 64.9038 81.3699 64.9825 81.7251C65.063 82.0881 65.2261 82.3553 65.3402 82.5153L67.9385 80.7094C67.9909 80.7828 68.1104 80.9681 68.17 81.2369C68.2279 81.4978 68.198 81.6959 68.1809 81.7771L64.9812 80.8476ZM66.0573 79.1029C65.4667 79.6844 65.1041 80.2653 64.9812 80.8475L68.1809 81.7771C68.1549 81.9001 68.1218 81.9372 68.1512 81.8896C68.1788 81.8451 68.2552 81.7363 68.4248 81.5694L66.0573 79.1029ZM66.8597 77.8674C66.7945 78.1763 66.5744 78.5938 66.0573 79.1029L68.4248 81.5694C69.1741 80.8316 69.8233 79.9157 70.0594 78.7969L66.8597 77.8674ZM66.7264 77.1928C66.8554 77.3738 66.9195 77.5842 66.8597 77.8674L70.0594 78.7969C70.3186 77.5687 70.0196 76.3618 69.3247 75.3869L66.7264 77.1928ZM64.6733 76.2642C65.6455 76.3774 66.4212 76.7647 66.7264 77.1928L69.3247 75.3869C68.1316 73.7132 66.121 73.1217 64.7977 72.9676L64.6733 76.2642ZM62.4601 76.7372C62.8593 76.3441 63.7148 76.1526 64.6733 76.2642L64.7977 72.9676C63.4606 72.8119 61.4441 72.9402 60.0927 74.2707L62.4601 76.7372ZM62.3058 76.9382C62.3433 76.8702 62.3939 76.8024 62.4601 76.7372L60.0927 74.2707C59.833 74.5264 59.6057 74.8212 59.4227 75.1531L62.3058 76.9382ZM62.4445 75.7449C62.1409 74.5625 61.4356 73.3658 60.227 72.5295L58.5308 75.226C58.9139 75.4911 59.1643 75.8799 59.2841 76.3464L62.4445 75.7449ZM60.227 72.5295C58.341 71.2244 56.0383 71.3128 53.8565 72.209L55.2782 75.2993C56.9307 74.6205 57.9637 74.8335 58.5308 75.226L60.227 72.5295ZM53.8566 72.209C53.8513 72.2112 53.8466 72.2131 53.8422 72.2149L55.2562 75.3083C55.2639 75.3051 55.2713 75.3021 55.278 75.2994L53.8566 72.209ZM54.6357 75.5179C54.757 75.4618 54.8954 75.4137 55.0497 75.3755L54.0487 72.1477C53.73 72.2266 53.4082 72.3346 53.0948 72.4797L54.6357 75.5179ZM53.3191 72.397C52.9188 72.5094 52.6901 72.5033 52.5984 72.4922C52.5128 72.4819 52.5409 72.4674 52.6293 72.5286L50.9331 75.225C51.7963 75.8224 52.9833 76.0016 54.4114 75.6006L53.3191 72.397ZM52.6293 72.5286C52.7321 72.5997 52.777 72.6775 52.7912 72.7099C52.805 72.7416 52.792 72.7318 52.7958 72.6719L49.5329 72.2075C49.464 73.2966 49.8964 74.5076 50.9331 75.225L52.6293 72.5286ZM52.7958 72.6719C52.7996 72.6124 52.8141 72.5977 52.8042 72.6133C52.7946 72.6286 52.7549 72.6807 52.6629 72.7185L51.2412 69.6283C50.1737 70.0667 49.6018 71.1173 49.5329 72.2075L52.7958 72.6719ZM52.6629 72.7185C52.4124 72.8214 52.6706 72.5108 53.8323 73.3147L55.5284 70.6182C53.7978 69.4207 52.3299 69.1811 51.2412 69.6283L52.6629 72.7185ZM53.8323 73.3147C55.8948 74.7419 58.1525 75.3692 60.1449 74.5508L58.7232 71.4606C58.0868 71.722 57.0441 71.667 55.5284 70.6182L53.8323 73.3147ZM60.1449 74.5508C62.0815 73.7554 62.9745 71.9062 63.0804 70.2313L59.8175 69.7669C59.7696 70.5246 59.3766 71.1922 58.7232 71.4606L60.1449 74.5508ZM63.0804 70.2313C63.1861 68.5585 62.5385 66.4832 60.69 65.204L58.9939 67.9005C59.5624 68.2939 59.8655 69.0074 59.8175 69.7669L63.0804 70.2313ZM60.69 65.204C58.804 63.8989 56.5013 63.9873 54.3195 64.8835L55.7412 67.9738C57.3937 67.295 58.4267 67.508 58.9939 67.9005L60.69 65.204ZM54.3195 64.8835C53.0462 65.4066 52.8317 65.0228 53.0923 65.2031L51.3962 67.8995C52.4389 68.6211 53.9153 68.7238 55.7412 67.9738L54.3195 64.8835ZM53.0923 65.2031C53.1951 65.2742 53.24 65.352 53.2542 65.3844C53.268 65.4161 53.255 65.4063 53.2588 65.3464L49.9959 64.882C49.927 65.9711 50.3594 67.1821 51.3962 67.8995L53.0923 65.2031ZM53.2588 65.3464C53.2626 65.2869 53.2771 65.2723 53.2672 65.2878C53.2576 65.3031 53.2179 65.3553 53.126 65.393L51.7042 62.3028C50.6368 62.7412 50.0648 63.7918 49.9959 64.882L53.2588 65.3464ZM53.126 65.393C52.8754 65.4959 53.1336 65.1853 54.2953 65.9892L55.9914 63.2927C54.2609 62.0952 52.7929 61.8556 51.7042 62.3028L53.126 65.393ZM54.2953 65.9892C56.3579 67.4164 58.6155 68.0437 60.6079 67.2253L59.1862 64.1351C58.5499 64.3965 57.5071 64.3415 55.9914 63.2927L54.2953 65.9892ZM60.6079 67.2253C62.5446 66.4299 63.4376 64.5807 63.5434 62.9058L60.2805 62.4414C60.2326 63.1991 59.8396 63.8667 59.1862 64.1351L60.6079 67.2253ZM63.5434 62.9058C63.6492 61.233 63.0015 59.1577 61.153 57.8785L59.4569 60.575C60.0255 60.9684 60.3285 61.6819 60.2805 62.4414L63.5434 62.9058ZM61.153 57.8785C59.267 56.5734 56.9644 56.6619 54.7825 57.558L56.2043 60.6483C57.8567 59.9695 58.8897 60.1825 59.4569 60.575L61.153 57.8785ZM54.7825 57.558C53.5092 58.0811 53.2948 57.6973 53.5553 57.8776L51.8592 60.574C52.9019 61.2956 54.3783 61.3983 56.2043 60.6483L54.7825 57.558ZM53.5553 57.8776C53.6582 57.9487 53.7031 58.0265 53.7172 58.0589C53.7311 58.0906 53.7181 58.0808 53.7219 58.0209L50.4589 57.5565C50.3901 58.6456 50.8224 59.8566 51.8592 60.574L53.5553 57.8776ZM53.7219 58.0209C53.7256 57.9614 53.7401 57.9468 53.7303 57.9623C53.7206 57.9776 53.681 58.0297 53.589 58.0675L52.1673 54.9773C51.0998 55.4157 50.5278 56.4663 50.4589 57.5565L53.7219 58.0209ZM53.589 58.0675C53.3385 58.1704 53.5966 57.8598 54.7583 58.6637L56.4545 55.9672C54.7239 54.7697 53.2559 54.5301 52.1673 54.9773L53.589 58.0675ZM54.7583 58.6637C56.8209 60.091 59.0786 60.7182 61.0709 59.8998L59.6492 56.8096C59.0129 57.071 57.9701 57.016 56.4545 55.9672L54.7583 58.6637ZM61.0709 59.8998C63.0076 59.1044 63.9006 57.2552 64.0065 55.5803L60.7435 55.1159C60.6956 55.8736 60.3026 56.5412 59.6492 56.8096L61.0709 59.8998ZM64.0065 55.5803C64.1122 53.9075 63.4646 51.8322 61.6161 50.553L59.9199 53.2495C60.4885 53.6429 60.7915 54.3564 60.7435 55.116L64.0065 55.5803ZM61.6161 50.553C59.7301 49.2479 57.4274 49.3364 55.2456 50.2325L56.6673 53.3228C58.3198 52.644 59.3528 52.857 59.9199 53.2495L61.6161 50.553ZM55.2456 50.2325C53.9723 50.7556 53.7578 50.3718 54.0184 50.5521L52.3222 53.2486C53.3649 53.9701 54.8413 54.0728 56.6673 53.3228L55.2456 50.2325ZM54.0184 50.5521C54.1212 50.6232 54.1661 50.701 54.1802 50.7334C54.1941 50.7651 54.1811 50.7553 54.1849 50.6954L50.9219 50.231C50.8531 51.3202 51.2855 52.5311 52.3222 53.2485L54.0184 50.5521ZM54.1849 50.6954C54.1886 50.6359 54.2031 50.6213 54.1933 50.6368C54.1837 50.6521 54.144 50.7043 54.052 50.742L52.6303 47.6518C51.5628 48.0902 50.9909 49.1408 50.9219 50.231L54.1849 50.6954ZM54.052 50.742C53.8015 50.8449 54.0596 50.5343 55.2214 51.3382L56.9175 48.6417C55.1869 47.4442 53.7189 47.2046 52.6303 47.6518L54.052 50.742ZM57.4575 50.972L58.5887 49.2201L55.8126 47.256L54.6814 49.0079L57.4575 50.972ZM58.0487 46.8898C55.9862 45.4625 53.7285 44.8353 51.7361 45.6536L53.1578 48.7439C53.7942 48.4825 54.8369 48.5374 56.3526 49.5863L58.0487 46.8898ZM51.7361 45.6536C49.7995 46.4491 48.9065 48.2983 48.8006 49.9731L52.0635 50.4375C52.1114 49.6799 52.5044 49.0123 53.1578 48.7439L51.7361 45.6536ZM48.8006 49.9731C48.6949 51.646 49.3425 53.7213 51.191 55.0005L52.8871 52.304C52.3186 51.9105 52.0155 51.1971 52.0635 50.4375L48.8006 49.9731ZM51.191 55.0005C53.077 56.3055 55.3796 56.2171 57.5615 55.3209L56.1398 52.2307C54.4873 52.9094 53.4543 52.6964 52.8871 52.304L51.191 55.0005ZM57.5615 55.3209C58.8348 54.7979 59.0493 55.1817 58.7887 55.0014L60.4848 52.3049C59.4421 51.5834 57.9657 51.4807 56.1398 52.2307L57.5615 55.3209ZM58.7887 55.0014C58.6859 54.9302 58.641 54.8525 58.6268 54.8201C58.613 54.7884 58.626 54.7981 58.6222 54.8581L61.8851 55.3225C61.9539 54.2333 61.5216 53.0224 60.4848 52.3049L58.7887 55.0014ZM58.6222 54.8581C58.6184 54.9176 58.6039 54.9322 58.6137 54.9167C58.6234 54.9014 58.6631 54.8492 58.755 54.8115L60.1767 57.9017C61.2442 57.4632 61.8162 56.4127 61.8851 55.3225L58.6222 54.8581ZM58.755 54.8115C59.0056 54.7085 58.7474 55.0192 57.5857 54.2153L55.8896 56.9118C57.6201 58.1093 59.0881 58.3489 60.1767 57.9017L58.755 54.8115ZM57.5857 54.2153C55.5231 52.788 53.2655 52.1608 51.2731 52.9791L52.6948 56.0694C53.3311 55.808 54.3739 55.8629 55.8896 56.9118L57.5857 54.2153ZM51.2731 52.9791C49.3364 53.7746 48.4434 55.6238 48.3376 57.2986L51.6005 57.763C51.6484 57.0054 52.0414 56.3378 52.6948 56.0694L51.2731 52.9791ZM48.3376 57.2986C48.2318 58.9715 48.8795 61.0468 50.728 62.3259L52.4241 59.6295C51.8555 59.236 51.5525 58.5226 51.6005 57.763L48.3376 57.2986ZM50.728 62.326C52.614 63.631 54.9166 63.5426 57.0985 62.6464L55.6767 59.5562C54.0243 60.2349 52.9913 60.0219 52.4241 59.6295L50.728 62.326ZM57.0985 62.6464C58.3718 62.1234 58.5862 62.5072 58.3257 62.3269L60.0218 59.6304C58.9791 58.9089 57.5027 58.8062 55.6767 59.5562L57.0985 62.6464ZM58.3257 62.3269C58.2228 62.2557 58.1779 62.178 58.1638 62.1456C58.1499 62.1139 58.1629 62.1236 58.1591 62.1836L61.4221 62.6479C61.4909 61.5588 61.0586 60.3479 60.0218 59.6304L58.3257 62.3269ZM58.1591 62.1836C58.1554 62.2431 58.1409 62.2577 58.1507 62.2422C58.1604 62.2269 58.2 62.1747 58.292 62.137L59.7137 65.2272C60.7812 64.7887 61.3532 63.7382 61.4221 62.6479L58.1591 62.1836ZM58.292 62.137C58.5425 62.034 58.2844 62.3447 57.1227 61.5408L55.4265 64.2373C57.1571 65.4348 58.6251 65.6744 59.7137 65.2272L58.292 62.137ZM57.1227 61.5408C55.0601 60.1135 52.8024 59.4863 50.8101 60.3046L52.2318 63.3949C52.8681 63.1335 53.9108 63.1884 55.4265 64.2373L57.1227 61.5408ZM50.8101 60.3046C48.8734 61.1001 47.9804 62.9493 47.8745 64.6241L51.1375 65.0885C51.1854 64.3309 51.5784 63.6633 52.2318 63.3949L50.8101 60.3046ZM47.8745 64.6241C47.7688 66.297 48.4164 68.3723 50.2649 69.6514L51.9611 66.955C51.3925 66.5615 51.0895 65.8481 51.1375 65.0885L47.8745 64.6241ZM50.2649 69.6514C52.1509 70.9565 54.4536 70.8681 56.6354 69.9719L55.2137 66.8817C53.5612 67.5604 52.5282 67.3474 51.9611 66.955L50.2649 69.6514ZM56.6354 69.9719C57.9087 69.4489 58.1232 69.8327 57.8626 69.6524L59.5588 66.9559C58.5161 66.2344 57.0397 66.1317 55.2137 66.8817L56.6354 69.9719ZM57.8626 69.6524C57.7598 69.5812 57.7149 69.5035 57.7007 69.4711C57.6869 69.4394 57.6999 69.4491 57.6961 69.509L60.959 69.9734C61.0279 68.8843 60.5955 67.6734 59.5588 66.9559L57.8626 69.6524ZM57.6961 69.509C57.6923 69.5686 57.6779 69.5832 57.6877 69.5677C57.6973 69.5524 57.737 69.5002 57.829 69.4625L59.2507 72.5527C60.3182 72.1142 60.8901 71.0637 60.959 69.9734L57.6961 69.509ZM57.829 69.4624C58.0795 69.3595 57.8213 69.6702 56.6596 68.8663L54.9635 71.5628C56.6941 72.7603 58.162 72.9999 59.2507 72.5527L57.829 69.4624ZM56.6596 68.8663C54.5971 67.439 52.3394 66.8118 50.347 67.6301L51.7687 70.7204C52.4051 70.459 53.4478 70.5139 54.9635 71.5628L56.6596 68.8663ZM50.347 67.6301C48.4104 68.4256 47.5174 70.2748 47.4115 71.9496L50.6744 72.414C50.7223 71.6564 51.1153 70.9888 51.7687 70.7204L50.347 67.6301ZM47.4115 71.9496C47.3058 73.6225 47.9534 75.6978 49.8019 76.9769L51.498 74.2805C50.9295 73.887 50.6264 73.1736 50.6744 72.414L47.4115 71.9496ZM49.8019 76.977C50.5546 77.4978 51.3967 77.8049 52.2782 77.9166L52.4358 74.6241C52.05 74.5752 51.7454 74.4516 51.498 74.2805L49.8019 76.977ZM53.9917 76.3899C53.9917 76.3883 53.9917 76.387 53.9917 76.3859L50.7222 76.1548C50.7223 76.1607 50.7223 76.1664 50.7224 76.1718L53.9917 76.3899ZM52.4195 74.6326C51.5369 74.5297 50.6771 74.6299 49.884 74.9556L51.3057 78.0459C51.5846 77.9313 51.9086 77.8841 52.2947 77.9291L52.4195 74.6326ZM49.884 74.9556C49.437 75.1392 49.04 75.3831 48.6941 75.6721L50.8853 78.2986C51.0059 78.1978 51.1449 78.1119 51.3057 78.0459L49.884 74.9556ZM50.6582 78.3932C50.6019 78.4678 50.5244 78.5236 50.4373 78.5548L49.1422 75.4159C48.7017 75.5739 48.305 75.8556 48.0066 76.2509L50.6582 78.3932ZM50.0522 79.7162C50.0814 79.3865 50.2424 78.9441 50.6582 78.3932L48.0066 76.2509C47.3772 77.0848 46.8939 78.0618 46.7956 79.1682L50.0522 79.7162ZM50.1848 80.3446C50.0888 80.1836 50.0285 79.9823 50.0522 79.7162L46.7956 79.1682C46.7091 80.1422 46.936 81.083 47.4214 81.8976L50.1848 80.3446ZM47.2676 81.5693C47.6262 82.5903 48.2982 83.5823 49.3389 84.3024L51.035 81.606C50.701 81.3748 50.4725 81.0545 50.3385 80.6729L47.2676 81.5693ZM49.3389 84.3024C51.2249 85.6075 53.5275 85.5191 55.7094 84.6229L54.2876 81.5327C52.6352 82.2114 51.6022 81.9984 51.035 81.606L49.3389 84.3024ZM56.4784 82.4904L56.1671 81.7947L53.2073 82.9696L53.5186 83.6652L56.4784 82.4904ZM54.1637 80.6092C54.0702 80.7293 53.9467 80.8371 53.788 80.9305L55.5864 83.8338C56.0256 83.5753 56.4416 83.2323 56.7889 82.7859L54.1637 80.6092ZM54.3671 80.0486C54.3576 80.2634 54.2892 80.4478 54.1637 80.6092L56.7889 82.7859C57.2942 82.1365 57.5942 81.3374 57.6334 80.4505L54.3671 80.0486ZM55.5411 81.8015C55.6378 81.8377 55.7347 81.8718 55.8317 81.9038L56.6206 78.7543C56.5679 78.737 56.5142 78.7181 56.4594 78.6976L55.5411 81.8015ZM58.0167 80.9497C57.9108 80.8012 57.8592 80.6464 57.8608 80.472L54.5914 80.1861C54.5826 81.131 54.8919 82.0171 55.4183 82.7556L58.0167 80.9497ZM60.0697 81.8783C59.0975 81.7651 58.3218 81.3778 58.0167 80.9497L55.4183 82.7556C56.6114 84.4293 58.622 85.0208 59.9453 85.1749L60.0697 81.8783ZM62.2829 81.4053C61.8837 81.7984 61.0282 81.9899 60.0697 81.8783L59.9453 85.1749C61.2825 85.3306 63.2989 85.2023 64.6504 83.8718L62.2829 81.4053ZM62.5314 80.7256C62.5525 81.0089 62.4648 81.2263 62.2829 81.4053L64.6504 83.8718C65.4312 83.1031 65.8867 82.0086 65.7916 80.7299L62.5314 80.7256ZM61.9248 79.3756C62.3561 79.9805 62.5089 80.4223 62.5314 80.7256L65.7916 80.7299C65.7045 79.5576 65.1758 78.4853 64.5232 77.5697L61.9248 79.3756ZM61.0718 77.3567C61.1178 77.9745 61.408 78.6505 61.9248 79.3756L64.5232 77.5698C64.3833 77.3735 64.3275 77.2575 64.3105 77.2172C64.2922 77.174 64.3221 77.2274 64.3321 77.361L61.0718 77.3567ZM61.6149 75.8437C61.4907 75.9659 61.306 76.1778 61.1851 76.5008C61.0652 76.8214 61.0546 77.1254 61.0718 77.3567L64.3321 77.361C64.3388 77.4513 64.3405 77.6499 64.2535 77.8825C64.1655 78.1175 64.0344 78.2588 63.9823 78.3101L61.6149 75.8437ZM64.6569 75.1006C64.0405 75.0289 63.4728 75.0582 62.9857 75.164C62.5457 75.2597 62.012 75.4527 61.6149 75.8437L63.9823 78.3101C63.9289 78.3627 63.8841 78.3945 63.8593 78.4107C63.8333 78.4275 63.8172 78.435 63.8148 78.4361C63.8113 78.4377 63.8382 78.4254 63.9015 78.4116C64.028 78.3841 64.2426 78.3635 64.5325 78.3972L64.6569 75.1006ZM67.6197 76.5841C67.2582 76.077 66.733 75.7518 66.308 75.554C65.8332 75.333 65.2731 75.1724 64.6569 75.1006L64.5325 78.3972C64.8228 78.431 65.0265 78.5005 65.1385 78.5526C65.1946 78.5787 65.2129 78.5936 65.2018 78.5854C65.1999 78.584 65.118 78.5256 65.0213 78.3899L67.6197 76.5841ZM67.9786 78.2518C68.0245 78.0343 68.0561 77.7294 67.9773 77.3742C67.8968 77.0112 67.7337 76.7441 67.6197 76.5841L65.0213 78.3899C64.969 78.3165 64.8494 78.1312 64.7898 77.8624C64.732 77.6015 64.7618 77.4034 64.7789 77.3222L67.9786 78.2518ZM66.9025 79.9964C67.4932 79.4149 67.8558 78.834 67.9786 78.2518L64.7789 77.3222C64.8049 77.1992 64.8381 77.1621 64.8087 77.2097C64.7811 77.2543 64.7046 77.363 64.5351 77.53L66.9025 79.9964ZM66.1001 81.232C66.1653 80.923 66.3854 80.5055 66.9025 79.9964L64.5351 77.53C63.7857 78.2677 63.1365 79.1836 62.9004 80.3024L66.1001 81.232ZM66.2335 81.9065C66.1045 81.7256 66.0404 81.5151 66.1001 81.232L62.9004 80.3024C62.6413 81.5307 62.9403 82.7376 63.6351 83.7124L66.2335 81.9065ZM68.2866 82.8351C67.3143 82.7219 66.5386 82.3346 66.2335 81.9065L63.6351 83.7124C64.8283 85.3862 66.8389 85.9776 68.1622 86.1317L68.2866 82.8351ZM70.4998 82.3621C70.1005 82.7552 69.245 82.9467 68.2866 82.8351L68.1622 86.1317C69.4993 86.2874 71.5158 86.1591 72.8672 84.8286L70.4998 82.3621ZM70.7483 81.6824C70.7693 81.9657 70.6816 82.1831 70.4998 82.3621L72.8672 84.8286C73.648 84.0599 74.1035 82.9655 74.0085 81.6867L70.7483 81.6824ZM70.1417 80.3324C70.5729 80.9374 70.7257 81.3791 70.7483 81.6824L74.0085 81.6867C73.9213 80.5144 73.3927 79.4421 72.74 78.5266L70.1417 80.3324ZM69.2887 78.3135C69.3346 78.9313 69.6248 79.6073 70.1417 80.3324L72.74 78.5266C72.6001 78.3303 72.5444 78.2143 72.5273 78.174C72.509 78.1309 72.539 78.1842 72.5489 78.3179L69.2887 78.3135ZM69.8318 76.8005C69.7075 76.9228 69.5228 77.1346 69.402 77.4576C69.282 77.7782 69.2715 78.0823 69.2887 78.3135L72.5489 78.3178C72.5556 78.4081 72.5574 78.6067 72.4704 78.8393C72.3824 79.0743 72.2513 79.2156 72.1992 79.2669L69.8318 76.8005ZM72.8738 76.0575C72.2573 75.9857 71.6897 76.015 71.2025 76.1209C70.7626 76.2165 70.2288 76.4096 69.8318 76.8005L72.1992 79.2669C72.1458 79.3195 72.101 79.3513 72.0761 79.3675C72.0502 79.3843 72.0341 79.3918 72.0316 79.3929C72.0281 79.3945 72.0551 79.3822 72.1184 79.3684C72.2448 79.3409 72.4594 79.3203 72.7494 79.354L72.8738 76.0575ZM75.8366 77.5409C75.4751 77.0338 74.9499 76.7087 74.5248 76.5108C74.0501 76.2898 73.49 76.1292 72.8738 76.0575L72.7494 79.354C73.0396 79.3878 73.2434 79.4573 73.3553 79.5094C73.4115 79.5356 73.4297 79.5504 73.4186 79.5422C73.4167 79.5408 73.3349 79.4824 73.2382 79.3467L75.8366 77.5409ZM76.1955 79.2086C76.2414 78.9911 76.273 78.6862 76.1942 78.331C76.1137 77.968 75.9506 77.7009 75.8365 77.5409L73.2382 79.3468C73.1859 79.2733 73.0663 79.088 73.0067 78.8193C72.9488 78.5583 72.9787 78.3602 72.9958 78.2791L76.1955 79.2086ZM75.1194 80.9532C75.7101 80.3717 76.0726 79.7909 76.1955 79.2086L72.9958 78.2791C73.0218 78.156 73.0549 78.119 73.0255 78.1665C72.998 78.2111 72.9215 78.3199 72.752 78.4868L75.1194 80.9532ZM74.317 82.1888C74.3822 81.8798 74.6023 81.4623 75.1194 80.9532L72.752 78.4868C72.0026 79.2245 71.3534 80.1404 71.1173 81.2592L74.317 82.1888ZM74.4504 82.8634C74.3214 82.6824 74.2572 82.4719 74.317 82.1888L71.1173 81.2592C70.8581 82.4875 71.1571 83.6944 71.852 84.6692L74.4504 82.8634ZM76.5034 83.792C75.5312 83.6787 74.7555 83.2914 74.4504 82.8634L71.852 84.6692C73.0451 86.343 75.0557 86.9344 76.379 87.0885L76.5034 83.792ZM78.7166 83.319C78.3174 83.712 77.4619 83.9036 76.5034 83.792L76.379 87.0885C77.7162 87.2442 79.7326 87.1159 81.0841 85.7854L78.7166 83.319ZM78.9651 82.6392C78.9862 82.9225 78.8985 83.1399 78.7166 83.319L81.0841 85.7854C81.8649 85.0167 82.3204 83.9223 82.2253 82.6436L78.9651 82.6392ZM78.9487 82.5092C78.9567 82.5549 78.9621 82.5981 78.9651 82.6392L82.2253 82.6436C82.2135 82.4846 82.1935 82.3272 82.1661 82.1716L78.9487 82.5092ZM80.9246 80.7163C80.824 80.7135 80.7286 80.706 80.6384 80.6944L80.4764 83.9864C80.678 84.0122 80.8809 84.0277 81.0846 84.0335L80.9246 80.7163ZM82.5049 83.1881C82.5166 83.139 82.5314 83.0879 82.55 83.0349L79.4593 81.715C79.4061 81.8666 79.3603 82.0221 79.3225 82.1813L82.5049 83.1881ZM82.6119 83.9703C82.4877 83.7603 82.4288 83.5091 82.5049 83.1881L79.3225 82.1813C79.0477 83.3404 79.2494 84.5104 79.8424 85.513L82.6119 83.9703ZM84.528 85.0224C83.6055 84.8694 82.8879 84.437 82.6119 83.9703L79.8424 85.513C80.9061 87.3115 82.8641 88.0676 84.245 88.2966L84.528 85.0224ZM85.8956 84.9978C85.4676 85.0973 84.9796 85.0973 84.528 85.0224L84.245 88.2966C85.0429 88.4289 85.9608 88.4434 86.8545 88.2357L85.8956 84.9978ZM84.3082 80.519C84.3513 80.4049 84.3867 80.2868 84.4124 80.1654L81.2126 79.2359C81.2234 79.1849 81.2353 79.1492 81.2429 79.1292L84.3082 80.519ZM84.4123 80.1655C84.4582 79.948 84.4898 79.6431 84.411 79.2879C84.3305 78.9248 84.1674 78.6577 84.0534 78.4977L81.4551 80.3036C81.4027 80.2302 81.2831 80.0448 81.2235 79.7761C81.1657 79.5151 81.1955 79.317 81.2127 79.2358L84.4123 80.1655ZM84.0534 78.4977C83.692 77.9907 83.1667 77.6655 82.7417 77.4676C82.2669 77.2466 81.7068 77.086 81.0906 77.0143L80.9662 80.3109C81.2565 80.3447 81.4602 80.4141 81.5722 80.4663C81.6283 80.4924 81.6466 80.5072 81.6355 80.499C81.6336 80.4976 81.5517 80.4392 81.455 80.3036L84.0534 78.4977ZM81.0907 77.0143C80.1002 76.899 79.1578 77.0387 78.4931 77.4226L80.2706 80.3381C80.2261 80.3638 80.26 80.3349 80.4038 80.3126C80.5355 80.2922 80.7258 80.2829 80.9662 80.3109L81.0907 77.0143ZM77.7609 78.9689C77.8726 79.8401 78.3211 80.7296 79.1393 81.2958L80.8354 78.5994C81.0045 78.7163 81.0083 78.8346 81.0028 78.7917L77.7609 78.9689ZM79.1393 81.2958C80.182 82.0174 81.6584 82.1201 83.4844 81.3701L82.0626 78.2798C80.7893 78.8028 80.5748 78.419 80.8354 78.5994L79.1393 81.2958ZM83.4835 81.3704C83.4838 81.3703 83.4842 81.3701 83.4845 81.37C83.4849 81.3699 83.4852 81.3697 83.4855 81.3696L82.0655 78.2786C82.0652 78.2788 82.0649 78.2789 82.0645 78.279C82.0642 78.2792 82.0638 78.2793 82.0635 78.2795L83.4835 81.3704ZM56.4401 74.1438C55.8729 74.0778 55.3483 74.0974 54.8904 74.1827L55.7162 77.4485C55.8469 77.4241 56.0502 77.4095 56.3157 77.4404L56.4401 74.1438ZM59.4029 75.6272C59.0414 75.1202 58.5162 74.795 58.0911 74.5971C57.6164 74.3761 57.0563 74.2156 56.4401 74.1438L56.3157 77.4404C56.606 77.4742 56.8097 77.5437 56.9216 77.5958C56.9778 77.6219 56.9961 77.6368 56.9849 77.6286C56.983 77.6272 56.9012 77.5688 56.8045 77.4331L59.4029 75.6272ZM59.7618 77.295C59.8077 77.0775 59.8393 76.7726 59.7605 76.4174C59.68 76.0544 59.5169 75.7873 59.4029 75.6273L56.8045 77.4331C56.7522 77.3597 56.6326 77.1744 56.573 76.9056C56.5151 76.6447 56.545 76.4465 56.5621 76.3654L59.7618 77.295ZM58.6857 79.0396C59.2764 78.4581 59.6389 77.8772 59.7618 77.295L56.5621 76.3654C56.5881 76.2424 56.6212 76.2053 56.5918 76.2529C56.5643 76.2974 56.4878 76.4062 56.3183 76.5731L58.6857 79.0396ZM58.313 79.4518C58.4176 79.3193 58.5414 79.1817 58.6857 79.0396L56.3183 76.5731C56.0981 76.7899 55.8903 77.0184 55.7002 77.2592L58.313 79.4518ZM57.2745 76.7444C57.0909 76.6992 56.7386 76.5668 56.1966 76.1918L54.5005 78.8883C55.3085 79.4474 56.0521 79.7977 56.7387 79.9666L57.2745 76.7444ZM56.1966 76.1918C55.9753 76.0387 55.7533 75.8955 55.5307 75.7627L54.0397 78.5911C54.1892 78.6803 54.3429 78.7792 54.5005 78.8883L56.1966 76.1918ZM52.855 76.3999C52.8915 76.8907 53.0824 77.412 53.4014 77.95L56.1689 76.4038C56.1082 76.3015 56.0894 76.2503 56.0884 76.2473C56.088 76.2461 56.0925 76.2586 56.0982 76.2841C56.1038 76.3091 56.1112 76.3497 56.1152 76.4042L52.855 76.3999ZM53.398 74.8869C53.2738 75.0092 53.0892 75.221 52.9683 75.544C52.8483 75.8645 52.8378 76.1686 52.855 76.3998L56.1152 76.4042C56.1219 76.4945 56.1237 76.6931 56.0367 76.9256C55.9487 77.1607 55.8176 77.302 55.7655 77.3533L53.398 74.8869ZM53.7972 74.5789C53.669 74.6567 53.5297 74.7572 53.398 74.8869L55.7655 77.3533C55.7027 77.4151 55.6513 77.4488 55.6284 77.4626L53.7972 74.5789ZM55.2912 77.6132C55.523 77.5425 55.7554 77.4617 55.9883 77.371L54.6183 74.2601C54.4518 74.3249 54.2905 74.3808 54.1345 74.4284L55.2912 77.6132ZM56.7518 80.6999C56.8251 81.0944 56.9994 81.3846 57.1233 81.5584L59.7217 79.7526C59.7798 79.8341 59.9089 80.0373 59.9632 80.3293L56.7518 80.6999ZM57.1233 81.5584C57.4848 82.0655 58.01 82.3907 58.4351 82.5885C58.9098 82.8096 59.4699 82.9701 60.0861 83.0419L60.2105 79.7453C59.9202 79.7115 59.7165 79.642 59.6045 79.5899C59.5484 79.5638 59.5301 79.5489 59.5413 79.5571C59.5431 79.5585 59.625 79.6169 59.7217 79.7526L57.1233 81.5584ZM60.0861 83.0419C60.7026 83.1136 61.2702 83.0843 61.7573 82.9784C62.1973 82.8828 62.731 82.6898 63.1281 82.2988L60.7607 79.8324C60.8141 79.7798 60.8589 79.748 60.8837 79.7318C60.9097 79.715 60.9258 79.7075 60.9282 79.7064C60.9318 79.7048 60.9048 79.7171 60.8415 79.7309C60.715 79.7584 60.5004 79.779 60.2105 79.7453L60.0861 83.0419ZM63.1281 82.2988C63.2523 82.1765 63.437 81.9647 63.5579 81.6417C63.6779 81.3211 63.6884 81.0171 63.6712 80.7858L60.411 80.7815C60.4043 80.6912 60.4025 80.4926 60.4895 80.26C60.5775 80.025 60.7086 79.8837 60.7607 79.8324L63.1281 82.2988ZM63.6712 80.7858C63.6252 80.168 63.3351 79.492 62.8182 78.7669L60.2198 80.5728C60.3597 80.769 60.4155 80.885 60.4326 80.9253C60.4509 80.9685 60.4209 80.9151 60.411 80.7815L63.6712 80.7858ZM62.8182 78.7669C62.569 78.4174 62.4084 78.1156 62.3152 77.8616L59.2613 78.8054C59.4927 79.4356 59.8308 80.027 60.2198 80.5727L62.8182 78.7669ZM59.6818 81.8763C61.0748 81.3042 61.9349 80.174 62.3392 78.9771L59.2373 77.6898C59.0662 78.1963 58.7363 78.5905 58.2601 78.7861L59.6818 81.8763ZM58.7833 82.145C59.0926 82.0847 59.3928 81.9951 59.6818 81.8763L58.2601 78.7861C58.1549 78.8293 58.0456 78.862 57.9317 78.8842L58.7833 82.145ZM52.1999 80.044C52.1256 80.0746 52.1048 80.06 52.1695 80.0658C52.2378 80.0719 52.4166 80.1029 52.7251 80.2543L53.9605 77.2872C52.7006 76.6687 51.61 76.6121 50.7782 76.9538L52.1999 80.044ZM52.3328 79.9974C52.3365 79.9379 52.351 79.9232 52.3412 79.9388C52.3315 79.9541 52.2919 80.0062 52.1999 80.044L50.7782 76.9538C49.7107 77.3922 49.1387 78.4428 49.0698 79.533L52.3328 79.9974ZM52.3343 80.0514C52.3333 80.0457 52.3308 80.0277 52.3328 79.9974L49.0698 79.533C49.0516 79.822 49.0674 80.113 49.1188 80.3997L52.3343 80.0514ZM49.6357 81.3727C50.3009 82.0277 51.3046 82.3714 52.2895 82.4217L52.2028 79.1075C52.0064 79.0974 51.865 79.0597 51.7837 79.0286C51.7434 79.0132 51.7255 79.0024 51.727 79.0033C51.7282 79.0041 51.7367 79.0092 51.7511 79.0202C51.7652 79.0309 51.7884 79.0498 51.8174 79.0784L49.6357 81.3727ZM52.2895 82.4217C52.8714 82.4514 53.4032 82.3797 53.8582 82.2286C54.2769 82.0895 54.7569 81.84 55.0923 81.4089L52.4671 79.2322C52.5123 79.174 52.5534 79.1347 52.5811 79.1108C52.6095 79.0863 52.6313 79.0718 52.6427 79.0646C52.6644 79.0511 52.6629 79.0556 52.6304 79.0664C52.5657 79.0879 52.4237 79.1188 52.2028 79.1075L52.2895 82.4217ZM55.0923 81.4089C55.4101 81.0004 55.5701 80.4679 55.4917 79.8316L52.2478 79.9922C52.2395 79.9254 52.2333 79.7886 52.2784 79.6183C52.3255 79.4408 52.406 79.3107 52.4671 79.2322L55.0923 81.4089ZM55.4917 79.8316C55.4177 79.2312 55.1371 78.58 54.6547 77.8858L52.031 79.6557C52.1591 79.84 52.2195 79.9607 52.2452 80.0203C52.2713 80.081 52.2572 80.0686 52.2478 79.9922L55.4917 79.8316Z" fill="white" mask="url(#path-1-outside-1_1167_4202)"/>
</g>
<path d="M107.432 81.319C104.76 81.319 102.418 80.6423 100.405 79.2889C98.3924 77.9355 96.9348 76.0962 96.0326 73.7711L99.312 72.2095C100.11 73.9099 101.221 75.2634 102.643 76.2697C104.101 77.2761 105.697 77.7793 107.432 77.7793C109.098 77.7793 110.504 77.3802 111.649 76.5821C112.794 75.7492 113.367 74.6734 113.367 73.3547C113.367 72.383 113.089 71.6196 112.534 71.0643C111.978 70.4744 111.336 70.0232 110.608 69.7109C109.879 69.3986 109.237 69.173 108.682 69.0342L104.674 67.889C102.106 67.1603 100.249 66.1365 99.1038 64.8178C97.9586 63.4991 97.386 61.9722 97.386 60.237C97.386 58.606 97.8024 57.1832 98.6353 55.9686C99.4681 54.754 100.596 53.817 102.019 53.1577C103.442 52.4983 105.021 52.1687 106.756 52.1687C109.116 52.1687 111.25 52.7933 113.158 54.0426C115.102 55.2572 116.473 56.9576 117.271 59.1439L113.939 60.7055C113.245 59.1439 112.239 57.9293 110.92 57.0617C109.636 56.1595 108.196 55.7083 106.6 55.7083C105.038 55.7083 103.789 56.1074 102.852 56.9056C101.915 57.7037 101.446 58.7101 101.446 59.9247C101.446 60.8617 101.689 61.6078 102.175 62.1631C102.661 62.7183 103.216 63.1347 103.841 63.4124C104.5 63.69 105.073 63.8982 105.558 64.037L110.191 65.3904C112.447 66.0498 114.199 67.0735 115.449 68.4616C116.733 69.8497 117.375 71.4807 117.375 73.3547C117.375 74.8816 116.941 76.2524 116.073 77.467C115.241 78.6816 114.078 79.6359 112.586 80.33C111.094 80.9893 109.376 81.319 107.432 81.319Z" fill="#936572"/>
<path d="M140.1 81.0011C137.611 81.7595 135.171 81.8495 132.782 81.2713C130.416 80.6497 128.329 79.4536 126.52 77.6829C124.711 75.9122 123.397 73.6824 122.578 70.9934C121.758 68.3045 121.6 65.759 122.102 63.357C122.593 60.9218 123.62 58.8134 125.181 57.0318C126.776 55.2401 128.785 53.9752 131.208 53.237C133.133 52.6505 134.954 52.495 136.671 52.7702C138.41 53.0022 139.998 53.5706 141.434 54.4753C142.861 55.3468 144.089 56.4601 145.118 57.8153C146.138 59.1372 146.89 60.5949 147.375 62.1884C147.476 62.5203 147.576 62.9072 147.674 63.3488C147.762 63.7573 147.839 64.1874 147.904 64.6392L125.347 71.5103L124.285 68.0246L144.701 61.8058L143.364 63.8457C143.106 61.9288 142.395 60.3679 141.23 59.1629C140.088 57.9146 138.726 57.0777 137.146 56.6523C135.555 56.1936 133.93 56.2171 132.27 56.7227C130.61 57.2283 129.198 58.1301 128.033 59.428C126.902 60.7158 126.175 62.2612 125.854 64.0641C125.522 65.8339 125.763 67.7558 126.576 69.8298C127.057 72.005 127.956 73.7629 129.271 75.1035C130.609 76.4009 132.14 77.2586 133.864 77.6768C135.621 78.0849 137.346 78.0311 139.039 77.5154C140.997 76.9188 142.499 75.9535 143.544 74.6195C144.588 73.2855 145.313 71.795 145.719 70.1479L149.421 70.8702C149.254 72.2271 148.78 73.5869 147.998 74.9497C147.205 76.2793 146.142 77.4921 144.807 78.588C143.495 79.6405 141.926 80.4449 140.1 81.0011Z" fill="#936572"/>
<path d="M9.224 81V45.24H12.584L26.024 64.728H24.152L37.544 45.24H40.904V81H37.064V50.424L38.312 50.904L25.16 69.96H24.968L11.864 50.904L13.064 50.424V81H9.224Z" fill="#936572"/>
<defs>
<filter id="filter0_dii_1167_4202" x="46.6013" y="44.8507" width="47.0574" height="44.5337" filterUnits="userSpaceOnUse" color-interpolation-filters="sRGB">
<feFlood flood-opacity="0" result="BackgroundImageFix"/>
<feColorMatrix in="SourceAlpha" type="matrix" values="0 0 0 0 0 0 0 0 0 0 0 0 0 0 0 0 0 0 127 0" result="hardAlpha"/>
<feOffset dx="0.397562" dy="0.416494"/>
<feGaussianBlur stdDeviation="0.286813"/>
<feComposite in2="hardAlpha" operator="out"/>
<feColorMatrix type="matrix" values="0 0 0 0 0 0 0 0 0 0 0 0 0 0 0 0 0 0 0.25 0"/>
<feBlend mode="normal" in2="BackgroundImageFix" result="effect1_dropShadow_1167_4202"/>
<feBlend mode="normal" in="SourceGraphic" in2="effect1_dropShadow_1167_4202" result="shape"/>
<feColorMatrix in="SourceAlpha" type="matrix" values="0 0 0 0 0 0 0 0 0 0 0 0 0 0 0 0 0 0 127 0" result="hardAlpha"/>
<feOffset dx="-0.0567946" dy="-1.93102"/>
<feGaussianBlur stdDeviation="0.219606"/>
<feComposite in2="hardAlpha" operator="arithmetic" k2="-1" k3="1"/>
<feColorMatrix type="matrix" values="0 0 0 0 0 0 0 0 0 0 0 0 0 0 0 0 0 0 0.25 0"/>
<feBlend mode="normal" in2="shape" result="effect2_innerShadow_1167_4202"/>
<feColorMatrix in="SourceAlpha" type="matrix" values="0 0 0 0 0 0 0 0 0 0 0 0 0 0 0 0 0 0 127 0" result="hardAlpha"/>
<feOffset dy="1.70384"/>
<feGaussianBlur stdDeviation="0.460036"/>
<feComposite in2="hardAlpha" operator="arithmetic" k2="-1" k3="1"/>
<feColorMatrix type="matrix" values="0 0 0 0 1 0 0 0 0 1 0 0 0 0 1 0 0 0 0.4 0"/>
<feBlend mode="normal" in2="effect2_innerShadow_1167_4202" result="effect3_innerShadow_1167_4202"/>
</filter>
<linearGradient id="paint0_linear_1167_4202" x1="70.8097" y1="47.7119" x2="65.6938" y2="85.466" gradientUnits="userSpaceOnUse">
<stop offset="0.515" stop-color="#3888FF"/>
<stop offset="1" stop-color="#003CD5"/>
</linearGradient>
</defs>
</svg>
