<svg width="154" height="74" viewBox="0 0 154 74" fill="none" xmlns="http://www.w3.org/2000/svg">
<g filter="url(#filter0_dii_1051_484)">
<mask id="path-1-outside-1_1051_484" maskUnits="userSpaceOnUse" x="41.0499" y="20.8381" width="47.406" height="44.6788" fill="black">
<rect fill="white" x="41.0499" y="20.8381" width="47.406" height="44.6788"/>
<path fill-rule="evenodd" clip-rule="evenodd" d="M80.4981 61.0022C80.1878 61.1549 79.4745 61.2668 78.2007 60.3342L78.0756 60.5052C78.0021 60.4246 77.9441 60.3414 77.9028 60.2581C77.7726 59.9957 77.6567 59.408 78.4948 58.3877C79.8238 57.7669 80.4736 57.9928 80.7441 58.1908C81.0772 58.4348 81.3145 58.9723 81.255 59.652C81.1956 60.3316 80.8686 60.8198 80.4981 61.0022ZM79.8841 55.8448C80.6865 55.8188 81.4057 56.0239 82.0078 56.4647C82.2023 56.6071 82.374 56.7667 82.5244 56.9394C82.7531 57.0501 82.9435 57.2422 83.0476 57.4958C83.8274 59.395 83.7217 61.0326 82.7151 62.1422C81.7718 63.1821 80.3158 63.4319 79.1123 63.2577C77.9125 63.0841 76.5952 62.4359 75.9864 61.2088C75.6642 60.5594 75.5896 59.8578 75.7478 59.1374C75.6572 59.137 75.5677 59.1335 75.4794 59.127C75.4882 59.8453 75.2628 60.5008 74.7791 61.052C73.8907 62.0641 72.4298 62.3354 71.2406 62.2313C70.0513 62.1273 68.6597 61.6064 67.9606 60.4554C67.1666 59.1482 67.5581 57.5887 68.8546 56.1117C69.8415 54.9872 69.6324 54.4617 69.5279 54.2897C69.3285 53.9615 68.7408 53.6088 67.8899 53.5344C67.039 53.4599 66.3989 53.7052 66.1456 53.9938C66.0128 54.145 65.7156 54.6263 66.4923 55.905C67.5126 57.5847 67.6274 59.1885 66.6184 60.338C65.7301 61.3501 64.2692 61.6214 63.0799 61.5174C61.8907 61.4133 60.499 60.8925 59.7999 59.7415C59.0059 58.4342 59.3975 56.8748 60.6939 55.3977C61.6809 54.2733 61.4717 53.7478 61.3673 53.5757C61.1679 53.2475 60.5801 52.8949 59.7292 52.8204C58.8783 52.746 58.2383 52.9912 57.985 53.2798C57.8522 53.4311 57.555 53.9123 58.3317 55.1911C59.3519 56.8708 59.4667 58.4745 58.4578 59.624C57.5694 60.6362 56.1085 60.9074 54.9193 60.8034C53.73 60.6993 52.3384 60.1785 51.6393 59.0275C51.2703 58.42 51.1574 57.758 51.2723 57.0752C51.1954 57.0618 51.1181 57.0461 51.0405 57.0281C51.0693 57.7261 50.8961 58.3706 50.5105 58.9332C49.7443 60.0509 48.3771 60.472 47.2098 60.458C47.0471 60.456 46.8807 60.4455 46.7128 60.4258C46.324 60.3967 45.9579 60.3085 45.6188 60.1609C44.9653 59.9117 44.3641 59.4952 43.9535 58.872C43.362 57.9744 43.3131 56.8909 43.7576 55.7399C44.0017 54.7827 44.585 53.8483 45.5815 53.3578C46.1754 53.0654 46.8278 52.9718 47.5161 53.0695C47.516 53.0529 47.5159 53.0363 47.516 53.0198C46.823 52.9957 46.1982 52.7902 45.6653 52.4C44.5497 51.5833 44.1842 50.2003 44.2869 49.0263C44.3896 47.8523 44.9897 46.5538 46.2302 45.9432C47.5308 45.303 49.1123 45.6156 50.7361 46.8044C52.0098 47.737 52.7231 47.6251 53.0335 47.4724C53.4039 47.29 53.7309 46.8018 53.7904 46.1221C53.8499 45.4425 53.6126 44.9049 53.2794 44.661C53.0003 44.4567 52.3173 44.2227 50.9009 44.9199C49.0954 45.8086 47.4837 45.8419 46.314 44.9855C45.1983 44.1688 44.8329 42.7858 44.9356 41.6118C45.0383 40.4378 45.6384 39.1393 46.8789 38.5287C48.1795 37.8885 49.761 38.2011 51.3847 39.3899C52.6585 40.3224 53.3718 40.2106 53.6821 40.0578C54.0526 39.8755 54.3796 39.3872 54.4391 38.7076C54.4985 38.028 54.2613 37.4904 53.9281 37.2465C53.649 37.0422 52.966 36.8081 51.5496 37.5053C49.7441 38.3941 48.1323 38.4273 46.9626 37.571C45.847 36.7542 45.4815 35.3713 45.5842 34.1973C45.687 33.0233 46.2871 31.7248 47.5275 31.1142C48.8282 30.474 50.4097 30.7866 52.0334 31.9753C53.3072 32.9079 54.0205 32.796 54.3308 32.6433C54.7013 32.4609 55.0283 31.9727 55.0878 31.2931C55.1472 30.6134 54.91 30.0759 54.5768 29.8319C54.2977 29.6276 53.6147 29.3936 52.1983 30.0908C50.3928 30.9796 48.781 31.0128 47.6113 30.1565C46.4957 29.3397 46.1302 27.9567 46.2329 26.7827C46.3356 25.6087 46.9357 24.3103 48.1762 23.6996C49.4769 23.0594 51.0583 23.372 52.6821 24.5608L51.4184 26.2869C50.1446 25.3544 49.4313 25.4662 49.121 25.619C48.7505 25.8013 48.4235 26.2896 48.3641 26.9692C48.3046 27.6488 48.5419 28.1864 48.875 28.4303C49.1541 28.6346 49.8372 28.8687 51.2535 28.1715C53.0591 27.2827 54.6708 27.2495 55.8405 28.1058C56.9561 28.9226 57.3216 30.3055 57.2189 31.4795C57.1162 32.6535 56.5161 33.952 55.2756 34.5626C53.975 35.2029 52.3935 34.8902 50.7697 33.7015C49.4959 32.7689 48.7826 32.8808 48.4723 33.0335C48.1018 33.2159 47.7748 33.7041 47.7154 34.3837C47.6559 35.0634 47.8932 35.6009 48.2263 35.8449C48.5054 36.0492 49.1885 36.2832 50.6048 35.586C52.4104 34.6973 54.0221 34.664 55.1918 35.5204C56.3074 36.3371 56.6729 37.7201 56.5702 38.8941C56.4675 40.0681 55.8674 41.3666 54.6269 41.9772C53.3263 42.6174 51.7448 42.3048 50.121 41.116C48.8472 40.1834 48.1339 40.2953 47.8236 40.448C47.4532 40.6304 47.1261 41.1186 47.0667 41.7983C47.0072 42.4779 47.2445 43.0155 47.5777 43.2594C47.8567 43.4637 48.5398 43.6977 49.9562 43.0005C51.7617 42.1118 53.3734 42.0785 54.5431 42.9349C55.6587 43.7516 56.0242 45.1346 55.9215 46.3086C55.8188 47.4826 55.2187 48.7811 53.9782 49.3917C52.6776 50.0319 51.0961 49.7193 49.4723 48.5305C48.1986 47.598 47.4853 47.7098 47.1749 47.8626C46.8045 48.0449 46.4775 48.5332 46.418 49.2128C46.3585 49.8924 46.5958 50.43 46.929 50.6739C47.1731 50.8526 47.7262 51.0541 48.8088 50.6352C49.1729 50.3893 49.5827 50.2188 50.0062 50.11C51.5275 49.5329 52.8779 49.6052 53.8944 50.3494C54.3252 50.6648 54.6441 51.0646 54.8675 51.5042C54.9269 51.5831 54.9829 51.6654 55.035 51.7512C55.5911 52.6667 55.5657 53.7058 55.0553 54.7537C54.8243 55.4299 54.4158 56.0696 53.8028 56.5193C53.2088 57.3552 53.3774 57.7682 53.4677 57.9169C53.6671 58.2452 54.2548 58.5978 55.1057 58.6723C55.9566 58.7467 56.5967 58.5015 56.85 58.2129C56.9828 58.0616 57.28 57.5804 56.5033 56.3016C55.483 54.6219 55.3682 53.0181 56.3772 51.8686C57.2655 50.8565 58.7264 50.5853 59.9157 50.6893C61.105 50.7933 62.4966 51.3142 63.1957 52.4652C63.9897 53.7724 63.5981 55.3319 62.3017 56.8089C61.3147 57.9334 61.5239 58.4589 61.6283 58.6309C61.8277 58.9591 62.4155 59.3118 63.2664 59.3862C64.1173 59.4607 64.7573 59.2154 65.0106 58.9268C65.1434 58.7756 65.4406 58.2943 64.6639 57.0156C63.6437 55.3359 63.5289 53.7321 64.5378 52.5826C65.4262 51.5705 66.8871 51.2992 68.0763 51.4033C69.2656 51.5073 70.6572 52.0281 71.3563 53.1791C72.1503 54.4864 71.7588 56.0458 70.4623 57.5229C69.4754 58.6473 69.6845 59.1729 69.789 59.3449C69.9884 59.6731 70.5761 60.0258 71.427 60.1002C72.2779 60.1746 72.918 59.9294 73.1713 59.6408C73.304 59.4895 73.6013 59.0083 72.8246 57.7295C71.8043 56.0498 71.6895 54.4461 72.6984 53.2966C72.9417 53.0194 73.228 52.7978 73.5398 52.6242C73.7701 52.4019 74.0373 52.2092 74.3435 52.0585C75.6441 51.4183 77.2256 51.7309 78.8494 52.9197C80.1232 53.8523 80.8365 53.7404 81.1468 53.5877C81.5173 53.4053 81.8443 52.9171 81.9037 52.2374C81.9632 51.5578 81.7259 51.0202 81.3928 50.7763C81.1137 50.572 80.4306 50.338 79.0143 51.0352C77.2087 51.9239 75.597 51.9572 74.4273 51.1008C73.3117 50.2841 72.9462 48.9011 73.0489 47.7271C73.1516 46.5531 73.7517 45.2546 74.9922 44.644C76.2928 44.0038 77.8743 44.3164 79.4981 45.5052C80.7719 46.4377 81.4852 46.3259 81.7955 46.1731C82.1659 45.9908 82.493 45.5025 82.5524 44.8229C82.6119 44.1433 82.3746 43.6057 82.0414 43.3618C81.7624 43.1575 81.0793 42.9234 79.6629 43.6206C77.8574 44.5094 76.2457 44.5426 75.076 43.6863C73.9604 42.8695 73.5949 41.4866 73.6976 40.3126C73.8003 39.1386 74.4004 37.8401 75.6409 37.2295C76.9415 36.5893 78.523 36.9019 80.1468 38.0906C81.4205 39.0232 82.1339 38.9113 82.4442 38.7586C82.8146 38.5762 83.1416 38.088 83.2011 37.4084C83.2606 36.7287 83.0233 36.1912 82.6901 35.9472C82.4111 35.7429 81.728 35.5089 80.3116 36.2061C78.5061 37.0948 76.8944 37.1281 75.7247 36.2717C74.6091 35.455 74.2436 34.072 74.3463 32.898C74.449 31.724 75.0491 30.4255 76.2896 29.8149C77.5902 29.1747 79.1717 29.4873 80.7954 30.6761C82.0692 31.6087 82.7825 31.4968 83.0929 31.3441C83.4633 31.1617 83.7903 30.6735 83.8498 29.9938C83.9093 29.3142 83.672 28.7766 83.3388 28.5327C83.0597 28.3284 82.3767 28.0944 80.9603 28.7916L80.0156 26.8722C81.8211 25.9835 83.4328 25.9502 84.6025 26.8066C85.7181 27.6233 86.0836 29.0063 85.9809 30.1803C85.8782 31.3543 85.2781 32.6528 84.0376 33.2634C82.737 33.9036 81.1555 33.591 79.5317 32.4022C78.2579 31.4697 77.5446 31.5815 77.2343 31.7343C76.8639 31.9166 76.5369 32.4049 76.4774 33.0845C76.4179 33.7641 76.6552 34.3017 76.9884 34.5456C77.2674 34.7499 77.9505 34.984 79.3669 34.2868C81.1724 33.398 82.7841 33.3648 83.9538 34.2211C85.0694 35.0379 85.4349 36.4208 85.3322 37.5948C85.2295 38.7688 84.6294 40.0673 83.3889 40.6779C82.0883 41.3181 80.5068 41.0055 78.8831 39.8168C77.6093 38.8842 76.896 38.9961 76.5856 39.1488C76.2152 39.3312 75.8882 39.8194 75.8287 40.499C75.7692 41.1787 76.0065 41.7162 76.3397 41.9602C76.6188 42.1645 77.3018 42.3985 78.7182 41.7013C80.5237 40.8126 82.1355 40.7793 83.3052 41.6357C84.4208 42.4524 84.7863 43.8354 84.6835 45.0094C84.5808 46.1834 83.9807 47.4818 82.7403 48.0925C81.4396 48.7327 79.8581 48.4201 78.2344 47.2313C76.9606 46.2987 76.2473 46.4106 75.937 46.5633C75.5665 46.7457 75.2395 47.2339 75.18 47.9136C75.1206 48.5932 75.3578 49.1308 75.691 49.3747C75.9701 49.579 76.6531 49.813 78.0695 49.1158C79.875 48.2271 81.4868 48.1938 82.6565 49.0502C83.7721 49.8669 84.1376 51.2499 84.0349 52.4239C83.9321 53.5979 83.332 54.8964 82.0916 55.507C81.4238 55.8357 80.6821 55.9132 79.8986 55.75C79.8942 55.7815 79.8894 55.8131 79.8841 55.8448ZM74.8513 54.3752C75.1645 54.2651 75.5745 54.2067 76.0505 54.2483C76.9014 54.3228 77.4892 54.6754 77.6885 55.0037C77.7874 55.1665 77.9801 55.6461 77.1632 56.6506C75.9205 57.1984 75.3039 56.9807 75.0423 56.7892C74.7091 56.5453 74.4719 56.0077 74.5313 55.3281C74.5652 54.9415 74.6856 54.6168 74.8513 54.3752ZM49.8845 52.5048C49.8625 52.5249 49.8424 52.5453 49.8243 52.5659C49.7038 52.7032 49.4478 53.1124 49.9827 54.1435C50.0176 54.1682 50.0525 54.1934 50.0874 54.2189C51.3118 55.1153 52.0183 55.0467 52.3468 54.9044C52.4067 54.8307 52.4689 54.7571 52.5333 54.6838C52.7779 54.405 52.9491 54.1631 53.0666 53.9542C53.1029 53.825 53.1287 53.6854 53.1417 53.5367C53.1706 53.2066 53.1295 52.91 53.0414 52.6643C52.7616 52.4036 52.2493 52.166 51.5686 52.1065C51.2227 52.0762 50.9116 52.0988 50.6472 52.1556C50.5224 52.2069 50.3908 52.2662 50.2522 52.3344C50.1287 52.3952 50.0061 52.452 49.8845 52.5048ZM48.3775 55.6457C47.38 55.0407 46.7983 55.1432 46.5262 55.2771C46.4577 55.3109 46.3906 55.3551 46.3264 55.4091C46.2968 55.5021 46.2538 55.5926 46.1969 55.678C46.0227 55.9394 45.8955 56.1715 45.8046 56.377C45.7888 56.4572 45.7769 56.5407 45.7693 56.6273C45.7099 57.3069 45.9471 57.8445 46.2803 58.0885C46.3298 58.1247 46.3921 58.1619 46.4689 58.1947C46.5926 58.2364 46.7281 58.2693 46.8742 58.2908C47.2665 58.3244 47.8401 58.2326 48.6588 57.8296L48.6593 57.8306C48.6921 57.7958 48.7211 57.76 48.746 57.7236C48.9086 57.4864 49.116 56.8899 48.3775 55.6457Z"/>
</mask>
<path fill-rule="evenodd" clip-rule="evenodd" d="M80.4981 61.0022C80.1878 61.1549 79.4745 61.2668 78.2007 60.3342L78.0756 60.5052C78.0021 60.4246 77.9441 60.3414 77.9028 60.2581C77.7726 59.9957 77.6567 59.408 78.4948 58.3877C79.8238 57.7669 80.4736 57.9928 80.7441 58.1908C81.0772 58.4348 81.3145 58.9723 81.255 59.652C81.1956 60.3316 80.8686 60.8198 80.4981 61.0022ZM79.8841 55.8448C80.6865 55.8188 81.4057 56.0239 82.0078 56.4647C82.2023 56.6071 82.374 56.7667 82.5244 56.9394C82.7531 57.0501 82.9435 57.2422 83.0476 57.4958C83.8274 59.395 83.7217 61.0326 82.7151 62.1422C81.7718 63.1821 80.3158 63.4319 79.1123 63.2577C77.9125 63.0841 76.5952 62.4359 75.9864 61.2088C75.6642 60.5594 75.5896 59.8578 75.7478 59.1374C75.6572 59.137 75.5677 59.1335 75.4794 59.127C75.4882 59.8453 75.2628 60.5008 74.7791 61.052C73.8907 62.0641 72.4298 62.3354 71.2406 62.2313C70.0513 62.1273 68.6597 61.6064 67.9606 60.4554C67.1666 59.1482 67.5581 57.5887 68.8546 56.1117C69.8415 54.9872 69.6324 54.4617 69.5279 54.2897C69.3285 53.9615 68.7408 53.6088 67.8899 53.5344C67.039 53.4599 66.3989 53.7052 66.1456 53.9938C66.0128 54.145 65.7156 54.6263 66.4923 55.905C67.5126 57.5847 67.6274 59.1885 66.6184 60.338C65.7301 61.3501 64.2692 61.6214 63.0799 61.5174C61.8907 61.4133 60.499 60.8925 59.7999 59.7415C59.0059 58.4342 59.3975 56.8748 60.6939 55.3977C61.6809 54.2733 61.4717 53.7478 61.3673 53.5757C61.1679 53.2475 60.5801 52.8949 59.7292 52.8204C58.8783 52.746 58.2383 52.9912 57.985 53.2798C57.8522 53.4311 57.555 53.9123 58.3317 55.1911C59.3519 56.8708 59.4667 58.4745 58.4578 59.624C57.5694 60.6362 56.1085 60.9074 54.9193 60.8034C53.73 60.6993 52.3384 60.1785 51.6393 59.0275C51.2703 58.42 51.1574 57.758 51.2723 57.0752C51.1954 57.0618 51.1181 57.0461 51.0405 57.0281C51.0693 57.7261 50.8961 58.3706 50.5105 58.9332C49.7443 60.0509 48.3771 60.472 47.2098 60.458C47.0471 60.456 46.8807 60.4455 46.7128 60.4258C46.324 60.3967 45.9579 60.3085 45.6188 60.1609C44.9653 59.9117 44.3641 59.4952 43.9535 58.872C43.362 57.9744 43.3131 56.8909 43.7576 55.7399C44.0017 54.7827 44.585 53.8483 45.5815 53.3578C46.1754 53.0654 46.8278 52.9718 47.5161 53.0695C47.516 53.0529 47.5159 53.0363 47.516 53.0198C46.823 52.9957 46.1982 52.7902 45.6653 52.4C44.5497 51.5833 44.1842 50.2003 44.2869 49.0263C44.3896 47.8523 44.9897 46.5538 46.2302 45.9432C47.5308 45.303 49.1123 45.6156 50.7361 46.8044C52.0098 47.737 52.7231 47.6251 53.0335 47.4724C53.4039 47.29 53.7309 46.8018 53.7904 46.1221C53.8499 45.4425 53.6126 44.9049 53.2794 44.661C53.0003 44.4567 52.3173 44.2227 50.9009 44.9199C49.0954 45.8086 47.4837 45.8419 46.314 44.9855C45.1983 44.1688 44.8329 42.7858 44.9356 41.6118C45.0383 40.4378 45.6384 39.1393 46.8789 38.5287C48.1795 37.8885 49.761 38.2011 51.3847 39.3899C52.6585 40.3224 53.3718 40.2106 53.6821 40.0578C54.0526 39.8755 54.3796 39.3872 54.4391 38.7076C54.4985 38.028 54.2613 37.4904 53.9281 37.2465C53.649 37.0422 52.966 36.8081 51.5496 37.5053C49.7441 38.3941 48.1323 38.4273 46.9626 37.571C45.847 36.7542 45.4815 35.3713 45.5842 34.1973C45.687 33.0233 46.2871 31.7248 47.5275 31.1142C48.8282 30.474 50.4097 30.7866 52.0334 31.9753C53.3072 32.9079 54.0205 32.796 54.3308 32.6433C54.7013 32.4609 55.0283 31.9727 55.0878 31.2931C55.1472 30.6134 54.91 30.0759 54.5768 29.8319C54.2977 29.6276 53.6147 29.3936 52.1983 30.0908C50.3928 30.9796 48.781 31.0128 47.6113 30.1565C46.4957 29.3397 46.1302 27.9567 46.2329 26.7827C46.3356 25.6087 46.9357 24.3103 48.1762 23.6996C49.4769 23.0594 51.0583 23.372 52.6821 24.5608L51.4184 26.2869C50.1446 25.3544 49.4313 25.4662 49.121 25.619C48.7505 25.8013 48.4235 26.2896 48.3641 26.9692C48.3046 27.6488 48.5419 28.1864 48.875 28.4303C49.1541 28.6346 49.8372 28.8687 51.2535 28.1715C53.0591 27.2827 54.6708 27.2495 55.8405 28.1058C56.9561 28.9226 57.3216 30.3055 57.2189 31.4795C57.1162 32.6535 56.5161 33.952 55.2756 34.5626C53.975 35.2029 52.3935 34.8902 50.7697 33.7015C49.4959 32.7689 48.7826 32.8808 48.4723 33.0335C48.1018 33.2159 47.7748 33.7041 47.7154 34.3837C47.6559 35.0634 47.8932 35.6009 48.2263 35.8449C48.5054 36.0492 49.1885 36.2832 50.6048 35.586C52.4104 34.6973 54.0221 34.664 55.1918 35.5204C56.3074 36.3371 56.6729 37.7201 56.5702 38.8941C56.4675 40.0681 55.8674 41.3666 54.6269 41.9772C53.3263 42.6174 51.7448 42.3048 50.121 41.116C48.8472 40.1834 48.1339 40.2953 47.8236 40.448C47.4532 40.6304 47.1261 41.1186 47.0667 41.7983C47.0072 42.4779 47.2445 43.0155 47.5777 43.2594C47.8567 43.4637 48.5398 43.6977 49.9562 43.0005C51.7617 42.1118 53.3734 42.0785 54.5431 42.9349C55.6587 43.7516 56.0242 45.1346 55.9215 46.3086C55.8188 47.4826 55.2187 48.7811 53.9782 49.3917C52.6776 50.0319 51.0961 49.7193 49.4723 48.5305C48.1986 47.598 47.4853 47.7098 47.1749 47.8626C46.8045 48.0449 46.4775 48.5332 46.418 49.2128C46.3585 49.8924 46.5958 50.43 46.929 50.6739C47.1731 50.8526 47.7262 51.0541 48.8088 50.6352C49.1729 50.3893 49.5827 50.2188 50.0062 50.11C51.5275 49.5329 52.8779 49.6052 53.8944 50.3494C54.3252 50.6648 54.6441 51.0646 54.8675 51.5042C54.9269 51.5831 54.9829 51.6654 55.035 51.7512C55.5911 52.6667 55.5657 53.7058 55.0553 54.7537C54.8243 55.4299 54.4158 56.0696 53.8028 56.5193C53.2088 57.3552 53.3774 57.7682 53.4677 57.9169C53.6671 58.2452 54.2548 58.5978 55.1057 58.6723C55.9566 58.7467 56.5967 58.5015 56.85 58.2129C56.9828 58.0616 57.28 57.5804 56.5033 56.3016C55.483 54.6219 55.3682 53.0181 56.3772 51.8686C57.2655 50.8565 58.7264 50.5853 59.9157 50.6893C61.105 50.7933 62.4966 51.3142 63.1957 52.4652C63.9897 53.7724 63.5981 55.3319 62.3017 56.8089C61.3147 57.9334 61.5239 58.4589 61.6283 58.6309C61.8277 58.9591 62.4155 59.3118 63.2664 59.3862C64.1173 59.4607 64.7573 59.2154 65.0106 58.9268C65.1434 58.7756 65.4406 58.2943 64.6639 57.0156C63.6437 55.3359 63.5289 53.7321 64.5378 52.5826C65.4262 51.5705 66.8871 51.2992 68.0763 51.4033C69.2656 51.5073 70.6572 52.0281 71.3563 53.1791C72.1503 54.4864 71.7588 56.0458 70.4623 57.5229C69.4754 58.6473 69.6845 59.1729 69.789 59.3449C69.9884 59.6731 70.5761 60.0258 71.427 60.1002C72.2779 60.1746 72.918 59.9294 73.1713 59.6408C73.304 59.4895 73.6013 59.0083 72.8246 57.7295C71.8043 56.0498 71.6895 54.4461 72.6984 53.2966C72.9417 53.0194 73.228 52.7978 73.5398 52.6242C73.7701 52.4019 74.0373 52.2092 74.3435 52.0585C75.6441 51.4183 77.2256 51.7309 78.8494 52.9197C80.1232 53.8523 80.8365 53.7404 81.1468 53.5877C81.5173 53.4053 81.8443 52.9171 81.9037 52.2374C81.9632 51.5578 81.7259 51.0202 81.3928 50.7763C81.1137 50.572 80.4306 50.338 79.0143 51.0352C77.2087 51.9239 75.597 51.9572 74.4273 51.1008C73.3117 50.2841 72.9462 48.9011 73.0489 47.7271C73.1516 46.5531 73.7517 45.2546 74.9922 44.644C76.2928 44.0038 77.8743 44.3164 79.4981 45.5052C80.7719 46.4377 81.4852 46.3259 81.7955 46.1731C82.1659 45.9908 82.493 45.5025 82.5524 44.8229C82.6119 44.1433 82.3746 43.6057 82.0414 43.3618C81.7624 43.1575 81.0793 42.9234 79.6629 43.6206C77.8574 44.5094 76.2457 44.5426 75.076 43.6863C73.9604 42.8695 73.5949 41.4866 73.6976 40.3126C73.8003 39.1386 74.4004 37.8401 75.6409 37.2295C76.9415 36.5893 78.523 36.9019 80.1468 38.0906C81.4205 39.0232 82.1339 38.9113 82.4442 38.7586C82.8146 38.5762 83.1416 38.088 83.2011 37.4084C83.2606 36.7287 83.0233 36.1912 82.6901 35.9472C82.4111 35.7429 81.728 35.5089 80.3116 36.2061C78.5061 37.0948 76.8944 37.1281 75.7247 36.2717C74.6091 35.455 74.2436 34.072 74.3463 32.898C74.449 31.724 75.0491 30.4255 76.2896 29.8149C77.5902 29.1747 79.1717 29.4873 80.7954 30.6761C82.0692 31.6087 82.7825 31.4968 83.0929 31.3441C83.4633 31.1617 83.7903 30.6735 83.8498 29.9938C83.9093 29.3142 83.672 28.7766 83.3388 28.5327C83.0597 28.3284 82.3767 28.0944 80.9603 28.7916L80.0156 26.8722C81.8211 25.9835 83.4328 25.9502 84.6025 26.8066C85.7181 27.6233 86.0836 29.0063 85.9809 30.1803C85.8782 31.3543 85.2781 32.6528 84.0376 33.2634C82.737 33.9036 81.1555 33.591 79.5317 32.4022C78.2579 31.4697 77.5446 31.5815 77.2343 31.7343C76.8639 31.9166 76.5369 32.4049 76.4774 33.0845C76.4179 33.7641 76.6552 34.3017 76.9884 34.5456C77.2674 34.7499 77.9505 34.984 79.3669 34.2868C81.1724 33.398 82.7841 33.3648 83.9538 34.2211C85.0694 35.0379 85.4349 36.4208 85.3322 37.5948C85.2295 38.7688 84.6294 40.0673 83.3889 40.6779C82.0883 41.3181 80.5068 41.0055 78.8831 39.8168C77.6093 38.8842 76.896 38.9961 76.5856 39.1488C76.2152 39.3312 75.8882 39.8194 75.8287 40.499C75.7692 41.1787 76.0065 41.7162 76.3397 41.9602C76.6188 42.1645 77.3018 42.3985 78.7182 41.7013C80.5237 40.8126 82.1355 40.7793 83.3052 41.6357C84.4208 42.4524 84.7863 43.8354 84.6835 45.0094C84.5808 46.1834 83.9807 47.4818 82.7403 48.0925C81.4396 48.7327 79.8581 48.4201 78.2344 47.2313C76.9606 46.2987 76.2473 46.4106 75.937 46.5633C75.5665 46.7457 75.2395 47.2339 75.18 47.9136C75.1206 48.5932 75.3578 49.1308 75.691 49.3747C75.9701 49.579 76.6531 49.813 78.0695 49.1158C79.875 48.2271 81.4868 48.1938 82.6565 49.0502C83.7721 49.8669 84.1376 51.2499 84.0349 52.4239C83.9321 53.5979 83.332 54.8964 82.0916 55.507C81.4238 55.8357 80.6821 55.9132 79.8986 55.75C79.8942 55.7815 79.8894 55.8131 79.8841 55.8448ZM74.8513 54.3752C75.1645 54.2651 75.5745 54.2067 76.0505 54.2483C76.9014 54.3228 77.4892 54.6754 77.6885 55.0037C77.7874 55.1665 77.9801 55.6461 77.1632 56.6506C75.9205 57.1984 75.3039 56.9807 75.0423 56.7892C74.7091 56.5453 74.4719 56.0077 74.5313 55.3281C74.5652 54.9415 74.6856 54.6168 74.8513 54.3752ZM49.8845 52.5048C49.8625 52.5249 49.8424 52.5453 49.8243 52.5659C49.7038 52.7032 49.4478 53.1124 49.9827 54.1435C50.0176 54.1682 50.0525 54.1934 50.0874 54.2189C51.3118 55.1153 52.0183 55.0467 52.3468 54.9044C52.4067 54.8307 52.4689 54.7571 52.5333 54.6838C52.7779 54.405 52.9491 54.1631 53.0666 53.9542C53.1029 53.825 53.1287 53.6854 53.1417 53.5367C53.1706 53.2066 53.1295 52.91 53.0414 52.6643C52.7616 52.4036 52.2493 52.166 51.5686 52.1065C51.2227 52.0762 50.9116 52.0988 50.6472 52.1556C50.5224 52.2069 50.3908 52.2662 50.2522 52.3344C50.1287 52.3952 50.0061 52.452 49.8845 52.5048ZM48.3775 55.6457C47.38 55.0407 46.7983 55.1432 46.5262 55.2771C46.4577 55.3109 46.3906 55.3551 46.3264 55.4091C46.2968 55.5021 46.2538 55.5926 46.1969 55.678C46.0227 55.9394 45.8955 56.1715 45.8046 56.377C45.7888 56.4572 45.7769 56.5407 45.7693 56.6273C45.7099 57.3069 45.9471 57.8445 46.2803 58.0885C46.3298 58.1247 46.3921 58.1619 46.4689 58.1947C46.5926 58.2364 46.7281 58.2693 46.8742 58.2908C47.2665 58.3244 47.8401 58.2326 48.6588 57.8296L48.6593 57.8306C48.6921 57.7958 48.7211 57.76 48.746 57.7236C48.9086 57.4864 49.116 56.8899 48.3775 55.6457Z" fill="url(#paint0_linear_1051_484)"/>
<path d="M78.2007 60.3342L79.1736 59.0053C78.8212 58.7472 78.3806 58.6398 77.949 58.7065C77.5173 58.7733 77.1298 59.0088 76.8717 59.3613L78.2007 60.3342ZM80.4981 61.0022L79.7707 59.5245L79.7707 59.5245L80.4981 61.0022ZM78.0756 60.5052L76.8584 61.6149C77.1913 61.98 77.6705 62.1764 78.1639 62.1499C78.6572 62.1234 79.1127 61.8768 79.4045 61.4781L78.0756 60.5052ZM77.9028 60.2581L76.4274 60.9901L76.4274 60.9901L77.9028 60.2581ZM78.4948 58.3877L77.7977 56.8954C77.5749 56.9995 77.3782 57.1522 77.222 57.3423L78.4948 58.3877ZM80.7441 58.1908L79.7711 59.5198L79.7711 59.5198L80.7441 58.1908ZM79.8841 55.8448L78.2598 55.5718C78.178 56.0588 78.319 56.5569 78.644 56.9287C78.969 57.3006 79.4437 57.5069 79.9373 57.491L79.8841 55.8448ZM82.0078 56.4647L81.0348 57.7937L81.0348 57.7937L82.0078 56.4647ZM82.5244 56.9394L81.2822 58.021C81.4283 58.1888 81.6068 58.3252 81.807 58.422L82.5244 56.9394ZM83.0476 57.4958L81.524 58.1214L81.524 58.1214L83.0476 57.4958ZM82.7151 62.1422L81.4952 61.0356L81.4952 61.0356L82.7151 62.1422ZM79.1123 63.2577L79.3482 61.6276L79.3482 61.6276L79.1123 63.2577ZM75.9864 61.2088L74.511 61.9408L74.511 61.9408L75.9864 61.2088ZM75.7478 59.1374L77.3565 59.4906C77.4632 59.0047 77.3446 58.4967 77.0338 58.1084C76.723 57.72 76.2534 57.4929 75.756 57.4904L75.7478 59.1374ZM75.4794 59.127L75.6007 57.4844C75.1405 57.4504 74.6872 57.611 74.351 57.9271C74.0149 58.2432 73.8268 58.6859 73.8325 59.1473L75.4794 59.127ZM74.7791 61.052L73.5412 59.9655L73.5412 59.9655L74.7791 61.052ZM67.9606 60.4554L66.5529 61.3105L66.5529 61.3105L67.9606 60.4554ZM68.8546 56.1117L70.0924 57.1982L70.0924 57.1982L68.8546 56.1117ZM69.5279 54.2897L68.1202 55.1447L68.1202 55.1447L69.5279 54.2897ZM66.1456 53.9938L64.9077 52.9073L64.9077 52.9073L66.1456 53.9938ZM66.4923 55.905L67.9 55.05L67.9 55.05L66.4923 55.905ZM66.6184 60.338L67.8563 61.4245L67.8563 61.4245L66.6184 60.338ZM59.7999 59.7415L61.2077 58.8864L61.2077 58.8864L59.7999 59.7415ZM60.6939 55.3977L61.9318 56.4842L61.9318 56.4842L60.6939 55.3977ZM61.3673 53.5757L62.775 52.7207L62.775 52.7207L61.3673 53.5757ZM57.985 53.2798L59.2228 54.3663L59.2228 54.3663L57.985 53.2798ZM58.3317 55.1911L56.924 56.0461L56.924 56.0461L58.3317 55.1911ZM58.4578 59.624L59.6957 60.7105L59.6957 60.7105L58.4578 59.624ZM51.6393 59.0275L50.2316 59.8825L50.2316 59.8825L51.6393 59.0275ZM51.2723 57.0752L52.8965 57.3485C53.0469 56.4549 52.4471 55.6076 51.5543 55.4524L51.2723 57.0752ZM51.0405 57.0281L51.4133 55.4238C50.9123 55.3073 50.3857 55.4316 49.9896 55.7598C49.5936 56.0879 49.3736 56.5822 49.3948 57.0961L51.0405 57.0281ZM50.5105 58.9332L51.869 59.8644L51.869 59.8644L50.5105 58.9332ZM47.2098 60.458L47.2296 58.811L47.2296 58.811L47.2098 60.458ZM46.7128 60.4258L46.9045 58.79C46.8817 58.7873 46.8589 58.7851 46.836 58.7834L46.7128 60.4258ZM45.6188 60.1609L46.2765 58.6508C46.2531 58.6407 46.2295 58.631 46.2057 58.6219L45.6188 60.1609ZM43.9535 58.872L42.5782 59.7782L42.5782 59.7782L43.9535 58.872ZM43.7576 55.7399L45.2941 56.3332C45.3176 56.2723 45.3374 56.2101 45.3536 56.1469L43.7576 55.7399ZM45.5815 53.3578L44.8541 51.88L44.8541 51.88L45.5815 53.3578ZM47.5161 53.0695L47.2847 54.7002C47.7598 54.7676 48.2406 54.6245 48.6016 54.3082C48.9625 53.992 49.1675 53.5341 49.1631 53.0543L47.5161 53.0695ZM47.516 53.0198L49.1631 53.0295C49.1683 52.1383 48.4638 51.4046 47.5731 51.3737L47.516 53.0198ZM45.6653 52.4L46.6382 51.0711L46.6382 51.0711L45.6653 52.4ZM46.2302 45.9432L46.9576 47.421L46.9576 47.421L46.2302 45.9432ZM50.7361 46.8044L51.709 45.4754L51.709 45.4754L50.7361 46.8044ZM53.0335 47.4724L53.7608 48.9501L53.7609 48.9501L53.0335 47.4724ZM53.7904 46.1221L52.1496 45.9786L52.1496 45.9786L53.7904 46.1221ZM53.2794 44.661L52.3065 45.99L52.3065 45.99L53.2794 44.661ZM50.9009 44.9199L50.1735 43.4421L50.1735 43.4421L50.9009 44.9199ZM46.314 44.9855L47.2869 43.6566L47.2869 43.6566L46.314 44.9855ZM46.8789 38.5287L46.1515 37.051L46.1515 37.051L46.8789 38.5287ZM51.3847 39.3899L50.4118 40.7188L50.4118 40.7188L51.3847 39.3899ZM53.6821 40.0578L52.9548 38.5801L52.9548 38.5801L53.6821 40.0578ZM53.9281 37.2465L54.9011 35.9175L54.9011 35.9175L53.9281 37.2465ZM51.5496 37.5053L52.277 38.9831L52.277 38.9831L51.5496 37.5053ZM46.9626 37.571L45.9897 38.8999L45.9897 38.8999L46.9626 37.571ZM47.5275 31.1142L48.2549 32.5919L48.2549 32.5919L47.5275 31.1142ZM52.0334 31.9753L51.0605 33.3043L51.0605 33.3043L52.0334 31.9753ZM54.3308 32.6433L53.6034 31.1656L53.6034 31.1656L54.3308 32.6433ZM54.5768 29.8319L55.5497 28.503L55.5497 28.503L54.5768 29.8319ZM52.1983 30.0908L52.9257 31.5685L52.9257 31.5685L52.1983 30.0908ZM47.6113 30.1565L46.6384 31.4854L46.6384 31.4854L47.6113 30.1565ZM46.2329 26.7827L44.5922 26.6392L46.2329 26.7827ZM48.1762 23.6996L47.4488 22.2219L47.4488 22.2219L48.1762 23.6996ZM52.6821 24.5608L54.0111 25.5338C54.5484 24.7998 54.389 23.7692 53.6551 23.2319L52.6821 24.5608ZM51.4184 26.2869L50.4455 27.6159C51.1794 28.1532 52.21 27.9938 52.7474 27.2599L51.4184 26.2869ZM49.121 25.619L48.3936 24.1413L48.3936 24.1413L49.121 25.619ZM48.3641 26.9692L46.7233 26.8256L46.7233 26.8256L48.3641 26.9692ZM48.875 28.4303L47.9021 29.7593L47.9021 29.7593L48.875 28.4303ZM51.2535 28.1715L51.9809 29.6492L51.9809 29.6492L51.2535 28.1715ZM55.8405 28.1058L54.8676 29.4348L54.8676 29.4348L55.8405 28.1058ZM55.2756 34.5626L54.5482 33.0849L54.5482 33.0849L55.2756 34.5626ZM50.7697 33.7015L51.7427 32.3725L51.7427 32.3725L50.7697 33.7015ZM48.4723 33.0335L49.1997 34.5112L49.1997 34.5112L48.4723 33.0335ZM48.2263 35.8449L47.2534 37.1738L47.2534 37.1738L48.2263 35.8449ZM50.6048 35.586L51.3322 37.0637L51.3322 37.0637L50.6048 35.586ZM55.1918 35.5204L56.1648 34.1914L56.1648 34.1914L55.1918 35.5204ZM54.6269 41.9772L53.8995 40.4994L53.8995 40.4994L54.6269 41.9772ZM50.121 41.116L49.1481 42.445L49.1481 42.445L50.121 41.116ZM47.8236 40.448L47.0962 38.9703L47.0962 38.9703L47.8236 40.448ZM47.5777 43.2594L46.6047 44.5884L46.6047 44.5884L47.5777 43.2594ZM49.9562 43.0005L50.6835 44.4783L50.6835 44.4783L49.9562 43.0005ZM54.5431 42.9349L53.5702 44.2638L53.5702 44.2638L54.5431 42.9349ZM55.9215 46.3086L54.2807 46.165L54.2807 46.165L55.9215 46.3086ZM53.9782 49.3917L54.7056 50.8694L54.7056 50.8694L53.9782 49.3917ZM49.4723 48.5305L50.4453 47.2016L50.4453 47.2016L49.4723 48.5305ZM47.1749 47.8626L47.9023 49.3403L47.9023 49.3403L47.1749 47.8626ZM46.418 49.2128L48.0588 49.3563L48.0588 49.3563L46.418 49.2128ZM46.929 50.6739L47.9019 49.345L47.9019 49.345L46.929 50.6739ZM48.8088 50.6352L49.403 52.1713C49.5183 52.1267 49.6283 52.0693 49.7307 52.0001L48.8088 50.6352ZM50.0062 50.11L50.4161 51.7052C50.4752 51.6901 50.5334 51.6716 50.5904 51.65L50.0062 50.11ZM53.8944 50.3494L52.9215 51.6784L52.9215 51.6784L53.8944 50.3494ZM54.8675 51.5042L53.399 52.2502C53.4428 52.3362 53.494 52.4183 53.5521 52.4954L54.8675 51.5042ZM55.035 51.7512L53.6273 52.6062L53.6273 52.6063L55.035 51.7512ZM55.0553 54.7537L53.5746 54.0325C53.5447 54.0938 53.5187 54.1568 53.4967 54.2212L55.0553 54.7537ZM53.8028 56.5193L52.8286 55.1913C52.6866 55.2954 52.5622 55.4217 52.4602 55.5653L53.8028 56.5193ZM53.4677 57.9169L54.8754 57.0619L54.8754 57.0619L53.4677 57.9169ZM56.85 58.2129L58.0879 59.2993L58.0879 59.2993L56.85 58.2129ZM56.5033 56.3016L57.911 55.4466L57.911 55.4466L56.5033 56.3016ZM56.3772 51.8686L57.615 52.9551L57.615 52.9551L56.3772 51.8686ZM59.9157 50.6893L60.0592 49.0485L60.0592 49.0485L59.9157 50.6893ZM63.1957 52.4652L61.7879 53.3202L61.7879 53.3202L63.1957 52.4652ZM62.3017 56.8089L63.5396 57.8954L63.5396 57.8954L62.3017 56.8089ZM61.6283 58.6309L63.0361 57.7759L63.0361 57.7759L61.6283 58.6309ZM65.0106 58.9268L66.2485 60.0133L66.2485 60.0133L65.0106 58.9268ZM64.6639 57.0156L63.2562 57.8706L63.2562 57.8706L64.6639 57.0156ZM64.5378 52.5826L63.2999 51.4961L63.2999 51.4961L64.5378 52.5826ZM71.3563 53.1791L69.9486 54.0342L69.9486 54.0342L71.3563 53.1791ZM70.4623 57.5229L71.7002 58.6094L71.7002 58.6094L70.4623 57.5229ZM69.789 59.3449L71.1967 58.4898L71.1967 58.4898L69.789 59.3449ZM71.427 60.1002L71.5706 58.4594L71.5705 58.4594L71.427 60.1002ZM73.1713 59.6408L71.9334 58.5543L71.9334 58.5543L73.1713 59.6408ZM72.8246 57.7295L71.4168 58.5846L71.4168 58.5846L72.8246 57.7295ZM72.6984 53.2966L73.9363 54.3831L73.9363 54.3831L72.6984 53.2966ZM73.5398 52.6242L74.3408 54.0633C74.4657 53.9939 74.5809 53.9084 74.6837 53.8092L73.5398 52.6242ZM74.3435 52.0585L75.0709 53.5363L75.0709 53.5363L74.3435 52.0585ZM78.8494 52.9197L79.8223 51.5907L79.8223 51.5907L78.8494 52.9197ZM81.1468 53.5877L80.4194 52.1099L80.4194 52.1099L81.1468 53.5877ZM81.3928 50.7763L80.4198 52.1053L80.4198 52.1053L81.3928 50.7763ZM79.0143 51.0352L79.7416 52.5129L79.7417 52.5129L79.0143 51.0352ZM74.4273 51.1008L75.4002 49.7719L75.4002 49.7719L74.4273 51.1008ZM74.9922 44.644L74.2648 43.1663L74.2648 43.1663L74.9922 44.644ZM79.4981 45.5052L80.471 44.1762L80.471 44.1762L79.4981 45.5052ZM81.7955 46.1731L81.0681 44.6954L81.0681 44.6954L81.7955 46.1731ZM82.0414 43.3618L83.0144 42.0328L83.0144 42.0328L82.0414 43.3618ZM79.6629 43.6206L80.3903 45.0984L80.3903 45.0984L79.6629 43.6206ZM75.076 43.6863L76.0489 42.3573L76.0489 42.3573L75.076 43.6863ZM75.6409 37.2295L74.9135 35.7517L74.9135 35.7518L75.6409 37.2295ZM80.1468 38.0906L79.1738 39.4196L79.1738 39.4196L80.1468 38.0906ZM82.4442 38.7586L81.7168 37.2809L81.7168 37.2809L82.4442 38.7586ZM82.6901 35.9472L81.7172 37.2762L81.7172 37.2762L82.6901 35.9472ZM80.3116 36.2061L81.039 37.6838L81.039 37.6838L80.3116 36.2061ZM75.7247 36.2717L76.6976 34.9428L76.6976 34.9428L75.7247 36.2717ZM76.2896 29.8149L75.5622 28.3372L75.5622 28.3372L76.2896 29.8149ZM80.7954 30.6761L81.7684 29.3471L81.7684 29.3471L80.7954 30.6761ZM83.0929 31.3441L82.3655 29.8663L82.3655 29.8663L83.0929 31.3441ZM83.3388 28.5327L82.3659 29.8617L82.3659 29.8617L83.3388 28.5327ZM80.9603 28.7916L79.4826 29.519C79.6755 29.9109 80.0162 30.2101 80.4298 30.3508C80.8433 30.4915 81.2958 30.4622 81.6877 30.2693L80.9603 28.7916ZM80.0156 26.8722L79.2882 25.3945C78.472 25.7962 78.1361 26.7835 78.5378 27.5996L80.0156 26.8722ZM84.6025 26.8066L85.5755 25.4776L85.5755 25.4776L84.6025 26.8066ZM84.0376 33.2634L84.765 34.7411L84.765 34.7411L84.0376 33.2634ZM79.5317 32.4022L80.5047 31.0733L80.5047 31.0733L79.5317 32.4022ZM77.2343 31.7343L77.9617 33.212L77.9617 33.212L77.2343 31.7343ZM76.9884 34.5456L77.9613 33.2167L77.9613 33.2167L76.9884 34.5456ZM79.3669 34.2868L80.0943 35.7645L80.0943 35.7645L79.3669 34.2868ZM83.9538 34.2211L84.9268 32.8922L84.9268 32.8922L83.9538 34.2211ZM83.3889 40.6779L84.1163 42.1556L84.1163 42.1556L83.3889 40.6779ZM78.8831 39.8168L79.856 38.4878L79.856 38.4878L78.8831 39.8168ZM76.5856 39.1488L75.8583 37.6711L75.8583 37.6711L76.5856 39.1488ZM76.3397 41.9602L77.3126 40.6312L77.3126 40.6312L76.3397 41.9602ZM78.7182 41.7013L77.9908 40.2236L77.9908 40.2236L78.7182 41.7013ZM83.3052 41.6357L82.3322 42.9646L82.3322 42.9646L83.3052 41.6357ZM82.7403 48.0925L83.4676 49.5702L83.4676 49.5702L82.7403 48.0925ZM78.2344 47.2313L77.2614 48.5603L77.2614 48.5603L78.2344 47.2313ZM75.937 46.5633L76.6643 48.0411L76.6643 48.0411L75.937 46.5633ZM75.691 49.3747L76.6639 48.0457L76.6639 48.0457L75.691 49.3747ZM78.0695 49.1158L77.3421 47.6381L77.3421 47.6381L78.0695 49.1158ZM82.6565 49.0502L83.6294 47.7212L83.6294 47.7212L82.6565 49.0502ZM82.0916 55.507L81.3642 54.0293L81.3642 54.0293L82.0916 55.507ZM79.8986 55.75L80.2345 54.1376C79.7876 54.0445 79.3221 54.141 78.9491 54.4042C78.5761 54.6673 78.329 55.0734 78.2669 55.5257L79.8986 55.75ZM74.8513 54.3752L74.3053 52.8212C73.9753 52.9372 73.6908 53.1552 73.4929 53.4437L74.8513 54.3752ZM77.6885 55.0037L79.0963 54.1486L79.0963 54.1486L77.6885 55.0037ZM77.1632 56.6506L77.8275 58.1578C78.0662 58.0526 78.2765 57.8922 78.4411 57.6898L77.1632 56.6506ZM75.0423 56.7892L74.0694 58.1182L74.0694 58.1182L75.0423 56.7892ZM49.8845 52.5048L49.2288 50.9939C49.0619 51.0663 48.9081 51.1659 48.7737 51.2887L49.8845 52.5048ZM49.8243 52.5659L51.0622 53.6524L51.0622 53.6524L49.8243 52.5659ZM49.9827 54.1435L48.5207 54.902C48.6414 55.1346 48.8158 55.335 49.0295 55.4867L49.9827 54.1435ZM50.0874 54.2189L49.1144 55.5479L49.1144 55.5479L50.0874 54.2189ZM52.3468 54.9044L53.0015 56.4158C53.2444 56.3105 53.4583 56.1484 53.6252 55.9429L52.3468 54.9044ZM52.5333 54.6838L53.7711 55.7703L53.7711 55.7703L52.5333 54.6838ZM53.0666 53.9542L54.5022 54.7616C54.5664 54.6473 54.6168 54.5258 54.6522 54.3996L53.0666 53.9542ZM53.0414 52.6643L54.5918 52.1084C54.5031 51.861 54.3565 51.6385 54.1642 51.4593L53.0414 52.6643ZM50.6472 52.1556L50.3011 50.5453C50.2055 50.5659 50.1119 50.5949 50.0214 50.6321L50.6472 52.1556ZM50.2522 52.3344L49.5249 50.8567L49.5248 50.8567L50.2522 52.3344ZM46.5262 55.2771L47.2536 56.7548L47.2536 56.7548L46.5262 55.2771ZM48.3775 55.6457L49.7939 54.8051C49.6559 54.5726 49.4628 54.3776 49.2316 54.2374L48.3775 55.6457ZM46.3264 55.4091L45.2661 54.1487C45.0281 54.349 44.8516 54.6126 44.7571 54.909L46.3264 55.4091ZM46.1969 55.678L44.8264 54.7645L44.8264 54.7645L46.1969 55.678ZM45.8046 56.377L44.2983 55.7109C44.249 55.8223 44.2123 55.9388 44.1887 56.0583L45.8046 56.377ZM46.2803 58.0885L47.2532 56.7595L47.2532 56.7595L46.2803 58.0885ZM46.4689 58.1947L45.8228 59.7097C45.8621 59.7264 45.9019 59.7417 45.9424 59.7553L46.4689 58.1947ZM46.8742 58.2908L46.6348 59.9203C46.6675 59.9251 46.7004 59.929 46.7333 59.9318L46.8742 58.2908ZM48.6588 57.8296L50.1367 57.1027C49.9439 56.7106 49.6032 56.4112 49.1896 56.2704C48.776 56.1296 48.3234 56.1589 47.9314 56.3519L48.6588 57.8296ZM48.6593 57.8306L47.1813 58.5575C47.4197 59.0421 47.8804 59.3791 48.4145 59.4594C48.9485 59.5396 49.4879 59.353 49.8582 58.9599L48.6593 57.8306ZM48.746 57.7236L47.3875 56.7924L47.3875 56.7924L48.746 57.7236ZM77.2278 61.6632C78.7836 62.8022 80.1628 63.003 81.2255 62.4799L79.7707 59.5245C79.9434 59.4395 80.0486 59.4627 80.0099 59.4556C79.9454 59.4437 79.6755 59.3727 79.1736 59.0053L77.2278 61.6632ZM79.4045 61.4781L79.5297 61.3072L76.8717 59.3613L76.7466 59.5322L79.4045 61.4781ZM76.4274 60.9901C76.5461 61.2294 76.6969 61.4376 76.8584 61.6149L79.2927 59.3955C79.3074 59.4117 79.3421 59.4533 79.3782 59.526L76.4274 60.9901ZM77.222 57.3423C76.6884 57.9919 76.3455 58.639 76.2187 59.294C76.0848 59.9853 76.2157 60.5635 76.4274 60.9901L79.3782 59.5261C79.4128 59.5957 79.4394 59.6742 79.4516 59.7559C79.4639 59.8383 79.4573 59.8963 79.4527 59.9203C79.4449 59.9607 79.463 59.8038 79.7675 59.4331L77.222 57.3423ZM81.717 56.8619C80.7948 56.1867 79.4545 56.1215 77.7977 56.8954L79.1918 59.88C79.7019 59.6417 79.95 59.6287 79.9999 59.6292C80.0265 59.6295 79.9204 59.6291 79.7711 59.5198L81.717 56.8619ZM82.8958 59.7955C82.9898 58.7218 82.6441 57.5406 81.717 56.8619L79.7711 59.5198C79.6979 59.4662 79.6551 59.4152 79.6331 59.3846C79.6217 59.3686 79.6145 59.3561 79.6102 59.348C79.606 59.34 79.6043 59.3356 79.6043 59.3355C79.6042 59.3353 79.6056 59.3388 79.6074 59.3463C79.6092 59.3538 79.6114 59.3648 79.6133 59.3795C79.6171 59.4089 79.6192 59.4519 79.6143 59.5084L82.8958 59.7955ZM81.2255 62.4799C82.2563 61.9725 82.8019 60.8693 82.8958 59.7955L79.6143 59.5084C79.6093 59.5649 79.5997 59.6069 79.5909 59.6353C79.5865 59.6494 79.5824 59.6599 79.5793 59.6669C79.5762 59.6739 79.5743 59.6772 79.5744 59.677C79.5745 59.6769 79.5769 59.6729 79.5824 59.6657C79.588 59.6585 79.5973 59.6474 79.6113 59.6337C79.6383 59.6073 79.6893 59.5645 79.7707 59.5245L81.2255 62.4799ZM79.9373 57.491C80.4132 57.4756 80.7615 57.5936 81.0348 57.7937L82.9807 55.1358C82.0499 54.4543 80.9598 54.1621 79.8308 54.1986L79.9373 57.491ZM81.0348 57.7937C81.1281 57.862 81.21 57.9381 81.2822 58.021L83.7665 55.8578C83.5379 55.5953 83.2764 55.3522 82.9807 55.1358L81.0348 57.7937ZM81.807 58.422C81.6848 58.3629 81.5798 58.2573 81.524 58.1214L84.5712 56.8702C84.3071 56.2271 83.8214 55.7373 83.2418 55.4568L81.807 58.422ZM81.524 58.1214C82.1733 59.7028 81.9088 60.5797 81.4952 61.0356L83.935 63.2489C85.5346 61.4856 85.4815 59.0872 84.5712 56.8702L81.524 58.1214ZM81.4952 61.0356C81.0456 61.5312 80.2255 61.7546 79.3482 61.6276L78.8764 64.8878C80.4061 65.1092 82.4979 64.8329 83.935 63.2489L81.4952 61.0356ZM79.3482 61.6276C78.4689 61.5004 77.7474 61.0524 77.4619 60.4768L74.511 61.9408C75.443 63.8194 77.3561 64.6678 78.8764 64.8878L79.3482 61.6276ZM77.4619 60.4768C77.3163 60.1835 77.2739 59.8671 77.3565 59.4906L74.1391 58.7843C73.9054 59.8485 74.0121 60.9354 74.511 61.9408L77.4619 60.4768ZM75.756 57.4904C75.7022 57.4901 75.6504 57.4881 75.6007 57.4844L75.3581 60.7695C75.485 60.7789 75.6122 60.7838 75.7396 60.7844L75.756 57.4904ZM73.8325 59.1473C73.8366 59.4816 73.7419 59.7368 73.5412 59.9655L76.0169 62.1385C76.7837 61.2648 77.1399 60.2089 77.1263 59.1067L73.8325 59.1473ZM73.5412 59.9655C73.1439 60.4182 72.3175 60.6722 71.3841 60.5905L71.097 63.8721C72.5421 63.9985 74.6376 63.71 76.0169 62.1385L73.5412 59.9655ZM71.3841 60.5905C70.4507 60.5089 69.681 60.1152 69.3683 59.6004L66.5529 61.3105C67.6384 63.0976 69.6519 63.7457 71.097 63.8721L71.3841 60.5905ZM69.3683 59.6004C69.1115 59.1776 69.0229 58.4167 70.0924 57.1982L67.6167 55.0252C66.0934 56.7607 65.2217 59.1188 66.5529 61.3105L69.3683 59.6004ZM70.0924 57.1982C70.691 56.5162 71.0812 55.8463 71.2163 55.163C71.367 54.401 71.1645 53.8115 70.9356 53.4347L68.1202 55.1447C68.0737 55.0682 68.0208 54.958 67.9928 54.8233C67.965 54.6889 67.973 54.5833 67.9848 54.524C68.0038 54.4276 68.005 54.5828 67.6167 55.0252L70.0924 57.1982ZM70.9356 53.4347C70.6216 52.9177 70.1363 52.566 69.6872 52.3424C69.2095 52.1046 68.6472 51.9473 68.0334 51.8936L67.7463 55.1752C67.9834 55.1959 68.1405 55.2521 68.2192 55.2913C68.2584 55.3108 68.2667 55.3203 68.2529 55.3088C68.2429 55.3005 68.1846 55.2509 68.1202 55.1447L70.9356 53.4347ZM68.0334 51.8936C67.4196 51.8399 66.8386 51.8972 66.3269 52.0484C65.8457 52.1906 65.3067 52.4527 64.9077 52.9073L67.3835 55.0803C67.3015 55.1736 67.2355 55.2124 67.2242 55.2188C67.2086 55.2278 67.2185 55.2198 67.2604 55.2074C67.3448 55.1825 67.5092 55.1544 67.7463 55.1752L68.0334 51.8936ZM64.9077 52.9073C64.6169 53.2387 64.3151 53.784 64.3312 54.5607C64.3456 55.257 64.6135 55.9844 65.0846 56.7601L67.9 55.05C67.5944 54.5468 67.6226 54.3943 67.6246 54.4925C67.6259 54.5529 67.6155 54.6583 67.5647 54.7858C67.5138 54.9136 67.4425 55.013 67.3835 55.0803L64.9077 52.9073ZM65.0846 56.7601C65.9263 58.1458 65.7069 58.8798 65.3806 59.2515L67.8563 61.4245C69.5479 59.4973 69.0988 57.0237 67.9 55.05L65.0846 56.7601ZM65.3806 59.2515C64.9832 59.7042 64.1569 59.9582 63.2235 59.8766L62.9364 63.1581C64.3815 63.2846 66.4769 62.996 67.8563 61.4245L65.3806 59.2515ZM63.2235 59.8766C62.29 59.7949 61.5204 59.4013 61.2077 58.8864L58.3922 60.5965C59.4777 62.3837 61.4913 63.0317 62.9364 63.1581L63.2235 59.8766ZM61.2077 58.8864C60.9509 58.4637 60.8622 57.7027 61.9318 56.4842L59.456 54.3112C57.9327 56.0468 57.061 58.4048 58.3922 60.5965L61.2077 58.8864ZM61.9318 56.4842C62.5304 55.8022 62.9205 55.1323 63.0556 54.4491C63.2063 53.687 63.0038 53.0975 62.775 52.7207L59.9595 54.4308C59.9131 54.3543 59.8601 54.244 59.8322 54.1093C59.8043 53.9749 59.8124 53.8693 59.8241 53.8101C59.8432 53.7137 59.8444 53.8688 59.456 54.3112L61.9318 56.4842ZM62.775 52.7207C62.461 52.2038 61.9757 51.852 61.5266 51.6285C61.0489 51.3907 60.4866 51.2333 59.8728 51.1796L59.5857 54.4612C59.8228 54.4819 59.9798 54.5382 60.0586 54.5774C60.0978 54.5969 60.1061 54.6064 60.0923 54.5949C60.0823 54.5865 60.024 54.5369 59.9595 54.4308L62.775 52.7207ZM59.8728 51.1796C59.259 51.1259 58.6779 51.1832 58.1662 51.3345C57.6851 51.4767 57.1461 51.7388 56.7471 52.1933L59.2228 54.3663C59.1409 54.4597 59.0749 54.4984 59.0636 54.5049C59.048 54.5138 59.0578 54.5059 59.0998 54.4935C59.1842 54.4686 59.3486 54.4404 59.5857 54.4612L59.8728 51.1796ZM56.7471 52.1933C56.4563 52.5247 56.1545 53.07 56.1706 53.8467C56.185 54.5431 56.4529 55.2705 56.924 56.0461L59.7394 54.336C59.4338 53.8329 59.4619 53.6803 59.464 53.7785C59.4652 53.8389 59.4548 53.9444 59.4041 54.0719C59.3531 54.1997 59.2819 54.299 59.2228 54.3663L56.7471 52.1933ZM56.924 56.0461C57.7656 57.4318 57.5462 58.1658 57.2199 58.5376L59.6957 60.7105C61.3872 58.7833 60.9382 56.3097 59.7394 54.336L56.924 56.0461ZM57.2199 58.5376C56.8226 58.9903 55.9962 59.2443 55.0628 59.1626L54.7757 62.4442C56.2208 62.5706 58.3163 62.2821 59.6957 60.7105L57.2199 58.5376ZM55.0628 59.1626C54.1294 59.081 53.3597 58.6873 53.047 58.1725L50.2316 59.8825C51.3171 61.6697 53.3306 62.3177 54.7757 62.4442L55.0628 59.1626ZM53.047 58.1725C52.8929 57.9187 52.8441 57.6601 52.8965 57.3485L49.6481 56.8018C49.4707 57.856 49.6477 58.9213 50.2316 59.8825L53.047 58.1725ZM50.6677 58.6324C50.7748 58.6572 50.8823 58.6791 50.9903 58.6979L51.5543 55.4524C51.5085 55.4445 51.4615 55.435 51.4133 55.4238L50.6677 58.6324ZM49.3948 57.0961C49.41 57.4639 49.3228 57.7528 49.152 58.0019L51.869 59.8644C52.4695 58.9884 52.7286 57.9883 52.6861 56.96L49.3948 57.0961ZM49.152 58.0019C48.8057 58.5072 48.072 58.8212 47.2296 58.811L47.1901 62.1049C48.6822 62.1228 50.6829 61.5947 51.869 59.8644L49.152 58.0019ZM47.2296 58.811C47.1239 58.8098 47.0149 58.8029 46.9045 58.79L46.5211 62.0617C46.7464 62.0881 46.9702 62.1023 47.1901 62.1049L47.2296 58.811ZM44.9611 61.6709C45.4808 61.8972 46.0289 62.0262 46.5895 62.0683L46.836 58.7834C46.619 58.7671 46.4349 58.7198 46.2765 58.6508L44.9611 61.6709ZM46.2057 58.6219C45.8043 58.4689 45.5117 58.2434 45.3288 57.9658L42.5782 59.7782C43.2165 60.747 44.1264 61.3545 45.0319 61.6998L46.2057 58.6219ZM45.3288 57.9658C45.0937 57.6089 44.9956 57.1061 45.2941 56.3332L42.2211 55.1466C41.6307 56.6758 41.6304 58.3399 42.5782 59.7782L45.3288 57.9658ZM44.8541 51.88C43.3157 52.6373 42.4908 54.0421 42.1616 55.3329L45.3536 56.1469C45.5126 55.5233 45.8542 55.0593 46.3089 54.8355L44.8541 51.88ZM47.7476 51.4388C46.7585 51.2984 45.7685 51.43 44.8541 51.88L46.3089 54.8355C46.5823 54.7009 46.8971 54.6452 47.2847 54.7002L47.7476 51.4388ZM49.1631 53.0543C49.163 53.046 49.163 53.0377 49.1631 53.0295L45.869 53.01C45.8689 53.0349 45.8689 53.0598 45.8692 53.0847L49.1631 53.0543ZM44.6923 53.729C45.5129 54.3297 46.4627 54.6313 47.459 54.6658L47.5731 51.3737C47.1833 51.3602 46.8836 51.2508 46.6382 51.0711L44.6923 53.729ZM42.6461 48.8828C42.5106 50.4317 42.9708 52.4686 44.6923 53.729L46.6382 51.0711C46.1286 50.698 45.8577 49.969 45.9277 49.1699L42.6461 48.8828ZM45.5028 44.4655C43.5885 45.4078 42.7816 47.3339 42.6461 48.8828L45.9277 49.1699C45.9976 48.3708 46.3909 47.6999 46.9576 47.421L45.5028 44.4655ZM51.709 45.4754C49.822 44.094 47.5708 43.4476 45.5028 44.4655L46.9576 47.421C47.4908 47.1585 48.4026 47.1373 49.7631 48.1334L51.709 45.4754ZM52.3061 45.9946C52.4788 45.9096 52.584 45.9329 52.5452 45.9257C52.4808 45.9138 52.2109 45.8429 51.709 45.4754L49.7631 48.1334C51.3189 49.2724 52.6982 49.4732 53.7608 48.9501L52.3061 45.9946ZM52.1496 45.9786C52.1447 46.0351 52.1351 46.0771 52.1263 46.1054C52.1219 46.1196 52.1178 46.13 52.1147 46.1371C52.1116 46.1441 52.1097 46.1473 52.1098 46.1472C52.1098 46.1471 52.1122 46.1431 52.1178 46.1358C52.1234 46.1287 52.1327 46.1176 52.1467 46.1039C52.1736 46.0775 52.2247 46.0347 52.3061 45.9946L53.7609 48.9501C54.7917 48.4427 55.3372 47.3394 55.4312 46.2657L52.1496 45.9786ZM52.3065 45.99C52.2333 45.9364 52.1904 45.8854 52.1685 45.8547C52.1571 45.8388 52.1498 45.8263 52.1456 45.8182C52.1413 45.8101 52.1397 45.8057 52.1396 45.8056C52.1396 45.8055 52.1409 45.809 52.1427 45.8165C52.1446 45.8239 52.1468 45.8349 52.1487 45.8496C52.1524 45.8791 52.1546 45.9221 52.1496 45.9786L55.4312 46.2657C55.5251 45.192 55.1794 44.0108 54.2524 43.332L52.3065 45.99ZM51.6283 46.3976C52.1864 46.1229 52.4645 46.0999 52.53 46.0994C52.5694 46.099 52.4618 46.1037 52.3065 45.99L54.2524 43.332C53.2966 42.6324 51.9035 42.5906 50.1735 43.4421L51.6283 46.3976ZM45.341 46.3145C47.2008 47.6761 49.5301 47.4304 51.6283 46.3976L50.1735 43.4421C48.6607 44.1868 47.7665 44.0076 47.2869 43.6566L45.341 46.3145ZM43.2948 41.4683C43.1593 43.0172 43.6194 45.0541 45.341 46.3145L47.2869 43.6566C46.7772 43.2834 46.5064 42.5544 46.5763 41.7554L43.2948 41.4683ZM46.1515 37.051C44.2372 37.9933 43.4303 39.9193 43.2948 41.4683L46.5763 41.7554C46.6462 40.9563 47.0395 40.2854 47.6062 40.0064L46.1515 37.051ZM52.3577 38.0609C50.4707 36.6794 48.2195 36.033 46.1515 37.051L47.6062 40.0064C48.1395 39.7439 49.0512 39.7228 50.4118 40.7188L52.3577 38.0609ZM52.9548 38.5801C53.1275 38.4951 53.2327 38.5184 53.1939 38.5112C53.1295 38.4993 52.8596 38.4283 52.3577 38.0609L50.4118 40.7188C51.9676 41.8579 53.3468 42.0586 54.4095 41.5355L52.9548 38.5801ZM52.7983 38.5641C52.7934 38.6206 52.7838 38.6626 52.775 38.6909C52.7706 38.705 52.7665 38.7155 52.7634 38.7225C52.7603 38.7296 52.7584 38.7328 52.7584 38.7327C52.7585 38.7326 52.7609 38.7285 52.7665 38.7213C52.772 38.7141 52.7814 38.7031 52.7954 38.6893C52.8223 38.6629 52.8734 38.6202 52.9548 38.5801L54.4095 41.5355C55.4404 41.0281 55.9859 39.9249 56.0799 38.8512L52.7983 38.5641ZM52.9552 38.5754C52.882 38.5218 52.8391 38.4709 52.8172 38.4402C52.8057 38.4242 52.7985 38.4117 52.7943 38.4037C52.79 38.3956 52.7884 38.3912 52.7883 38.3911C52.7883 38.3909 52.7896 38.3945 52.7914 38.4019C52.7932 38.4094 52.7955 38.4204 52.7974 38.4351C52.8011 38.4645 52.8033 38.5076 52.7983 38.5641L56.0799 38.8512C56.1738 37.7774 55.8281 36.5962 54.9011 35.9175L52.9552 38.5754ZM52.277 38.9831C52.8351 38.7084 53.1132 38.6854 53.1787 38.6848C53.2181 38.6845 53.1105 38.6891 52.9552 38.5754L54.9011 35.9175C53.9453 35.2178 52.5522 35.1761 50.8222 36.0276L52.277 38.9831ZM45.9897 38.8999C47.8495 40.2615 50.1788 40.0159 52.277 38.9831L50.8222 36.0276C49.3094 36.7723 48.4151 36.5931 47.9356 36.242L45.9897 38.8999ZM43.9435 34.0537C43.808 35.6026 44.2681 37.6396 45.9897 38.8999L47.9356 36.242C47.4259 35.8689 47.1551 35.1399 47.225 34.3408L43.9435 34.0537ZM46.8001 29.6365C44.8859 30.5787 44.079 32.5048 43.9435 34.0537L47.225 34.3408C47.2949 33.5417 47.6882 32.8708 48.2549 32.5919L46.8001 29.6365ZM53.0064 30.6464C51.1194 29.2649 48.8682 28.6185 46.8001 29.6365L48.2549 32.5919C48.7882 32.3294 49.6999 32.3082 51.0605 33.3043L53.0064 30.6464ZM53.6034 31.1656C53.7761 31.0806 53.8813 31.1038 53.8426 31.0967C53.7782 31.0848 53.5082 31.0138 53.0064 30.6464L51.0605 33.3043C52.6163 34.4433 53.9955 34.6441 55.0582 34.121L53.6034 31.1656ZM53.447 31.1495C53.4421 31.206 53.4325 31.248 53.4237 31.2764C53.4193 31.2905 53.4152 31.301 53.4121 31.308C53.409 31.315 53.4071 31.3183 53.4071 31.3181C53.4072 31.318 53.4096 31.314 53.4152 31.3068C53.4207 31.2996 53.43 31.2885 53.444 31.2748C53.471 31.2484 53.522 31.2056 53.6034 31.1656L55.0582 34.121C56.0891 33.6136 56.6346 32.5104 56.7285 31.4366L53.447 31.1495ZM53.6039 31.1609C53.5306 31.1073 53.4878 31.0563 53.4658 31.0257C53.4544 31.0097 53.4472 30.9972 53.443 30.9891C53.4387 30.9811 53.4371 30.9767 53.437 30.9766C53.437 30.9764 53.4383 30.9799 53.4401 30.9874C53.4419 30.9949 53.4442 31.0059 53.446 31.0206C53.4498 31.05 53.4519 31.093 53.447 31.1495L56.7285 31.4366C56.8225 30.3629 56.4768 29.1817 55.5497 28.503L53.6039 31.1609ZM52.9257 31.5685C53.4837 31.2938 53.7619 31.2708 53.8274 31.2703C53.8668 31.27 53.7592 31.2746 53.6039 31.1609L55.5497 28.503C54.594 27.8033 53.2009 27.7615 51.4709 28.6131L52.9257 31.5685ZM46.6384 31.4854C48.4982 32.847 50.8275 32.6013 52.9257 31.5685L51.4709 28.6131C49.9581 29.3578 49.0638 29.1786 48.5843 28.8275L46.6384 31.4854ZM44.5922 26.6392C44.4566 28.1881 44.9168 30.225 46.6384 31.4854L48.5843 28.8275C48.0746 28.4544 47.8038 27.7254 47.8737 26.9263L44.5922 26.6392ZM47.4488 22.2219C45.5346 23.1642 44.7277 25.0903 44.5922 26.6392L47.8737 26.9263C47.9436 26.1272 48.3369 25.4563 48.9036 25.1774L47.4488 22.2219ZM53.6551 23.2319C51.7681 21.8504 49.5169 21.204 47.4488 22.2219L48.9036 25.1774C49.4369 24.9149 50.3486 24.8937 51.7092 25.8898L53.6551 23.2319ZM52.7474 27.2599L54.0111 25.5338L51.3532 23.5879L50.0894 25.314L52.7474 27.2599ZM49.8484 27.0967C49.6757 27.1817 49.5705 27.1585 49.6092 27.1656C49.6737 27.1775 49.9436 27.2485 50.4455 27.6159L52.3913 24.958C50.8355 23.8189 49.4563 23.6182 48.3936 24.1413L49.8484 27.0967ZM50.0048 27.1127C50.0098 27.0562 50.0194 27.0142 50.0282 26.9859C50.0326 26.9718 50.0367 26.9613 50.0398 26.9543C50.0429 26.9472 50.0448 26.944 50.0447 26.9441C50.0446 26.9442 50.0423 26.9483 50.0367 26.9555C50.0311 26.9627 50.0218 26.9737 50.0078 26.9875C49.9808 27.0139 49.9298 27.0566 49.8484 27.0967L48.3936 24.1413C47.3628 24.6487 46.8172 25.7519 46.7233 26.8256L50.0048 27.1127ZM49.848 27.1014C49.9212 27.155 49.964 27.2059 49.986 27.2366C49.9974 27.2526 50.0046 27.2651 50.0089 27.2731C50.0131 27.2812 50.0148 27.2856 50.0148 27.2857C50.0149 27.2859 50.0135 27.2823 50.0117 27.2749C50.0099 27.2674 50.0077 27.2564 50.0058 27.2417C50.002 27.2123 49.9999 27.1692 50.0048 27.1127L46.7233 26.8256C46.6293 27.8994 46.975 29.0806 47.9021 29.7593L49.848 27.1014ZM50.5261 26.6937C49.9681 26.9684 49.6899 26.9914 49.6244 26.992C49.585 26.9923 49.6927 26.9877 49.848 27.1014L47.9021 29.7593C48.8578 30.459 50.251 30.5007 51.9809 29.6492L50.5261 26.6937ZM56.8134 26.7769C54.9536 25.4153 52.6243 25.6609 50.5261 26.6937L51.9809 29.6492C53.4938 28.9045 54.388 29.0837 54.8676 29.4348L56.8134 26.7769ZM58.8597 31.6231C58.9952 30.0742 58.535 28.0372 56.8134 26.7769L54.8676 29.4348C55.3772 29.8079 55.648 30.5369 55.5781 31.336L58.8597 31.6231ZM56.003 36.0403C57.9173 35.0981 58.7242 33.172 58.8597 31.6231L55.5781 31.336C55.5082 32.1351 55.1149 32.806 54.5482 33.0849L56.003 36.0403ZM49.7968 35.0304C51.6837 36.4119 53.935 37.0583 56.003 36.0403L54.5482 33.0849C54.015 33.3474 53.1032 33.3686 51.7427 32.3725L49.7968 35.0304ZM49.1997 34.5112C49.027 34.5962 48.9218 34.573 48.9605 34.5801C49.025 34.592 49.2949 34.663 49.7968 35.0304L51.7427 32.3725C50.1869 31.2335 48.8076 31.0327 47.7449 31.5558L49.1997 34.5112ZM49.3561 34.5273C49.3611 34.4708 49.3707 34.4288 49.3795 34.4004C49.3839 34.3863 49.388 34.3758 49.3911 34.3688C49.3942 34.3618 49.3961 34.3585 49.396 34.3587C49.3959 34.3588 49.3936 34.3628 49.388 34.37C49.3824 34.3772 49.3731 34.3883 49.3591 34.402C49.3322 34.4284 49.2811 34.4712 49.1997 34.5112L47.7449 31.5558C46.7141 32.0632 46.1685 33.1664 46.0746 34.2402L49.3561 34.5273ZM49.1993 34.5159C49.2725 34.5695 49.3154 34.6205 49.3373 34.6511C49.3487 34.6671 49.356 34.6796 49.3602 34.6877C49.3644 34.6957 49.3661 34.7001 49.3661 34.7002C49.3662 34.7004 49.3649 34.6969 49.363 34.6894C49.3612 34.6819 49.359 34.6709 49.3571 34.6562C49.3534 34.6268 49.3512 34.5838 49.3561 34.5273L46.0746 34.2402C45.9807 35.3139 46.3263 36.4951 47.2534 37.1738L49.1993 34.5159ZM49.8775 34.1083C49.3194 34.383 49.0413 34.406 48.9757 34.4065C48.9363 34.4068 49.044 34.4022 49.1993 34.5159L47.2534 37.1738C48.2091 37.8735 49.6023 37.9153 51.3322 37.0637L49.8775 34.1083ZM56.1648 34.1914C54.3049 32.8298 51.9756 33.0755 49.8775 34.1083L51.3322 37.0637C52.8451 36.319 53.7393 36.4982 54.2189 36.8493L56.1648 34.1914ZM58.211 39.0376C58.3465 37.4887 57.8863 35.4518 56.1648 34.1914L54.2189 36.8493C54.7285 37.2224 54.9993 37.9514 54.9294 38.7505L58.211 39.0376ZM55.3543 43.4549C57.2686 42.5126 58.0755 40.5865 58.211 39.0376L54.9294 38.7505C54.8595 39.5496 54.4662 40.2205 53.8995 40.4994L55.3543 43.4549ZM49.1481 42.445C51.0351 43.8264 53.2863 44.4728 55.3543 43.4549L53.8995 40.4994C53.3663 40.7619 52.4545 40.7831 51.094 39.787L49.1481 42.445ZM48.551 41.9258C48.3783 42.0108 48.2731 41.9875 48.3119 41.9947C48.3763 42.0066 48.6462 42.0775 49.1481 42.445L51.094 39.787C49.5382 38.648 48.1589 38.4472 47.0962 38.9703L48.551 41.9258ZM48.7075 41.9418C48.7124 41.8853 48.722 41.8433 48.7308 41.815C48.7352 41.8008 48.7393 41.7904 48.7424 41.7833C48.7455 41.7763 48.7474 41.7731 48.7473 41.7732C48.7473 41.7733 48.7449 41.7773 48.7393 41.7846C48.7337 41.7917 48.7244 41.8028 48.7104 41.8165C48.6835 41.8429 48.6324 41.8857 48.551 41.9258L47.0962 38.9703C46.0654 39.4777 45.5198 40.581 45.4259 41.6547L48.7075 41.9418ZM48.5506 41.9304C48.6238 41.984 48.6667 42.035 48.6886 42.0657C48.7 42.0816 48.7073 42.0941 48.7115 42.1022C48.7157 42.1103 48.7174 42.1147 48.7174 42.1148C48.7175 42.1149 48.7162 42.1114 48.7143 42.1039C48.7125 42.0965 48.7103 42.0855 48.7084 42.0708C48.7047 42.0413 48.7025 41.9983 48.7075 41.9418L45.4259 41.6547C45.332 42.7284 45.6776 43.9096 46.6047 44.5884L48.5506 41.9304ZM49.2288 41.5228C48.6707 41.7975 48.3926 41.8205 48.3271 41.821C48.2876 41.8214 48.3953 41.8167 48.5506 41.9304L46.6047 44.5884C47.5604 45.288 48.9536 45.3298 50.6835 44.4783L49.2288 41.5228ZM55.5161 41.6059C53.6562 40.2443 51.327 40.49 49.2288 41.5228L50.6835 44.4783C52.1964 43.7336 53.0906 43.9128 53.5702 44.2638L55.5161 41.6059ZM57.5623 46.4521C57.6978 44.9032 57.2376 42.8663 55.5161 41.6059L53.5702 44.2638C54.0798 44.637 54.3507 45.366 54.2807 46.165L57.5623 46.4521ZM54.7056 50.8694C56.6199 49.9271 57.4268 48.0011 57.5623 46.4521L54.2807 46.165C54.2108 46.9641 53.8175 47.635 53.2508 47.914L54.7056 50.8694ZM48.4994 49.8595C50.3864 51.241 52.6376 51.8874 54.7056 50.8694L53.2508 47.914C52.7176 48.1765 51.8058 48.1976 50.4453 47.2016L48.4994 49.8595ZM47.9023 49.3403C47.7296 49.4253 47.6244 49.402 47.6632 49.4092C47.7276 49.4211 47.9975 49.4921 48.4994 49.8595L50.4453 47.2016C48.8895 46.0625 47.5102 45.8617 46.4475 46.3849L47.9023 49.3403ZM48.0588 49.3563C48.0637 49.2998 48.0733 49.2578 48.0821 49.2295C48.0865 49.2154 48.0906 49.2049 48.0937 49.1979C48.0968 49.1908 48.0987 49.1876 48.0986 49.1877C48.0986 49.1878 48.0962 49.1919 48.0906 49.1991C48.085 49.2063 48.0757 49.2173 48.0617 49.2311C48.0348 49.2575 47.9837 49.3002 47.9023 49.3403L46.4475 46.3849C45.4167 46.8923 44.8712 47.9955 44.7772 49.0692L48.0588 49.3563ZM47.9019 49.345C47.9751 49.3986 48.018 49.4495 48.0399 49.4802C48.0513 49.4962 48.0586 49.5087 48.0628 49.5167C48.0671 49.5248 48.0687 49.5292 48.0687 49.5293C48.0688 49.5295 48.0675 49.5259 48.0657 49.5185C48.0638 49.511 48.0616 49.5 48.0597 49.4853C48.056 49.4559 48.0538 49.4128 48.0588 49.3563L44.7772 49.0692C44.6833 50.143 45.029 51.3242 45.956 52.0029L47.9019 49.345ZM48.2145 49.0991C47.8396 49.2442 47.6739 49.2359 47.6644 49.2353C47.6607 49.235 47.6877 49.2366 47.736 49.2542C47.7842 49.2717 47.8414 49.3007 47.9019 49.345L45.956 52.0029C46.7758 52.6031 47.9566 52.7309 49.403 52.1713L48.2145 49.0991ZM49.7307 52.0001C49.9132 51.8768 50.143 51.7754 50.4161 51.7052L49.5963 48.5148C49.0224 48.6622 48.4325 48.9018 47.8868 49.2704L49.7307 52.0001ZM54.8674 49.0205C53.2599 47.8436 51.2768 47.8664 49.422 48.5701L50.5904 51.65C51.7782 51.1993 52.4959 51.3668 52.9215 51.6784L54.8674 49.0205ZM56.3359 50.7581C56.007 50.1108 55.5264 49.5029 54.8674 49.0205L52.9215 51.6784C53.124 51.8266 53.2813 52.0184 53.399 52.2502L56.3359 50.7581ZM53.5521 52.4954C53.5792 52.5313 53.6042 52.5682 53.6273 52.6062L56.4428 50.8962C56.3616 50.7625 56.2747 50.6348 56.1828 50.5129L53.5521 52.4954ZM53.6273 52.6063C53.8335 52.9457 53.894 53.3767 53.5746 54.0325L56.5361 55.4749C57.2374 54.035 57.3487 52.3877 56.4428 50.8962L53.6273 52.6063ZM54.777 57.8473C55.7132 57.1605 56.2967 56.2145 56.6139 55.2862L53.4967 54.2212C53.3519 54.6452 53.1184 54.9786 52.8286 55.1913L54.777 57.8473ZM52.4602 55.5653C52.0535 56.1376 51.7939 56.7231 51.7385 57.325C51.679 57.9719 51.8712 58.4611 52.06 58.772L54.8754 57.0619C54.9145 57.1261 54.9606 57.2183 54.9907 57.3323C55.021 57.4465 55.026 57.5484 55.0188 57.6266C55.005 57.7759 54.9581 57.7369 55.1454 57.4733L52.4602 55.5653ZM52.06 58.772C52.374 59.2889 52.8593 59.6406 53.3084 59.8642C53.7861 60.102 54.3484 60.2593 54.9622 60.313L55.2493 57.0315C55.0122 57.0107 54.8551 56.9545 54.7764 56.9153C54.7372 56.8958 54.7289 56.8863 54.7427 56.8978C54.7527 56.9062 54.811 56.9558 54.8754 57.0619L52.06 58.772ZM54.9622 60.313C55.576 60.3667 56.157 60.3095 56.6688 60.1582C57.1499 60.016 57.6889 59.7539 58.0879 59.2993L55.6121 57.1264C55.6941 57.033 55.7601 56.9943 55.7714 56.9878C55.787 56.9789 55.7771 56.9868 55.7352 56.9992C55.6508 57.0241 55.4864 57.0522 55.2493 57.0315L54.9622 60.313ZM58.0879 59.2993C58.3787 58.968 58.6805 58.4227 58.6644 57.646C58.65 56.9496 58.3821 56.2222 57.911 55.4466L55.0956 57.1567C55.4012 57.6598 55.373 57.8124 55.371 57.7141C55.3697 57.6538 55.3801 57.5483 55.4309 57.4208C55.4818 57.293 55.5531 57.1936 55.6121 57.1264L58.0879 59.2993ZM57.911 55.4466C57.0693 54.0609 57.2887 53.3269 57.615 52.9551L55.1393 50.7822C53.4478 52.7094 53.8968 55.183 55.0956 57.1567L57.911 55.4466ZM57.615 52.9551C58.0124 52.5024 58.8387 52.2484 59.7721 52.3301L60.0592 49.0485C58.6141 48.9221 56.5187 49.2106 55.1393 50.7822L57.615 52.9551ZM59.7721 52.3301C60.7056 52.4117 61.4752 52.8054 61.7879 53.3202L64.6034 51.6102C63.5179 49.823 61.5043 49.1749 60.0592 49.0485L59.7721 52.3301ZM61.7879 53.3202C62.0447 53.743 62.1334 54.5039 61.0638 55.7224L63.5396 57.8954C65.0629 56.1599 65.9346 53.8018 64.6034 51.6102L61.7879 53.3202ZM61.0638 55.7224C60.4652 56.4045 60.0751 57.0743 59.94 57.7576C59.7893 58.5197 59.9918 59.1091 60.2206 59.4859L63.0361 57.7759C63.0825 57.8524 63.1355 57.9626 63.1634 58.0973C63.1913 58.2317 63.1832 58.3373 63.1715 58.3966C63.1524 58.493 63.1512 58.3378 63.5396 57.8954L61.0638 55.7224ZM60.2206 59.4859C60.5346 60.0029 61.0199 60.3546 61.469 60.5782C61.9467 60.816 62.509 60.9733 63.1228 61.027L63.4099 57.7455C63.1728 57.7247 63.0158 57.6685 62.937 57.6293C62.8978 57.6098 62.8895 57.6003 62.9033 57.6118C62.9133 57.6201 62.9716 57.6697 63.0361 57.7759L60.2206 59.4859ZM63.1228 61.027C63.7366 61.0807 64.3177 61.0234 64.8294 60.8722C65.3105 60.73 65.8495 60.4679 66.2485 60.0133L63.7728 57.8403C63.8547 57.747 63.9207 57.7083 63.932 57.7018C63.9476 57.6928 63.9378 57.7008 63.8958 57.7132C63.8114 57.7381 63.647 57.7662 63.4099 57.7455L63.1228 61.027ZM66.2485 60.0133C66.5393 59.682 66.8411 59.1366 66.825 58.3599C66.8106 57.6636 66.5427 56.9362 66.0716 56.1606L63.2562 57.8706C63.5618 58.3738 63.5337 58.5263 63.5316 58.4281C63.5304 58.3677 63.5408 58.2623 63.5915 58.1348C63.6425 58.007 63.7137 57.9076 63.7728 57.8403L66.2485 60.0133ZM66.0716 56.1606C65.23 54.7748 65.4494 54.0409 65.7757 53.6691L63.2999 51.4961C61.6084 53.4233 62.0574 55.8969 63.2562 57.8706L66.0716 56.1606ZM65.7757 53.6691C66.173 53.2164 66.9994 52.9624 67.9328 53.044L68.2199 49.7625C66.7748 49.6361 64.6793 49.9246 63.2999 51.4961L65.7757 53.6691ZM67.9328 53.044C68.8662 53.1257 69.6359 53.5193 69.9486 54.0342L72.764 52.3241C71.6785 50.5369 69.665 49.8889 68.2199 49.7625L67.9328 53.044ZM69.9486 54.0342C70.2054 54.457 70.294 55.2179 69.2245 56.4364L71.7002 58.6094C73.2235 56.8738 74.0952 54.5158 72.764 52.3241L69.9486 54.0342ZM69.2245 56.4364C68.6259 57.1184 68.2357 57.7883 68.1006 58.4715C67.9499 59.2336 68.1524 59.8231 68.3813 60.1999L71.1967 58.4898C71.2432 58.5663 71.2961 58.6766 71.3241 58.8113C71.3519 58.9457 71.3439 59.0513 71.3321 59.1106C71.3131 59.2069 71.3119 59.0518 71.7002 58.6094L69.2245 56.4364ZM68.3813 60.1999C68.6953 60.7169 69.1805 61.0686 69.6297 61.2922C70.1074 61.53 70.6697 61.6873 71.2835 61.741L71.5705 58.4594C71.3334 58.4387 71.1764 58.3824 71.0977 58.3432C71.0585 58.3237 71.0502 58.3142 71.064 58.3257C71.074 58.3341 71.1322 58.3837 71.1967 58.4898L68.3813 60.1999ZM71.2835 61.741C71.8972 61.7947 72.4783 61.7374 72.99 61.5861C73.4712 61.444 74.0102 61.1819 74.4091 60.7273L71.9334 58.5543C72.0154 58.461 72.0813 58.4222 72.0927 58.4157C72.1082 58.4068 72.0984 58.4147 72.0564 58.4271C71.9721 58.4521 71.8077 58.4802 71.5706 58.4594L71.2835 61.741ZM74.4091 60.7273C74.7 60.3959 75.0017 59.8506 74.9857 59.0739C74.9712 58.3775 74.7034 57.6501 74.2323 56.8745L71.4168 58.5846C71.7224 59.0877 71.6943 59.2403 71.6923 59.1421C71.691 59.0817 71.7014 58.9762 71.7522 58.8487C71.8031 58.7209 71.8744 58.6216 71.9334 58.5543L74.4091 60.7273ZM74.2323 56.8745C73.3906 55.4888 73.61 54.7548 73.9363 54.3831L71.4606 52.2101C69.769 54.1373 70.218 56.6109 71.4168 58.5846L74.2323 56.8745ZM73.9363 54.3831C74.0426 54.2619 74.1761 54.155 74.3408 54.0633L72.7389 51.185C72.2799 51.4405 71.8409 51.7768 71.4606 52.2101L73.9363 54.3831ZM74.6837 53.8092C74.797 53.6999 74.9249 53.6081 75.0709 53.5363L73.6161 50.5808C73.1497 50.8104 72.7433 51.1039 72.3959 51.4392L74.6837 53.8092ZM75.0709 53.5363C75.6041 53.2738 76.5159 53.2526 77.8764 54.2487L79.8223 51.5907C77.9354 50.2093 75.6841 49.5629 73.6161 50.5808L75.0709 53.5363ZM77.8764 54.2487C79.4322 55.3877 80.8115 55.5885 81.8742 55.0654L80.4194 52.1099C80.5921 52.0249 80.6973 52.0482 80.6586 52.041C80.5941 52.0291 80.3242 51.9582 79.8223 51.5907L77.8764 54.2487ZM81.8742 55.0654C82.905 54.558 83.4506 53.4547 83.5445 52.381L80.263 52.0939C80.258 52.1504 80.2484 52.1924 80.2396 52.2207C80.2352 52.2349 80.2311 52.2453 80.228 52.2524C80.2249 52.2594 80.223 52.2626 80.2231 52.2625C80.2232 52.2624 80.2255 52.2584 80.2311 52.2511C80.2367 52.244 80.246 52.2329 80.26 52.2192C80.2869 52.1927 80.338 52.15 80.4194 52.1099L81.8742 55.0654ZM83.5445 52.381C83.6384 51.3073 83.2928 50.1261 82.3657 49.4473L80.4198 52.1053C80.3466 52.0517 80.3037 52.0007 80.2818 51.97C80.2704 51.9541 80.2632 51.9416 80.2589 51.9335C80.2547 51.9254 80.253 51.921 80.253 51.9209C80.2529 51.9208 80.2542 51.9243 80.2561 51.9318C80.2579 51.9392 80.2601 51.9502 80.262 51.9649C80.2657 51.9944 80.2679 52.0374 80.263 52.0939L83.5445 52.381ZM82.3657 49.4473C81.41 48.7477 80.0168 48.7059 78.2869 49.5574L79.7417 52.5129C80.2997 52.2382 80.5778 52.2152 80.6434 52.2147C80.6828 52.2143 80.5751 52.219 80.4198 52.1053L82.3657 49.4473ZM78.2869 49.5574C76.774 50.3021 75.8798 50.1229 75.4002 49.7719L73.4543 52.4298C75.3142 53.7914 77.6435 53.5457 79.7416 52.5129L78.2869 49.5574ZM75.4002 49.7719C74.8906 49.3987 74.6198 48.6697 74.6897 47.8707L71.4081 47.5836C71.2726 49.1325 71.7328 51.1694 73.4543 52.4298L75.4002 49.7719ZM74.6897 47.8707C74.7596 47.0716 75.1529 46.4007 75.7196 46.1217L74.2648 43.1663C72.3505 44.1086 71.5436 46.0346 71.4081 47.5836L74.6897 47.8707ZM75.7196 46.1217C76.2528 45.8592 77.1646 45.8381 78.5251 46.8341L80.471 44.1762C78.584 42.7947 76.3328 42.1483 74.2648 43.1663L75.7196 46.1217ZM78.5251 46.8341C80.0809 47.9732 81.4602 48.1739 82.5229 47.6508L81.0681 44.6954C81.2408 44.6104 81.346 44.6336 81.3072 44.6265C81.2428 44.6146 80.9729 44.5436 80.471 44.1762L78.5251 46.8341ZM82.5229 47.6508C83.5537 47.1434 84.0993 46.0402 84.1932 44.9665L80.9116 44.6794C80.9067 44.7359 80.8971 44.7779 80.8883 44.8062C80.8839 44.8203 80.8798 44.8308 80.8767 44.8378C80.8736 44.8449 80.8717 44.8481 80.8718 44.848C80.8718 44.8479 80.8742 44.8438 80.8798 44.8366C80.8854 44.8294 80.8947 44.8184 80.9087 44.8046C80.9356 44.7782 80.9867 44.7355 81.0681 44.6954L82.5229 47.6508ZM84.1932 44.9665C84.2871 43.8927 83.9415 42.7115 83.0144 42.0328L81.0685 44.6907C80.9953 44.6371 80.9524 44.5862 80.9305 44.5555C80.9191 44.5395 80.9118 44.527 80.9076 44.519C80.9034 44.5109 80.9017 44.5065 80.9017 44.5064C80.9016 44.5062 80.9029 44.5098 80.9048 44.5172C80.9066 44.5247 80.9088 44.5357 80.9107 44.5504C80.9144 44.5798 80.9166 44.6229 80.9116 44.6794L84.1932 44.9665ZM83.0144 42.0328C82.0587 41.3331 80.6655 41.2914 78.9356 42.1429L80.3903 45.0984C80.9484 44.8237 81.2265 44.8007 81.292 44.8001C81.3315 44.7998 81.2238 44.8044 81.0685 44.6907L83.0144 42.0328ZM78.9356 42.1429C77.4227 42.8876 76.5285 42.7084 76.0489 42.3573L74.103 45.0152C75.9629 46.3768 78.2921 46.1312 80.3903 45.0984L78.9356 42.1429ZM76.0489 42.3573C75.5393 41.9842 75.2684 41.2552 75.3384 40.4561L72.0568 40.169C71.9213 41.7179 72.3815 43.7549 74.103 45.0152L76.0489 42.3573ZM75.3384 40.4561C75.4083 39.657 75.8016 38.9861 76.3683 38.7072L74.9135 35.7518C72.9992 36.694 72.1923 38.6201 72.0568 40.169L75.3384 40.4561ZM76.3683 38.7072C76.9015 38.4447 77.8133 38.4235 79.1738 39.4196L81.1197 36.7617C79.2327 35.3802 76.9815 34.7338 74.9135 35.7517L76.3683 38.7072ZM79.1738 39.4196C80.7296 40.5586 82.1089 40.7594 83.1716 40.2363L81.7168 37.2809C81.8895 37.1959 81.9947 37.2191 81.9559 37.212C81.8915 37.2001 81.6216 37.1291 81.1197 36.7617L79.1738 39.4196ZM83.1716 40.2363C84.2024 39.7289 84.7479 38.6257 84.8419 37.5519L81.5603 37.2648C81.5554 37.3213 81.5458 37.3633 81.537 37.3917C81.5326 37.4058 81.5285 37.4163 81.5254 37.4233C81.5223 37.4303 81.5204 37.4336 81.5205 37.4334C81.5205 37.4333 81.5229 37.4293 81.5285 37.4221C81.5341 37.4149 81.5434 37.4038 81.5574 37.3901C81.5843 37.3637 81.6354 37.3209 81.7168 37.2809L83.1716 40.2363ZM84.8419 37.5519C84.9358 36.4782 84.5901 35.297 83.6631 34.6183L81.7172 37.2762C81.644 37.2226 81.6011 37.1716 81.5792 37.141C81.5678 37.125 81.5605 37.1125 81.5563 37.1044C81.552 37.0964 81.5504 37.092 81.5504 37.0919C81.5503 37.0917 81.5516 37.0952 81.5534 37.1027C81.5553 37.1102 81.5575 37.1212 81.5594 37.1359C81.5631 37.1653 81.5653 37.2083 81.5603 37.2648L84.8419 37.5519ZM83.6631 34.6183C82.7074 33.9186 81.3142 33.8768 79.5842 34.7284L81.039 37.6838C81.5971 37.4091 81.8752 37.3861 81.9407 37.3856C81.9801 37.3853 81.8725 37.3899 81.7172 37.2762L83.6631 34.6183ZM79.5842 34.7284C78.0714 35.4731 77.1772 35.2939 76.6976 34.9428L74.7517 37.6007C76.6116 38.9623 78.9408 38.7166 81.039 37.6838L79.5842 34.7284ZM76.6976 34.9428C76.188 34.5697 75.9171 33.8407 75.987 33.0416L72.7055 32.7545C72.57 34.3034 73.0302 36.3403 74.7517 37.6007L76.6976 34.9428ZM75.987 33.0416C76.057 32.2425 76.4503 31.5716 77.0169 31.2927L75.5622 28.3372C73.6479 29.2795 72.841 31.2056 72.7055 32.7545L75.987 33.0416ZM77.0169 31.2927C77.5502 31.0302 78.462 31.009 79.8225 32.0051L81.7684 29.3471C79.8814 27.9657 77.6302 27.3193 75.5622 28.3372L77.0169 31.2927ZM79.8225 32.0051C81.3783 33.1441 82.7576 33.3449 83.8202 32.8218L82.3655 29.8663C82.5382 29.7813 82.6434 29.8046 82.6046 29.7974C82.5402 29.7855 82.2703 29.7146 81.7684 29.3471L79.8225 32.0051ZM83.8202 32.8218C84.8511 32.3144 85.3966 31.2111 85.4906 30.1374L82.209 29.8503C82.2041 29.9068 82.1945 29.9488 82.1857 29.9771C82.1813 29.9913 82.1772 30.0017 82.1741 30.0088C82.171 30.0158 82.1691 30.019 82.1692 30.0189C82.1692 30.0188 82.1716 30.0148 82.1772 30.0075C82.1828 30.0004 82.1921 29.9893 82.2061 29.9756C82.233 29.9492 82.2841 29.9064 82.3655 29.8663L83.8202 32.8218ZM85.4906 30.1374C85.5845 29.0637 85.2388 27.8825 84.3118 27.2037L82.3659 29.8617C82.2927 29.8081 82.2498 29.7571 82.2279 29.7264C82.2165 29.7105 82.2092 29.698 82.205 29.6899C82.2007 29.6818 82.1991 29.6774 82.199 29.6773C82.199 29.6772 82.2003 29.6807 82.2021 29.6882C82.204 29.6956 82.2062 29.7066 82.2081 29.7213C82.2118 29.7508 82.214 29.7938 82.209 29.8503L85.4906 30.1374ZM84.3118 27.2038C83.3561 26.504 81.9629 26.4623 80.2329 27.3138L81.6877 30.2693C82.2458 29.9946 82.5239 29.9716 82.5894 29.9711C82.6288 29.9707 82.5212 29.9754 82.3659 29.8617L84.3118 27.2038ZM82.438 28.0642L81.4933 26.1448L78.5378 27.5996L79.4826 29.519L82.438 28.0642ZM80.7429 28.35C82.2558 27.6053 83.15 27.7845 83.6296 28.1355L85.5755 25.4776C83.7156 24.116 81.3864 24.3617 79.2882 25.3945L80.7429 28.35ZM83.6296 28.1355C84.1392 28.5087 84.4101 29.2377 84.3401 30.0367L87.6217 30.3238C87.7572 28.7749 87.297 26.738 85.5755 25.4776L83.6296 28.1355ZM84.3401 30.0367C84.2702 30.8358 83.8769 31.5067 83.3102 31.7857L84.765 34.7411C86.6793 33.7988 87.4862 31.8728 87.6217 30.3238L84.3401 30.0367ZM83.3102 31.7857C82.777 32.0482 81.8652 32.0693 80.5047 31.0733L78.5588 33.7312C80.4458 35.1127 82.697 35.7591 84.765 34.7411L83.3102 31.7857ZM80.5047 31.0733C78.9489 29.9342 77.5696 29.7335 76.5069 30.2566L77.9617 33.212C77.789 33.297 77.6838 33.2737 77.7226 33.2809C77.787 33.2928 78.0569 33.3638 78.5588 33.7312L80.5047 31.0733ZM76.5069 30.2566C75.4761 30.764 74.9306 31.8672 74.8366 32.9409L78.1182 33.228C78.1231 33.1715 78.1327 33.1295 78.1415 33.1012C78.1459 33.0871 78.15 33.0766 78.1531 33.0696C78.1562 33.0625 78.1581 33.0593 78.158 33.0594C78.158 33.0595 78.1556 33.0636 78.15 33.0708C78.1444 33.078 78.1351 33.089 78.1211 33.1028C78.0942 33.1292 78.0431 33.1719 77.9617 33.212L76.5069 30.2566ZM74.8366 32.9409C74.7427 34.0147 75.0884 35.1959 76.0154 35.8746L77.9613 33.2167C78.0345 33.2703 78.0774 33.3212 78.0993 33.3519C78.1107 33.3679 78.118 33.3804 78.1222 33.3884C78.1265 33.3965 78.1281 33.4009 78.1281 33.401C78.1282 33.4012 78.1269 33.3976 78.1251 33.3902C78.1232 33.3827 78.121 33.3717 78.1191 33.357C78.1154 33.3276 78.1132 33.2845 78.1182 33.228L74.8366 32.9409ZM76.0154 35.8746C76.9711 36.5743 78.3643 36.616 80.0943 35.7645L78.6395 32.809C78.0814 33.0837 77.8033 33.1067 77.7378 33.1073C77.6984 33.1076 77.806 33.103 77.9613 33.2167L76.0154 35.8746ZM80.0943 35.7645C81.6071 35.0198 82.5013 35.199 82.9809 35.5501L84.9268 32.8922C83.0669 31.5306 80.7377 31.7762 78.6395 32.809L80.0943 35.7645ZM82.9809 35.5501C83.4905 35.9232 83.7614 36.6522 83.6915 37.4513L86.973 37.7384C87.1085 36.1895 86.6483 34.1525 84.9268 32.8922L82.9809 35.5501ZM83.6915 37.4513C83.6215 38.2504 83.2282 38.9213 82.6616 39.2002L84.1163 42.1556C86.0306 41.2134 86.8375 39.2873 86.973 37.7384L83.6915 37.4513ZM82.6616 39.2002C82.1283 39.4627 81.2165 39.4839 79.856 38.4878L77.9101 41.1457C79.7971 42.5272 82.0483 43.1736 84.1163 42.1556L82.6616 39.2002ZM79.856 38.4878C78.3002 37.3488 76.9209 37.148 75.8583 37.6711L77.313 40.6265C77.1403 40.7115 77.0351 40.6883 77.0739 40.6954C77.1383 40.7073 77.4082 40.7783 77.9101 41.1457L79.856 38.4878ZM75.8583 37.6711C74.8274 38.1785 74.2819 39.2817 74.1879 40.3555L77.4695 40.6426C77.4744 40.5861 77.484 40.5441 77.4928 40.5157C77.4972 40.5016 77.5013 40.4911 77.5044 40.4841C77.5075 40.4771 77.5094 40.4738 77.5093 40.474C77.5093 40.4741 77.5069 40.4781 77.5013 40.4853C77.4957 40.4925 77.4864 40.5036 77.4724 40.5173C77.4455 40.5437 77.3944 40.5865 77.313 40.6265L75.8583 37.6711ZM74.1879 40.3555C74.094 41.4292 74.4397 42.6104 75.3667 43.2891L77.3126 40.6312C77.3858 40.6848 77.4287 40.7358 77.4506 40.7664C77.462 40.7824 77.4693 40.7949 77.4735 40.803C77.4778 40.811 77.4794 40.8154 77.4795 40.8155C77.4795 40.8157 77.4782 40.8122 77.4764 40.8047C77.4745 40.7972 77.4723 40.7862 77.4704 40.7715C77.4667 40.7421 77.4645 40.6991 77.4695 40.6426L74.1879 40.3555ZM75.3667 43.2891C76.3225 43.9888 77.7156 44.0306 79.4456 43.179L77.9908 40.2236C77.4327 40.4983 77.1546 40.5213 77.0891 40.5218C77.0497 40.5221 77.1573 40.5175 77.3126 40.6312L75.3667 43.2891ZM79.4456 43.179C80.9584 42.4343 81.8526 42.6135 82.3322 42.9646L84.2781 40.3067C82.4183 38.9451 80.089 39.1908 77.9908 40.2236L79.4456 43.179ZM82.3322 42.9646C82.8419 43.3377 83.1127 44.0667 83.0428 44.8658L86.3243 45.1529C86.4598 43.604 85.9997 41.5671 84.2781 40.3067L82.3322 42.9646ZM83.0428 44.8658C82.9729 45.6649 82.5796 46.3358 82.0129 46.6147L83.4676 49.5702C85.3819 48.6279 86.1888 46.7018 86.3243 45.1529L83.0428 44.8658ZM82.0129 46.6147C81.4796 46.8772 80.5679 46.8984 79.2073 45.9023L77.2614 48.5603C79.1484 49.9417 81.3996 50.5881 83.4676 49.5702L82.0129 46.6147ZM79.2073 45.9023C77.6515 44.7633 76.2723 44.5625 75.2096 45.0856L76.6643 48.0411C76.4917 48.1261 76.3864 48.1028 76.4252 48.11C76.4896 48.1219 76.7595 48.1928 77.2614 48.5603L79.2073 45.9023ZM75.2096 45.0856C74.1787 45.593 73.6332 46.6963 73.5392 47.77L76.8208 48.0571C76.8257 48.0006 76.8353 47.9586 76.8441 47.9303C76.8485 47.9161 76.8526 47.9057 76.8557 47.8986C76.8588 47.8916 76.8607 47.8884 76.8607 47.8885C76.8606 47.8886 76.8582 47.8926 76.8526 47.8999C76.8471 47.907 76.8377 47.9181 76.8237 47.9318C76.7968 47.9582 76.7457 48.001 76.6643 48.0411L75.2096 45.0856ZM73.5392 47.77C73.4453 48.8437 73.791 50.0249 74.7181 50.7037L76.6639 48.0457C76.7371 48.0993 76.78 48.1503 76.8019 48.181C76.8134 48.1969 76.8206 48.2094 76.8248 48.2175C76.8291 48.2256 76.8307 48.23 76.8308 48.2301C76.8308 48.2302 76.8295 48.2267 76.8277 48.2192C76.8259 48.2118 76.8236 48.2008 76.8218 48.1861C76.818 48.1566 76.8158 48.1136 76.8208 48.0571L73.5392 47.77ZM74.718 50.7036C75.6738 51.4033 77.0669 51.4451 78.7969 50.5935L77.3421 47.6381C76.784 47.9128 76.5059 47.9358 76.4404 47.9363C76.401 47.9367 76.5086 47.932 76.6639 48.0457L74.718 50.7036ZM78.7969 50.5935C80.3097 49.8489 81.204 50.028 81.6835 50.3791L83.6294 47.7212C81.7696 46.3596 79.4403 46.6053 77.3421 47.6381L78.7969 50.5935ZM81.6835 50.3791C82.1932 50.7523 82.464 51.4813 82.3941 52.2803L85.6756 52.5674C85.8111 51.0185 85.351 48.9816 83.6294 47.7212L81.6835 50.3791ZM82.3941 52.2803C82.3242 53.0794 81.9309 53.7503 81.3642 54.0293L82.8189 56.9847C84.7332 56.0424 85.5401 54.1164 85.6756 52.5674L82.3941 52.2803ZM81.3642 54.0293C81.0609 54.1785 80.6986 54.2343 80.2345 54.1376L79.5627 57.3624C80.6656 57.5922 81.7867 57.4928 82.819 56.9847L81.3642 54.0293ZM78.2669 55.5257C78.2648 55.5408 78.2624 55.5562 78.2598 55.5718L81.5083 56.1178C81.5164 56.0701 81.5237 56.0223 81.5303 55.9743L78.2669 55.5257ZM76.1941 52.6076C75.5093 52.5477 74.8618 52.6257 74.3053 52.8212L75.3973 55.9291C75.4673 55.9045 75.6398 55.8657 75.907 55.8891L76.1941 52.6076ZM79.0963 54.1486C78.7823 53.6317 78.297 53.28 77.8478 53.0564C77.3701 52.8186 76.8079 52.6613 76.1941 52.6076L75.907 55.8891C76.1441 55.9099 76.3011 55.9661 76.3799 56.0053C76.419 56.0248 76.4274 56.0343 76.4136 56.0228C76.4035 56.0144 76.3453 55.9648 76.2808 55.8587L79.0963 54.1486ZM78.4411 57.6898C78.9576 57.0546 79.2945 56.4187 79.3966 55.766C79.5088 55.0483 79.3089 54.4987 79.0963 54.1486L76.2808 55.8587C76.2373 55.7871 76.187 55.6841 76.1579 55.5574C76.1287 55.4307 76.1313 55.3255 76.142 55.257C76.161 55.1359 76.1857 55.2422 75.8854 55.6115L78.4411 57.6898ZM74.0694 58.1182C74.9571 58.7681 76.2434 58.8559 77.8275 58.1578L76.499 55.1435C76.0363 55.3474 75.8174 55.3518 75.7824 55.3508C75.7678 55.3504 75.8721 55.3555 76.0152 55.4603L74.0694 58.1182ZM72.8906 55.1845C72.7966 56.2583 73.1423 57.4395 74.0694 58.1182L76.0152 55.4603C76.0885 55.5139 76.1313 55.5648 76.1533 55.5955C76.1647 55.6115 76.1719 55.624 76.1761 55.632C76.1804 55.6401 76.182 55.6445 76.1821 55.6446C76.1821 55.6448 76.1808 55.6412 76.179 55.6338C76.1772 55.6263 76.1749 55.6153 76.1731 55.6006C76.1693 55.5712 76.1672 55.5281 76.1721 55.4716L72.8906 55.1845ZM73.4929 53.4437C73.1514 53.9417 72.9466 54.5438 72.8906 55.1845L76.1721 55.4716C76.1837 55.3392 76.2197 55.2919 76.2096 55.3066L73.4929 53.4437ZM48.7737 51.2887C48.7105 51.3464 48.6475 51.4098 48.5865 51.4794L51.0622 53.6524C51.0373 53.6807 51.0145 53.7033 50.9952 53.7209L48.7737 51.2887ZM48.5865 51.4794C48.3308 51.7706 48.0465 52.2495 48.0127 52.9387C47.9815 53.5722 48.1704 54.2267 48.5207 54.902L51.4447 53.385C51.2601 53.0292 51.3095 52.9636 51.3028 53.1004C51.2991 53.1747 51.2799 53.2769 51.2296 53.3908C51.1794 53.5045 51.1147 53.5925 51.0622 53.6524L48.5865 51.4794ZM51.0603 52.89C51.019 52.8597 50.9775 52.8298 50.936 52.8003L49.0295 55.4867C49.0576 55.5066 49.0859 55.527 49.1144 55.5479L51.0603 52.89ZM51.6922 53.3931C51.8555 53.3223 51.944 53.3502 51.8884 53.3387C51.8107 53.3225 51.5422 53.2428 51.0603 52.89L49.1144 55.5479C50.6043 56.6387 51.9374 56.8767 53.0015 56.4158L51.6922 53.3931ZM53.6252 55.9429C53.6716 55.8859 53.7202 55.8283 53.7711 55.7703L51.2954 53.5973C51.2176 53.686 51.1419 53.7755 51.0684 53.8659L53.6252 55.9429ZM53.7711 55.7703C54.0743 55.4249 54.3173 55.0902 54.5022 54.7616L51.631 53.1468C51.5809 53.2359 51.4816 53.3852 51.2954 53.5973L53.7711 55.7703ZM51.5009 53.3931C51.4966 53.4426 51.4887 53.4809 51.4809 53.5088L54.6522 54.3996C54.717 54.1691 54.7608 53.9283 54.7825 53.6802L51.5009 53.3931ZM51.491 53.2202C51.4928 53.2252 51.5107 53.2815 51.5009 53.3931L54.7825 53.6802C54.8305 53.1316 54.7662 52.5948 54.5918 52.1084L51.491 53.2202ZM54.1642 51.4593C53.5554 50.892 52.6671 50.5492 51.7122 50.4657L51.4251 53.7472C51.6132 53.7637 51.7526 53.8027 51.8427 53.8388C51.9397 53.8777 51.9542 53.9025 51.9185 53.8693L54.1642 51.4593ZM51.7122 50.4657C51.2117 50.4219 50.7351 50.452 50.3011 50.5453L50.9934 53.7659C51.0882 53.7455 51.2338 53.7305 51.4251 53.7472L51.7122 50.4657ZM50.9796 53.8121C51.087 53.7592 51.1847 53.7154 51.2731 53.6791L50.0214 50.6321C49.86 50.6984 49.6946 50.7731 49.5249 50.8567L50.9796 53.8121ZM50.5402 54.0157C50.6868 53.9521 50.8333 53.8841 50.9796 53.8121L49.5248 50.8567C49.4241 50.9063 49.3254 50.9519 49.2288 50.9939L50.5402 54.0157ZM47.2536 56.7548C47.1862 56.788 47.1247 56.8066 47.0742 56.8155C47.0235 56.8244 46.9967 56.8212 47.0007 56.8216C47.0109 56.8227 47.1771 56.844 47.5234 57.054L49.2316 54.2374C47.9008 53.4303 46.7128 53.3495 45.7989 53.7994L47.2536 56.7548ZM47.3867 56.6695C47.3579 56.6937 47.3143 56.725 47.2536 56.7548L45.7989 53.7994C45.6011 53.8967 45.4233 54.0165 45.2661 54.1487L47.3867 56.6695ZM44.7571 54.909C44.7736 54.8572 44.7971 54.8084 44.8264 54.7645L47.5675 56.5914C47.7104 56.3769 47.8199 56.147 47.8957 55.9091L44.7571 54.909ZM44.8264 54.7645C44.6086 55.0913 44.4331 55.406 44.2983 55.7109L47.311 57.043C47.3579 56.9369 47.4369 56.7874 47.5675 56.5914L44.8264 54.7645ZM47.4101 56.7709C47.4126 56.7421 47.4163 56.7171 47.4206 56.6956L44.1887 56.0583C44.1613 56.1973 44.1412 56.3393 44.1285 56.4838L47.4101 56.7709ZM47.2532 56.7595C47.3264 56.8131 47.3693 56.8641 47.3912 56.8947C47.4026 56.9107 47.4099 56.9232 47.4141 56.9312C47.4184 56.9393 47.42 56.9437 47.4201 56.9438C47.4201 56.944 47.4188 56.9405 47.417 56.933C47.4151 56.9255 47.4129 56.9145 47.411 56.8998C47.4073 56.8704 47.4051 56.8274 47.4101 56.7709L44.1285 56.4838C44.0346 57.5575 44.3803 58.7387 45.3073 59.4174L47.2532 56.7595ZM47.115 56.6796C47.1576 56.6978 47.2046 56.7239 47.2532 56.7595L45.3073 59.4174C45.4551 59.5256 45.6266 59.626 45.8228 59.7097L47.115 56.6796ZM45.9424 59.7553C46.1626 59.8296 46.3944 59.885 46.6348 59.9203L47.1136 56.6612C47.0619 56.6536 47.0226 56.6432 46.9954 56.6341L45.9424 59.7553ZM47.9314 56.3519C47.2837 56.6707 47.0156 56.6498 47.015 56.6498L46.7333 59.9318C47.5174 59.9991 48.3965 59.7945 49.3862 59.3073L47.9314 56.3519ZM50.1372 57.1037L50.1367 57.1027L47.1808 58.5565L47.1813 58.5575L50.1372 57.1037ZM49.8582 58.9599C49.9449 58.8679 50.0281 58.7663 50.1045 58.6548L47.3875 56.7924C47.414 56.7537 47.4393 56.7237 47.4604 56.7013L49.8582 58.9599ZM50.1045 58.6549C50.3857 58.2446 50.5866 57.6756 50.5437 56.9633C50.5031 56.2885 50.2499 55.5735 49.7939 54.8051L46.9612 56.4864C47.2436 56.9622 47.256 57.1675 47.2556 57.1613C47.2551 57.1535 47.2539 57.1035 47.2761 57.0254C47.2982 56.947 47.3362 56.8673 47.3875 56.7924L50.1045 58.6549Z" fill="white" mask="url(#path-1-outside-1_1051_484)"/>
</g>
<path d="M102.432 57.8292C99.7603 57.8292 97.4179 57.1525 95.4051 55.7991C93.3924 54.4457 91.9348 52.6065 91.0326 50.2814L94.312 48.7198C95.1101 50.4202 96.2206 51.7736 97.6434 52.78C99.101 53.7864 100.697 54.2896 102.432 54.2896C104.098 54.2896 105.504 53.8905 106.649 53.0923C107.794 52.2594 108.367 51.1837 108.367 49.865C108.367 48.8933 108.089 48.1298 107.534 47.5746C106.978 46.9846 106.336 46.5335 105.608 46.2212C104.879 45.9088 104.237 45.6833 103.682 45.5445L99.6736 44.3993C97.1056 43.6705 95.249 42.6468 94.1038 41.3281C92.9586 40.0094 92.386 38.4824 92.386 36.7473C92.386 35.1163 92.8024 33.6935 93.6353 32.4789C94.4681 31.2643 95.596 30.3273 97.0188 29.6679C98.4416 29.0086 100.021 28.6789 101.756 28.6789C104.116 28.6789 106.25 29.3036 108.158 30.5529C110.102 31.7675 111.473 33.4679 112.271 35.6542L108.939 37.2158C108.245 35.6542 107.239 34.4396 105.92 33.572C104.636 32.6697 103.196 32.2186 101.6 32.2186C100.038 32.2186 98.7886 32.6177 97.8517 33.4158C96.9147 34.214 96.4462 35.2204 96.4462 36.435C96.4462 37.372 96.6891 38.1181 97.175 38.6733C97.6608 39.2286 98.216 39.645 98.8407 39.9226C99.5 40.2002 100.073 40.4084 100.558 40.5473L105.191 41.9007C107.447 42.56 109.199 43.5837 110.449 44.9719C111.733 46.36 112.375 47.991 112.375 49.865C112.375 51.3919 111.941 52.7626 111.073 53.9772C110.241 55.1918 109.078 56.1462 107.586 56.8402C106.094 57.4996 104.376 57.8292 102.432 57.8292Z" fill="#936572"/>
<path d="M135.1 57.5113C132.611 58.2697 130.171 58.3598 127.782 57.7815C125.416 57.16 123.329 55.9638 121.52 54.1931C119.711 52.4225 118.397 50.1926 117.578 47.5037C116.758 44.8148 116.6 42.2693 117.102 39.8673C117.593 37.4321 118.62 35.3237 120.181 33.5421C121.776 31.7504 123.785 30.4855 126.208 29.7473C128.133 29.1608 129.954 29.0052 131.671 29.2805C133.41 29.5125 134.998 30.0808 136.434 30.9855C137.861 31.857 139.089 32.9704 140.118 34.3255C141.138 35.6475 141.89 37.1052 142.375 38.6986C142.476 39.0306 142.576 39.4174 142.674 39.8591C142.762 40.2676 142.839 40.6977 142.904 41.1495L120.347 48.0205L119.285 44.5349L139.701 38.316L138.364 40.3559C138.106 38.4391 137.395 36.8782 136.23 35.6732C135.088 34.4249 133.726 33.588 132.146 33.1625C130.555 32.7039 128.93 32.7274 127.27 33.233C125.61 33.7386 124.198 34.6403 123.033 35.9383C121.902 37.2261 121.175 38.7715 120.854 40.5744C120.522 42.3441 120.763 44.266 121.576 46.3401C122.057 48.5152 122.956 50.2731 124.271 51.6138C125.609 52.9111 127.14 53.7689 128.864 54.1871C130.621 54.5952 132.346 54.5414 134.039 54.0256C135.997 53.429 137.499 52.4637 138.544 51.1298C139.588 49.7958 140.313 48.3052 140.719 46.6582L144.421 47.3805C144.254 48.7373 143.78 50.0972 142.998 51.46C142.205 52.7896 141.142 54.0023 139.807 55.0982C138.495 56.1508 136.926 56.9552 135.1 57.5113Z" fill="#936572"/>
<path d="M4.224 57.5103V21.7503H7.584L21.024 41.2383H19.152L32.544 21.7503H35.904V57.5103H32.064V26.9343L33.312 27.4143L20.16 46.4703H19.968L6.864 27.4143L8.064 26.9343V57.5103H4.224Z" fill="#936572"/>
<defs>
<filter id="filter0_dii_1051_484" x="41.6403" y="21.285" width="46.9754" height="44.6596" filterUnits="userSpaceOnUse" color-interpolation-filters="sRGB">
<feFlood flood-opacity="0" result="BackgroundImageFix"/>
<feColorMatrix in="SourceAlpha" type="matrix" values="0 0 0 0 0 0 0 0 0 0 0 0 0 0 0 0 0 0 127 0" result="hardAlpha"/>
<feOffset dx="0.397562" dy="0.416494"/>
<feGaussianBlur stdDeviation="0.286813"/>
<feComposite in2="hardAlpha" operator="out"/>
<feColorMatrix type="matrix" values="0 0 0 0 0 0 0 0 0 0 0 0 0 0 0 0 0 0 0.25 0"/>
<feBlend mode="normal" in2="BackgroundImageFix" result="effect1_dropShadow_1051_484"/>
<feBlend mode="normal" in="SourceGraphic" in2="effect1_dropShadow_1051_484" result="shape"/>
<feColorMatrix in="SourceAlpha" type="matrix" values="0 0 0 0 0 0 0 0 0 0 0 0 0 0 0 0 0 0 127 0" result="hardAlpha"/>
<feOffset dx="-0.0567946" dy="-1.93102"/>
<feGaussianBlur stdDeviation="0.219606"/>
<feComposite in2="hardAlpha" operator="arithmetic" k2="-1" k3="1"/>
<feColorMatrix type="matrix" values="0 0 0 0 0 0 0 0 0 0 0 0 0 0 0 0 0 0 0.25 0"/>
<feBlend mode="normal" in2="shape" result="effect2_innerShadow_1051_484"/>
<feColorMatrix in="SourceAlpha" type="matrix" values="0 0 0 0 0 0 0 0 0 0 0 0 0 0 0 0 0 0 127 0" result="hardAlpha"/>
<feOffset dy="1.70384"/>
<feGaussianBlur stdDeviation="0.460036"/>
<feComposite in2="hardAlpha" operator="arithmetic" k2="-1" k3="1"/>
<feColorMatrix type="matrix" values="0 0 0 0 1 0 0 0 0 1 0 0 0 0 1 0 0 0 0.4 0"/>
<feBlend mode="normal" in2="effect2_innerShadow_1051_484" result="effect3_innerShadow_1051_484"/>
</filter>
<linearGradient id="paint0_linear_1051_484" x1="66.4667" y1="24.7568" x2="63.2193" y2="61.8752" gradientUnits="userSpaceOnUse">
<stop offset="0.515" stop-color="#3888FF"/>
<stop offset="1" stop-color="#003CD5"/>
</linearGradient>
</defs>
</svg>
