<svg width="154" height="73" viewBox="0 0 154 73" fill="none" xmlns="http://www.w3.org/2000/svg">
<path d="M66.1373 55.8009C65.5332 55.1968 64.4398 54.4641 64.2342 53.5731C64.1541 53.2258 64.2478 52.6828 64.5589 52.4997C64.7382 52.3943 64.755 52.2743 65.0054 52.2743C65.1898 52.2743 65.3527 52.4166 65.533 52.4366C66.6971 52.566 67.5175 53.9 68.2299 54.6915C68.2299 54.6915 69.3319 56.1196 69.3483 56.5946C69.3789 57.4829 68.8034 57.3933 68.0855 57.1448C67.2794 56.8658 66.7385 56.402 66.1373 55.8009Z" fill="url(#paint0_linear_1051_478)" stroke="black" stroke-width="1.14013" stroke-linecap="round"/>
<path d="M85.1794 53.0449L85.1679 53.1101L85.1415 53.1709C84.3544 54.9823 82.5309 56.0143 80.3655 56.4612C78.1896 56.9102 75.5622 56.7964 72.9596 56.225C70.3537 55.6528 67.735 54.6137 65.5761 53.1771C63.4742 51.7785 61.769 49.9758 60.9769 47.8227C59.9572 47.0287 59.2869 46.1637 58.9476 45.2638C58.5907 44.3173 58.6145 43.369 58.9352 42.4959C59.5678 40.7738 61.3209 39.4053 63.4472 38.7338C65.5928 38.0561 68.2092 38.0536 70.6931 39.156C72.9313 40.1493 75.0293 42.0252 76.5732 45.0452C76.5935 44.4131 76.5853 43.6153 76.5487 42.7257C76.4393 40.0626 76.0841 36.7568 75.5743 34.9273C75.1367 34.7074 74.5502 34.3662 73.9716 33.9384C73.2895 33.4341 72.5699 32.7744 72.1406 32.0117C72.0107 31.781 71.9068 31.4659 72.0285 31.1386C72.1501 30.8114 72.4305 30.6512 72.6464 30.5732C73.0643 30.4222 73.6545 30.4263 74.2205 30.4746C75.2283 30.5605 76.4803 30.8213 77.4653 31.0693C77.5503 30.9127 77.6624 30.7353 77.8054 30.5383C78.1504 30.0633 78.6882 29.4566 79.4977 28.7328L79.5761 28.6627L79.6746 28.6257C80.049 28.4853 80.4088 28.412 80.7395 28.4484C81.0926 28.4873 81.3916 28.6505 81.5966 28.9282C81.787 29.1861 81.8628 29.497 81.8869 29.7875C81.9114 30.0828 81.8863 30.4048 81.8337 30.7295C81.6457 31.8895 81.0576 33.3582 80.5332 34.4542C82.8441 37.3722 86.6565 44.674 85.1794 53.0449Z" fill="url(#paint1_linear_1051_478)" stroke="black" stroke-width="1.12175"/>
<path d="M78.6481 38.4854C78.4242 37.7644 78.2888 36.672 79.5384 38.0702C79.3687 37.1897 79.2894 35.9242 80.3299 37.9057" stroke="#D5EE3B" stroke-width="0.349396" stroke-linecap="round" stroke-linejoin="round"/>
<path d="M77.9636 50.1632C78.7079 50.2896 79.7435 50.6628 77.9313 51.1451C78.7934 51.3919 79.9579 51.8935 77.7201 51.9254" stroke="#D5EE3B" stroke-width="0.349396" stroke-linecap="round" stroke-linejoin="round"/>
<path d="M74.3074 52.6819C75.0517 52.8083 76.0872 53.1816 74.2751 53.6638C75.1371 53.9106 76.3017 54.4122 74.0638 54.4441" stroke="#D5EE3B" stroke-width="0.349396" stroke-linecap="round" stroke-linejoin="round"/>
<path d="M79.7546 40.0852C79.3223 39.4662 78.5423 38.6895 78.8808 40.5339C78.2892 39.8601 77.3381 39.0216 78.2655 41.0584" stroke="#D5EE3B" stroke-width="0.349396" stroke-linecap="round" stroke-linejoin="round"/>
<path d="M72.4292 50.1257C73.1823 50.1789 74.2767 50.0611 72.63 49.1641C73.5259 49.128 74.776 48.916 72.6092 48.3559" stroke="#D5EE3B" stroke-width="0.349396" stroke-linecap="round" stroke-linejoin="round"/>
<path d="M68.0288 48.4271C68.3351 49.1171 68.9527 50.0283 68.9722 48.1532C69.4244 48.9275 70.1982 49.932 69.6761 47.7556" stroke="#D5EE3B" stroke-width="0.349396" stroke-linecap="round" stroke-linejoin="round"/>
<path d="M72.4761 46.6897C73.2291 46.7429 74.3236 46.6251 72.6768 45.728C73.5728 45.692 74.8229 45.48 72.656 44.9199" stroke="#D5EE3B" stroke-width="0.349396" stroke-linecap="round" stroke-linejoin="round"/>
<path d="M84.1439 51.0258C84.6223 50.4418 85.1583 49.4804 83.4749 50.3065C83.963 49.5543 84.512 48.4114 82.8031 49.8567" stroke="#D5EE3B" stroke-width="0.349396" stroke-linecap="round" stroke-linejoin="round"/>
<path d="M68.7455 52.1651C69.173 52.7873 69.9471 53.57 69.6227 51.723C70.2091 52.4014 71.1538 53.2471 70.242 51.2032" stroke="#D5EE3B" stroke-width="0.349396" stroke-linecap="round" stroke-linejoin="round"/>
<path d="M80.3117 41.6605C80.4617 40.9206 80.8678 39.8975 81.292 41.7241C81.5662 40.8703 82.1046 39.7224 82.0652 41.9601" stroke="#D5EE3B" stroke-width="0.349396" stroke-linecap="round" stroke-linejoin="round"/>
<path d="M78.464 45.7806C78.614 45.0407 79.0201 44.0175 79.4444 45.8441C79.7185 44.9904 80.257 43.8424 80.2176 46.0802" stroke="#D5EE3B" stroke-width="0.349396" stroke-linecap="round" stroke-linejoin="round"/>
<path d="M67.1039 39.7679C66.5746 39.9991 65.9821 40.639 65.9494 41.2426C65.9494 41.7274 66.0724 41.9701 66.4049 42.3655C67.1696 43.2749 68.6543 42.5045 69.3317 41.8559C70.4637 40.7721 68.1567 39.308 67.1039 39.7679Z" fill="white" stroke="#070707" stroke-width="1.14013" stroke-linecap="round"/>
<path d="M66.1821 40.8369C66.4092 40.0041 68.0749 41.0789 67.7515 41.8967C67.6752 42.0896 67.4645 42.4524 67.2193 42.4604C66.9558 42.4691 66.6756 42.2626 66.5609 42.0365C66.3981 41.7155 66.4862 41.094 66.9307 41.0985C67.1864 41.101 67.3554 41.217 67.4764 41.4412C67.5366 41.5529 67.4798 41.6513 67.3636 41.6893C67.0406 41.7949 66.6888 41.2565 66.7999 40.9677C66.8465 40.8464 67.0121 41.0125 67.0524 41.0489C67.2563 41.2326 67.4804 41.4982 67.3726 41.793C67.2309 42.1809 66.9242 41.9096 66.8721 41.6487" stroke="#070707" stroke-width="1.14013" stroke-linecap="round"/>
<path d="M42.7698 53.4647L42.7813 53.5299L42.8077 53.5907C44.3114 57.0513 48.1078 58.2813 51.9882 58.2922C55.8936 58.3032 60.1247 57.0927 62.8582 55.394L62.879 55.3811L62.8986 55.3664C65.0483 53.7545 65.82 52.0753 65.3239 50.4696C64.858 48.9618 63.3328 47.7867 61.5982 46.9661C59.8317 46.1303 57.6988 45.5901 55.7818 45.4353C54.8222 45.3578 53.9002 45.3754 53.0946 45.5088C52.3227 45.6366 51.612 45.8781 51.0841 46.2861C51.062 46.2168 51.04 46.1282 51.0202 46.0178C50.9011 45.3538 50.9144 44.2374 51.0324 42.8944C51.2567 40.3413 51.837 37.1889 52.3731 35.348C52.8109 35.1282 53.3982 34.7866 53.9776 34.3582C54.6597 33.8539 55.3793 33.1942 55.8086 32.4315C55.9385 32.2008 56.0424 31.8857 55.9207 31.5584C55.7991 31.2312 55.5187 31.071 55.3028 30.993C54.885 30.842 54.2947 30.8461 53.7287 30.8944C52.7209 30.9803 51.4689 31.2411 50.4839 31.4891C50.3989 31.3325 50.2868 31.1551 50.1438 30.9581C49.7988 30.4831 49.261 29.8764 48.4515 29.1526L48.3731 29.0825L48.2747 29.0455C47.9002 28.9051 47.5404 28.8318 47.2097 28.8682C46.8567 28.9071 46.5576 29.0703 46.3526 29.348C46.1622 29.6059 46.0864 29.9168 46.0623 30.2073C46.0379 30.5026 46.0629 30.8246 46.1155 31.1493C46.3035 32.3093 46.8916 33.778 47.416 34.874C45.1051 37.792 41.2928 45.0938 42.7698 53.4647Z" fill="url(#paint2_linear_1051_478)"/>
<path d="M42.7698 53.4647L42.7813 53.5299L42.8077 53.5907C44.3114 57.0513 48.1078 58.2813 51.9882 58.2922C55.8936 58.3032 60.1247 57.0927 62.8582 55.394L62.879 55.3811L62.8986 55.3664C65.0483 53.7545 65.82 52.0753 65.3239 50.4696C64.858 48.9618 63.3328 47.7867 61.5982 46.9661C59.8317 46.1303 57.6988 45.5901 55.7818 45.4353C54.8222 45.3578 53.9002 45.3754 53.0946 45.5088C52.3227 45.6366 51.612 45.8781 51.0841 46.2861C51.062 46.2168 51.04 46.1282 51.0202 46.0178C50.9011 45.3538 50.9144 44.2374 51.0324 42.8944C51.2567 40.3413 51.837 37.1889 52.3731 35.348C52.8109 35.1282 53.3982 34.7866 53.9776 34.3582C54.6597 33.8539 55.3793 33.1942 55.8086 32.4315C55.9385 32.2008 56.0424 31.8857 55.9207 31.5584C55.7991 31.2312 55.5187 31.071 55.3028 30.993C54.885 30.842 54.2947 30.8461 53.7287 30.8944C52.7209 30.9803 51.4689 31.2411 50.4839 31.4891C50.3989 31.3325 50.2868 31.1551 50.1438 30.9581C49.7988 30.4831 49.261 29.8764 48.4515 29.1526L48.3731 29.0825L48.2747 29.0455C47.9002 28.9051 47.5404 28.8318 47.2097 28.8682C46.8567 28.9071 46.5576 29.0703 46.3526 29.348C46.1622 29.6059 46.0864 29.9168 46.0623 30.2073C46.0379 30.5026 46.0629 30.8246 46.1155 31.1493C46.3035 32.3093 46.8916 33.778 47.416 34.874C45.1051 37.792 41.2928 45.0938 42.7698 53.4647Z" fill="url(#paint3_linear_1051_478)"/>
<path d="M42.7698 53.4647L42.7813 53.5299L42.8077 53.5907C44.3114 57.0513 48.1078 58.2813 51.9882 58.2922C55.8936 58.3032 60.1247 57.0927 62.8582 55.394L62.879 55.3811L62.8986 55.3664C65.0483 53.7545 65.82 52.0753 65.3239 50.4696C64.858 48.9618 63.3328 47.7867 61.5982 46.9661C59.8317 46.1303 57.6988 45.5901 55.7818 45.4353C54.8222 45.3578 53.9002 45.3754 53.0946 45.5088C52.3227 45.6366 51.612 45.8781 51.0841 46.2861C51.062 46.2168 51.04 46.1282 51.0202 46.0178C50.9011 45.3538 50.9144 44.2374 51.0324 42.8944C51.2567 40.3413 51.837 37.1889 52.3731 35.348C52.8109 35.1282 53.3982 34.7866 53.9776 34.3582C54.6597 33.8539 55.3793 33.1942 55.8086 32.4315C55.9385 32.2008 56.0424 31.8857 55.9207 31.5584C55.7991 31.2312 55.5187 31.071 55.3028 30.993C54.885 30.842 54.2947 30.8461 53.7287 30.8944C52.7209 30.9803 51.4689 31.2411 50.4839 31.4891C50.3989 31.3325 50.2868 31.1551 50.1438 30.9581C49.7988 30.4831 49.261 29.8764 48.4515 29.1526L48.3731 29.0825L48.2747 29.0455C47.9002 28.9051 47.5404 28.8318 47.2097 28.8682C46.8567 28.9071 46.5576 29.0703 46.3526 29.348C46.1622 29.6059 46.0864 29.9168 46.0623 30.2073C46.0379 30.5026 46.0629 30.8246 46.1155 31.1493C46.3035 32.3093 46.8916 33.778 47.416 34.874C45.1051 37.792 41.2928 45.0938 42.7698 53.4647Z" fill="url(#paint4_linear_1051_478)"/>
<path d="M42.7698 53.4647L42.7813 53.5299L42.8077 53.5907C44.3114 57.0513 48.1078 58.2813 51.9882 58.2922C55.8936 58.3032 60.1247 57.0927 62.8582 55.394L62.879 55.3811L62.8986 55.3664C65.0483 53.7545 65.82 52.0753 65.3239 50.4696C64.858 48.9618 63.3328 47.7867 61.5982 46.9661C59.8317 46.1303 57.6988 45.5901 55.7818 45.4353C54.8222 45.3578 53.9002 45.3754 53.0946 45.5088C52.3227 45.6366 51.612 45.8781 51.0841 46.2861C51.062 46.2168 51.04 46.1282 51.0202 46.0178C50.9011 45.3538 50.9144 44.2374 51.0324 42.8944C51.2567 40.3413 51.837 37.1889 52.3731 35.348C52.8109 35.1282 53.3982 34.7866 53.9776 34.3582C54.6597 33.8539 55.3793 33.1942 55.8086 32.4315C55.9385 32.2008 56.0424 31.8857 55.9207 31.5584C55.7991 31.2312 55.5187 31.071 55.3028 30.993C54.885 30.842 54.2947 30.8461 53.7287 30.8944C52.7209 30.9803 51.4689 31.2411 50.4839 31.4891C50.3989 31.3325 50.2868 31.1551 50.1438 30.9581C49.7988 30.4831 49.261 29.8764 48.4515 29.1526L48.3731 29.0825L48.2747 29.0455C47.9002 28.9051 47.5404 28.8318 47.2097 28.8682C46.8567 28.9071 46.5576 29.0703 46.3526 29.348C46.1622 29.6059 46.0864 29.9168 46.0623 30.2073C46.0379 30.5026 46.0629 30.8246 46.1155 31.1493C46.3035 32.3093 46.8916 33.778 47.416 34.874C45.1051 37.792 41.2928 45.0938 42.7698 53.4647Z" stroke="black" stroke-width="1.12175"/>
<path d="M55.0033 47.9987C53.8338 48.5364 53.2016 49.9401 52.8417 51.1012C52.5887 51.9173 52.4489 52.7885 52.5834 53.64C52.6478 54.0482 52.7392 54.3593 52.902 54.7384C53.0919 55.1806 53.3341 55.3573 53.6082 55.7102" stroke="black" stroke-width="1.14013" stroke-linecap="round"/>
<path d="M52.7193 49.3627C51.4053 48.8295 50.0276 49.2036 48.6629 48.9868C47.7634 48.8438 47.0483 48.3588 46.4968 47.6523V47.6523C46.2506 47.3369 45.7508 47.465 45.6839 47.8595C45.6133 48.2759 45.5532 48.7232 45.5689 48.9695C45.6197 49.7635 45.8586 50.5378 46.1004 51.2912C46.3568 52.09 46.6587 52.9399 47.2093 53.59C48.2763 54.8496 49.9147 54.9673 51.4266 54.6317" stroke="black" stroke-width="1.14013" stroke-linecap="round"/>
<path d="M49.2972 38.9052C49.5211 38.1842 49.6565 37.0918 48.4069 38.49C48.5766 37.6095 48.6559 36.344 47.6154 38.3255" stroke="#FF73A5" stroke-width="0.349396" stroke-linecap="round" stroke-linejoin="round"/>
<path d="M49.9817 50.583C49.2374 50.7094 48.2018 51.0826 50.014 51.5649C49.152 51.8117 47.9874 52.3133 50.2253 52.3452" stroke="#FF73A5" stroke-width="0.349396" stroke-linecap="round" stroke-linejoin="round"/>
<path d="M48.1946 40.505C48.6269 39.8861 49.4069 39.1094 49.0685 40.9538C49.66 40.28 50.6112 39.4415 49.6837 41.4783" stroke="#FF73A5" stroke-width="0.349396" stroke-linecap="round" stroke-linejoin="round"/>
<path d="M51.8599 57.2929C51.1068 57.3461 50.0124 57.2283 51.6591 56.3313C50.7632 56.2953 49.513 56.0832 51.6799 55.5231" stroke="#FF73A5" stroke-width="0.349396" stroke-linecap="round" stroke-linejoin="round"/>
<path d="M43.8014 51.4456C43.323 50.8616 42.787 49.9002 44.4705 50.7263C43.9824 49.9741 43.4334 48.8312 45.1422 50.2765" stroke="#FF73A5" stroke-width="0.349396" stroke-linecap="round" stroke-linejoin="round"/>
<path d="M44.8313 44.6359C45.2636 44.017 46.0436 43.2403 45.7052 45.0847C46.2967 44.4108 47.2479 43.5723 46.3204 45.6092" stroke="#FF73A5" stroke-width="0.349396" stroke-linecap="round" stroke-linejoin="round"/>
<path d="M47.6336 42.0803C47.4836 41.3404 47.0775 40.3173 46.6533 42.1439C46.3791 41.2901 45.8407 40.1422 45.8801 42.3799" stroke="#FF73A5" stroke-width="0.349396" stroke-linecap="round" stroke-linejoin="round"/>
<path d="M49.4852 46.2004C49.3352 45.4605 48.9291 44.4373 48.5049 46.2639C48.2307 45.4102 47.6922 44.2622 47.7316 46.5" stroke="#FF73A5" stroke-width="0.349396" stroke-linecap="round" stroke-linejoin="round"/>
<path d="M60.5679 48.7075C61.0972 48.9387 61.6898 49.5786 61.7224 50.1821C61.7224 50.667 61.5994 50.9097 61.267 51.3051C60.5022 52.2145 59.0175 51.444 58.3401 50.7955C57.2082 49.7117 59.5152 48.2475 60.5679 48.7075Z" fill="white" stroke="#070707" stroke-width="1.14013" stroke-linecap="round"/>
<path d="M61.4976 49.6865C61.2705 48.8536 59.6048 49.9285 59.9282 50.7463C60.0045 50.9392 60.2152 51.302 60.4604 51.31C60.7239 51.3186 61.0041 51.1122 61.1188 50.8861C61.2816 50.5651 61.1934 49.9436 60.749 49.9481C60.4933 49.9506 60.3243 50.0666 60.2033 50.2908C60.1431 50.4025 60.1998 50.5008 60.3161 50.5388C60.6391 50.6445 60.9908 50.106 60.8798 49.8173C60.8331 49.696 60.6676 49.8621 60.6272 49.8985C60.4234 50.0822 60.1993 50.3477 60.3071 50.6426C60.4488 51.0305 60.7554 50.7592 60.8076 50.4983" stroke="#070707" stroke-width="1.14013" stroke-linecap="round"/>
<path d="M60.1606 53.5145C60.6873 53.5666 60.945 53.7501 61.141 54.1199C61.4473 54.219 61.2245 54.5617 61.0835 54.7065C60.5469 55.2574 59.3954 55.6101 58.5643 55.6882C57.0985 55.826 55.1442 55.0358 54.4818 53.978C54.0481 53.2856 53.9725 52.3578 54.6947 51.7662C55.305 51.2662 56.1905 51.7282 56.6462 52.1775C57.1439 52.6684 57.3043 53.3559 58.1044 53.6148C58.7947 53.8382 59.4467 53.4438 60.1606 53.5145Z" fill="white" stroke="black" stroke-width="1.14013" stroke-linecap="round"/>
<path d="M56.9664 52.8811C56.3699 53.4087 55.5699 53.8543 54.8518 54.2716" stroke="black" stroke-width="1.14013" stroke-linecap="round"/>
<path d="M57.8906 53.8097C57.6008 54.3739 57.4338 54.9717 57.1458 55.5324" stroke="black" stroke-width="1.14013" stroke-linecap="round"/>
<path d="M59.0547 54.0005C59.1156 54.5056 59.2876 55.0214 59.2988 55.5246" stroke="black" stroke-width="1.14013" stroke-linecap="round"/>
<path d="M61.5312 43.7823C61.5763 44.0224 61.7241 44.2468 61.865 44.4407C62.0907 44.7513 62.4763 45.3321 62.909 45.3494C63.2702 45.3639 63.48 44.9201 63.6148 44.6572C63.8534 44.1915 64.1571 43.6621 64.21 43.1329" stroke="black" stroke-width="1.14013" stroke-linecap="round"/>
<path d="M60.43 42.17C60.3581 41.8909 60.0868 41.329 59.7297 41.329C59.4871 41.5587 58.4859 42.5417 58.7347 43.8138C58.7347 43.8138 59.3482 43.8538 59.5146 43.8138C59.8004 43.7452 60.0575 43.442 60.2136 43.214C60.4388 42.885 60.5323 42.5667 60.43 42.17Z" fill="white" stroke="black" stroke-width="1.14013" stroke-linecap="round"/>
<path d="M59.971 42.93C59.9373 42.7781 59.5334 43.2459 59.5088 43.2863C59.506 43.2909 59.4133 43.4537 59.4682 43.4171C59.5767 43.3447 59.6767 43.2434 59.7726 43.1555C59.8788 43.058 59.7231 43.0922 59.6531 43.1014C59.504 43.1209 59.3412 43.1624 59.2111 43.2412C59.1078 43.3037 59.4388 43.1603 59.5516 43.1172C59.5923 43.1016 59.667 43.0915 59.6869 43.0518" stroke="black" stroke-width="1.14013" stroke-linecap="round"/>
<path d="M73.8301 43.4981C73.9191 44.1656 74.196 44.7546 74.1999 45.4464C74.2066 46.6275 73.9535 47.9771 73.1131 48.8602C72.1665 49.8549 70.5786 50.4792 69.2031 50.4792" stroke="black" stroke-width="1.14013" stroke-linecap="round"/>
<path d="M72.3711 50.0733C72.5216 50.0901 72.6328 50.2554 72.7409 50.3439C73.5055 50.9695 74.4314 51.3947 75.3205 51.8096C76.1735 52.2076 77.0372 52.5334 77.9722 52.68C78.4782 52.7593 79.3057 52.8907 79.8032 52.6709C80.463 52.3794 79.8248 51.3942 79.5822 51.088C78.4846 49.703 76.7668 48.5762 75.1311 47.9628" stroke="black" stroke-width="1.14013" stroke-linecap="round"/>
<path d="M102.432 57.319C99.7603 57.319 97.4179 56.6423 95.4051 55.2889C93.3924 53.9355 91.9348 52.0962 91.0326 49.7711L94.312 48.2095C95.1101 49.9099 96.2206 51.2634 97.6434 52.2697C99.101 53.2761 100.697 53.7793 102.432 53.7793C104.098 53.7793 105.504 53.3802 106.649 52.5821C107.794 51.7492 108.367 50.6734 108.367 49.3547C108.367 48.383 108.089 47.6196 107.534 47.0643C106.978 46.4744 106.336 46.0232 105.608 45.7109C104.879 45.3986 104.237 45.173 103.682 45.0342L99.6736 43.889C97.1056 43.1603 95.249 42.1365 94.1038 40.8178C92.9586 39.4991 92.386 37.9722 92.386 36.237C92.386 34.606 92.8024 33.1832 93.6353 31.9686C94.4681 30.754 95.596 29.817 97.0188 29.1577C98.4416 28.4983 100.021 28.1687 101.756 28.1687C104.116 28.1687 106.25 28.7933 108.158 30.0426C110.102 31.2572 111.473 32.9576 112.271 35.1439L108.939 36.7055C108.245 35.1439 107.239 33.9293 105.92 33.0617C104.636 32.1595 103.196 31.7083 101.6 31.7083C100.038 31.7083 98.7886 32.1074 97.8517 32.9056C96.9147 33.7037 96.4462 34.7101 96.4462 35.9247C96.4462 36.8617 96.6891 37.6078 97.175 38.1631C97.6608 38.7183 98.216 39.1347 98.8407 39.4124C99.5 39.69 100.073 39.8982 100.558 40.037L105.191 41.3904C107.447 42.0498 109.199 43.0735 110.449 44.4616C111.733 45.8497 112.375 47.4807 112.375 49.3547C112.375 50.8816 111.941 52.2524 111.073 53.467C110.241 54.6816 109.078 55.6359 107.586 56.33C106.094 56.9893 104.376 57.319 102.432 57.319Z" fill="#936572"/>
<path d="M135.096 57.0011C132.607 57.7595 130.167 57.8495 127.778 57.2713C125.412 56.6497 123.325 55.4536 121.516 53.6829C119.707 51.9122 118.393 49.6824 117.574 46.9934C116.755 44.3045 116.596 41.759 117.098 39.357C117.589 36.9218 118.616 34.8134 120.177 33.0318C121.772 31.2401 123.781 29.9752 126.204 29.237C128.13 28.6505 129.95 28.495 131.667 28.7702C133.406 29.0022 134.994 29.5706 136.43 30.4753C137.857 31.3468 139.085 32.4601 140.114 33.8153C141.134 35.1372 141.886 36.5949 142.371 38.1884C142.472 38.5203 142.572 38.9072 142.67 39.3488C142.759 39.7573 142.835 40.1874 142.9 40.6392L120.343 47.5103L119.281 44.0246L139.697 37.8058L138.36 39.8457C138.102 37.9288 137.391 36.3679 136.226 35.1629C135.084 33.9146 133.722 33.0777 132.142 32.6523C130.551 32.1936 128.926 32.2171 127.266 32.7227C125.606 33.2283 124.194 34.1301 123.029 35.428C121.898 36.7158 121.171 38.2612 120.85 40.0641C120.518 41.8339 120.759 43.7558 121.572 45.8298C122.054 48.005 122.952 49.7629 124.267 51.1035C125.605 52.4009 127.136 53.2586 128.86 53.6768C130.617 54.0849 132.342 54.0311 134.035 53.5154C135.993 52.9188 137.495 51.9535 138.54 50.6195C139.585 49.2855 140.309 47.795 140.715 46.1479L144.417 46.8702C144.25 48.2271 143.776 49.5869 142.994 50.9497C142.201 52.2793 141.138 53.4921 139.803 54.588C138.491 55.6405 136.922 56.4449 135.096 57.0011Z" fill="#936572"/>
<path d="M4.224 57V21.24H7.584L21.024 40.728H19.152L32.544 21.24H35.904V57H32.064V26.424L33.312 26.904L20.16 45.96H19.968L6.864 26.904L8.064 26.424V57H4.224Z" fill="#936572"/>
<defs>
<linearGradient id="paint0_linear_1051_478" x1="65.5519" y1="48.9782" x2="66.0882" y2="57.1026" gradientUnits="userSpaceOnUse">
<stop stop-color="#FFB763"/>
<stop offset="0.67" stop-color="#A0E548"/>
</linearGradient>
<linearGradient id="paint1_linear_1051_478" x1="75.5472" y1="36.3926" x2="75.5472" y2="55.0339" gradientUnits="userSpaceOnUse">
<stop offset="0.33" stop-color="#FFB763"/>
<stop offset="0.85" stop-color="#A0E548"/>
</linearGradient>
<linearGradient id="paint2_linear_1051_478" x1="53.9531" y1="37.4592" x2="53.9531" y2="57.7314" gradientUnits="userSpaceOnUse">
<stop offset="0.38" stop-color="#A8BFEC"/>
<stop offset="1" stop-color="#DC35AD"/>
</linearGradient>
<linearGradient id="paint3_linear_1051_478" x1="52.402" y1="36.8124" x2="52.402" y2="55.4537" gradientUnits="userSpaceOnUse">
<stop offset="0.33" stop-color="#FFB763"/>
<stop offset="0.85" stop-color="#A0E548"/>
</linearGradient>
<linearGradient id="paint4_linear_1051_478" x1="54.5099" y1="36.7812" x2="54.5099" y2="55.3439" gradientUnits="userSpaceOnUse">
<stop offset="0.22" stop-color="#4890E5"/>
<stop offset="0.76" stop-color="#FF4158"/>
</linearGradient>
</defs>
</svg>
